<?xml version="1.0" encoding="UTF-8"?>
<svg id="Layer_2" data-name="Layer 2" xmlns="http://www.w3.org/2000/svg" viewBox="0 0 114.31 135.88">
  <defs>
    <style>
      .cls-1 {
        fill: #f58676;
      }
    </style>
  </defs>
  <g id="Layer_1-2" data-name="Layer 1">
    <path class="cls-1" d="M40.51.41c.3-.05.4,0,.44.06-.14.01-.3.03-.52.05,0,0-.02.02-.03.04.03-.05.06-.1.11-.14M44.54,2.25c-.23,0-.51,0-.82.01-.07-.1,0-.2.19-.2-.1.07.34.11.63.18M42.66,2.31h0c-.19.02-.36.03-.46.04.1,0,.23-.02.46-.04M20.23,3.31c.96,0,.45-.36.65-.57,1.15-.11.53.27.92.46.71-.1,1.26-.44,1.8-.42.04.06.14.08.02.16.76-.29,2.24-.02,3.12-.38.06.03.1.06.11.09-.14-.19-.16-.37-.13-.51.43,0,.8-.23.96,0-.26,0-.29.09-.41.17l.45-.1c.41.35-.61.12-.61.38.88-.11,1.9-.4,2.58-.3.14.34-1.58.11-.68.42l-1.04-.13c.8.54-.63-.04.1.54,1.37.1,1.53-.17,2.9-.07.31-.19-.1-.28.21-.47,1.94-.34,1.53.85,2.96.4.37-.22.51-.65,1.54-.44l-.35.39c1.34.02.76-.56,2.16-.32-.25.15-1.05.14-.85.18.91.29.64-.22,1.33-.23l.15.34c1.42-.09,2.97-.37,4.54-.48-.08.1-.35.22.02.31,1.97-.23,4.21-.08,6.12.07l.72-.31c.17,0,.31.13.13.19.74.1.03-.19.39-.31.42-.03.56.16.29.25,1.3-.29,3.71-.57,5.08-.25l-.27.09c1.06.11,1.21-.58,2.2-.28l-.19.05c1.15.1,2.37.09,3.51.19,1.14.08,2.22.18,3.06.52.38-.38,2.23.45,2.46-.12,1.25.51.87.55,2.64,1.05.48.1.79-.24,1.39-.15l-.05.3.87-.12.34.46.57.06c-.21-.07-.43-.25-.38-.33.45.04.97.2,1.36.42.39.22.66.44.64.52l2.07.39c-.09.1-.43.04-.72.03,1.16.05.09.35,1.14.43-.1-.12.13-.14.18-.19.4.37,1.46.82,2.28,1.08l-.24.13c.71.29,1.4.71,2.16,1.05.75.36,1.53.71,2.23,1.23-.46-.43-.15-.66.3-.41v.39c.38.01-.38-.4.31-.23.52.4.15.55-.21.43l.71.34c-.02.11-.2.05-.31.12.37.03.95.98,1.49,1.02l-.03.11c1.32,1.12,1.98,1.45,3.08,2.45.21-.19.59.25,1.07.36.75.78,1.51,1.73,2.51,2.55.79.48.36-.01.78.13-.11.24.89,1.05.26.76,1.22.96,1.55,1.23,3.19,2.32-.1-.21-.25-.4-.1-.39.3.19.55.6.43.66l-.09-.04c1.94,1.12,3.33,3.83,4.94,4.61l-.09-.05c.5.33.99.68,1.48,1.03.56.6-.49-.2-.16.33,1.66,1.05,2.07,2.21,3.3,3.2.26,1.48,3.03,3.28,3.61,4.85l.08-.18c.4.22.22.46.37.73.09-.12-.14-.45.09-.31,1.14,1.33,2.01,2.95,2.21,4.55.18,1.73.05,3.53-.27,5.21-.14.61.05.83.19,1.09.15.26.22.57-.22,1.3l-.19-.53c-.3,2.63-1.92,4.98-3.14,7.29.03-.17-.04-.23.09-.44-.51.32-1.19,1.66-1.06,1.78-.28.31-.2-.03-.44.1-.45.35-.64,1.29-1.02,1.36-.06.01.04-.17.1-.26-.15.35-1.14,1.26-.7,1.18-.78.64-1.21,1.48-1.91,1.92-.14.6-1.34,1.08-1.16,1.52-.25-.37-1.55.92-1.89,1.49.07-.24-.52.25-.45-.05-.55.48-1,.97-.76,1.07-1.38.44-1.82,2.06-2.86,1.99-1.56,1.54-3.07,2.9-4.58,4.17-.21-.4,1.71-1.35,1.35-1.68-1.37,1.28-2,2.24-3.55,3.28-.42.24.1-.32.18-.48-1.38,1.28-2.91,2.17-4.07,3.4-.02-.04.09-.18.2-.32-.25.21-.64.42-.49.56l.22-.24c.6-.09-.64,1.3-.58,1.46.06-.81-1.37.93-1.15-.21-.14.17-.29.42-.17.49-.27.17-.41.18-.25-.15-.85.84-.38.74-1.2,1.43-.06-.08.08-.25.09-.41-.29.49-.57,1.01-1.32,1.54,0-.08-.13-.07.08-.25-1.12,1.02-1.65,2.07-3.13,2.91.15-.64-.54.22-.83-.03l-.67.61.4-.06c-.65.45-1.08,1.07-1.71,1.36l.4-.46-1.19.91.78-.37c-.56.62.34.34-.59.86.15-.16-.66.45-1.13.52h0c-.26.32-.51.67-1.04.94-.2,0-.15-.41-.27-.41-.13.48-1.46,1.22-1.63,1.8.08-.17-.04-.32-.11-.32l-.09.41c-.34.18-.41.19-.46.03-.89.71.57.11-.56.86.06-.08,0-.08.14-.26-1.08.83-1.77,1.92-2.65,2.8-.53.04.64-.89.12-.78-1.16,1.42-1.92,3.23-2.89,4.64l.2-.25c.33.48-.89.96-1.1,1.84.07-.2-.12-.39-.1-.31-.66.98-1.05,2.16-1.73,3.8l-.02-.26c-.43.56-.9,1.55-1.32,2.15,0,.26-.23.61.07.49-1.82,1.54-1.97,3.89-3.55,5.33.12-.21.19-.57.1-.4-.26.52-.51,1.06-.75,1.6.27-.01.23-.14.56-.38.02.26-.13.74-.32,1.12.21-.77-.33-.16-.6.09.09-.02.11.12.19.12-.75.66.34.32-.4,1.36l-.09-.11c-.12.46-.11.92-.25,1.4-.31.14,0-.51-.19-.61-.2.72.17,1.48-.17,2.07-.04-.31.02-.73.01-1.05-.44.64-.36.75-.47,1.26v-.05s-.24,1.18-.24,1.18l.11-.29c.61.94,0,1.76.21,2.97-.21-1.19-.21-.23-.49-.38-.13.27-.33.65-.38.51.11.54-.43.79-.32,1.64-.1,0-.19.57-.38.38-.14.72.21-.12.31-.02,0,1.16-1.16,2.42-1.08,4.13-.12,1.42.16,1.73.15,3.02-.21.41-.31-.4-.31-.4-.23.68-.27,1.23-.17,1.91-.08-.14-.16,0-.27.21.04.55.36.36.25,1.07-.12-.11-.29-.26-.42-.52.11.64.34,1.25.48,1.88-.16.18-.29-.37-.41-.59.14.73.28,1.84.55,2.05l.08-.46c.02.26-.23.14-.28-.05-.24-.6.04-.89.13-.93l.09.45c.55-.51-.24-1.82-.22-2.78l.42.38c-.12-.31-.24-.63-.35-.95.12-.21.35-.32.4.13.23-.64-.12-.59.16-1.13.04-.06.06-.03.07.03l-.05-.65c.07.14.3-.07.2.32.38-1.09-.01-1.88.38-2.24v.1c.22-1.59-.27-.21-.34-1.48l.93-.6-.25-.23c.06-.16.16-.47.26-.38-.03-.65-.16.07-.25-.33.48-.69.51-2.15,1.03-2.18-.14-.34-.4.68-.3-.19.57-.08.23-.96.62-1.62.22.28-.11.95.32.27-.32-.54.38-1.44.35-2.09-.35-.07-.04-1.37-.04-2.39.06.04.16-.43.33-1,.17-.58.43-1.2.68-1.6l.05.05c-.28-.31.18-1.17.45-1.84.18.13.2.28.12.67l.3-.59c-.03-.19,0-.41.18-.81l.16.28c.41-.78.62-1.72,1.38-2.61-.18-.19-1.09.41-.59-.73.14.04.37.12.24.42.04-.1.1-.38.26-.53l-.06.54c.37-.4-.02-.34.23-.69.16.11.29-.19.39-.06-.04.1-.27.27-.29.45.28-.38.69-.81.92-.89-.12-.02-.23-.14-.06-.45.47-.78.37-.14.73-.54,0-.26.42-.69.18-.85.14-.23.28-.2.4-.25.14-.47,1.06-1.96.52-1.64l-.08.1s.02-.05.02-.07h0s0,0,0,0c.46-1.5,1.63-2.75,2.26-4.12l.09.05c.34-.85.95-1.77,1.11-2.43.14-.23.49-.43.53-.27.32-.61.26-.75.97-1.46-.26.66.26-.11-.3.65.58-.68.82-.74,1.19-1.65,0,.4.66-.32.88-.67l-.54.35c.27-.38.56-.68.87-.96l.09.39c1.46-1,1.84-2.76,3.36-3.1.23-.48-.87.48-.71,0,.68-.5,1.67-.64,1.88-.79,1.03-.52.58-1.03,1.64-1.62-.19,0-.5-.18.19-.79.72-.45,1.14-.18.75.2-.16.12-.26.15-.28.11-.2.19-.47.44-.12.35l.02-.16c.41-.14,1.37-.82,1.26-.5.46-.46.12-.32-.31-.1,1-.48,1.41-.97,2.4-1.54-.18.05-.4.04-.26-.07,1.43-.87.46-.61,1.33-1.33.62-.25.09.49.89-.34.62-.34.32.15.16.4.68-.83,1.62-1.17,2.07-1.5l-.34.42c.2-.25.4-.42.6-.6l-.39.02c.26-.17.46-.35.52-.27.14-.33-.45-.14-.1-.72.4-.18.89-.92,1.21-.77-1.07.77.31.15-.5.9.14-.17.34-.33.61-.5.06,0,0,.08-.05.15,1.15-.58.22-.64,1.23-1.46-.02.24.45.07.59-.09-.41.33-.38-.07-.09-.48.74-.42.65-.65,1.01-.91l-.44.26c.02-.24.37-.49.8-.89.12.08-.36.4-.16.32.32-.65,1.36-.65,1.95-1.37.41-.16.24.24.58.08.67-.8,1.02-.48,1.76-1.27-.39,0-.4.08.06-.57l-1.3,1.2.69-.96c-.43.32-.8.8-1.08.96.31-.48.3-.4-.02-.4.8-.16,1.02-1.04,1.84-1.36l.34.49c1.17-.56,1.61-1.6,3.01-2.48l-.48.24c.03-.32.79-.64,1.15-1.05.08.19.39.04.65,0-.11-.1.96-.73.83-1.14l.74-.25c1.11-.76.84-1.39,1.86-2.16-.16.41.38.15-.19.81.33-.27.65-.49.57-.6.28-.06.74-.98,1.16-1.09.08-.18,0-.38.36-.69.07,0,.06.07.06.07-.06-.07.48-.6.02-.48,1.42-.41,2.67-2.54,3.84-3.01.6-.73,1.32-1.61,1.86-2.28,0,.08.07.07-.05.17.9-.79.02-.92,1.02-1.83.67-.35-.3.67.06.4.64.26.91-1.36,1.72-1.9l-.09.21c.57-.48.73-1.57,1.3-2.55,0,0,.02.08.08.05.06-.42.2-.98.38-1.56.2-.57.38-1.19.52-1.71.12.4-.05.51.26.41.14-.47-.44-.02-.16-.95.24-.25.54-.9.83-.91l-.24.91c.47-.36.33-1.18.52-1.63l.13.1c.22-1.45-.09-1.52.06-3.04l-.13.15c-.31-.85.3-.69,0-1.53l.39-.26c-.06-.57-.49-1.92-.71-2.88.38.5.68,1.65.87,2.38.01-.56-.22-1.9-.43-2.15.06.22.19.48.15.71-.36-.63-.66-1.51-1.05-2.52.4-.04.18-.76-.2-1.53-.37-.78-.92-1.57-.91-2.08-1.36-1.42-2.33-3.08-3.81-4.67.06.97-.43-.46-.8.04-.36-.36-.48-.51-.48-.57l-.76-1.42c-.12-.4.43.28.5.15-.73-.88-.13-.53-.52-1.2-.06.27-.49-.08-.89-.6l.43.86c-1.33-.92-.58-1.36-1.95-2.25l.5.21c-.66-.5-2.2-2.1-3.13-2.25-.06-.15-.09-.4.21-.19-1.41-1.36-3.61-2.43-4.57-3.63l.21-.02c-.31-.2-.66-.19-.91-.59.06-.03.21-.02.09-.13-.18-.08-.9-.41-1.21-.78l.42.13c-1.32-1.35-2.47-1.53-3.73-2.47.29-.33-.72-1.4-1.22-1.94l.06-.03c-.39-.37-.76-.69-1.15-.99-.41-.3-.81-.56-1.21-.82-.4-.25-.8-.5-1.21-.75-.4-.26-.81-.53-1.28-.77-.4-.55-1.29-1.21-2.27-1.9-1.04-.6-2.19-1.2-3.05-1.82.25.23-.19.27-.55.18-.41-.27-1.36-.24-1.13-.58l.16.07c-.18-.5-1.16-.81-1.88-1.11l-.31.46c-.84-.67-2.14-1.04-3.33-1.3-1.21-.21-2.29-.38-2.76-.84-.5,0-1.11-.07-1.61-.04l.08-.27c-1.33-.29-1.99-.49-3.67-.6l.37-.16c-.94-.13-1.28.68-2.14.59l-.22-.45c-1.63-.1-3.28-.64-4.91-.28.03-.06.08-.18.35-.19-.77-.04-2.98-.38-2.71.21-.01-.38-1.68-.04-2.56.12l.14-.28c-.74.36-.77.44-1.8.56-.24-.03-.22-.22.11-.15-.82-.13-.63.27-1.62.14l.37-.18c-.84,0-.77.09-1.23.3-.53.12-1.59-.03-1.72-.28-.11.16-.56.38-1.06.32-.07-.09.11-.16.2-.19-1.41-.15-2.07.38-3.05.14-.02-.09-.09-.14-.17-.16,1.11-.03,2.01-.04,1.93-.02,0-.26-.91-.28-.2-.65-.71.21-1.93.67-2.81.58-.04-.02-.08-.05-.12-.08l.09-.03c-.2-.02-.38.01-.55.06-.28-.03-.46-.06-.73-.06-.11-.21-1.03-.09-1.48-.09.04.28-.54.25.01.47-.07-.02.08-.04.38-.06.07,0,.15-.01.19-.03l-.03.02c.29-.01.68-.03,1.11-.05-.35.15-.71.28-1.21.14-.22.19-.47.38-.61.47-.62-.37-1.8-.56-1.97-.81-1.36.17-3.2.14-4.07.66-.39.07-.45-.15-.59-.23.23-.05.49-.05.61-.12-.78.13-2.3.05-2.49.42-.98-.17.55-.34-.8-.28l.18-.11c-2.65-.59-4.31.94-7.25.18.2.05.3.07.35.13-3.35-.33-6.9.31-10.21-.22-.94-.11-1.04.13-1.61.31l-.2-.3-.98.35c-1.39.26-2.41-.74-4.17-.26l.23.2c-.63-.04-2,.12-1.9-.11-.06.04-.21.21-.45.11l-.02-.16-1.55.27c-1.2-.11.19-.63-1.57-.66-.27.03-.65.11-.97.21v1.57c.45-.14.79-.29.65-.36-.23,0-.56-.07-.65-.19v-.47s.04.04.05.06h-.05v.33l.55-.08c.1-.42.49-.85-.55-1.17v2.17c.09.03.21.06.35.09l1.02-.28.33.23h-.86c.49.23.8.04,1.14-.09.08.12.23.2.43.25l1-.45c.12.18-.45.36.22.46.47-.21-.45-.41.33-.54.49.21.35.39.92.2.08.12-.04.2-.27.25.51-.14,1.35-.06,1.61-.31.51.26,1.72-.07,1.67.37.16-.11.9-.35,1.37-.36-.86.53,1.76.03,1.53.6.63-.47,2.29-.21,3.41-.47-.06.04-.19.11-.29.09.63.04.82.18,1.22.27.08-.39,1.07-.48,1.6-.72.77.38-.47.46-.23.82-.04-.32,1.35-.32,1.08-.58.59.23.51.11.82.44.1-.49.55-.08,1.04-.38.86.24.22.46,1.16.31.45.15-.39.32-.39.32"/>
    <path class="cls-1" d="M41.32,119.72c.07.02.04.07,0,.11-.02-.02-.05-.04-.09-.06l-.03.02s.09-.06.12-.07M40.35,121.59s-.06-.09-.1-.14c.07-.07.15-.13.17-.09-.06.03-.05.13-.07.23M40.1,121.3h0s-.06-.05-.07-.06c.02.01.04.03.08.06M36.55,118.04c.11.18.36-.11.56-.19.22.15-.17.24-.28.42.17.08.52-.01.57.09-.04.04-.05.07-.13.09.33-.03.29.38.7.32-.02.03-.04.05-.06.07.13-.13.28-.25.39-.32.06.07.29,0,.11.17-.03-.05-.11,0-.18.03h.14c-.23.29-.17-.02-.38.13.2.08.56.08.56.25-.25.23-.29-.19-.42.14l-.03-.25c-.33.46-.05-.13-.42.34.1.29.34.15.43.44.19-.06.21-.19.4-.25.51.11-.47.78.07.74.22-.08.58-.33.53-.02l-.34.19c.15.24.53-.22.51.16-.15.06-.24-.09-.24-.02-.12.34.25-.04.34.07l-.24.24c.23.19.62.28.88.49-.09.05-.21.08-.24.2.39.2.52.68.62,1.11l.32-.08s-.06.13-.13.14c0,.19.15-.11.28-.13.07.05-.06.19-.16.21.36.04.89.24.81.64h-.1c.03.25.62-.17.51.15h-.06c.16.43.67.71.48,1.24.39-.17.08.48.6.2-.11.38-.24.37-.23.78.03.1.39-.06.51.02l-.27.15h.36s-.28.24-.28.24l.12.06s.07-.15.15-.19c.21.09.03.49-.11.57l.43.25c-.11.05-.18,0-.28,0,.38.05-.27.19.09.24.05-.06.17-.07.23-.1-.12.18,0,.39.15.51l-.2.07c.1.31.4.55.57.88.03-.16.37-.3.45-.23l-.27.19c.21-.03.06-.15.34-.14.03.14-.29.25-.42.23l.18.1c-.08.05-.14.04-.26.09.21-.03-.16.4.2.33l-.08.05c.17.33.34.42.5.68.25-.13.25,0,.49-.02.03.24-.06.56.1.79.21.1.23-.07.42-.07-.22.14-.07.36-.29.33.19.26.25.34.63.59.07-.09.08-.16.17-.18.07.04,0,.2-.12.25h-.03c.55.19-.08,1.31.58,1.34h-.03s.45.16.45.16c.06.17-.22.02-.27.22.58.1.35.58.78.7-.22.35-.06.51.16.7.31.32.65.54.74,1.01l.06-.19c.19-.05.08.24.15.37.05-.15-.05-.29.06-.31.41.67,1.05.18,1.71.11.8-.17,1.11-.16,1.54-.25.29-.08-.23-.91.29-.68l.04.34c.38-.6,1.1-.52,1.46-1.08,0,.08.05.17,0,.2.22.15.4-.2.31-.38.09-.02.1.15.2.21.17.07.12-.41.29-.24.03.03,0,.08,0,.11.01-.14.34-.15.14-.36.25,0,.29-.31.52-.25-.06-.32.39-.05.2-.45.21.4.5.13.51-.12.03.14.17.06.22.25.13-.08.21-.23.07-.41.52.32.26-.66.75-.15.26-.44.53-.8.82-1.1.22.39-.36.27-.1.67.23-.36.22-.8.6-.91.12,0,.05.2.07.28.23-.36.65-.35.81-.73.02.04.01.09,0,.14.05-.05.17-.02.05-.2l-.03.08c-.24-.2-.09-.67-.16-.81.2.56.36-.04.59.68.02-.05.01-.17-.06-.28.08,0,.14.06.16.23.15-.22-.04-.36.15-.47.05.09.03.14.07.25,0-.22,0-.44.19-.46.02.06.08.11.03.14.25-.18.2-.72.6-.72.12.42.17.07.37.38l.1-.19-.15-.12c.14-.07.14-.38.32-.34l-.03.19.23-.2-.22-.05c.05-.25-.24-.41,0-.42-.02.05.15-.07.32.08h0c.01-.14.03-.29.18-.27.08.09.17.38.22.44-.07-.32.29-.24.24-.59,0,.08.09.26.12.29l-.05-.26c.1.04.13.07.19.22.22-.06-.27-.39.06-.33,0,.03.02.06,0,.11.28-.02.39-.37.67-.35.22.31-.15.17.05.42.28-.2.48-.71.83-.75l-.07-.02c-.15-.51.33.15.4-.14-.03.05.05.29.04.23.24,0,.4-.28.68-.56v.14c.17.07.37-.05.53-.04,0-.14.09-.15-.02-.32.68.59.71-.67,1.31-.19-.05.02-.07.15-.04.14l.3-.23c-.1-.21-.09-.12-.21-.27,0-.14.06-.28.14-.3-.1.19.12.35.22.45-.03-.06-.04-.15-.06-.21.3.33-.12-.45.21-.27l.03.12c.07-.09.1-.27.21-.27.13.24-.06.15,0,.36.13-.06.1-.57.31-.36-.03.09-.11.12-.15.21.24.25.23.17.34.18h-.01s.28.05.28.05l-.09-.06c-.06-.72.31-.24.38-.75-.07.49.05.25.14.54.09.06.21.11.21.2.02-.27.25.11.28-.28.04.09.12-.04.18.2.12-.13-.1-.14-.13-.26.09-.4.67.17.8-.39.19-.29.1-.61.27-.87.15.1.09.35.09.35.19.06.28,0,.36-.17.01.09.07.14.16.21.09-.08-.1-.35.1-.29.03.11.08.27.09.4.08-.14.11-.37.18-.51.12.13.06.26.07.38.1-.14.28-.35.17-.6l-.13-.03s.15.18.14.24c0,.25-.21.02-.27-.06l.05-.1c-.37-.43-.29.26-.48.34l-.12-.41v.4c-.1-.08-.23-.27-.17-.37-.21-.12-.04.18-.25.03-.03-.03-.03-.05-.03-.07l-.06.17c-.01-.09-.15-.26-.05-.24-.31-.12-.21.44-.42.19v-.03c-.23.26.1.29.02.72l-.44-.63.09.29s-.11,0-.14-.11c-.04.24.07.11.08.33-.25-.2-.37.29-.58-.15.03.24.21.11.1.32-.23-.47-.16.15-.38-.02-.05-.27.13-.18-.09-.36.07.46-.3,0-.39.13.12.34-.21.23-.36.42-.03-.12-.44-.06-.67-.12v-.06c.07.36-.15.36-.26.48-.06-.21-.07-.3-.02-.42l-.13.04c0,.12-.02.19-.09.26l-.05-.27c-.17.07-.25.42-.54.32.07.25.4.62.21.86-.05-.13-.13-.35-.09-.42-.02.02-.04.13-.1.09l.02-.25c-.13-.06,0,.2-.08.21-.06-.19-.1-.11-.14-.27.02-.03.1.05.1-.03-.1,0-.25-.08-.34-.21.04.1.08.25.02.3-.17.07-.13-.21-.27-.27,0,.14-.16.05-.07.33-.05.01-.11-.11-.15-.18-.05.15-.42.18-.21.44h.03s-.01.03-.01.03h0s0,0,0,0c-.2.38-.68.05-.93.28l-.03-.09c-.14.17-.37.21-.42.46-.05.02-.19-.12-.21-.24-.11.12-.08.23-.33.17.07-.22-.11-.12.09-.18-.21,0-.31-.13-.39.2-.04-.26-.26-.23-.31-.13l.2.11c-.08.07-.17.09-.26.11l-.09-.32c-.54-.2-.33.93-.9.45.01.25.26.05.3.34-.18.04-.56-.3-.61-.28-.3-.05.02.54-.26.54.08.09.26.36.15.54-.17.04-.43-.34-.37-.47.03-.03.07,0,.09.03.03-.06.07-.14-.05-.22l.04.12c-.14-.07-.35.06-.39-.14-.06.16.04.2.16.2-.28-.04-.31.17-.57.18.06.04.16.14.13.16-.37.04-.02.27-.2.43-.2-.09-.17-.4-.3-.15-.18-.04-.18-.26-.18-.37-.07.31-.42.07-.54.1l.05-.14c-.03.08-.08.11-.13.14l.18.17c-.08,0-.13.02-.18-.06.02.17.24.32.24.57-.14-.06-.16.24-.35-.01.29-.05-.19-.26-.01-.42-.02.06-.07.08-.14.08-.03-.02-.03-.06-.02-.09-.37-.11.08.37-.16.5-.06-.17-.23-.26-.24-.2.1-.05.2.23.18.4-.22-.03-.11.19-.19.22h.12c.06.17-.03.2-.1.31-.08-.11.04-.14-.02-.17.05.34-.43-.12-.48.16-.14-.06-.18-.28-.29-.31-.06.31-.32-.09-.41.19.18.17.16.12.15.4l.22-.33-.02.42c.1-.05.12-.25.2-.25,0,.22-.01.17.13.31-.31-.23-.15.33-.42.21l-.3-.51c-.36-.09-.24.5-.6.54l.15.03c.08.22-.16.14-.2.27-.09-.17-.19-.2-.29-.28.08.12-.22.11-.04.47l-.26-.14c-.29.05.03.64-.23.72-.04-.22-.22-.29-.14-.5-.08.04-.16.05-.09.17-.11-.08-.07.35-.23.23.01.09.11.28.01.31-.03-.03-.05-.08-.05-.08.05.08-.06.19.12.34-.54-.4-.62.41-1.09.07-.13.15-.3.32-.44.41-.02-.06-.05-.09,0-.08-.29-.05.14.57-.19.51-.27-.22.04-.22-.09-.28-.34-.56-.24.23-.58-.02l.02-.05c-.22-.13-.18.37-.4.43,0,0-.02-.06-.04-.09.01.36-.2.6-.35.77-.05-.26.03-.16-.12-.38-.07.07.21.36.06.51-.12-.1-.29-.15-.43-.39l.16-.09c-.23-.28-.2.11-.32.09l-.05-.15c-.23.16-.07.52-.35.61l.07.1c0,.42-.21-.15-.25.18l-.2-.35c-.08.14-.15.48-.29.61.06-.33.08-.5.15-.72-.13.05-.17.1-.18.31.02-.05.02-.15.06-.1.02.32-.11.53-.27.59.02-.42-.05-.44-.13-.44-.08.05-.14-.11-.04-.42-.1.1-.15,0-.16-.1v-.15c-.02-.07-.08-.17-.15-.24-.37.48-.09-.08-.56.31-.1-.05-.11-.09-.08-.12l.11-.46c.1-.16.16,0,.27-.1-.09-.2.15-.23.2-.43-.16.15-.3.12-.3-.02l-.13.3c-.45-.05.27-.5-.17-.57l.21-.03c-.18-.07-.31-.46-.81-.34.04-.06.17-.18.24-.15-.13-.35-.89-.44-.77-.85l.14-.05c-.07-.04-.31.03-.22-.12.06-.03.14-.05.13-.08-.06,0-.32-.04-.29-.16h.19c0-.43-.64-.31-.88-.55.39-.21.37-.54.37-.7l.06-.02c-.16-.41-.67-.49-1.02-.78.31-.45-.22-.86-.18-1.36-.04.09-.31.15-.38.11.04-.13-.4-.1-.03-.27v.04c.32-.25.13-.38.07-.53l-.48.23c.48-.73-.77-.82-.28-1.35-.17-.02-.23-.13-.39-.15l.25-.14c-.08-.28-.12-.42-.37-.69l.21-.05c-.09-.18-.83.22-.93.08l.33-.27c-.19-.28-.08-.79-.6-.86.05-.03.16-.09.21-.06-.09-.14-.17-.71-.59-.3.3-.24-.19-.3-.44-.34l.24-.15c-.38.1-.45.16-.67.05,0-.06.14-.18.13-.08,0-.22-.29.07-.3-.18l.19-.05c-.09-.15-.16-.08-.38-.02-.15-.01-.15-.3.02-.48-.13.08-.35.14-.36.02.06-.07.13-.08.17-.09-.04-.34-.52-.12-.44-.44.07-.06.1-.1.11-.13.14.18.25.33.22.33.2-.17.11-.34.48-.45-.24.01-.73.09-.75-.12.01-.02.03-.04.05-.07h.04c0-.05-.05-.07-.11-.06,0-.07,0-.12-.04-.16.15-.15-.04-.23-.09-.31-.21.19-.25.07-.36.3,0-.02.04,0,.08.03.01,0,.03.02.05.01h-.02c.04.05.1.11.16.17-.16.04-.3.06-.24-.12-.17.08-.35.15-.43.19.22-.35.23-.66.4-.84-.3-.11-.49-.43-1.01-.24-.1-.02.06-.17.11-.24.07,0,.1.05.17.02-.21-.04-.32-.33-.64-.13.01-.26.34-.12.12-.3l.11-.04c.15-.76-1.28-.13-.99-1.05-.02.06-.02.09-.07.13-.09-.72-1.02-1-.83-1.82.01-.2-.2-.12-.41-.15l.26-.16-.39-.04c-.36-.18.54-.66,0-.82l-.19.09c0-.12-.2-.34.04-.36-.04,0-.21,0-.12-.06l.16-.03c-.1-.08-.21-.16-.31-.25.11-.22.62-.02.66-.27-.06-.08-.45-.32-.56-.3,0,.05-.1.11-.26.1l-.08-.13c-.46-.07-.93-.28-1.27.1.09.1.18.2.27.29l-.23.09v-.24c-.23.13-.04.23.09.31-.12.02-.21.07-.25.13.16.08.32.15.48.21-.18.05-.38-.08-.45.11.22.09.39-.16.55,0-.19.15-.37.15-.17.26-.11.04-.19.03-.26-.02.15.11.12.33.39.33-.22.18.18.37-.24.49.11,0,.39.11.45.19-.57,0,.12.39-.42.55.49-.04.41.42.76.52-.04,0-.12.02-.11-.02.03.14-.08.25-.11.37.36-.17.53-.01.8-.04-.24.33-.45.14-.74.36.27-.16.43.1.63-.08-.14.23-.04.15-.29.38.43-.23.13.06.45,0-.11.29-.37.29-.13.38-.07.16-.32.1-.32.1"/>
  </g>
</svg>