<?xml version="1.0" encoding="UTF-8"?>
<svg id="Layer_2" data-name="Layer 2" xmlns="http://www.w3.org/2000/svg" viewBox="0 0 122.16 256.65">
  <defs>
    <style>
      .cls-1 {
        fill: #f58676;
      }
    </style>
  </defs>
  <g id="Layer_1-2" data-name="Layer 1">
    <path class="cls-1" d="M99.07,244.07c.11.16.28.03.16-.45l-.38-.29.21.74Z"/>
    <path class="cls-1" d="M97.22,242.81c-.58.14-1.22.44-.85.74.55-.32.68-.18,1.29-.53.48-.01.82.18.73.29.18-.07.71.17.99.02-.55-.38-1.37-.48-2.2-.29-.18-.08,0-.16.04-.22"/>
    <path class="cls-1" d="M52.14,230.15l.26.17c-.07-.06-.16-.11-.26-.17"/>
    <path class="cls-1" d="M28.69,212.82c.16.16.25.2.28.19-.16-.13-.3-.24-.28-.19"/>
    <path class="cls-1" d="M25.34,208.97c.07.08.13.15.2.23-.06-.1-.13-.2-.2-.23"/>
    <path class="cls-1" d="M52.14,230.15l-.68-.43c-.09.07.34.24.68.43"/>
    <path class="cls-1" d="M90.65,243.74c.17,0,.31-.04.45-.07-.14,0-.28.01-.42.02,0,.02-.01.03-.03.05"/>
    <path class="cls-1" d="M63.77,235.71l.22.07c.08-.02.15-.04.22-.07h-.44Z"/>
    <path class="cls-1" d="M73.46,238.05c-.22-.09-.38.16-.5.25.16-.07.33-.07.53-.03.02-.05.01-.12-.04-.22"/>
    <path class="cls-1" d="M88.54,242.32l.27.02c-.07,0-.19-.01-.27-.02"/>
    <path class="cls-1" d="M57.54,232.58s0-.09-.03-.13c-.02.03,0,.08.03.13"/>
    <path class="cls-1" d="M92.13,6.42s.02.02.03.04c.02-.06.02-.09-.03-.04"/>
    <path class="cls-1" d="M102.47,1.18h-.16s-.05.1-.05.15l.21-.15Z"/>
    <path class="cls-1" d="M19.01,202.2s.01.02.02.03c.19.15.09.06-.02-.03"/>
    <path class="cls-1" d="M5.25,121.09c-.47.88.07-1.61-.54-.26.14-.1.11,1.4.54.26"/>
    <path class="cls-1" d="M90.38,243.68l-.43-.03c.19.02.32.03.43.03"/>
    <path class="cls-1" d="M4.71,120.83h0l-.06.14c.03-.06.04-.09.06-.14"/>
    <path class="cls-1" d="M8.72,184.01c-.03.06-.03.15-.03.25.02-.02.04-.08.03-.25"/>
    <path class="cls-1" d="M15.17,198.48l-.19-.34c.07.14.13.25.19.34"/>
    <path class="cls-1" d="M5.5,176.37c-.05-.21-.03-.29-.15-.56,0,.03,0,.06,0,.1.07.09.12.22.16.47"/>
    <path class="cls-1" d="M3.42,168.02s-.02.11-.02.17c.02.08.04.18.07.27l-.04-.43Z"/>
    <path class="cls-1" d="M72.4,23.41c.19-.07.33-.08.46-.08-.23-.06.66-.97-.46.08"/>
    <path class="cls-1" d="M90.65,243.58c-.06.07-.13.1-.27.1.1,0,.2,0,.3,0,.03-.04.04-.08-.03-.11"/>
    <path class="cls-1" d="M3.33,176.72l-.37-1.36c.09.39.22.88.37,1.36"/>
    <path class="cls-1" d="M29.78,68.46l.17-.27c-.08.09-.14.19-.17.27"/>
    <path class="cls-1" d="M1.87,171.29c.04-.27.03-.54,0-.82-.03-.05-.06-.11-.1-.15.02.33.06.64.09.97"/>
    <path class="cls-1" d="M60.7,37.6c-.26.31-.4.36-.48.36.13-.14.28-.3.49-.52,0-.01,0-.04.01-.06,0,.07.01.13-.02.21M55.51,39.97c.22-.22.51-.49.8-.77.13,0,.13.15-.06.32.06-.15-.41.24-.74.45M57.34,38.16h0c.18-.19.34-.35.44-.46-.09.1-.22.23-.44.46M79.03,16.7c-.96.88-.21.69-.27,1.03-1.07,1.14-.71.29-1.22.51-.64.74-.97,1.49-1.51,1.98-.08,0-.2.07-.12-.1-.56.92-2.23,2.08-2.87,3.17-.09.04-.14.04-.17.04.26,0,.41.12.47.25-.43.4-.64.91-.96.88.27-.24.23-.33.3-.5l-.38.49c-.63.12.54-.66.37-.85-.8.9-1.64,2.06-2.37,2.6-.36-.12,1.5-1.54.4-.93l1.12-.87c-1.14.34.66-.56-.45-.31-1.43,1.19-1.42,1.54-2.85,2.74-.18.43.28.11.1.54-1.72,2.05-2.09.78-3.21,2.44-.22.51-.08.96-1.24,1.74l.09-.61c-1.34,1.21-.39,1.12-1.94,2.22.15-.34.95-1.07.72-.91-1.09.62-.49.75-1.17,1.4l-.37-.12c-1.36,1.36-2.73,3.01-4.22,4.55.02-.16.21-.49-.22-.22-1.81,2.01-4.13,4-6.08,5.73l-.49.92c-.16.16-.39.21-.26,0-.79.65.09.17-.17.6-.38.43-.64.43-.45.11-1.07,1.47-3.13,4.07-4.62,5.26l.18-.33c-1.07,1.01-.68,1.64-1.79,2.47l.14-.23c-2.21,2.31-4.3,5.16-6.18,6.74.01.63-2.17,2.3-1.85,2.84-1.37,1.22-1.13.74-2.89,2.62-.45.52-.36,1.03-.84,1.73l-.25-.18-.47,1.11-.66.25-.43.68c.21-.24.52-.44.56-.35-.66,1.06-2.02,2.26-2.16,2.19l-1.57,2.51c-.06-.13.21-.55.38-.91-.7,1.45-.43.03-1.06,1.37.17-.11.08.2.11.26-.56.47-1.54,1.79-2.17,2.83l-.03-.32c-.65.89-1.29,1.85-1.94,2.84-.63,1.01-1.28,2.05-1.96,3.07.57-.68.75-.31.39.31l-.42.06c-.08.51.5-.57.19.38-.52.76-.63.32-.44-.19l-.5,1.01c-.11,0-.02-.25-.08-.37-.08.5-1.31,1.45-1.36,2.21h-.11c-1.27,2.12-1.76,3.13-2.72,4.91.22.18-.22.83-.32,1.46-.77,1.26-1.74,2.6-2.51,4.21-.43,1.19.05.44-.05,1.02-.26-.03-1.02,1.58-.78.67-.91,1.94-1.11,2.51-2.03,5.06.2-.23.38-.51.39-.32-.16.47-.52.99-.61.87l.03-.13c-.4,1.48-1.25,3.02-1.99,4.53-.74,1.51-1.42,2.98-1.55,4.22l.02-.14c-.19.82-.35,1.65-.52,2.48-.38,1.09.02-.72-.37.05-.4,2.72-1.27,4.11-1.55,6.36-1.16,1.51-1.29,6.02-2.1,8.26l.19-.11c.07.63-.21.71-.32,1.15.14-.04.25-.63.29-.24-.28,2.55-.64,5.2-.86,7.87C.18,139.95.03,142.64,0,145.26c0,1.92.92,1.07.57,3.48l-.34-.67c.5,3.85.23,7.82.57,11.58-.08-.23-.18-.23-.18-.61-.22.82.04,3.02.27,3.01.02.6-.16.15-.24.53-.1.83.45,2.02.28,2.47-.03.08-.1-.22-.13-.37.09.26.14.88.21,1.36.08.48.17.83.26.56.07,1.45.56,2.7.63,3.86.46.66.4,2.44.89,2.56-.46.02.31,2.53.79,3.32-.22-.25.1.8-.18.51.33.98.71,1.85.86,1.6.11,1.99,1.69,3.42,1.44,4.66,1.33,2.74,2.57,5.25,3.71,7.7-.44.09-1.2-2.75-1.58-2.45,1.18,2.32,2.04,3.49,3,5.93.24.64-.34-.26-.49-.45,1.22,2.35,2.35,4.61,3.96,6.33-.04.02-.22-.15-.39-.32.29.36.6.9.72.73l-.31-.32c-.22-.75,1.58,1.05,1.77.98-.94-.19,1.38,1.81.04,1.39.23.2.55.41.6.27.27.36.31.51-.11.29,1.19,1.12.95.54,1.97,1.6-.07.07-.31-.12-.49-.14.65.4,1.31.78,2.13,1.7-.09,0-.04.15-.3-.11,1.53,1.45,2.92,2.12,4.43,3.88-.78-.17.46.65.29,1.01l.95.8-.23-.48c.76.77,1.63,1.26,2.2,2.01l-.67-.46,1.49,1.39-.72-.92c.91.64.24-.42,1.19.68-.23-.18.77.77,1.02,1.33h0c.46.29.94.59,1.45,1.22.07.23-.4.18-.36.33.59.15,1.88,1.73,2.59,1.95-.21-.1-.35.04-.33.12l.49.12c.31.41.34.49.17.54,1.07,1.08-.04-.68,1.13.71-.12-.08-.09,0-.33-.18,1.26,1.32,2.64,2.27,3.86,3.45.15.62-1.19-.89-.95-.27,1.91,1.6,4.3,2.67,6.3,3.84l-.36-.24c.52-.31,1.41,1.05,2.57,1.34-.27-.09-.46.1-.37.08,1.39.78,2.98,1.26,5.21,2.09h-.32c.79.49,2.18,1.08,3.04,1.58.32,0,.82.28.6-.05,2.36,2.07,5.23,2.63,7.54,4.31-.31-.13-.78-.22-.54-.11.74.3,1.53.54,2.29.74-.11-.28-.26-.23-.67-.56.33-.03.98.07,1.54.23-1.05-.15-.09.37.32.61-.06-.09.11-.12.09-.2,1.1.7.3-.39,1.86.25l-.11.1c.62.07,1.21.03,1.86.2.22.32-.67-.01-.75.2.92.18,1.92-.12,2.69.33-.4-.02-.96-.14-1.37-.15.84.5.96.44,1.61.65l-.06-.02c.5.16.99.34,1.48.53l-.36-.19c.64-.19,1.23-.04,1.83.17.62.22,1.32.45,2.14.36-1.61.11-.3.19-.47.47.39.17,1.01.36.82.42.8-.12,1.25.37,2.34.14.04.1.78.1.59.33.95.05-.2-.2-.11-.31.75-.07,1.6.15,2.47.46.88.31,1.81.71,2.9.85,1.82.45,2.25.29,3.96.57.54.29-.55.23-.55.23.89.39,1.64.5,2.54.46-.19.07,0,.16.26.29.74.01.5-.32,1.45-.17-.16.11-.37.29-.73.38.87-.07,1.7-.28,2.57-.41.24.16-.51.28-.82.4.99-.11,2.52-.27,2.81-.54l-.62-.07c.35-.03.19.22-.07.28-.82.25-1.21-.04-1.26-.13l.61-.09c-.66-.54-2.47.23-3.75.12.18-.12.36-.26.54-.4-.43.11-.86.19-1.3.26-.27-.14-.41-.39.19-.38-.85-.31-.8.05-1.5-.32-.07-.05-.03-.06.05-.06-.29-.02-.58-.05-.86-.08.18-.04-.06-.32.43-.13-1.41-.62-2.47-.45-2.93-.94l.13.02c-2.09-.6-.3.21-1.94,0-.26-.36-.54-.71-.82-1.06l-.29.23c-.21-.08-.64-.21-.53-.31-.87,0,.11.16-.41.24-1-.55-2.95-.35-3.13-.86-.41.19,1,.3-.16.32-.26-.56-1.33-.05-2.26-.46.34-.21,1.22.07.3-.32-.32.18-.79.07-1.25-.12-.47-.19-.89-.46-1.32-.56-.14.31-1.8-.42-3.2-.6.11-.12-2.54-.74-3.76-1.14l.05-.05c-.32.31-1.6-.06-2.54-.26.1-.2.28-.23.81-.19l-.86-.25c-.23.05-.52.03-1.08-.13l.3-.18c-1.09-.37-2.32-.61-3.6-1.53-.2.18.77,1.23-.77.58,0-.15.07-.39.47-.23-.13-.05-.5-.15-.72-.34l.69.12c-.57-.44-.42-.01-.9-.31.1-.17-.3-.33-.15-.43.14.06.39.32.62.36-.54-.35-1.16-.84-1.31-1.1,0,.13-.13.23-.55.02-1.08-.6-.25-.42-.83-.86-.32-.03-.96-.53-1.12-.27-.32-.17-.32-.32-.41-.45-.62-.19-2.7-1.26-2.18-.66l.14.09s-.06-.02-.1-.03h0s0,0,0,0c-2-.61-3.86-1.93-5.76-2.7l.04-.09c-1.15-.43-2.46-1.15-3.31-1.4-.32-.17-.65-.58-.46-.61-.83-.41-.99-.36-2.01-1.25.86.38-.19-.3.86.42-.96-.73-1.09-1.01-2.26-1.57.48.07-.51-.81-.97-1.12l.52.68c-.51-.38-.92-.77-1.34-1.18l.45-.04c-1.58-1.97-3.76-2.55-4.68-4.38-.63-.29.87,1.07.26.85-.8-.84-1.33-2.02-1.59-2.28-1-1.24-1.38-.69-2.47-1.95.07.24,0,.6-.96-.19-.79-.85-.67-1.36-.08-.91.2.19.27.31.24.33.29.23.67.54.44.13l-.19-.02c-.32-.49-1.46-1.61-1.06-1.49-.69-.54-.4-.13.02.38-.93-1.18-1.63-1.65-2.64-2.81.13.22.19.48.02.31-1.49-1.69-.86-.53-1.97-1.57-.5-.74.51-.1-.69-1.06-.59-.74.07-.37.4-.18-1.15-.81-1.77-1.92-2.29-2.51l.58.44c-.35-.26-.6-.51-.86-.77l.13.46c-.28-.33-.53-.59-.46-.65-.42-.2-.03.52-.79.05-.32-.49-1.3-1.15-1.2-1.52,1.15,1.37.08-.36,1.16.69-.23-.18-.48-.43-.73-.78-.02-.07.09,0,.18.07-.95-1.43-.79-.32-1.94-1.64.28.05-.02-.53-.22-.72.45.54-.01.46-.52.04-.6-.96-.82-.9-1.17-1.38l.35.58c-.28-.07-.6-.54-1.09-1.16.07-.13.49.53.37.27-.76-.54-.83-1.82-1.59-2.77-.16-.55.26-.21.1-.68-.82-1.1-.43-1.4-1.17-2.63-.05.48.03.53-.58-.33.37.73.71,1.42,1.1,2.1-.33-.39-.61-.82-.93-1.23.28.66.74,1.31.9,1.71-.49-.56-.4-.53-.43-.13-.11-1.03-.98-1.7-1.22-2.87l.54-.2c-.43-1.71-1.47-2.73-2.2-4.87l.19.71c-.33-.19-.56-1.27-.92-1.91.2-.01.1-.46.09-.8-.12.09-.6-1.53-1.03-1.57l-.13-1.03c-.55-1.73-1.24-1.73-1.76-3.4.37.43.23-.37.77.68-.2-.55-.33-1.05-.46-1.01.01-.36-.76-1.44-.74-2.01-.15-.21-.37-.22-.54-.85.02-.08.09-.03.09-.03-.09.03-.42-.94-.46-.33.06-1.88-1.29-4.86-1.04-6.51-.27-1.23-.55-2.74-.66-3.88.07.07.1,0,.1.21,0-1.59-.64-.92-.57-2.75.25-.94.23.95.31.37.59-.28-.17-2.17.19-3.4l.04.3c.21-.95-.25-2.31-.24-3.85,0,0,.06.07.1,0-.34-1.05-.51-3.03-.64-4.51.26.45.15.67.39.38-.06-.66-.4.21-.51-1.11.12-.43.21-1.39.48-1.53l.05,1.25c.33-.65-.06-1.61-.02-2.27l.15.08c-.1-1.9-.48-1.92-.48-3.97l-.11.21c-.39-1.12.2-.94-.08-2.05l.39-.34c-.1-.74-.34-2.58-.35-3.91.25.76.35,2.31.51,3.26,0-.73.02-2.47-.15-2.86.03.29.11.67.04.95-.27-.9-.38-2.09-.27-3.54.37.16.47-.78.62-1.88.13-1.09.32-2.36.68-2.83.09-2.58.92-4.99,1.53-7.9-.8.9.18-.85-.44-.82.12-.69.19-.95.25-.99l.87-1.95c.3-.43-.05.67.1.65.43-1.45.41-.55.82-1.47-.26.14-.16-.6.17-1.4l-.6,1.09c.28-2.13.98-1.61,1.32-3.75l-.03.7c.21-1.08,1.26-3.83,1.18-5.01.13-.16.37-.34.25.13.94-2.44,1.64-5.64,2.72-7.39l.05.24c.16-.46.1-.89.48-1.39.04.06.05.24.15.04.06-.26.3-1.29.64-1.85l-.08.58c1.27-2.21,1.32-3.72,2.24-5.67.39.22,1.41-1.51,1.98-2.34l.04.06c1.48-2.56,2.19-4.56,3.51-7,1.29-1.19,3.28-4.77,5.09-6.85-.3.3-.23-.26.01-.68.43-.48.79-1.64,1.05-1.31l-.14.18c.6-.16,1.29-1.29,1.91-2.12l-.31-.46c2.2-1.71,4.08-5.83,5.53-6.54.31-.59.82-1.22,1.12-1.81l.19.21c1.19-1.36,1.79-2.03,3.17-3.8l-.14.48c.82-.96.42-1.75,1.15-2.66h.54c1.42-1.68,3.14-3.13,4.29-5.01.02.07.07.2-.15.48.68-.78,2.86-2.79,2.19-2.91.28.23,1.55-1.65,2.24-2.63l.07.33c.43-.98.38-1.08,1.28-2.16.25-.22.36-.05,0,.21.86-.7.41-.81,1.44-1.68l-.22.49c.8-.81.67-.81.97-1.4.42-.59,1.56-1.5,1.85-1.44,0-.22.3-.81.83-1.23.13,0,0,.22-.07.33,1.47-1.21,1.78-2.23,2.9-2.95.08.05.17.02.27-.03-1.08,1.05-1.96,1.9-1.89,1.8.17.18,1.07-.64.62.3.56-.83,1.47-2.3,2.4-3.05.06-.02.11-.04.17-.04l-.07.11c.21-.17.37-.36.51-.55.3-.23.5-.38.76-.63.24.06,1.08-.89,1.53-1.3-.22-.17.38-.69-.31-.34.08-.05-.06.1-.35.39-.06.07-.14.15-.17.2,0-.01,0-.03.01-.05-.28.28-.65.65-1.08,1.06.25-.44.53-.88,1.12-1.23.1-.35.23-.72.31-.92.86-.29,2.17-1.24,2.49-1.21,1.25-1.39,3.12-3.08,3.63-4.26.34-.41.54-.3.74-.38-.19.25-.46.49-.53.66.68-.82,2.26-2.17,2.2-2.62,1.09-.78-.33.76.98-.53l-.11.25c3.03-2.01,3.69-4.68,7.11-6.83-.23.15-.35.23-.43.22.89-.71,1.75-1.49,2.6-2.28.85-.81,1.66-1.59,2.56-2.33,1.77-1.47,3.7-2.75,5.68-3.86,1.1-.68,1.08-.96,1.59-1.59l.4.07c.29-.38.56-.77.81-1.17,1.23-1.48,2.79-1.9,4.18-3.78l-.35.04c.33-.27.84-.71,1.26-1.06.43-.36.76-.63.79-.5.04-.09.08-.35.4-.48l.12.1c.47-.53.95-1.04,1.45-1.53.68-.43.71-.24.81-.14.1.13.27.1,1.19-.34.33-.2.76-.45,1.11-.59.34-.14.63-.19.51-.27-.28-.07-.76-.12-.82-.26.25-.06.5-.1.76-.08.1-.23.36-.42.33-.65,0-.18-.49-.64-1.81-.5-.53.26-.99.56-1.38.9-.18.01-.36.03-.53.05.36-.23.74-.45,1.16-.64-.81.12-1.12.56-1.47.94-.16-.03-.38.02-.65.15-.31.41-.59.82-.85,1.24-.24-.03.26-.69-.52-.16-.37.58.73-.09,0,.71-.64.27-.6.02-1.07.65-.16-.02-.08-.19.12-.43-.21.28-.54.58-.83.84-.32.28-.61.58-.67.8-.74.27-1.71,1.73-1.96,1.36-.09.24-.62,1.14-1.04,1.6.22-.6-.2-.18-.69.29-.49.48-1.07.96-1.14.65-.27.89-2.21,2.02-3.29,3.09.05-.08.14-.24.26-.29-.71.45-1,.48-1.5.72.12.39-.93,1.23-1.38,1.85-1.08.32.26-.76-.21-.86.22.22-1.33,1.36-.88,1.36-.79.31-.63.34-1.16.35.18.48-.56.55-.89,1.24-1.04.62-.55-.12-1.39.86-.54.3.17-.6.17-.6"/>
    <path class="cls-1" d="M60.97,36.83s.05-.08.11-.13c-.08.04-.15.08-.22.12-.01.06-.03.11-.04.16.05-.05.1-.11.15-.15"/>
    <path class="cls-1" d="M52.45,230.34l-.05-.03s.07.06.09.08c-.03-.03-.02-.04-.04-.06"/>
    <path class="cls-1" d="M64.72,237.31s.06.07.16.12c0-.02-.08-.07-.16-.12"/>
    <path class="cls-1" d="M70.6,238.69l.79.3c-.34-.15-.59-.24-.79-.3"/>
    <path class="cls-1" d="M75.04,240.11c.07-.04.09-.07.12-.1h0s-.11.1-.11.1Z"/>
    <path class="cls-1" d="M13.89,199.87c-.04-.05-.08-.1-.12-.14-.3-.33-.11-.09.12.14"/>
    <path class="cls-1" d="M29.84,215.48c-.2-.13-.4-.26-.6-.41.26.29.48.52.6.41"/>
    <path class="cls-1" d="M3.37,176.87h0c-.02-.05-.03-.1-.05-.15l.04.15Z"/>
    <path class="cls-1" d="M28.52,214.33c.24.32.48.55.73.73-.22-.24-.47-.53-.73-.73"/>
    <path class="cls-1" d="M94.85,243.67h.22s0-.03.02-.04l-.24.04Z"/>
    <path class="cls-1" d="M95.1,243.63l.24-.04c-.11,0-.21,0-.24.04"/>
    <path class="cls-1" d="M95.85,243.5l-.51.09c.18,0,.39,0,.51-.09"/>
    <path class="cls-1" d="M88.57,243.38l-.09.09s.08-.04.09-.09"/>
    <path class="cls-1" d="M86.68,242.92c.43.16,1.05.54,1.71.62l.08-.07c-.34.09-1.34-.57-1.79-.55"/>
    <path class="cls-1" d="M79.51,239.49c.52.1,1.04.21,1.56.36-.25-.16-.59-.39.14-.26-1.95-.7.36.28-1.69-.1"/>
    <path class="cls-1" d="M74.82,238.63c.79.14.03-.16.08-.21-.5-.03-.63-.05-.08.21"/>
    <path class="cls-1" d="M42.75,225.34l.2-.18c-.56-.3-.05.08-.2.18"/>
    <path class="cls-1" d="M3.95,169.48l-.26.26c.14.42.49.44.26-.26"/>
    <path class="cls-1" d="M2.27,143.75c.15-.28.25-1.01.09-1.46-.02.58-.13,1.16-.09,1.46"/>
    <path class="cls-1" d="M81.27,255.65c-.04.09-.02.28.1.24l.08-.33-.19.09Z"/>
    <path class="cls-1" d="M82.09,256.25c.14-.16.3-.45.2-.75-.13.32-.17.19-.32.57-.12.04-.21-.1-.19-.23-.04.09-.19-.07-.25.14.16.25.36.26.57.05.05.07,0,.16,0,.22"/>
    <path class="cls-1" d="M93.98,255.07l-.08-.02s.05.02.08.02"/>
    <path class="cls-1" d="M101.15,253.3c-.05.02-.07.06-.06.09.04-.03.08-.06.06-.09"/>
    <path class="cls-1" d="M102.43,253.42s-.05,0-.08,0c.03.03.06.04.08,0"/>
    <path class="cls-1" d="M93.98,255.07l.22.05c-.01-.11-.12-.05-.22-.05"/>
    <path class="cls-1" d="M83.69,255.39s-.07.05-.1.09c.03-.02.07-.03.1-.04v-.05Z"/>
    <path class="cls-1" d="M90.83,256.06h-.06c-.01.05-.02.1-.02.16l.08-.16Z"/>
    <path class="cls-1" d="M92.62,255.74s.03.07.04.09c0-.03-.02-.06-.04-.09"/>
    <path class="cls-1" d="M87.53,228.38s.02-.02.03-.04c-.03.01-.04.02-.03.04"/>
    <path class="cls-1" d="M104.69,253.46s-.01,0-.01,0c-.05.04-.02.03.01,0"/>
    <path class="cls-1" d="M120.22,249.63c.08.22-.56.12-1.04.06-.25-.03-.46-.05-.62-.02-.14.02-.18.08-.18.2.11-.04.63-.01,1.15,0,.51,0,1.02,0,.69-.25"/>
    <path class="cls-1" d="M83.75,255.42s.07,0,.1,0c-.05,0-.08,0-.1,0"/>
    <path class="cls-1" d="M118.39,249.88h0s0,.05,0,.05c0-.02,0-.03,0-.05"/>
    <path class="cls-1" d="M109.86,253.02s-.03-.09-.05-.12c0,.03.01.06.05.12"/>
    <path class="cls-1" d="M105.95,252.76l.1.03s-.07-.03-.1-.03"/>
    <path class="cls-1" d="M111.85,252.67s.06.07.14.03c0-.01-.01-.03-.02-.04-.03.04-.07.05-.12,0"/>
    <path class="cls-1" d="M113.98,252.86s-.02-.04-.04-.06h-.07s.1.06.1.06Z"/>
    <path class="cls-1" d="M92.19,233c.02-.09.05-.17.09-.25-.11.17-.39,0-.09.25"/>
    <path class="cls-1" d="M83.7,255.55c0-.07.02-.11.06-.12l-.07.02s0,.08.01.1"/>
    <path class="cls-1" d="M112.11,250.46l.34.07c-.09-.04-.22-.06-.34-.07"/>
    <path class="cls-1" d="M104.11,243.24l-.09-.02s.05.03.09.02"/>
    <path class="cls-1" d="M113.47,250.58c.05.1.11.17.17.21.02-.02.03-.04.04-.07l-.22-.14Z"/>
    <path class="cls-1" d="M97.13,234.31c.1.04.09.1.06.16-.04-.03-.09-.06-.15-.1l-.03.02s.08-.06.12-.08M96.87,236.68c-.05-.06-.12-.13-.2-.2.05-.09.13-.15.17-.1-.07.02,0,.17.03.3M96.39,236.25h0c-.05-.04-.1-.07-.13-.09.03.02.07.05.13.09M90.14,231.54c.23.26.37-.13.57-.22.35.22-.07.33-.1.56.25.12.62.03.75.17-.03.05-.02.1-.1.12.41,0,.59.54,1.06.47,0,.04-.02.07-.03.1.09-.17.21-.31.3-.41.11.09.36.01.24.23-.06-.07-.13,0-.21.03l.18.03c-.13.35-.23-.05-.4.14.3.12.75.14.85.37-.19.28-.47-.28-.44.15l-.18-.34c-.15.58-.14-.17-.33.42.28.39.5.23.78.62.2-.07.16-.23.36-.3.71.2-.17.99.49.98.24-.08.56-.37.67.03l-.34.21c.31.34.55-.24.74.28-.16.06-.35-.15-.33-.06.03.43.3-.02.48.14l-.19.29c.39.29.95.46,1.38.78-.09.06-.22.07-.2.24.61.33,1.04,1,1.39,1.6l.37-.05s0,.17-.09.17c.12.26.13-.13.29-.14.12.08.03.26-.09.26.49.12,1.29.46,1.44,1.01h-.12c.2.34.69-.17.77.27h-.08c.5.63,1.34,1.02,1.58,1.76.34-.26.54.66.92.21.21.51.04.53.48,1.07.13.12.42-.16.63-.09l-.16.26.42-.11-.06.4.21.04c-.06-.06-.07-.21-.01-.28.34.06.54.6.47.74l.77.17c-.08.1-.2.07-.33.08.5-.06-.1.32.36.26,0-.09.11-.15.15-.19.06.25.42.47.72.55l-.15.16c.45.32,1.06.49,1.6.79-.15-.19.07-.49.24-.44l-.09.32c.19-.12-.11-.2.22-.3.18.14-.04.4-.2.43l.3.03c-.03.09-.11.11-.18.21.19-.12.27.52.58.29l-.03.09c.54.29.83.32,1.27.54.14-.25.28-.1.51-.23.28.25.54.64.93.82.33.02.19-.17.38-.25-.1.24.3.42.01.48.47.22.61.27,1.28.41-.01-.13-.06-.21.02-.26.12.02.18.23.11.33h-.04c.85,0,.67,1.41,1.45,1.45h-.04s.62.24.62.24c.17.24-.25.01-.21.28.18.04.35.14.43.19.04.02.07.06.08.09.03.08,0,.12.25.14-.24.08-.34.1-.35.11-.01.02.12.03.22.04.09.01.14.01-.25-.01l.43.03c.46.03-.21-.02-.31-.02.31.02.35.02.64.04.44,0,.53,0,.24.02l-.32.02c-.14,0-.27,0-.4,0-.25-.02-.46-.06-.58-.09-.1-.06,2.56.83,1.23.47l-.81-.32c.46.2.28.22.17.21-.13,0-.2-.02-.19.15-.05-.08-.13-.18-.12-.18-.24-.25-.11-.02-.05.18-.05-.02-.09-.18-.15-.29-.05-.14-.02.31-.08.06,0-.04,0-.08,0-.1-.02.06.02.05-.09.06-.11,0-.2.03-.15.17-.33-.16-.66.07-.92-.12-.2.29-.58-.2-.67.23.07-.45-.58-.42-.82-.23.08-.13-.18-.16-.08-.34-.26-.01-.51.06-.48.29-.22-.29-.5-.18-.72-.1-.22.09-.39.16-.53-.19-.75.24-1.45.42-2.12.54.01-.45.75-.06.71-.54-.64.2-1,.6-1.64.52-.17-.05.09-.2.14-.28-.64.21-1.25.03-1.81.32,0-.04.06-.09.11-.13-.11.02-.27-.05-.24.16l.11-.07c.2.28-.4.66-.4.82.14-.6-.57-.1-.34-.86-.07.05-.15.15-.12.29-.11-.03-.16-.1-.06-.27-.4.16-.23.36-.59.39-.01-.1.06-.15.08-.27-.17.21-.33.43-.64.39.01-.06-.04-.13.06-.15-.53.1-.83.64-1.43.56.1-.46-.22-.11-.32-.47l-.29.17.16.15c-.27.05-.46.36-.71.29l.17-.19-.49.18.32.07c-.23.25.13.46-.25.44.06-.05-.27.05-.45-.12h0c-.1.15-.21.31-.43.26-.08-.1-.06-.41-.11-.48-.06.33-.6.26-.68.62.03-.09-.02-.28-.05-.31l-.04.27c-.15-.04-.17-.08-.19-.23-.37.06.24.42-.24.35.03-.03,0-.06.06-.12-.46.02-.79.4-1.22.4-.22-.33.32-.19.1-.46-.55.23-1.06.77-1.64.84h.11c.06.55-.48-.13-.69.19.06-.06.02-.31.01-.25-.4.02-.74.34-1.28.64l.04-.15c-.25-.06-.6.08-.86.08-.04.15-.19.16-.06.34-.91-.58-1.34.74-2.14.24.08-.02.17-.16.1-.14l-.54.24c.09.22.1.12.25.28-.05.15-.19.29-.33.32.23-.2-.07-.36-.2-.47.03.07,0,.15.03.22-.37-.35.03.47-.43.27v-.12c-.14.09-.25.27-.43.27-.11-.25.14-.15.12-.37-.23.06-.38.59-.63.35.09-.09.23-.11.31-.2-.28-.27-.29-.19-.47-.21h.02s-.41-.08-.41-.08l.11.07c-.19.74-.57.22-.9.73.33-.48.03-.26.02-.56-.11-.07-.27-.14-.24-.23-.15.27-.33-.15-.54.24-.02-.09-.2.01-.18-.23-.23.1.08.16.07.29-.34.37-.91-.3-1.4.2-.44.23-.5.57-.93.76-.16-.15.1-.36.1-.36-.24-.13-.42-.09-.63.04.04-.09-.01-.16-.08-.26-.17.03-.1.36-.34.23.04-.11.08-.29.16-.4-.2.1-.4.29-.61.39-.06-.17.12-.26.19-.38-.24.09-.62.18-.69.45l.16.09c-.09.02-.05-.23.01-.28.2-.22.3.08.32.18l-.15.07c.18.57.62-.11.93-.1l-.11.43.3-.37c.07.1.13.33-.02.41.24.19.19-.16.4.06.02.03.01.06,0,.07l.21-.14c-.04.09.06.29-.08.24.41.22.61-.36.79-.06l-.03.03c.54-.19.03-.31.4-.7l.35.73.02-.31c.06,0,.17.02.16.14.19-.23-.05-.13.05-.34.3.25.73-.21.85.26.07-.24-.28-.15-.01-.34.15.51.32-.14.6.07-.04.28-.29.17-.01.37.09-.48.5.04.69-.09-.04-.36.43-.22.76-.4,0,.13.69.08,1.03.15v.06c0-.37.35-.36.57-.49.03.22,0,.31-.11.44l.23-.05c.03-.13.09-.2.23-.27v.28c.3-.08.54-.44.97-.35-.03-.26-.45-.63-.08-.89.04.13.11.36.01.44.03-.03.1-.14.18-.1l-.11.26c.2.06.05-.21.2-.22.04.19.13.11.15.27-.03.03-.14-.05-.18.03.17,0,.38.07.48.2-.04-.11-.06-.26.05-.31.3-.09.15.21.35.26.04-.15.27-.06.21-.35.09-.02.13.11.19.18.13-.16.72-.22.47-.48h-.04s.02-.03.02-.03h0,0c.44-.41,1.09-.1,1.56-.36l.02.1c.27-.19.65-.25.81-.51.09-.02.25.12.25.24.21-.14.21-.25.58-.18-.18.23.12.13-.2.19.32,0,.43.13.67-.22-.04.27.31.24.43.13l-.26-.11c.15-.08.29-.1.44-.12v.34c.72.21.93-.99,1.54-.46.09-.27-.36-.07-.29-.37.28-.03.68.35.77.33.41.09.23-.57.65-.53-.08-.1-.19-.4.08-.58.29-.02.44.41.29.54-.06.03-.1,0-.11-.05-.08.06-.18.14-.05.24v-.12c.17.09.54,0,.49.2.18-.15.05-.21-.12-.24.39.1.55-.11.94-.06-.07-.06-.15-.18-.09-.19.56.05.2-.27.56-.38.24.15,0,.44.34.23.24.09.09.31.02.41.3-.28.64.06.83.08l-.16.12c.1-.07.18-.08.27-.09l-.13-.22c.11.03.19.02.21.12.09-.17-.13-.38.06-.62.15.11.41-.18.49.13-.45-.06.08.31-.28.4.07-.05.15-.05.26-.02.02.03,0,.07-.03.09.44.23.15-.38.59-.41-.04.18.13.33.2.28-.17.01-.11-.29.04-.44.29.11.29-.13.44-.12l-.17-.05c.04-.18.19-.17.38-.24.03.14-.17.11-.1.16.2-.33.51.29.8.06.15.11.03.33.16.41.33-.25.38.23.72.02-.11-.23-.13-.17.11-.42l-.58.19.36-.37c-.18,0-.37.17-.48.13.17-.2.16-.14.06-.34.26.35.48-.23.77,0v.59c.44.25.75-.33,1.3-.19l-.18-.1c.07-.24.34-.04.52-.14-.01.2.1.27.17.39-.01-.15.4.01.45-.38l.25.26c.45.11.49-.56.92-.47-.14.21.04.35-.24.5.13,0,.26.05.27-.09.07.13.4-.24.52-.04.07-.08.1-.29.26-.26.01.04,0,.1,0,.1,0-.1.26-.11.14-.34.39.65,1.24.07,1.58.63.33-.04.67-.07,1.11-.06-.02.06,0,.1-.07.07.61.22.2-.55.79-.32.45.33-.22.17.02.3.18.33.39.31.6.25.21-.06.41-.13.78.04l-.07.04c.53.18.58-.27,1.03-.29,0,0,.05.05.12.09-.08-.33.27-.48.5-.6.24.19.02.12.45.28.12-.06-.63-.26-.41-.37.3.06.7.07,1.12.2l-.27.11c.65.15.37-.14.6-.17l.2.08c.32-.25-.18-.38.28-.62h-.19c-.25-.24.47-.06.34-.3l.56.03c.02-.06.03-.19.06-.35.01-.08.03-.15.05-.23-.07-.04-.21-.07-.28-.1.25.06.61.06.53.22,0,.13-.03.27-.02.38.12-.13.61-.56.12-.53.08.03.27.05.09.13-.03-.03-.04-.06-.08-.08l-.17-.04c-.11-.03-.22-.06-.32-.08-.21-.05-.4-.08-.54-.1.74.04.72,0,.63.02-.08,0-.28.04.44.09-.49.01-.61.05-.52.03.09-.03.38-.11.73-.6-.11-.04-.22-.08-.34-.12-.75.21-1,.13-1.24.05-.28-.1-.65-.23-1.66-.11-.53-.15-.62-.22-.54-.25,0-.13-.15-.21-.37-.28l-.37-.11s-.1-.09-.16-.14c-.06-.18.5.06.75-.03-.55-.14-.52-.21-.53-.27.04-.07,0-.08-.09-.3-.12.18-.47.02-.69-.32l.18.55c-.47-.19-.51-.44-.48-.59,0-.17.02-.34-.28-.42h.25c-.26-.12-.73-.77-1.28-.61,0-.09.07-.26.19-.2-.24-.28-.64-.46-1.07-.63-.24-.09-.41-.14-.55-.21-.14-.07-.26-.16-.34-.29l.11-.11c-.13-.02-.32.14-.39-.07.04-.05.11-.11.07-.14-.08.01-.41.07-.51-.08l.2-.08c-.48-.49-1.06-.11-1.57-.27.2-.39-.18-.76-.37-.94l.04-.05c-.63-.4-1.28-.27-1.96-.45-.15-.63-1.17-.87-1.62-1.44.05.12-.18.29-.31.27-.1-.16-.53.05-.31-.29l.04.03c.09-.4-.24-.48-.45-.62l-.3.44c-.18-1-1.62-.69-1.55-1.47-.2.02-.36-.09-.57-.07l.16-.23c-.32-.31-.47-.47-.94-.74l.2-.1c-.22-.2-.78.42-1.01.26l.19-.39c-.41-.33-.58-.96-1.23-1.05.05-.04.14-.12.21-.08-.19-.18-.56-.89-.86-.39.24-.29-.4-.41-.72-.49l.21-.18c-.41.1-.48.17-.81,0-.04-.08.09-.22.12-.09-.11-.3-.33.05-.48-.29l.21-.05c-.2-.21-.24-.12-.49-.07-.2-.04-.36-.42-.22-.64-.13.09-.38.14-.45-.03.04-.09.13-.09.17-.09-.23-.46-.74-.24-.8-.66.06-.07.07-.12.07-.16.28.26.49.48.46.48.17-.19-.03-.43.38-.54-.31-.02-.89.01-1.03-.28,0-.03.01-.06.03-.09h.04c-.03-.07-.1-.09-.17-.1-.04-.1-.07-.16-.13-.23.11-.18-.18-.32-.29-.43-.17.22-.29.05-.31.35,0-.03.04,0,.13.06.02,0,.04.02.07.02h-.02c.08.07.18.16.29.25-.18.03-.35.03-.38-.2-.18.08-.36.16-.45.19.1-.43-.06-.86.06-1.08-.45-.2-.88-.66-1.44-.47-.14-.04-.01-.22,0-.31.09.01.15.08.23.05-.28-.08-.62-.49-.9-.26-.14-.35.36-.12-.02-.39l.12-.04c-.26-1.04-1.74-.3-1.92-1.53.01.08.02.12,0,.18-.54-1.03-1.79-1.52-2.2-2.72-.15-.31-.34-.18-.6-.19l.16-.26h-.48c-.51-.14-.12-1.14-.93-1.18l-.06.21c-.15-.17-.63-.34-.48-.51-.04.02-.18.13-.19,0l.08-.14c-.2-.03-.42-.05-.62-.06-.35-.31.37-.54-.3-.86-.3-.06-.89.24-.79.36.1.03.23.16.2.31l-.22.03c-.14.44-.25.91-.05,1.3.09-.09.2-.12.32-.18v.24s-.21-.07-.21-.07c.03.25.16.09.29.01-.03.12-.04.21-.01.28.14-.09.29-.18.45-.26-.07.17-.29.24-.18.43.22-.1.1-.42.36-.41.01.26-.12.38.12.32-.05.11-.12.15-.2.16.2-.04.35.19.56.04-.04.3.46.3.16.62.1-.05.43-.06.56.03-.55.19.39.42-.05.78.47-.2.66.38,1.1.48-.04.01-.12.03-.13,0,.12.18.06.33.08.49.3-.25.59-.06.88-.09-.1.45-.44.19-.64.5.22-.23.53.13.67-.12-.03.31.03.21-.13.51.38-.31.19.09.52,0,.03.39-.28.37.05.51,0,.22-.32.12-.32.12"/>
    <path class="cls-1" d="M96.75,234.46s-.03,0-.04-.01c0,.03,0,.06,0,.09l.08-.04-.04-.03Z"/>
    <path class="cls-1" d="M93.89,255.05h.01s-.03-.01-.04-.03c.01.01.01.02.02.03"/>
    <path class="cls-1" d="M90.26,254.87s-.03-.05-.06-.06c0,.02.03.04.06.06"/>
    <path class="cls-1" d="M88.78,255.07l-.22-.07c.1.04.17.06.22.07"/>
    <path class="cls-1" d="M87.62,255.1c0,.05,0,.09,0,.12h0s0-.12,0-.12Z"/>
    <path class="cls-1" d="M105.73,250.89s.03,0,.04-.02c.1-.06.03-.04-.04.02"/>
    <path class="cls-1" d="M100.28,252.41c.05-.06.09-.13.14-.17-.1,0-.18.02-.14.17"/>
    <path class="cls-1" d="M100.68,252.18c-.11-.03-.19,0-.26.05.08,0,.18,0,.26-.05"/>
    <path class="cls-1" d="M82.67,255.41h-.06s0,.02,0,.04l.06-.04Z"/>
    <path class="cls-1" d="M82.61,255.45l-.06.04s.05,0,.06-.04"/>
    <path class="cls-1" d="M82.42,255.56l.13-.08s-.1,0-.13.08"/>
    <path class="cls-1" d="M84.19,255.46v-.1s0,.05,0,.1"/>
    <path class="cls-1" d="M84.64,255.4c-.11-.02-.29-.2-.44-.13v.08c.05-.16.35.22.44.04"/>
    <path class="cls-1" d="M96.61,254.56l.04.25c.15-.08-.02-.1-.04-.25"/>
    <path class="cls-1" d="M113.58,253.07l-.02-.32c-.11.05-.17.4.02.32"/>
    <path class="cls-1" d="M120.91,251.91c.26.01.53-.06.43-.18-.15.1-.42.13-.43.18"/>
  </g>
</svg>