<?xml version="1.0" encoding="UTF-8"?>
<svg id="Layer_2" data-name="Layer 2" xmlns="http://www.w3.org/2000/svg" viewBox="0 0 140.1 263.87">
  <defs>
    <style>
      .cls-1 {
        fill: #f58676;
      }
    </style>
  </defs>
  <g id="Layer_1-2" data-name="Layer 1">
    <path class="cls-1" d="M61.94,240.87c.13.19.29.02.12-.54l-.29-.23.58.5-.16.08h.15s-.66-.56-.66-.56l.26.74Z"/>
    <path class="cls-1" d="M59.88,238.27c-.48-.54-1.12-1.04-1.16-.51.61.39.56.64,1.3,1.08.36.49.68.89.52.92.21.12.94.62,1.34.45-.39-.2-.8-.43-1.17-.75-.37-.32-.7-.72-1.04-1.12-.05-.23.13-.09.21-.07"/>
    <path class="cls-1" d="M63.99,184.88l-.21.3c.07-.08.14-.18.21-.3"/>
    <path class="cls-1" d="M87.43,158.6c-.2.18-.26.28-.25.31.18-.18.32-.33.25-.31"/>
    <path class="cls-1" d="M92.32,155.04c-.11.07-.2.14-.29.2.12-.06.24-.13.29-.2"/>
    <path class="cls-1" d="M63.99,184.88l.55-.77c-.06-.11-.31.38-.55.77"/>
    <path class="cls-1" d="M55.31,232.48c.12.17.24.31.38.43-.13-.15-.23-.29-.32-.43-.02,0-.04,0-.06,0"/>
    <path class="cls-1" d="M57.66,199.11l-.09.27c0,.09.03.18.05.27l.04-.54Z"/>
    <path class="cls-1" d="M55.23,210.69c.04-.27-.23-.39-.34-.5.1.16.14.37.13.61.05,0,.12-.02.21-.1"/>
    <path class="cls-1" d="M55.12,229.51l.14.3c-.04-.08-.1-.21-.14-.3"/>
    <path class="cls-1" d="M61.1,191.3s.1-.02.14-.05c-.03-.02-.08,0-.14.05"/>
    <path class="cls-1" d="M10.52,44.86s-.03-.01-.04-.03c-.02.08-.01.11.04.03"/>
    <path class="cls-1" d="M.19,54.51l.16-.1c0-.06-.02-.11-.04-.16l-.12.26Z"/>
    <path class="cls-1" d="M101.26,148.36s-.02.02-.04.03c-.2.21-.08.1.04-.03"/>
    <path class="cls-1" d="M138.93,60.08c-.07,1.19-.61-1.83-.62-.05.09-.18.66,1.52.62.05"/>
    <path class="cls-1" d="M55.17,232.17c-.09-.15-.19-.29-.27-.45.1.22.19.35.27.45"/>
    <path class="cls-1" d="M138.32,60.03h0v.18c0-.08,0-.12,0-.18"/>
    <path class="cls-1" d="M120.17,131.01c-.07,0-.17.04-.27.09.03.01.09,0,.27-.09"/>
    <path class="cls-1" d="M105.93,143.78l.39-.26c-.16.1-.29.18-.39.26"/>
    <path class="cls-1" d="M127.15,123.89c.2-.17.29-.21.51-.49-.03.01-.06.03-.1.05-.06.12-.17.25-.41.43"/>
    <path class="cls-1" d="M133.71,115.72s-.1.09-.15.14c-.05.09-.11.2-.17.29l.32-.43Z"/>
    <path class="cls-1" d="M33.79,25.41c-.23.04-.4.03-.54.01.23.1-1.04.9.54-.01"/>
    <path class="cls-1" d="M55.44,232.39c-.09-.02-.17-.08-.27-.21.07.11.14.21.2.3.05,0,.09-.01.07-.09"/>
    <path class="cls-1" d="M125.85,122.05c.39-.37.76-.75,1.13-1.13-.32.32-.73.73-1.13,1.13"/>
    <path class="cls-1" d="M101.1,6.53l-.36-.09c.13.05.26.09.36.09"/>
    <path class="cls-1" d="M129.99,117.27c.25-.17.48-.37.68-.6.02-.07.05-.14.04-.19-.23.27-.48.54-.73.8"/>
    <path class="cls-1" d="M52.05,13.34c.42-.25.59-.28.67-.26-.2.11-.44.24-.74.41-.01.02-.03.04-.04.06.02-.07.04-.14.11-.21M58.74,12.24c-.34.16-.76.36-1.2.57-.14-.04-.08-.18.2-.31-.12.13.55-.13,1-.26M55.99,13.58h0c-.28.15-.52.27-.67.35.14-.07.33-.17.67-.35M24.51,31.58c1.27-.87.39-.71.54-1.07,1.49-1.1.86-.24,1.49-.42.9-.72,1.49-1.45,2.22-1.9.09.02.24-.05.11.12.88-.89,3.1-1.86,4.16-2.88.11-.02.17-.02.21-.01-.29-.05-.42-.2-.44-.33.61-.35,1.02-.84,1.37-.75-.38.2-.36.3-.5.46l.59-.44c.74-.01-.82.58-.69.81,1.19-.79,2.51-1.84,3.53-2.26.36.19-2.2,1.3-.77.88l-1.55.69c1.39-.14-.92.46.4.39,1.99-.97,2.1-1.33,4.11-2.27.36-.4-.28-.17.08-.57,2.65-1.75,2.6-.37,4.46-1.83.43-.47.45-.96,2.03-1.5l-.33.6c1.95-.94.85-1.05,2.99-1.83-.29.32-1.46.88-1.15.77,1.45-.39.83-.66,1.84-1.17l.36.2c2.03-1.08,4.18-2.44,6.44-3.61-.08.15-.43.44.15.27,2.8-1.57,6.18-2.93,9.07-3.98l.96-.74c.25-.11.52-.08.27.09,1.15-.37-.02-.2.47-.53.62-.29.9-.2.53.05,1.84-1.07,5.39-2.78,7.6-3.21l-.38.23c1.68-.48,1.62-1.17,3.31-1.51l-.28.17c1.89-.62,3.63-1.74,5.26-2.21.82-.24,1.62-.3,2.39-.21.76.08,1.46.34,2.16.6.63-.3,3.59,1.03,3.96.53,2.01.83,1.4.75,4.25,1.77.76.25,1.26-.01,2.23.23l-.07.3,1.39.11.56.58.9.23c-.34-.15-.7-.39-.61-.46,1.43.33,3.24,1.45,3.21,1.61.99.32,1.97.79,2.94,1.36-.13.06-.62-.22-1.03-.38,1.65.7.09.42,1.59,1.12-.14-.19.21-.08.27-.1.56.63,2.08,1.84,3.39,2.62h-.36c.53.4,1.22.81,1.72,1.12.54.32,1.08.7,1.62,1.08,1.08.78,2.14,1.68,3.15,2.67-.66-.77-.24-.88.39-.33v.47c.53.24-.52-.71.44-.09.72.79.24.77-.27.41l.98.85c-.02.12-.26-.06-.41-.04.52.24,1.29,1.86,2.07,2.2l-.02.12c1.94,2.15,2.89,3.09,4.59,4.82.22-.17.89.57,1.49.87,1.09,1.25,1.95,2.86,2.89,4.63.77,1.21.4.26.84.77-.18.2.71,2.06.09,1.17.54,1.13.88,1.86,1.27,2.65.38.81.92,1.68,1.57,3.02-.02-.34-.13-.71.03-.56.26.5.35,1.21.2,1.17l-.07-.13c.78,1.51.7,3.44.53,5.45-.12,2.11.21,4.15.87,5.47l-.07-.15c.36.95.75,1.87,1.12,2.77.35,1.3-.42-.71-.28.28.67,1.45.94,2.6,1.12,3.76.2,1.15.33,2.25.68,3.5-.4,2.07.93,7.05.59,9.81l.17-.17c.22.69-.05.85-.06,1.37.13-.08.12-.77.24-.34.55,5.94.04,12.3-.13,18.45-.05,2.26.93,1.29.51,4.11l-.33-.8c.2,2.25.17,4.52-.14,6.71-.3,2.18-.93,4.29-1.48,6.4.01-.27-.08-.31.06-.71-.49.79-1.17,3.18-1,3.27-.28.62-.22.08-.47.43-.48.8-.62,2.26-1.05,2.62-.07.06.03-.27.09-.43-.13.64-1.2,2.46-.71,2.09-.86,1.35-1.42,2.73-2.3,3.68-.22.88-1.79,2.11-1.64,2.58-.25-.36-2.14,1.92-2.73,2.8.14-.34-.73.55-.58.12-.82.85-1.54,1.66-1.23,1.69-1.94,1.13-2.92,3.35-4.31,3.68-2.48,2.56-4.81,5.02-6.98,7.38-.24-.4,2.48-2.55,2.06-2.79-2.06,2.29-2.99,3.83-5.23,5.84-.6.49.18-.44.32-.68-1.02,1.12-2.09,2.1-3.15,3.02-1.05.92-2.13,1.74-3.13,2.71-.02-.04.18-.26.38-.46-.41.35-1.02.73-.84.85l.37-.37c.85-.31-1.26,1.82-1.23,2.01.32-1.03-2.16,1.6-1.52.11-.25.26-.52.61-.37.67-.43.3-.61.35-.3-.11-1.4,1.31-.73,1.04-2.07,2.15-.06-.08.19-.33.25-.54-.55.71-1.1,1.42-2.29,2.28.03-.1-.15-.06.19-.33-1.92,1.62-3.02,3.04-5.33,4.6.38-.85-.83.47-1.17.27l-1.09,1.03.58-.24c-1.02.82-1.73,1.77-2.67,2.4l.64-.74-1.81,1.65,1.14-.8c-.87,1.01.42.27-.96,1.32.24-.26-.98.86-1.63,1.15h0c-.4.52-.81,1.05-1.58,1.64-.26.08-.13-.44-.31-.39-.26.66-2.17,2.16-2.52,2.96.14-.24.01-.39-.08-.36l-.21.55c-.49.36-.58.4-.62.22-1.33,1.24.74-.07-.93,1.3.1-.13.02-.1.24-.38-1.61,1.45-2.82,3.09-4.28,4.45-.68.17,1.13-1.33.44-1.06-1.92,2.14-3.75,4.62-5.58,6.75l.36-.38c.17.63-1.51,1.46-2.12,2.78.17-.3.02-.54.02-.43-1.19,1.51-2.12,3.31-3.41,5.9l.06-.38c-.68.91-1.5,2.56-2.12,3.61-.04.38-.38.99,0,.71-2.39,3.01-2.71,6.57-4.61,9.38.15-.37.26-.93.14-.63-.33.89-.64,1.8-.91,2.71.3-.14.24-.31.63-.8,0,.38-.15,1.17-.38,1.83.27-1.25-.37-.11-.64.38.09-.07.11.14.2.11-.83,1.3.36.36-.44,2.23l-.09-.13c-.12.75-.14,1.46-.33,2.24-.33.27.04-.81-.16-.91-.24,1.13.04,2.31-.39,3.28,0-.49.12-1.18.14-1.67-.51,1.05-.46,1.2-.63,2.02l.02-.08c-.14.63-.28,1.27-.4,1.91l.14-.48c.51,1.5-.19,2.92.15,4.87-.32-1.89-.23-.32-.53-.48-.11.49-.25,1.23-.32,1.02.21.92-.26,1.52.07,2.82-.1.06-.02.97-.27.77.07,1.19.17-.28.29-.18.16.92.06,1.98-.05,3.13-.11,1.16-.22,2.44.04,3.77.12,1.15.32,1.82.53,2.46.22.63.45,1.24.82,2.21.07.73-.52-.45-.5-.46.17,1.16.54,2.01,1.17,2.91-.17-.16-.14.09-.05.43.51.74.57.36,1.25,1.33-.21-.07-.53-.14-.91-.46.38.45.84.78,1.21,1.07.2.16.29.22.44.38.09.06.07.16.09.25l.02.3c-.09.14-.15-.07-.19-.19-.03-.07-.04-.15-.07-.22-.07-.06-.13-.1-.19-.12.16.1.14.28.15.49v.53c0,.22-.04.48.06.69.26.92,1.03,1.29,1.28,1.25-.26-.16-.47-.39-.61-.65.32.37-.01.39-.3.05-.22-.26-.33-.55-.38-.8-.02-.24.04-.49.07-.59.08-.24.19-.36.24-.39v.8c.17-.25.25-.5.29-.84.02-.17.03-.35.03-.53-.03-.18-.22-.32-.34-.46-.28-.28-.66-.53-.99-.83-.35-.29-.63-.66-.82-.99.23.11.45.22.69.3-.37-.36-.76-.74-1.09-1.15-.06-.35.05-.64.44-.02-.16-.52-.29-.71-.4-.9-.11-.19-.24-.35-.27-.83,0-.11.03-.07.08.01-.16-.31-.3-.63-.42-.95.14.17.24-.24.35.38-.26-1.8-.85-2.88-.58-3.61l.04.15c-.24-2.59-.34-.23-.72-2.2l.77-1.31-.3-.26c.02-.27.05-.81.17-.71-.19-1.01-.14.17-.32-.42.3-1.3-.11-3.6.4-3.88-.22-.47-.21,1.24-.34-.15.53-.38-.05-1.61.26-2.79.25.38.05,1.49.35.32-.42-.74.23-2.29.25-3.29-.36-.08.06-2.18.22-3.84.09.12.74-3.07,1.3-4.52l.05.06c-.28-.38.21-1.91.52-3.04.2.12.2.34.11.97.1-.35.23-.69.34-1.03-.02-.28.01-.63.24-1.3l.16.35c.48-1.36.8-2.82,1.75-4.48-.19-.2-1.28,1.08-.6-.82.16,0,.4.02.24.52.05-.16.15-.6.35-.9l-.12.82c.45-.74,0-.49.32-1.11.17.1.34-.4.44-.25-.06.17-.33.51-.37.78.36-.69.86-1.49,1.13-1.71-.13.01-.24-.11-.02-.64.62-1.33.43-.35.9-1.08.03-.38.57-1.15.33-1.31.2-.38.35-.39.5-.5.21-.74,1.62-3.14.94-2.54l-.11.16s.03-.07.05-.12h0s0,0,0,0c.94-2.33,2.71-4.4,4.02-6.48l.08.06c.74-1.28,1.89-2.66,2.39-3.61.28-.34.81-.66.77-.44.67-.89.69-1.06,1.9-2.16-.64.96.38-.19-.69.95,1.05-1.03,1.39-1.16,2.27-2.5-.18.56.98-.59,1.41-1.14l-.84.62c.51-.6,1-1.07,1.5-1.56l-.02.5c2.36-1.87,3.3-4.34,5.42-5.43.41-.71-1.29,1.01-.96.32,1.02-.93,2.4-1.56,2.72-1.85,1.51-1.14.96-1.55,2.53-2.77-.27.08-.66,0,.38-1.06,1.08-.87,1.61-.73,1.01-.09-.24.22-.39.3-.4.26-.31.32-.72.74-.22.48l.06-.21c.59-.36,2.03-1.59,1.82-1.15.72-.75.22-.43-.41.01,1.46-1,2.12-1.77,3.62-2.8-.27.13-.56.18-.34,0,2.19-1.53.79-.9,2.19-2.05.93-.49-.03.57,1.33-.67.96-.6.38.1.09.45,1.19-1.21,2.55-1.84,3.32-2.42l-.62.63c.38-.38.71-.65,1.05-.93l-.54.14c.43-.3.77-.58.82-.49.31-.46-.57-.04.11-.88.61-.35,1.53-1.44,1.91-1.35-1.73,1.3.39.09-.99,1.3.25-.25.58-.53,1-.83.08-.02-.01.1-.11.2,1.77-1.11.5-.88,2.15-2.24-.1.31.6-.06.84-.31-.67.54-.51.03.02-.57,1.15-.76,1.09-1.02,1.66-1.45l-.68.46c.11-.32.65-.72,1.37-1.36.15.06-.62.62-.32.45.64-.9,2.1-1.28,3.08-2.45.6-.38.28.2.78-.15,1.08-1.32,1.5-1.07,2.63-2.44-.53.19-.55.29.17-.74-.65.72-1.29,1.43-1.96,2.14l1.1-1.54c-.62.61-1.22,1.39-1.63,1.72.51-.75.48-.64.05-.5,1.12-.56,1.55-1.79,2.7-2.59l.39.45c1.65-1.27,2.36-2.83,4.38-4.56l-.69.52c.09-.42,1.16-1.16,1.73-1.82.08.2.52-.11.87-.27-.13-.08,1.45-1.31,1.37-1.77l1.06-.62c1.67-1.39,1.44-2.09,2.99-3.48-.3.59.48.03-.43,1.11.51-.48.99-.89.9-1,.38-.2,1.2-1.55,1.77-1.89.14-.28.07-.48.61-1.05.09-.03.07.07.07.07-.07-.07.74-.99.11-.64.96-.58,1.94-1.73,2.83-2.92.89-1.18,1.66-2.4,2.38-3.07.76-1.35,1.55-3.07,2.06-4.34.02.11.09.04-.04.27.93-1.68-.04-1.29.96-3.22.71-.92-.26,1.14.1.54.72-.04.88-2.48,1.68-3.76l-.08.35c.56-1.01.61-2.7,1.02-4.52,0,0,.04.1.09.03-.06-1.32.09-3.69.04-5.45.24.56.1.81.38.48,0-.79-.41.21-.45-1.36.15-.51.28-1.64.55-1.79v1.48c.37-.76,0-1.92.06-2.7l.16.1c-.06-2.26-.45-2.28-.42-4.71l-.12.25c-.39-1.33.22-1.11-.07-2.43l.39-.4c-.1-.88-.38-3.07-.48-4.63.3.89.46,2.72.64,3.86,0-.87-.04-2.95-.24-3.4.04.35.14.79.08,1.14-.32-1.06-.48-2.46-.51-4.19.79.29.08-4.51.59-5.8-.44-3.05-.26-6.11-.76-9.68-.43,1.34-.15-1.04-.74-.74-.15-.82-.19-1.14-.16-1.22-.02-.85-.02-1.7-.06-2.56.06-.62.28.76.4.66-.28-1.82.11-.81.05-2.04-.17.29-.41-.57-.6-1.65.03.51.05,1.04.05,1.54-.42-1.25-.45-1.82-.48-2.4-.03-.58-.07-1.17-.6-2.35l.42.72c-.25-.62-.62-1.77-.97-2.88-.36-1.11-.66-2.19-.99-2.76.04-.23.17-.53.28,0-.08-.73-.16-1.48-.21-2.27-.05-.86-.13-1.74-.27-2.62-.27-1.79-.95-3.38-1.33-4.58l.24.17c-.29-.55-.7-.85-.87-1.56.07,0,.23.15.13-.1-.18-.25-.87-1.29-1.11-2.04l.42.54c-1.07-2.87-2.31-4.21-3.87-6.35.18-.12-.05-.73-.48-1.41-.41-.69-1.07-1.45-1.48-1.9l.07-.02c-2.41-2.47-4.31-4.12-6.7-6.45-.53-.92-1.69-2.25-3.12-3.58-1.41-1.34-3.14-2.65-4.56-3.63.36.31-.24.26-.74,0-.57-.47-1.88-.95-1.54-1.2l.21.17c-.22-.65-1.52-1.53-2.58-2.29l-.48.31c-.57-.63-1.36-1.24-2.29-1.74-.96-.51-1.93-.82-2.87-1.14-1.88-.62-3.59-1.06-4.34-1.66-.8-.11-1.73-.39-2.52-.47l.12-.26c-2.09-.66-3.14-.98-5.78-1.54l.58-.07c-1.48-.37-2.06.35-3.43.07-.11-.17-.23-.33-.36-.5-1.41-.28-3.03-.31-4.48.11-1.46.41-2.64,1.08-3.7,1.76.01-.07.03-.21.4-.41-.55.26-1.62.66-2.48.95-.92.32-1.66.65-1.34.85-.16-.36-2.61.88-3.88,1.56l.11-.34c-1,.77-1,.87-2.53,1.59-.38.12-.41-.07.11-.21-1.28.38-.86.63-2.4,1.13l.48-.4c-1.27.52-1.13.56-1.74,1.05-.74.45-2.4.99-2.69.85-.1.22-.7.71-1.46.99-.14-.04.1-.22.22-.31-2.16.79-2.94,1.74-4.47,2.17-.07-.07-.18-.07-.31-.04,1.64-.79,2.97-1.39,2.85-1.32-.11-.23-1.46.36-.55-.47-.99.68-2.61,1.94-3.95,2.46-.07,0-.14.02-.21,0l.12-.09c-.31.12-.56.27-.79.44-.43.17-.7.26-1.1.46-.25-.11-1.55.65-2.21.97.18.22-.7.61.21.42-.11.03.11-.09.54-.32.1-.06.21-.12.27-.17-.01.01-.02.03-.03.05.43-.22.98-.5,1.62-.83-.45.38-.94.76-1.73.98-.25.33-.54.68-.71.86-1.07.1-2.88.77-3.23.68-1.92,1.14-4.64,2.45-5.65,3.56-.54.35-.72.2-.97.23.3-.21.7-.4.84-.56-1.07.69-3.32,1.76-3.42,2.23-1.49.59.64-.72-1.28.36l.21-.24c-4.12,1.51-5.75,4.13-10.22,5.99.31-.14.46-.2.55-.19-2.43,1.28-4.74,2.92-6.97,4.65-2.24,1.72-4.39,3.52-6.53,5.21-1.21.97-1.13,1.3-1.67,2.09l-.45.03c-.28.45-.61.94-.84,1.46-.59,1.02-1.19,1.81-1.85,2.64-.32.4-.65.81-1,1.25-.17.21-.34.43-.53.66-.18.23-.41.53-.61.84l.4-.14c-.75.74-2.02,2.61-2.09,2.33-.04.11-.04.4-.37.65l-.14-.07-1.33,2.16c-.65.73-.73.56-.86.5-.14-.08-.32,0-1.24.97-.32.38-.74.94-1.09,1.33-.34.39-.61.65-.43.62.35-.16.91-.47,1.03-.38-.23.22-.48.42-.74.6.04.25-.07.57.11.72.16.14.76.15,1.89-.62.4-.48.74-.98,1.05-1.48l.54-.28c-.31.38-.63.75-.99,1.11.75-.47.95-1.01,1.22-1.54.18-.03.4-.17.64-.4l.66-1.57c.27-.05-.16.81.59,0,.3-.73-.77.33-.11-.75.65-.5.64-.21,1.07-1.05.17-.03.11.17-.07.49.39-.74,1.3-1.7,1.4-2.17.18-.11.38-.29.59-.49.22-.22.47-.51.67-.76.4-.51.68-.93.85-.78.08-.3.49-1.51.83-2.16-.11.73.24.1.66-.56.42-.67.96-1.25,1.08-.95.12-.49.76-1.2,1.43-1.94.7-.73,1.52-1.48,2.08-2.19-.05.09-.14.29-.27.38.77-.66,1.1-.72,1.65-1.08-.17-.39.98-1.48,1.52-2.19,1.21-.48-.3.83.23.87-.25-.21,1.49-1.59,1-1.53.91-.38.73-.4,1.32-.43-.15-.49.65-.61,1.13-1.29,1.27-.59.55.18,1.71-.81.67-.28-.33.62-.33.62"/>
    <path class="cls-1" d="M51.44,14.06c-.06.04-.09.07-.17.11.1-.02.19-.05.29-.07.04-.05.08-.11.12-.16-.08.04-.16.08-.23.12"/>
    <path class="cls-1" d="M63.74,185.24l.04-.05s-.07.08-.1.1c.03-.03.04-.03.06-.05"/>
    <path class="cls-1" d="M132.89,117.44l-.4.02c-.26.48-.04.78.4-.02"/>
    <path class="cls-1" d="M139.86,87.56c.16-.33.26-1.2.1-1.73-.02.69-.15,1.38-.1,1.73"/>
    <path class="cls-1" d="M106.46,6.3c.21.08.41.17.61.26-.36-.2-.73-.39-1.11-.57.17.1.33.21.5.31"/>
    <path class="cls-1" d="M77.43,205.76c-.09-.06-.28-.02-.24.14l.33.12-.09-.25Z"/>
    <path class="cls-1" d="M76.81,206.85c.16.19.44.41.75.29-.32-.19-.19-.24-.56-.44-.04-.16.11-.29.23-.26-.08-.06.07-.25-.14-.34-.26.21-.27.48-.05.76-.07.06-.16,0-.22-.01"/>
    <path class="cls-1" d="M76.3,222.77l.04-.1s-.03.06-.04.1"/>
    <path class="cls-1" d="M76.12,232.64c0-.07-.04-.11-.07-.11.02.07.04.13.07.11"/>
    <path class="cls-1" d="M75.75,234.32s.01-.07.02-.1c-.03.04-.05.08-.02.1"/>
    <path class="cls-1" d="M76.3,222.77l-.1.26c.11.02.08-.13.1-.26"/>
    <path class="cls-1" d="M77.61,209.05c-.02-.05-.05-.1-.09-.14.01.04.03.09.04.13h.05Z"/>
    <path class="cls-1" d="M76.03,218.42v-.08s-.08-.05-.14-.07l.14.15Z"/>
    <path class="cls-1" d="M75.98,215.09c-.01.08.27.1.39.13-.12-.04-.17-.1-.19-.17-.05,0-.12,0-.2.03"/>
    <path class="cls-1" d="M76.47,209.8l-.04-.09s.03.06.04.09"/>
    <path class="cls-1" d="M75.97,220.81s-.08.02-.1.03c.04,0,.07-.01.1-.03"/>
    <path class="cls-1" d="M29.55,244s0-.03,0-.05c-.02.03-.03.05,0,.05"/>
    <path class="cls-1" d="M25.74,242.53h.05c0-.07.01-.12.01-.17l-.07.17Z"/>
    <path class="cls-1" d="M75.39,237.41s0,0,0-.01c-.03-.08-.03-.04,0,.01"/>
    <path class="cls-1" d="M73.66,261.14c.21.32-.53.19-.19.57,0-.11.48-.34.19-.57"/>
    <path class="cls-1" d="M77.58,209.13s0,.09,0,.14c0-.06,0-.1,0-.14"/>
    <path class="cls-1" d="M73.47,261.72h0s.04.04.04.04c-.02-.02-.03-.03-.04-.04"/>
    <path class="cls-1" d="M75.56,244.51s.09-.04.12-.07c-.03,0-.06.02-.12.07"/>
    <path class="cls-1" d="M75.96,239.22l-.04.13c.03-.05.03-.09.04-.13"/>
    <path class="cls-1" d="M75.96,247.26c-.02.07-.06.1-.02.19.01,0,.02-.02.03-.03-.04-.04-.06-.08-.01-.16"/>
    <path class="cls-1" d="M75.96,250.11s.04-.03.06-.05c0-.03-.01-.06-.01-.09l-.04.14Z"/>
    <path class="cls-1" d="M37.57,245.53c-.02-.1-.02-.19-.01-.28-.04.2-.43.1.01.28"/>
    <path class="cls-1" d="M77.45,209.05c.07.02.11.04.12.09l-.02-.1s-.08-.01-.11.01"/>
    <path class="cls-1" d="M78.17,247.37l-.04.45c.03-.13.04-.29.04-.45"/>
    <path class="cls-1" d="M55.68,254.49l-.11-.03s.07.04.11.03"/>
    <path class="cls-1" d="M78.17,249.17c-.1.08-.16.17-.19.26.02.02.04.04.07.05l.12-.31Z"/>
    <path class="cls-1" d="M43.97,245.5c.14,0,.17.06.17.12-.06-.01-.13-.02-.23-.03l-.02.03s.05-.09.09-.12M45.19,247.84c-.1-.04-.22-.07-.35-.11,0-.1.05-.19.13-.16-.06.05.11.16.21.27M44.38,247.63h0c-.09,0-.16-.02-.2-.03.04,0,.1.02.21.03M34.72,244.97c.38.1.27-.3.41-.49.5.03.15.32.25.55.31-.01.63-.27.84-.18,0,.06.03.1-.04.15.4-.18.88.31,1.37.13.01.04.01.08,0,.1.02-.19.09-.37.15-.49.18.07.42-.07.39.18-.1-.06-.15.03-.23.07h.22c.02.38-.3-.02-.4.22.39.05.93,0,1.16.21-.09.33-.68-.2-.45.24l-.36-.32c.09.63-.23-.15-.19.5.5.34.68.13,1.19.49.21-.11.08-.27.29-.38.92.07.29,1.1,1.12.95.26-.14.47-.51.84-.14l-.29.3c.6.25.52-.4,1.06.05-.15.11-.51-.03-.43.04.32.42.35-.12.66-.02l-.03.35c.65.14,1.41.08,2.1.2-.06.09-.21.16-.07.3.9.06,1.79.53,2.43,1l.39-.16c.07.03.07.17-.02.19.23.23.09-.16.27-.21.17.05.14.25,0,.28.57-.03,1.64.26,1.98.85h-.14c.32.36.77-.21.99.27h-.1c.78.67,1.86,1.14,2.25,1.97.37-.25.74.77,1.14.33.33.59.12.58.73,1.23.18.15.49-.11.77,0l-.16.26.5-.06v.42s.27.07.27.07c-.08-.07-.13-.24-.07-.31.43.1.8.71.73.85.34.09.7.17,1.03.24-.07.1-.24.07-.4.08.62-.04-.05.34.51.29-.03-.09.11-.15.15-.2.13.27.62.51,1.02.61l-.16.16c.63.36,1.42.55,2.15.9-.22-.21,0-.52.22-.45l-.05.34c.22-.12-.17-.22.22-.31.26.16.03.42-.17.44l.38.05c-.02.1-.12.11-.19.21.22-.12.43.56.77.33l-.02.1c.72.34,1.09.4,1.68.67.14-.25.34-.08.61-.2.39.29.76.73,1.27.97.42.06.21-.16.45-.22-.1.24.41.49.07.51.62.29.78.37,1.62.63-.03-.14-.09-.23,0-.28.16.04.25.28.16.37h-.05c1.03.18,1.5,1.86,2.51,1.83h-.05c.3.06.59.13.9.18.34.23-.31.06-.11.34,1.04.05,1.39.72,2.28.68.21.45.82.56,1.44.57l.47-.02c.15,0,.29,0,.53-.02.43-.03.8,0,1.22.06l-.16-.16c.26-.21.47.04.77.04-.13-.12-.47-.1-.32-.22l.51-.1c.12-.09.1-.33.16-.49.09-.35.18-.69.26-1.04l.14-.53.08-.36c.05-.23.11-.46.15-.69.19-.92.36-1.84.41-2.74.02-.65-.93-.33-.54-1.15l.34.21c-.46-1.27-.16-2.6-.55-3.78.08.07.18.07.18.18.22-.27-.03-.93-.23-.93.02-.18.18-.05.27-.16.14-.24-.32-.61-.08-.76.04-.02.08.07.1.12-.12-.17.03-.79-.25-.63.13-.46-.12-.88.04-1.25-.31-.24.15-.79-.29-.87.45.03.37-.81.15-1.1.14.1.14-.25.33-.14,0-.33-.09-.64-.32-.58.54-.61-.44-1.24.26-1.58-.24-.99-.41-1.91-.51-2.8.45.03.04.99.52.95-.19-.85-.57-1.33-.46-2.17.06-.22.2.12.27.2-.18-.84.04-1.63-.2-2.38.04,0,.09.08.12.16-.01-.15.07-.34-.14-.33l.06.14c-.3.24-.62-.59-.78-.62.59.25.15-.74.89-.34-.04-.1-.14-.22-.27-.2.04-.15.12-.19.27-.04-.11-.53-.33-.34-.32-.82.1,0,.14.1.25.15-.19-.24-.39-.49-.3-.89.06.02.14-.02.14.1-.03-.7-.52-1.19-.33-1.95.43.23.14-.26.52-.3l-.11-.41-.18.16c0-.36-.27-.68-.14-.99l.15.27-.07-.68-.14.38c-.19-.37-.47.04-.37-.44.04.1,0-.36.22-.55h0c-.12-.18-.24-.36-.15-.63.12-.07.41.06.49.01-.31-.18-.09-.84-.42-1.07.08.07.27.08.31.05l-.25-.15c.08-.17.12-.19.28-.16.05-.5-.47.16-.27-.44.02.05.06.02.1.12.11-.6-.16-1.16-.04-1.71.38-.16.09.48.41.29-.07-.79-.45-1.64-.36-2.41l-.04.14c-.53-.11.26-.57.01-.96.04.09.3.12.24.1.09-.52-.13-1.07-.3-1.87l.14.1c.12-.31.07-.82.13-1.15-.14-.1-.11-.29-.31-.17.78-1.03-.42-1.97.23-2.88,0,.11.12.26.12.17l-.13-.78c-.23.06-.14.1-.32.27-.14-.1-.24-.32-.24-.51.15.35.37,0,.5-.15-.07.03-.15-.03-.22-.01.41-.41-.47-.07-.19-.62l.12.03c-.06-.21-.22-.4-.19-.62.27-.09.12.22.35.24-.02-.32-.51-.62-.24-.91.07.13.08.33.15.46.31-.31.23-.35.28-.58v.02s.14-.53.14-.53l-.09.14c-.7-.4-.13-.8-.58-1.33.43.52.25.08.55.12.08-.14.18-.34.26-.28-.24-.25.19-.42-.17-.77.1-.02,0-.27.26-.21-.08-.33-.17.08-.29.05-.33-.5.4-1.18-.05-1.91-.19-.62-.52-.74-.68-1.32.16-.2.36.16.36.16.14-.32.12-.55,0-.85.09.06.16,0,.27-.09-.03-.24-.35-.16-.21-.47.11.05.28.12.39.24-.09-.28-.27-.56-.36-.85.17-.08.26.18.37.28-.08-.33-.16-.85-.42-.95l-.1.21c-.01-.12.23-.06.28.03.21.28-.09.4-.19.42l-.06-.21c-.57.21.09.83.06,1.25l-.42-.17.35.43c-.11.09-.34.15-.4-.05-.21.3.15.26-.08.52-.04.03-.05.02-.07-.01l.12.29c-.09-.06-.29.05-.23-.13-.24.52.31.85,0,1.04l-.03-.04c.14.73.31.07.66.62l-.75.37.31.07c-.01.07-.03.22-.16.2.21.28.13-.05.33.12-.28.36.13,1-.36,1.08.23.13.18-.35.34.04-.52.11.09.45-.15.78-.27-.1-.13-.41-.37-.08.46.2-.1.64-.01.92.36.01.15.61.27,1.07-.12-.03-.2.88-.33,1.31h-.06c.37.07.3.52.37.85-.22-.01-.31-.07-.4-.25v.31c.12.07.18.17.22.37l-.28-.08c.02.41.32.82.14,1.35.26.03.71-.42.88.14-.14.02-.38.04-.43-.1.02.05.11.17.06.27l-.23-.22c-.1.24.2.12.17.32-.2,0-.14.14-.3.11-.02-.05.08-.17,0-.24-.04.22-.15.48-.3.56.11-.02.27,0,.29.16.02.41-.24.14-.34.38.14.1,0,.36.29.37,0,.12-.14.14-.22.19.13.21.04.99.35.75l.02-.05v.03s.01,0,.01,0h0c.29.69-.17,1.44-.04,2.13h-.1c.11.41.07.91.28,1.21,0,.12-.18.29-.3.24.07.31.18.35.02.8-.17-.32-.15.11-.13-.32-.09.41-.24.5.03.94-.25-.15-.32.31-.24.5l.18-.29c.04.22.02.41,0,.6l-.33-.1c-.41.83.69,1.5.01,2.14.23.22.16-.45.44-.26-.04.38-.52.78-.52.9-.18.53.49.49.36,1.04.12-.07.44-.14.55.27-.04.38-.5.47-.59.23,0-.09.03-.14.07-.13-.04-.12-.09-.29-.22-.13l.12.05c-.12.19-.11.72-.3.6.11.29.19.12.26-.09-.17.49,0,.77-.12,1.28.07-.08.2-.15.2-.07-.15.74.23.33.28.83-.18.29-.43-.1-.28.4-.12.31-.31.07-.41-.06.23.46-.15.86-.19,1.13l-.1-.24c.06.15.05.26.05.39l.24-.14c-.04.14-.04.26-.14.26.16.15.39-.11.61.18-.12.19.13.58-.18.65.11-.6-.32.07-.37-.44.04.1.04.22,0,.36-.04.02-.06-.02-.08-.06-.28.57.36.26.35.86-.18-.08-.34.14-.3.23,0-.24.3-.11.43.11-.14.38.1.41.09.61l.07-.23c.18.08.16.27.21.53-.14.02-.09-.24-.16-.15.31.3-.32.67-.11,1.08-.12.19-.33.02-.42.19.23.46-.24.5-.05.98.24-.14.18-.16.41.18l-.17-.8.35.51c0-.24-.15-.51-.11-.65.2.24.14.22.33.1-.36.33.21.65-.03,1.03h-.59c-.26.56.3,1,.16,1.75l.1-.24c.23.1.03.46.13.7-.2-.02-.27.13-.39.23.15-.01-.01.54.38.61l-.26.33c-.11.6.56.68.5,1.26-.22-.17-.36.09-.51-.3,0,.19-.04.37.1.37-.12.11.26.53.08.71.09.08.29.11.28.32-.04.02-.1,0-.1,0,.1,0,.13.34.35.15-.61.59.04,1.65-.48,2.17.07.42.13.93.15,1.31-.06-.03-.1,0-.08-.07-.18.53.57.33.38.93-.31.32-.18-.32-.3-.12-.65.11.11.73-.24,1.16l-.04-.1c-.2.33.29.74.28,1.25,0,0-.06-.02-.1,0,.35.32.51.96.63,1.44-.26-.13-.15-.21-.4-.1.05.21.41-.09.51.34-.13.15-.24.46-.51.52l-.04-.4c-.34.23.04.52-.01.74l-.16-.02c.07.61.47.61.45,1.27l.12-.07c.39.36-.22.3.07.66l-.4.1c.09.23.36.84.39,1.27-.27-.26-.4-.76-.56-1.07-.01.23,0,.78.17.91-.03-.09-.11-.21-.05-.3.29.3.42.7.34,1.16-.37-.09-.46.24-.52.36-.06.16-.12.42-.4.14-.02.15-.27.15-.47.09-.34-.06-.74-.18-1.14-.23.19.64-.24-.03-.32.57-.22,0-.29-.03-.3-.08-.17-.18-.34-.35-.5-.54-.08-.22.23-.06.25-.2-.39-.19-.09-.31-.28-.56-.03.23-.26.24-.45.06.07.13.14.28.21.4-.72.04-.27-.68-.98-.68l.27-.08c-.34-.04-1.07-.61-1.62-.39-.02-.09,0-.28.16-.23-.67-.51-1.9-.6-2.34-1.22l.14-.09c-.17-.05-.39.09-.5-.15.04-.05.13-.09.07-.14-.1,0-.52,0-.66-.18l.25-.05c-.67-.6-1.37-.28-2.05-.52.2-.39-.34-.83-.61-1.04l.04-.05c-.88-.49-1.69-.41-2.6-.64-.31-.68-1.66-.99-2.37-1.62.09.13-.17.3-.33.27-.15-.17-.66.02-.46-.33l.07.04c.02-.43-.41-.52-.71-.68l-.28.45c-.23-.54-.73-.72-1.22-.91-.48-.19-.93-.37-.94-.78-.25,0-.46-.15-.71-.16l.17-.23c-.44-.39-.66-.58-1.29-.96l.24-.08c-.32-.26-.9.35-1.22.14l.16-.41c-.59-.42-.98-1.17-1.82-1.28.05-.04.13-.13.24-.08-.28-.21-.99-1.01-1.2-.45.2-.32-.65-.46-1.08-.51l.2-.21c-.49.14-.53.21-1.01.07-.09-.09,0-.25.12-.11-.29-.31-.39.09-.75-.23l.23-.09c-.36-.18-.37-.09-.65.03-.27,0-.67-.33-.64-.58-.1.12-.37.25-.56.12,0-.1.1-.13.15-.15-.57-.38-1.02.03-1.36-.35.02-.09,0-.14-.03-.18.49.14.89.27.84.28.07-.25-.32-.41.1-.65-.39.09-1.04.35-1.4.13-.01-.03-.02-.06-.03-.1l.05-.02c-.08-.05-.17-.05-.25-.02-.11-.07-.18-.12-.3-.16,0-.22-.41-.23-.6-.29-.06.28-.3.16-.12.45-.02-.03.04-.02.18,0,.03,0,.07,0,.09,0l-.02.02c.13.03.3.07.49.11-.19.1-.38.17-.55-.04-.15.15-.3.3-.39.36-.16-.45-.6-.8-.59-1.05-.62-.02-1.31-.34-1.86,0-.18,0-.11-.22-.13-.32.11,0,.21.04.28,0-.34,0-.92-.38-1.16-.09-.33-.35.37-.2-.2-.41l.12-.07c-.85-1.06-2.15-.01-3.17-1.15.08.07.12.11.11.17-1.41-.83-3.15-.5-4.58-1.2-.42-.16-.49.08-.77.23l-.07-.31-.48.31c-.64.21-1.06-.81-1.89-.35l.1.21c-.29-.05-.91.1-.86-.14-.03.04-.1.21-.21.1v-.16s-.71.26-.71.26c-.54-.12.09-.63-.7-.67-.3.06-.84.45-.73.56.12,0,.3.1.31.26l-.27.08c-.05.46-.27.94.39,1.27l.46-.28.15.23h-.39c.22.23.36.04.52-.09.03.12.1.21.19.25l.46-.44c.05.18-.21.36.09.46.21-.2-.2-.41.15-.54.22.21.15.39.41.21.03.12-.02.2-.12.25.23-.14.6-.05.73-.29.22.27.77-.04.72.4.07-.1.41-.33.62-.33-.41.5.77.08.62.64.31-.46,1-.12,1.51-.32-.03.03-.09.1-.13.07.27.08.32.23.48.34.09-.38.53-.41.8-.6.26.43-.28.42-.24.79.04-.32.62-.21.56-.49.21.28.2.16.26.5.15-.47.25-.03.52-.28.3.32-.02.47.41.42.14.19-.24.27-.24.27"/>
    <path class="cls-1" d="M43.64,245.79s-.03.01-.06,0c.02.03.04.06.06.08l.07-.07-.07-.02Z"/>
    <path class="cls-1" d="M76.34,222.65v.02s.02-.03.03-.04c-.01.01-.02.01-.03.02"/>
    <path class="cls-1" d="M77.31,217.97s.05-.03.07-.06c-.02,0-.04.03-.07.06"/>
    <path class="cls-1" d="M77.37,215.95l.1-.29c-.06.12-.08.21-.1.29"/>
    <path class="cls-1" d="M77.51,214.4s-.09-.02-.12-.03h0s.12.03.12.03Z"/>
    <path class="cls-1" d="M77.84,239.11s0,.04.01.06c.05.14.03.04-.01-.06"/>
    <path class="cls-1" d="M77.18,231.76c.05.08.1.16.13.24.02-.13.03-.23-.13-.24"/>
    <path class="cls-1" d="M77.31,232.33c.06-.13.04-.24,0-.34-.02.11-.05.23,0,.34"/>
    <path class="cls-1" d="M77.64,207.66v-.07s-.02,0-.03,0l.03.08Z"/>
    <path class="cls-1" d="M77.6,207.58l-.03-.08s0,.07.03.08"/>
    <path class="cls-1" d="M77.5,207.32l.07.18c0-.06,0-.13-.07-.18"/>
    <path class="cls-1" d="M77.51,209.72l.1.02s-.05-.02-.1-.02"/>
    <path class="cls-1" d="M77.54,210.34c.02-.15.22-.37.15-.58l-.08-.02c.15.1-.24.46-.07.6"/>
    <path class="cls-1" d="M76.28,212.95l.08-.52c-.11.09-.26.21-.28-.03-.32.66.24-.14.2.55"/>
    <path class="cls-1" d="M76.12,214.58c-.05-.28-.16,0-.22-.01.1.18.12.22.22.01"/>
    <path class="cls-1" d="M76.12,226.32l-.26-.03c.04.22.1,0,.26.03"/>
  </g>
</svg>