<?xml version="1.0" encoding="UTF-8"?>
<svg id="Layer_2" data-name="Layer 2" xmlns="http://www.w3.org/2000/svg" viewBox="0 0 268.26 283.87">
  <defs>
    <style>
      .cls-1 {
        fill: #f58676;
      }
    </style>
  </defs>
  <g id="Layer_1-2" data-name="Layer 1">
    <path class="cls-1" d="M256.99,12.78c-.09-.21-.28-.09-.25.49l.33.42-.08-.91Z"/>
    <path class="cls-1" d="M256.23,16.68c.1.69.28,1.51.64,1.1-.24-.71-.09-.87-.41-1.63,0-.58.17-1.01.28-.91-.07-.21.11-.91-.09-1.23-.27.76-.32,1.7-.2,2.72-.09.21-.16,0-.22-.06"/>
    <path class="cls-1" d="M219.03,58.6l.35-.16c-.1.04-.22.09-.35.16"/>
    <path class="cls-1" d="M187.91,77.96c.23-.14.32-.22.31-.25-.21.14-.38.26-.31.25"/>
    <path class="cls-1" d="M182.1,80.22c.13-.04.23-.07.35-.11-.14.02-.28.06-.35.11"/>
    <path class="cls-1" d="M219.03,58.6l-.91.41c0,.12.48-.19.91-.41"/>
    <path class="cls-1" d="M255.31,24.61c.07-.2.1-.37.12-.53-.05.16-.1.32-.16.48.01.01.02.03.04.05"/>
    <path class="cls-1" d="M232.26,49.51l.22-.19c.04-.08.07-.17.09-.25l-.31.44Z"/>
    <path class="cls-1" d="M241.47,41.29c-.22.17-.11.43-.12.58.05-.18.17-.35.34-.52-.03-.04-.1-.06-.23-.06"/>
    <path class="cls-1" d="M253,26.53c.06-.09.11-.19.16-.28-.03.07-.11.19-.16.28"/>
    <path class="cls-1" d="M225.13,54.62s-.1-.03-.15-.02c.02.03.07.03.15.02"/>
    <path class="cls-1" d="M8.73,270.55s-.03.01-.05.02c.05.06.08.07.05-.02"/>
    <path class="cls-1" d="M12.98,283.68l-.1-.16c-.06,0-.11.01-.16.03l.26.13Z"/>
    <path class="cls-1" d="M170.81,83.43s.03,0,.05-.01c.28-.14.11-.07-.05.01"/>
    <path class="cls-1" d="M72.23,123.72c1.21-.33-1.64,1.14.14.56-.21-.02,1.31-1.08-.14-.56"/>
    <path class="cls-1" d="M255.14,24.9c-.07.16-.14.31-.22.47.11-.21.18-.35.22-.47"/>
    <path class="cls-1" d="M72.37,124.28h0s.18-.06.18-.06c-.08.02-.12.04-.18.06"/>
    <path class="cls-1" d="M146.16,93.39c.07.03.18.04.3.04-.02-.02-.09-.04-.3-.04"/>
    <path class="cls-1" d="M164.72,86.63l-.47.17c.19-.06.34-.12.47-.17"/>
    <path class="cls-1" d="M136.17,96.49c-.27.06-.37.06-.71.2.04,0,.07,0,.12,0,.11-.07.28-.14.59-.2"/>
    <path class="cls-1" d="M125.88,99.94c.06,0,.14-.01.21-.02.1-.04.22-.09.32-.13l-.53.15Z"/>
    <path class="cls-1" d="M255.16,24.56c.04.08.04.18-.02.33.05-.11.09-.23.13-.33-.03-.04-.06-.06-.11,0"/>
    <path class="cls-1" d="M136.46,98.59l-1.65.48c.46-.12,1.06-.3,1.65-.48"/>
    <path class="cls-1" d="M20.97,171.54l-.19.32c.09-.12.16-.23.19-.32"/>
    <path class="cls-1" d="M130.01,100.7c-.32.01-.65.07-.98.14-.06.04-.13.08-.16.13l1.14-.27Z"/>
    <path class="cls-1" d="M.31,218.87c.02-.49.1-.64.17-.7-.02.23-.05.49-.08.84,0,.01.02.04.03.06-.05-.05-.09-.11-.12-.21M3.26,212.81c-.08.36-.16.81-.25,1.29-.11.09-.19-.04-.13-.34.04.17.21-.52.38-.95M2.74,215.78h0c-.04.31-.08.57-.11.73.02-.15.05-.36.1-.73M4.59,251.35c-.21-1.51-.46-.67-.72-.96-.35-1.8.16-.87.26-1.51-.24-1.12-.71-1.95-.79-2.8.05-.07.06-.24.15-.05-.41-1.17-.41-3.56-.89-4.94.02-.11.05-.16.08-.19-.17.24-.35.29-.49.25-.06-.69-.34-1.26-.12-1.53.03.42.13.45.22.64l-.16-.71c.29-.67.2.98.46.96-.22-1.39-.66-3.01-.6-4.1.31-.24.27,2.51.48,1.06v1.67c.43-1.31.05,1.01.52-.19-.09-2.19-.33-2.43-.37-4.62-.22-.48-.27.17-.49-.31-.46-3.1.76-2.47.24-4.74-.23-.59-.66-.81-.45-2.44l.39.55c.03-2.11-.55-1.21-.26-3.43.15.4.1,1.66.15,1.35.33-1.43-.22-1.02-.17-2.12l.35-.21c.01-1.13.01-2.27.09-3.47.08-1.21.18-2.46.36-3.7.08.15.11.59.31.03.33-3.14,1.29-6.61,2.23-9.51v-1.19c.08-.26.26-.46.25-.16.42-1.12-.17-.1-.13-.68.16-.66.4-.82.37-.39.3-2.08,1.18-5.88,2.23-7.88l-.06.43c.68-1.59.08-2.02.88-3.42l-.06.3c.73-1.63,1.74-3.33,2.88-4.77.14-.2.27-.3.49-.64.13-.23.25-.43.37-.64.23-.42.44-.83.64-1.23.39-.8.74-1.54,1.1-2.19-.1-.32.26-1.19.61-1.99.35-.8.71-1.53.5-1.76,1.23-1.8,1.01-1.23,2.65-3.76.43-.68.29-1.2.76-2.08l.28.13.46-1.3.71-.42.46-.82c-.23.3-.56.59-.61.5.7-1.29,2.26-2.82,2.41-2.76.62-.98,1.26-1.94,1.92-2.92.05.13-.28.62-.5,1.03.9-1.65.47-.08,1.31-1.62-.2.15-.07-.2-.1-.27.69-.59,1.87-2.17,2.67-3.38v.34c1.62-2.1,3.16-4.47,5-6.8-.75.81-.89.4-.38-.31l.48-.11c.18-.56-.65.67-.16-.4.68-.87.75-.41.46.17l.7-1.15c.13-.01-.01.27.04.4.16-.56,1.6-1.68,1.78-2.45h.12c1.78-2.16,2.61-2.85,4.66-4.17-.12-.24.74-.7,1.24-1.31.79-.47,1.68-1.09,2.44-1.76.74-.63,1.51-1.28,2.3-1.98,1.03-1.06.17-.45.57-.99.25.1,1.88-1.24,1.14-.43,1.98-1.6,2.53-2.03,5.09-4.02-.35.12-.71.31-.59.12.47-.36,1.18-.67,1.18-.53l-.12.11c2.83-2.33,7.61-3.92,9.84-5.87l-.13.11,2.46-1.82c1.23-.71-.61.6.36.17,2.6-2.13,4.34-2.69,6.64-4.1,2.16-.32,6.77-3.01,9.66-3.73l-.23-.08c.61-.44.87-.27,1.4-.46-.13-.08-.81.19-.43-.08,2.93-1.33,5.78-3.04,8.55-4.68,1.39-.82,2.78-1.61,4.18-2.33.7-.36,1.4-.7,2.11-1.01.7-.31,1.41-.59,2.17-.89,2.17-.87.84-1.31,3.74-2.08l-.64.6c4.2-2.16,8.97-3.61,13.18-5.57-.23.16-.2.25-.62.42,1.01-.15,3.39-1.29,3.33-1.47.68-.24.22.09.68.02.97-.23,2.19-1.15,2.77-1.13.1,0-.23.17-.39.25.56-.34,2.79-1.03,2.12-1.05,1.67-.49,3.08-1.24,4.45-1.55.75-.57,2.87-.83,3-1.3.03.43,3.02-.63,4.01-1.14-.31.23.96-.16.61.14,1.2-.39,2.25-.78,1.98-.93,2.35-.16,4.36-1.6,5.82-1.31,3.58-1.14,6.95-2.16,10.13-3.44.06.48-3.58,1.25-3.29,1.6,3.06-1.11,4.72-2.13,7.63-3.39.77-.29-.33.36-.55.54,2.81-1.49,5.58-2.57,8.05-3.92.01.04-.25.2-.49.35.5-.24,1.21-.47,1.06-.62l-.47.27c-.94.11,1.75-1.42,1.78-1.59-.62.87,2.63-.96,1.55.25.32-.18.7-.43.57-.52.52-.17.71-.17.26.17,1.8-.84,1.04-.78,2.72-1.38.03.09-.3.24-.43.4.77-.47,1.58-.93,3.07-1.27-.07.08.12.1-.31.22,2.51-.77,4.2-1.62,7.02-2.45-.66.68.99-.22,1.28.02.49-.24.94-.47,1.41-.72l-.65.1c1.26-.54,2.24-1.28,3.35-1.73l-.84.59c.76-.4,1.52-.83,2.24-1.3-.44.22-.89.42-1.35.61,1.12-.83-.36-.29,1.26-1.12-.29.23,1.15-.71,1.84-.99h0c.47-.48.93-.99,1.75-1.56.28-.08.12.42.3.37.17-.34.66-.79,1.34-1.17.65-.38,1.42-.69,1.75-.98-.23.17-.17.34-.07.34l.42-.41c.62-.15.73-.15.69.02,1.83-.7-.75-.13,1.45-.9-.16.1-.06.09-.39.29.27-.11.54-.23.8-.37.14-.07.23-.13.4-.23l.23-.14c.06-.06.11-.14.16-.21.35-.46.64-.8.99-1.18.68-.73,1.49-1.3,2.39-1.81.71-.04-1.42,1.04-.67.91,2.3-1.69,5.08-3.29,7.52-4.92l-.47.28c.04-.63,1.89-1.04,2.95-2-.27.22-.22.48-.17.38,1.67-.99,3.3-2.21,5.81-3.82l-.25.29c1.07-.48,2.69-1.45,3.81-2.03.25-.29.88-.64.4-.58,3.78-1.36,6.06-4.17,9.13-5.82-.32.25-.7.69-.44.49.75-.62,1.47-1.28,2.18-1.94-.33,0-.38.15-.97.42.19-.33.74-.93,1.27-1.41-.86.97.27.25.77-.05-.12.02-.03-.17-.12-.18,1.39-.78-.14-.47,1.52-1.73v.15c.5-.57.9-1.17,1.55-1.69.44-.05-.52.63-.4.81.83-.79,1.37-1.86,2.36-2.35-.33.37-.88.82-1.2,1.2,1.08-.53,1.13-.66,1.82-1.17l-.07.05,1.62-1.15-.45.26c.67-1.41,2.25-1.97,3.4-3.6-1.13,1.57-.06.38.04.68.44-.28,1.07-.75.97-.54.51-.81,1.3-.97,1.92-2.19.12.02.67-.77.72-.47.71-1.02-.32.14-.35-.02.95-1.62,2.87-3.42,3.85-5.85.11-.21.21-.41.31-.59.12-.23.25-.43.3-.61-.08-.21-.15-.43-.19-.58-.04-.12-.06-.24-.08-.36-.03-.23-.02-.47.02-.71.1-.45.49-.95.98-1.61.59-.45-.12.65-.12.65.44-.39.82-.74,1.11-1.23.25-.43.45-.88.64-1.4-.02.23.15.06.39-.21.33-.83-.08-.65.44-1.7.04.22.13.51.07.95.15-.5.26-1.03.32-1.55.06-.51.12-1.02.18-1.54.23-.24.12.67.14,1.05.22-1.17.47-3.04.24-3.44l-.21.73c.06-.42.26-.19.26.14.03,1.03-.37,1.42-.48,1.46l.09-.74c-.71.64-.47,2.95-1.19,4.37-.04-.24-.09-.49-.14-.72-.08.51-.19,1.03-.32,1.54-.25.25-.56.35-.28-.33-.33.44-.41.66-.49.86-.08.2-.14.4-.51.69-.09.06-.08.01-.03-.07-.18.29-.39.58-.6.87.07-.21-.34-.04.14-.5-.32.28-.59.55-.82.85-.23.26-.45.69-.48.99-.12.64.04,1.17.04,1.39-.03.07-.12.13-.19.17l.04-.11c-.13.24-.23.43-.31.57-.09.17-.14.29-.17.38-.06.17-.03.2.02.22.1.03.26,0-.1.93l-1.35.78.13.36c-.15.23-.46.67-.52.52-.37.95.21-.08.06.51-.92.97-2.03,3-2.64,2.91-.14.49.98-.83.16.31-.66-.02-1.05,1.25-2.13,1.91.09-.43,1.01-1.12-.03-.45-.21.81-1.82,1.5-2.56,2.2.21.29-1.64,1.52-2.9,2.71,0-.17-2.65,1.95-3.86,3.06v-.07c.05.45-1.17,1.56-2.02,2.4-.12-.18-.01-.38.39-.88-.27.25-.55.5-.83.74-.12.26-.34.52-.87,1.02l.03-.37c-1.13.96-2.15,2.11-3.85,3.08.06.26,1.71-.36.1.96-.14-.06-.35-.2.07-.55-.14.11-.45.45-.79.6l.55-.64c-.79.42-.27.41-.87.79-.1-.16-.52.18-.52,0,.14-.11.56-.28.74-.49-.68.42-1.56.85-1.92.91.12.05.15.21-.33.54-1.29.81-.57.09-1.38.47-.24.3-1.15.68-1.01.93-.39.23-.53.16-.72.18-.61.5-3.18,1.86-2.24,1.67l.19-.08s-.07.05-.11.07h0s0,0,0,0c-2.1,1.52-4.79,2.53-6.9,4.02l-.05-.08c-1.25.9-2.8,1.99-3.57,2.73-.38.25-1,.42-.9.22-.96.65-1.02.8-2.59,1.49.95-.71-.43.07.99-.69-1.37.67-1.77.7-3.06,1.76.35-.5-1.18.36-1.74.85l1.01-.47c-.65.47-1.31.87-1.9,1.35l.1-.5c-.73.45-1.31,1.02-1.77,1.62l-.17.23-.08.11-.02.04c-.03.07-.04.07-.14.15-.24.18-.5.35-.76.51-1.06.63-2.21,1.06-3.53,1.32-.36.3.08.11.53-.02.45-.14.89-.26.59,0-.7.25-1.47.47-2.11.73-.63.25-1.17.56-1.32.68-1.58,1.06-1.05,1.48-2.78,2.51.27-.05.69.07-.55.96-1.27.68-1.78.43-1.04-.05.29-.17.45-.22.46-.18.37-.26.84-.61.3-.42l-.09.19c-.64.27-2.36,1.14-2.05.77-.9.55-.32.36.42.06-1.69.64-2.6,1.23-4.36,1.8.3-.05.61-.03.33.08-2.63.81-1.05.61-2.83,1.24-1.09.15.24-.49-1.54.18-1.16.21-.33-.21.09-.43-1.6.68-3.19.75-4.19,1.01l.87-.35c-.52.21-.96.34-1.42.48l.59.05c-.54.13-.99.27-1.01.18-.49.32.54.21-.46.75-.74.12-2.05.89-2.39.72,2.18-.75-.38-.18,1.45-.93-.34.17-.79.33-1.31.5-.09,0,.05-.09.18-.16-2.14.58-.8.68-2.88,1.55.19-.26-.62-.08-.94.1.84-.36.52.08-.18.53-1.38.46-1.39.72-2.08,1.02l.81-.3c-.19.27-.86.54-1.74,1.01-.14-.08.79-.46.43-.36-.88.72-2.43.78-3.74,1.61-.7.2-.21-.25-.82-.05-1.47.92-1.82.6-3.37,1.5.57,0,.63-.09-.42.61.87-.43,1.75-.9,2.63-1.37l-1.59,1.1c.82-.38,1.66-.93,2.17-1.12-.74.55-.68.46-.2.44-1.28.22-2.13,1.22-3.54,1.54l-.2-.52c-2.04.54-3.41,1.56-6.15,2.19l.89-.15c-.29.32-1.65.5-2.5.82.03-.2-.54-.12-.95-.13.09.12-1.99.5-2.14.92l-1.29.08c-2.24.47-2.37,1.15-4.5,1.69.57-.37-.43-.22.95-.76-.71.2-1.36.35-1.33.48-.46.01-1.87.83-2.56.86-.27.17-.3.38-1.08.62-.1,0-.03-.09-.03-.09.03.09-1.18.51-.43.48-2.35.14-5.94,2.01-7.96,2.22-1.48.6-3.25,1.31-4.59,1.85.06-.08-.03-.09.23-.17-1.92.55-.92.93-3.11,1.56-1.2.14,1.05-.58.34-.43-.54-.45-2.51,1.05-4.08,1.27l.33-.17c-1.17.23-2.55,1.24-4.34,1.89,0,0,.06-.08-.03-.09-1.08.76-3.32,1.76-4.98,2.53.42-.43.72-.43.29-.52-.74.34.39.26-1.1.94-.55.08-1.69.43-1.94.25l1.42-.6c-.88,0-1.84.77-2.62,1.03l.03-.17c-2.16.97-2.02,1.28-4.38,2.31h.3c-1.08.91-1.17.31-2.25,1.2l-.57-.11c-.77.52-2.56,1.93-3.88,2.86.61-.72,2.14-1.85,3.09-2.59-.8.45-2.62,1.63-2.91,2.03.28-.22.62-.54.96-.68-.77.82-1.9,1.73-3.42,2.66-.08-.38-1.08.2-2.27.85-1.18.65-2.57,1.33-3.28,1.34-2.75,1.54-5.86,2.3-9.28,3.88,1.48-.04-.99.47-.51.89-.77.4-1.08.54-1.16.54-.85.29-1.7.59-2.53.92-.65.16.66-.51.53-.58-1.73.89-.85.17-2.05.69.35.04-.42.59-1.4,1.11.49-.2.98-.41,1.48-.6-2.13,1.67-2.21.83-4.29,2.47l.6-.59c-1.08.81-4.27,2.6-5.14,3.68-.24.07-.61.1-.12-.24-2.83,1.62-5.9,4.21-8.16,5.43l.12-.25c-.48.38-.7.82-1.42,1.15,0-.07.11-.25-.13-.1-.23.23-1.15,1.15-1.85,1.58.14-.18.29-.37.45-.54-2.68,1.8-3.58,3.35-5.42,5.24-.08-.07-.26-.03-.5.1-.22.11-.49.28-.79.47-.6.38-1.35.83-1.88,1.12v-.07c-1.51.93-2.95,1.89-4.08,3.11-1.12,1.19-1.96,2.48-2.88,3.89-.83.74-1.82,2.09-3.04,3.57-1.2,1.51-2.43,3.19-3.52,4.46.37-.37.23.25-.08.75-.54.58-1.03,1.89-1.29,1.58l.17-.22c-.67.26-1.54,1.59-2.31,2.56l.3.45c-1.32,1.07-2.6,2.84-3.68,4.49-1.08,1.66-1.96,3.21-2.73,3.82-.31.74-.8,1.6-1.08,2.34l-.23-.16c-.57.95-.99,1.67-1.39,2.47-.21.39-.41.81-.63,1.28-.23.49-.46,1.04-.69,1.69l.02-.59c-.61,1.45.07,2.07-.41,3.36l-.55.25c-.24.6-.5,1.17-.81,1.71-.15.27-.31.54-.48.79-.11.17-.04.06-.21.25l-.34.4c-.9,1.09-1.66,2.28-2.12,3.56-.03-.07-.11-.19.09-.59-.16.28-.41.7-.65,1.17-.11.21-.28.53-.37.77-.1.25-.19.5-.28.74-.36.96-.53,1.71-.18,1.58-.37-.08-.94,2.56-1.2,3.96l-.2-.29c-.02,1.24.06,1.3-.33,2.93-.15.37-.31.28-.1-.21-.51,1.23-.04,1.05-.61,2.56v-.62c-.4,1.31-.27,1.22-.26,1.99-.11.85-.69,2.48-.99,2.63.11.21.14.97-.1,1.74-.12.09-.11-.21-.11-.36-.67,2.19-.38,3.36-.92,4.85-.1.02-.16.11-.21.23.32-1.78.64-3.2.62-3.06-.25-.05-.58,1.38-.7.18-.05,1.19,0,3.22-.34,4.61-.04.06-.07.13-.12.17v-.15c-.09.32-.1.62-.1.89-.11.44-.18.72-.25,1.15-.22.15-.36,1.62-.42,2.39.29-.03.15.93.46.04-.03.12-.02-.14.01-.63,0-.11.02-.24,0-.31,0,.01.01.03.02.05.06-.47.14-1.09.22-1.79.06.59.1,1.19-.16,1.97.14.4.29.82.36,1.06-.49.97-.76,2.88-1.01,3.14.1,2.22.07,5.23.65,6.6.09.62-.13.72-.2.96-.07-.36-.07-.79-.15-.99.17,1.25.17,3.72.58,4-.08,1.59-.39-.87-.21,1.29l-.13-.29c-.35,4.32,1.43,6.86,1.22,11.64,0-.33,0-.49.06-.57.32,5.41,1.93,10.97,2.65,16.28.26,1.5.53,1.61.92,2.48l-.21.39c.23.49.52.97.77,1.45.44,1.05.54,2.03.69,3.08.14,1.05.45,2.15,1.15,3.43l.07-.41c.16.49.46,1.25.69,1.87.24.62.45,1.09.3,1.06.08.09.33.24.39.65l-.14.08,1.26,2.23c.73,1.83-.75-.03.56,2.56.56.94,1.84,2.52,1.75,2.11-.2-.39-.43-1.02-.3-1.12l.53.83c.5-.05,1.25.38.45-1.84l-1.02-1.33-.04-.56.65,1.21c-.17-.78-.57-1.13-.95-1.58.04-.16.02-.4-.06-.71l-1.05-1.31c.09-.24.62.53.29-.49-.49-.62-.09.81-.71-.29-.12-.79.14-.64-.4-1.42.06-.16.21,0,.4.31-.49-.69-.81-2-1.21-2.32-.03-.85-.99-2.58-.55-2.63-.21-.2-.75-1.28-.99-2,.9,1.18-.77-2.7-.12-2.49-.75-.86-1.09-3.5-1.79-5.19.06.09.18.27.2.43-.21-.99-.09-1.31-.14-1.96-.41-.06-.81-1.58-1.22-2.38.12-1.28.6.66.88.22-.31.12-.73-2.06-.9-1.6.07-.97-.02-.82.22-1.35-.51-.09-.23-.86-.65-1.59.02-1.39.38-.41.01-1.88.05-.73.41.57.41.57"/>
    <path class="cls-1" d="M219.44,58.42l-.06.03c.05-.02.11-.04.14-.04-.05.01-.05,0-.08,0"/>
    <path class="cls-1" d="M234.38,49.26s.11-.03.22-.11c-.02,0-.11.05-.22.11"/>
    <path class="cls-1" d="M239.9,44.3l.88-.6c-.39.25-.67.44-.88.6"/>
    <path class="cls-1" d="M244.44,40.7c.02-.08.01-.12,0-.16h0s0,.16,0,.16Z"/>
    <path class="cls-1" d="M165.91,88.04c-.07.04-.14.07-.2.1-.46.26-.14.1.2-.1"/>
    <path class="cls-1" d="M191.28,77.02c-.21.21-.42.42-.65.62.42-.27.74-.49.65-.62"/>
    <path class="cls-1" d="M136.64,98.54h0c-.06.02-.12.03-.18.05l.18-.05Z"/>
    <path class="cls-1" d="M189.53,78.34c.46-.22.8-.46,1.1-.7-.35.22-.77.46-1.1.7"/>
    <path class="cls-1" d="M256.67,19.67l.06-.27s-.03-.02-.04-.04l-.02.31Z"/>
    <path class="cls-1" d="M256.69,19.37l.02-.3c-.02.14-.04.26-.02.3"/>
    <path class="cls-1" d="M256.72,18.42l-.02.64c.03-.22.08-.49.02-.64"/>
    <path class="cls-1" d="M254.02,26.85l.02.14c.02-.06.01-.1-.02-.14"/>
    <path class="cls-1" d="M252.56,28.63c.28-.35,1.02-.81,1.5-1.53l-.02-.11c-.13.45-1.38,1.21-1.48,1.64"/>
    <path class="cls-1" d="M247.21,36.1c.4-.48.79-.98,1.16-1.49-.28.22-.64.5-.18-.22-1.62,1.77.51-.26-.97,1.7"/>
    <path class="cls-1" d="M242.99,40.19c.74-.71-.11-.1-.12-.18-.43.49-.53.61.12.18"/>
    <path class="cls-1" d="M207.68,65.45l-.05-.25c-.67.43.05.08.05.25"/>
    <path class="cls-1" d="M201.41,70.85c.22-.13.44-.25.66-.37l.13-.38c-.28.24-.54.49-.78.75"/>
    <path class="cls-1" d="M127.61,99.07l.34.19c.51-.23.49-.58-.34-.19"/>
    <path class="cls-1" d="M97.76,111.15c-.4,0-1.28.34-1.7.73.66-.32,1.38-.55,1.7-.73"/>
    <path class="cls-1" d="M254.77,54.04c.06.08.25.12.26-.01l-.27-.2v.21Z"/>
    <path class="cls-1" d="M255.67,53.43c-.11-.2-.33-.44-.65-.43.26.23.13.23.43.49-.01.13-.19.18-.29.12.06.07-.14.16.02.29.3-.07.4-.28.28-.55.08-.03.15.04.21.07"/>
    <path class="cls-1" d="M256.93,40.58l-.05.08s.04-.05.05-.08"/>
    <path class="cls-1" d="M258.55,32.68c0,.06.02.09.05.1-.01-.06-.02-.11-.05-.1"/>
    <path class="cls-1" d="M259.15,31.37s-.02.05-.04.08c.04-.03.06-.06.04-.08"/>
    <path class="cls-1" d="M256.93,40.58l.13-.19c-.11-.03-.1.1-.13.19"/>
    <path class="cls-1" d="M255.33,51.57s.03.08.06.12v-.11s-.06-.02-.06-.02Z"/>
    <path class="cls-1" d="M257.01,44.05v.06s.09.04.14.05l-.14-.12Z"/>
    <path class="cls-1" d="M257.16,46.76c0-.06-.27-.07-.4-.09.12.03.17.08.2.13.05,0,.12-.01.2-.04"/>
    <path class="cls-1" d="M256.55,51.13l.03.08s-.02-.05-.03-.08"/>
    <path class="cls-1" d="M257.09,42.15s.08,0,.1-.02c-.04,0-.07,0-.1.02"/>
    <path class="cls-1" d="M229.06,30.72s-.02-.02-.03-.03c0,.03.02.05.03.03"/>
    <path class="cls-1" d="M259.91,28.91h0c.02.08.02.04,0,0"/>
    <path class="cls-1" d="M266.34,5.22c-.28.53-.43.62-.62.82-.19.18-.43.48-.67.98.11-.18.38-.47.62-.77.26-.34.48-.59.67-1.02"/>
    <path class="cls-1" d="M255.38,51.51s0-.07.01-.1c-.02.05-.02.08-.01.1"/>
    <path class="cls-1" d="M265.05,7.01h0s-.04.1-.04.1c.02-.04.03-.06.05-.1"/>
    <path class="cls-1" d="M260.45,23.16c-.05,0-.09.02-.13.04.03,0,.07,0,.13-.04"/>
    <path class="cls-1" d="M259.55,27.36l.05-.1s-.04.07-.05.1"/>
    <path class="cls-1" d="M260.57,20.99s.08-.06.07-.14c-.01,0-.03,0-.04.01.03.04.04.08-.03.13"/>
    <path class="cls-1" d="M261.31,18.82s-.05.02-.07.02v.07s.07-.1.07-.1Z"/>
    <path class="cls-1" d="M235.15,26.96c-.08-.04-.16-.1-.22-.16.13.15-.16.37.22.16"/>
    <path class="cls-1" d="M255.49,51.59c-.07-.02-.1-.05-.11-.08v.08s.08.02.11,0"/>
    <path class="cls-1" d="M258.46,20.34l.15-.36c-.06.1-.11.23-.15.36"/>
    <path class="cls-1" d="M250.9,18.85l-.06.07s.06-.04.06-.07"/>
    <path class="cls-1" d="M258.94,18.87c.12-.04.19-.09.26-.15-.02-.02-.03-.05-.05-.06l-.2.21Z"/>
    <path class="cls-1" d="M238.77,22.75c.09-.08.15-.05.19-.01-.05.03-.1.06-.17.11v.04c-.01-.05-.02-.1-.02-.14M241.05,23.71c-.09.03-.19.08-.29.13-.07-.07-.09-.16-.02-.19,0,.07.17.04.31.06M240.38,24.04h0c-.07.04-.12.08-.16.1.03-.02.08-.05.15-.1M233.01,28.51c.32-.16-.03-.37-.07-.58.33-.29.31.13.54.21.19-.2.21-.58.4-.66.04.04.09.04.08.13.12-.37.76-.4.89-.85.04.02.06.04.08.05-.13-.13-.23-.28-.28-.39.15-.08.17-.33.34-.16-.1.04-.06.12-.07.21l.11-.16c.3.22-.16.2-.04.42.25-.24.48-.65.75-.68.2.26-.49.36-.04.46l-.42.07c.52.31-.24.07.28.43.52-.15.45-.4.97-.55.02-.21-.16-.21-.14-.42.53-.6.92.46,1.22-.15.03-.25-.11-.63.35-.61l.05.38c.49-.19.02-.59.63-.6-.02.17-.31.28-.22.28.45.11.13-.29.37-.4l.2.26c.48-.28.92-.74,1.45-1.05.01.1-.03.23.14.26.62-.47,1.52-.68,2.32-.9l.09-.37c.06-.03.17.05.14.13.3-.05-.08-.16-.02-.32.13-.1.27.03.23.15.31-.44.99-1.12,1.62-1.12l-.05.12c.42-.1.11-.71.59-.67l-.04.08c.86-.32,1.61-1.01,2.44-.98-.1-.4.89-.27.64-.78.6-.01.52.15,1.27-.05.19-.07.07-.44.25-.6l.16.24.12-.42.34.21.16-.17c-.09.03-.24-.02-.27-.1.24-.29.86-.25.95-.13l.59-.63c.05.11-.05.21-.1.33.22-.48.24.22.45-.22-.08-.03-.07-.16-.1-.21.28.04.68-.19.94-.44l.06.2c.57-.28,1.07-.77,1.68-1.18-.27.07-.44-.24-.29-.39l.26.2c0-.23-.25.03-.17-.31.24-.12.37.17.3.34l.2-.27c.07.06.04.14.1.25-.02-.23.66-.08.6-.46l.08.06c.58-.42.75-.7,1.19-1.07-.17-.21.04-.3.02-.57.38-.19.88-.33,1.25-.65.18-.32-.08-.23-.07-.45.19.16.55-.16.48.13.43-.4.55-.51,1-1.1-.13-.03-.23,0-.25-.1.08-.11.31-.11.37,0v.04c.2-.39.7-.54,1.16-.67.14-.05.18-.03.21-.01.04.01.07.02.09.03.04,0,.05-.04.09-.21v.03c.04-.13.13-.28.25-.45.09,0-.13.28-.12.45.13-.26.24-.35.29-.36.09-.03.01.13.33-.26-.44.67-.44.66-.31.48.13-.2.2-.15-.21.33l.31-.35c.29-.3-.18.23-.26.31.23-.24.28-.32.44-.47.13-.01-.06.36-.26.56-.1.1-.2.18-.28.21-.04.02-.07.01-.11.03l-.26.45c-.24.45.74.58.1,1.02l-.23-.28c-.04,1.08-.86,1.93-.95,2.99-.05-.08-.14-.12-.1-.21-.31.12-.33.73-.15.8-.08.14-.18-.03-.31.03-.21.15.08.61-.19.64-.04,0-.05-.08-.05-.13.05.17-.28.61.03.57-.26.32-.15.74-.42.98.23.28-.36.59.03.78-.43-.16-.57.55-.43.85-.11-.11-.2.17-.35.03-.08.28-.07.55.17.56-.65.4.15,1.11-.57,1.27.06.88.12,1.67.17,2.43-.45-.05.04-.8-.43-.83.09.75.47,1.13.28,1.81-.08.17-.18-.12-.25-.18.11.69-.19,1.3-.03,1.93-.04,0-.08-.08-.1-.14,0,.12-.1.27.1.28l-.04-.12c.32-.16.55.55.7.59-.55-.27-.23.58-.92.17.03.08.11.19.25.19-.06.11-.14.14-.28,0,.05.44.29.32.22.7-.1-.01-.12-.1-.23-.15.16.22.32.44.19.76-.06-.03-.14,0-.12-.1-.06.56.36,1.03.07,1.61-.39-.24-.17.19-.55.17l.05.35.2-.11c-.06.29.17.58,0,.82l-.11-.24-.03.55.19-.29c.14.32.47.04.3.41-.02-.08-.06.29-.3.41h0c.09.16.19.33.06.53-.13.04-.4-.11-.48-.09.28.19-.04.69.25.93-.07-.07-.26-.11-.3-.09l.23.16c-.11.12-.15.13-.3.09-.12.4.49-.05.2.39-.01-.04-.05-.03-.08-.11-.2.46-.02.96-.22,1.38-.39.07-.02-.4-.36-.3-.05.65.2,1.39,0,2l.06-.11c.51.17-.34.42-.15.77-.02-.08-.27-.15-.22-.12-.16.41-.03.89.03,1.56l-.12-.1c-.17.23-.17.67-.27.94.12.1.09.25.29.18-.85.82.31,1.65-.33,2.39,0-.09-.12-.22-.12-.15l.13.65c.23-.05.14-.09.31-.22.14.08.25.26.25.42-.16-.28-.37,0-.5.14.07-.02.15.02.22,0-.4.35.46.05.2.51l-.12-.02c.07.17.24.32.21.5-.26.08-.13-.18-.35-.18.03.26.53.49.27.73-.08-.11-.09-.26-.16-.37-.3.27-.22.29-.26.48v-.02s-.12.44-.12.44l.08-.11c.71.3.15.65.62,1.07-.45-.41-.25-.06-.56-.09-.08.11-.17.28-.26.23.25.2-.18.34.18.62-.1.01,0,.21-.25.17.07.26.17-.06.29-.04.33.41-.41.93.02,1.52.15.5.47.62.58,1.11-.18.14-.34-.17-.34-.17-.18.23-.18.42-.11.67-.08-.06-.16-.02-.27.03,0,.19.33.18.14.4-.1-.06-.26-.15-.35-.25.04.23.17.47.21.72-.18.02-.22-.19-.31-.29.03.26-.02.67.22.81l.14-.14c-.02.09-.24-.01-.26-.09-.14-.26.18-.28.27-.28,0,.06.02.12.02.17.6-.04.06-.68.16-.99l.38.2c-.09-.13-.19-.27-.29-.39.12-.06.36-.08.39.1.24-.22-.11-.23.14-.42.04-.02.06,0,.07.02l-.09-.25c.08.06.3,0,.22.13.29-.42-.24-.73.09-.87l.02.04c-.1-.61-.3-.08-.63-.54l.77-.27-.3-.07c.01-.06.04-.18.16-.16-.21-.23-.13.04-.33-.1.28-.29-.12-.82.36-.88-.23-.1-.17.29-.34-.03.52-.1-.1-.36.14-.64.27.08.13.34.37.06-.46-.15.08-.53-.01-.76-.36,0-.17-.49-.31-.87.12.02.17-.72.29-1.08h.06c-.37-.05-.31-.41-.39-.68.22,0,.31.05.41.19v-.25c-.13-.06-.19-.13-.24-.29l.27.06c-.01-.32-.33-.66-.13-1.08-.26-.03-.72.33-.88-.13.14-.01.38-.02.43.1-.02-.04-.11-.14-.05-.22l.23.19c.11-.19-.19-.11-.16-.26.2.01.14-.11.3-.08.02.04-.09.13,0,.19.04-.17.16-.38.32-.44-.11,0-.27-.01-.28-.14.01-.33.25-.1.36-.28-.13-.09.03-.28-.27-.31,0-.1.15-.1.23-.13-.11-.18.07-.77-.27-.62l-.03.04v-.03s0,0,0,0h0c-.21-.59.36-1.13.33-1.7l.1.02c-.05-.35.07-.74-.1-1.01.02-.1.22-.2.33-.14-.03-.26-.13-.31.1-.65.12.28.17-.06.08.28.14-.31.31-.36.11-.76.23.16.36-.2.31-.36l-.22.2c0-.18.05-.33.1-.48l.31.14c.52-.61-.45-1.32.31-1.72-.2-.21-.23.34-.47.14.1-.3.63-.55.65-.65.26-.39-.4-.47-.2-.9-.13.04-.45.04-.5-.31.1-.3.56-.3.62-.09,0,.08-.05.11-.09.1.02.11.05.25.2.14l-.11-.06c.15-.13.21-.56.39-.43-.07-.25-.17-.13-.27.03.24-.37.11-.62.3-1.02-.08.06-.22.1-.21.03.25-.58-.18-.3-.16-.71.22-.21.41.15.33-.29.16-.23.32,0,.4.11-.16-.41.26-.68.34-.89l.06.21c-.04-.13-.02-.22,0-.32l-.25.08c.06-.11.08-.21.17-.19-.13-.14-.4.04-.58-.23.14-.14-.06-.49.26-.5-.18.48.32-.01.31.41-.03-.09-.01-.18.05-.3.04-.01.06.03.08.06.35-.43-.32-.26-.24-.75.17.08.35-.07.32-.16-.03.2-.31.06-.42-.14.18-.3-.05-.35-.02-.51l-.09.18c-.17-.08-.12-.24-.15-.46.14,0,.07.21.14.14-.28-.27.39-.51.22-.87.14-.14.33.02.43-.11-.19-.4.29-.39.14-.81-.25.09-.19.12-.4-.18l.1.67-.3-.45c-.03.2.1.43.05.54-.17-.22-.11-.19-.32-.12.39-.24-.15-.55.12-.84l.59.06c.31-.46-.22-.86,0-1.41l-.12.17c-.22-.1.01-.36-.06-.56.19.04.29-.06.42-.12-.15-.01.09-.41-.29-.53l.3-.21c.21-.43-.42-.64-.24-1.07.17.18.36.02.44.34.04-.15.11-.27-.03-.3.14-.05-.14-.47.09-.56-.07-.08-.26-.16-.19-.32.04,0,.09.03.09.03-.09-.03-.05-.3-.3-.21.73-.29.39-1.29,1.05-1.52.06-.34.15-.74.25-1.04.05.04.09.03.05.08.33-.33-.43-.43-.05-.82.39-.12.06.3.23.2.63.16.15-.57.63-.75v.09c.31-.15.02-.65.23-1.01,0,0,.04.04.09.04-.19-.38-.08-.91,0-1.3.18.2.05.21.32.23.04-.18-.4-.1-.33-.45.18-.06.39-.25.66-.19l-.12.32c.4-.03.16-.41.29-.55l.14.08c.16-.5-.2-.64.03-1.15h-.13c-.25-.38.33-.21.18-.61.15-.02.3-.05.45-.09,0-.3-.09-.86-.04-1.18.28.06.25.57.3.94.11-.29.32-.98.13-1.01,0,.08.07.19-.04.32-.24-.23-.31-.46-.17-.89.48-.26.64-.63.79-1.06.14-.42.27-.86.73-1.48-.07-.28.09-.82.31-1.47.06-.17.12-.33.17-.5l.04-.12h0s0,.04,0,.04c0,.03,0,.02-.03-.01-.52.75-.53.74-.57.77-.04.03-.07,0-.66.83-.15.13-.17.08-.08-.04.1-.21.2-.43.34-.78.14-.33.29-.67.5-1.24.56-1.23.27,0,.64-.67.06-.2.1-.37.14-.5.05-.17.11-.33.17-.48.11-.29.23-.54.36-.78.26-.54.49-.81,1.06-2.56-.52,1.11-.66,1.01-.53.25-.62.96-1.38,2.15-2.28,3.55l1.71-2.46-.46,1.29c-.02-.11-.04-.22-.05-.31-.52.82-.94,1.47-1.33,2.07-.32.47-.59.89-.88,1.31l-.19.27-.07.1-.14.17-.28.34c-.17.2-.53.75-.64.81-.09.1-.2.22-.33.38-.06.08-.13.16-.2.26-.05.05-.11.1-.17.16l.19-.22.26-.39c-.23.34-.39.41-.62.57-.22.16-.45.28-.68.43-.46.29-.9.62-.99.97-.1-.01-.29-.08-.11-.25-.14.08-.29.17-.43.27-.15.11-.17.15-.26.23-.15.15-.28.32-.41.47-.26.31-.52.6-.84.67l-.05-.14c-.09.12-.02.35-.25.35-.03-.05-.05-.14-.11-.11-.02.08-.12.42-.32.47v-.22c-.68.32-.59.99-.99,1.44-.29-.31-.82-.06-1.08.06l-.03-.05c-.68.47-.86,1.12-1.37,1.69-.67-.07-1.41.73-2.23.93.14,0,.17.28.08.38-.2.02-.26.5-.46.17l.06-.03c-.33-.24-.59.03-.85.17l.24.44c-1.06-.23-1.59,1.22-2.31.87-.09.2-.3.3-.39.5l-.14-.23c-.48.19-.73.28-1.25.64v-.23c-.31.16.02.88-.26,1.05l-.3-.29c-.55.3-1.29.3-1.65.9-.02-.05-.07-.16.02-.23-.27.13-1.15.31-.77.73-.2-.3-.59.28-.81.57l-.09-.25c-.07.43-.03.51-.33.78-.1.02-.19-.14-.04-.14-.35.03-.08.33-.49.4l.03-.21c-.3.14-.22.2-.28.46-.12.19-.57.23-.73.05.04.14-.01.39-.21.42-.07-.07-.03-.15-.02-.18-.57.08-.56.62-1.02.55-.05-.07-.09-.1-.13-.11.39-.18.7-.32.68-.29-.12-.21-.45-.1-.37-.51-.15.28-.39.83-.75.88-.03-.01-.05-.03-.08-.05l.02-.04c-.08.01-.14.06-.18.12-.12.01-.19.01-.29.05-.13-.16-.42.07-.58.14.14.23-.09.29.21.39-.03,0,.01-.04.11-.1.02-.02.05-.03.05-.06v.03c.1-.05.23-.12.38-.2-.06.18-.14.34-.38.29,0,.19,0,.39-.02.48-.39-.23-.9-.21-1.07-.39-.41.36-1.1.62-1.16,1.2-.11.12-.23-.05-.32-.1.06-.08.15-.12.16-.2-.21.24-.79.43-.69.77-.42.03.04-.38-.41-.1v-.12c-1.2-.03-1.06,1.51-2.44,1.42.09,0,.14,0,.18.04-1.34.34-2.21,1.53-3.6,1.81-.37.12-.27.33-.35.59l-.24-.18-.11.48c-.28.49-1.24.03-1.47.83l.21.08c-.21.15-.49.62-.63.44,0,.04.1.19-.05.19l-.12-.09c-.08.21-.14.43-.2.64-.39.33-.48-.45-.94.2-.11.31.02.92.17.85.06-.1.22-.21.37-.15l-.03.23c.41.21.81.43,1.3.22-.04-.12-.08-.24-.12-.38l.25.03c-.06.07-.07.14-.11.21.23-.01.11-.17.09-.33.12.04.21.05.29.03-.05-.16-.1-.33-.15-.5.16.08.19.32.4.22-.06-.24-.4-.13-.34-.41.28.01.37.16.38-.09.11.06.13.14.11.22.02-.21.29-.35.19-.58.29.05.44-.43.7-.12-.02-.11.03-.44.15-.56.07.57.53-.36.81.12-.09-.48.55-.63.77-1.05,0,.04,0,.12-.04.12.22-.09.36-.02.54-.03-.19-.32.07-.59.12-.88.46.15.09.45.36.69-.18-.24.27-.5.05-.66.32.08.23,0,.5.2-.22-.41.14-.17.14-.5.41.04.3.33.54.04.23.04.03.33.03.33"/>
    <path class="cls-1" d="M238.74,23.15s-.02.03-.03.04c.03,0,.06.02.09.02v-.09s-.06.03-.06.03Z"/>
    <path class="cls-1" d="M256.87,40.67h0s-.03,0-.04.01c.01,0,.02,0,.04-.01"/>
    <path class="cls-1" d="M255.74,44.44s-.05.02-.07.05c.02,0,.04-.02.07-.05"/>
    <path class="cls-1" d="M255.74,46.1l-.09.24c.05-.1.08-.18.09-.24"/>
    <path class="cls-1" d="M255.65,47.37s.09.02.12.02h0s-.12-.02-.12-.02Z"/>
    <path class="cls-1" d="M257.68,27.23s0-.03,0-.05c-.04-.12-.03-.04,0,.05"/>
    <path class="cls-1" d="M257.36,33.22c-.04-.07-.08-.14-.1-.21-.04.1-.06.18.1.21"/>
    <path class="cls-1" d="M257.32,32.74c-.08.1-.08.19-.06.27.03-.08.08-.18.06-.27"/>
    <path class="cls-1" d="M255.06,52.6l-.03.05s.03.01.04.02v-.07Z"/>
    <path class="cls-1" d="M255.08,52.67v.07s.03-.05,0-.07"/>
    <path class="cls-1" d="M255.12,52.88l-.03-.15s-.04.1.03.15"/>
    <path class="cls-1" d="M255.51,51.07l-.1-.03s.05.02.1.03"/>
    <path class="cls-1" d="M255.54,50.58c-.03.12-.24.27-.21.43l.08.02c-.14-.09.29-.33.13-.46"/>
    <path class="cls-1" d="M256.9,48.53l-.08.43c.11-.07.26-.17.28.02.33-.55-.24.11-.2-.46"/>
    <path class="cls-1" d="M257.03,47.18c.06.23.16,0,.22,0-.1-.14-.13-.18-.22,0"/>
    <path class="cls-1" d="M257.6,37.76l.25.06c0-.18-.1-.02-.25-.06"/>
    <path class="cls-1" d="M261.4,19.28l-.32-.05c.01.13.34.26.32.05"/>
    <path class="cls-1" d="M263.8,12.73c.09-.02.17-.03.23-.13.07-.1.1-.22.06-.32-.06.11-.14.21-.2.29-.06.08-.1.11-.1.16"/>
  </g>
</svg>