<?xml version="1.0" encoding="UTF-8"?>
<svg id="Layer_2" data-name="Layer 2" xmlns="http://www.w3.org/2000/svg" xmlns:xlink="http://www.w3.org/1999/xlink" viewBox="0 0 298.16 501.17">
  <defs>
    <style>
      .cls-1 {
        fill: none;
      }

      .cls-2 {
        fill: #46bfb2;
      }

      .cls-3 {
        fill: #881d17;
      }

      .cls-4 {
        clip-path: url(#clippath);
      }
    </style>
    <clipPath id="clippath">
      <rect class="cls-1" x="0" width="298.16" height="501.17"/>
    </clipPath>
  </defs>
  <g id="Layer_1-2" data-name="Layer 1">
    <g class="cls-4">
      <path class="cls-3" d="M267.22,3.61c-25.2-11.21-46.5,6-52.94,20.49-1.72,3.87-6.75,5.91-6.75,5.91-.81,3.21.09,7.95.09,7.95-2.9.49-6.78,4.76-6.78,4.76.43,5.54-2.03,14.37-2.03,14.37l-8.82-3.92c-.83-.37-1.78.21-1.83,1.12l-2.13,37.02c-19.2,36.51-9.03,71.4,19.42,84.05,6.71,2.98,15.18,3.84,24.45,1.22-1.49-5.14-3.68-10.88-5.78-14.78-4.86,1.39-8.59.83-12.62-.96-17.19-7.65-18-43.35-1.82-79.74,16.19-36.39,43.24-59.7,60.44-52.05,17.19,7.65,18,43.35,1.82,79.74-7.22,16.23-16.6,29.85-26.3,39.29,2.6,4.95,6.33,9.46,7.67,14.75,10.4-9.51,20.83-24,30.2-45.06,31.68-71.23,5.25-104.55-16.3-114.14"/>
      <path class="cls-3" d="M172.56,245.09c-2.15-9.45-3.52-18.9-3.52-30.09,0-23.37,5.25-44.15,13.4-57.33-3.21-5.31-6.23-10.8-7.64-16.76-11.31,12.69-19.98,35.02-19.98,70.59,0,15.75,1.71,27.97,4.35,39.28,4.37-2.11,8.84-4,13.39-5.69"/>
      <path class="cls-3" d="M267.74,230.73l-13.1-34.69c2.7-41.16-20.77-68.9-51.91-68.9-1.05,0-2.55.12-2.55.12,0,0-.29,10.88,1.22,15.7.57-.06,1.14-.09,1.71-.09,18.81,0,34.07,32.29,34.07,72.12s-15.25,72.12-34.07,72.12c-8.73,0-16.69-6.96-22.72-18.39-3.17,1.26-8.41,5.92-11.89,8.86,13.13,24.06,33.05,31.57,47.6,31.57,27.58,0,40.05-24.38,40.05-40.24,0-4.23,3.77-8.14,3.77-8.14-.57-3.26-3.31-7.22-3.31-7.22,2.45-1.63,4.26-7.11,4.26-7.11-2.64-4.89-3.99-13.96-3.99-13.96h9.65c.91,0,1.54-.91,1.22-1.76"/>
      <path class="cls-3" d="M147.46,365.78c-4.13-5.54-10.55-10.21-19.11-12.62-.97,5.53-1.1,11.21-.38,16.77,2.89,1.3,5.3,3.14,7.09,5.55,11.24,15.09-5.54,46.61-37.48,70.4-31.94,23.79-66.95,30.85-78.19,15.77-11.24-15.09,5.54-46.61,37.48-70.4,11.76-8.76,23.93-15.25,35.19-19.2-.4-3.11,1.4-14.83,3.18-17.65-12.76,3.69-27.49,11.02-44.05,23.36-62.52,46.58-55.8,88.57-41.71,107.49,16.48,22.12,43.47,17.55,56.19,8.08,3.39-2.53,8.78-1.84,8.78-1.84,2.28-2.4,3.81-6.97,3.81-6.97,2.77.99,8.24-.83,8.24-.83,2.34-5.03,8.81-11.54,8.81-11.54l5.76,7.74c.54.73,1.65.69,2.14-.08l19.99-31.23c34.62-22.42,42.85-57.82,24.25-82.79"/>
      <path class="cls-2" d="M136.27,392.86c-15.75-9.31-14.77-44.23,2.49-79.16,17.65-35.71,45.63-57.9,62.5-49.56,5.68,2.81,9.38,8.73,11.1,16.71,1.29-1.06,2.66-2.04,3.79-3.14,3.22-3.13,5.6-7.66,8.04-11.44-3.92-8.26-9.3-12.93-15.63-16.06-27.91-13.8-61.25.67-77.06,38.77l-27.11,25.29c-.67.62-.5,1.72.31,2.12l8.65,4.28s-5.23,7.53-9.76,10.74c0,0-.81,5.71.67,8.26,0,0-4.22,2.34-6.17,5.01,0,0,1.65,5.17-.23,8.97-7.03,14.22-6.65,41.59,18.07,53.82,3.55,1.75,7.7,3.18,12.31,4.02,3.38-5.84,5.69-12.28,8.03-18.62"/>
      <path class="cls-2" d="M211.32,312.24c-2.24,9.75-6.33,21.23-11.48,31.66-11.39,23.04-27.08,40.45-41.31,47.66,1.18,5.87.55,11.52-1.36,16.98,18.34-6.96,38.76-24.65,56.97-61.48,6.62-13.4,10.84-25.38,13.16-35.99-5.17,2.04-10.45,1.76-15.98,1.17"/>
    </g>
  </g>
</svg>