<?xml version="1.0" encoding="UTF-8"?>
<svg id="Layer_2" data-name="Layer 2" xmlns="http://www.w3.org/2000/svg" xmlns:xlink="http://www.w3.org/1999/xlink" viewBox="0 0 242.05 153.9">
  <defs>
    <style>
      .cls-1 {
        fill: none;
      }

      .cls-2 {
        fill: #f58676;
      }

      .cls-3 {
        clip-path: url(#clippath);
      }
    </style>
    <clipPath id="clippath">
      <rect class="cls-1" width="242.05" height="153.9"/>
    </clipPath>
  </defs>
  <g id="Layer_1-2" data-name="Layer 1">
    <g class="cls-3">
      <path class="cls-2" d="M120.45.32c-.35.09-.15.28.81.24l.69-.33-1.5.09Z"/>
      <path class="cls-2" d="M126.96.93c1.14-.16,2.45-.44,1.71-.75-1.12.32-1.4.18-2.61.56-.97.04-1.69-.11-1.52-.23-.34.08-1.5-.07-2.02.13,1.26.26,2.85.27,4.52.06.36.07.01.16-.07.22"/>
      <path class="cls-2" d="M218.76,19.36l-.51-.34c.13.1.31.22.51.34"/>
      <path class="cls-2" d="M233.99,67.7c.29-.34.38-.51.38-.55-.25.34-.46.61-.38.55"/>
      <path class="cls-2" d="M226.94,75.2c.14-.17.26-.31.39-.47-.17.16-.32.34-.39.47"/>
      <path class="cls-2" d="M218.76,19.36l1.3.9c.15-.03-.65-.49-1.3-.9"/>
      <path class="cls-2" d="M139.98.13c-.33.02-.6.05-.85.09.27-.01.53-.03.79-.04.01-.02.03-.03.05-.05"/>
      <path class="cls-2" d="M194.75,10.25l-.46-.1c-.14,0-.28.02-.41.05l.87.05Z"/>
      <path class="cls-2" d="M175.28,6.62c.44.1.64-.15.83-.24-.27.07-.6.06-.99,0-.02.05.03.12.16.23"/>
      <path class="cls-2" d="M144.42,1.23l-.56.04c.15-.01.39-.03.56-.04"/>
      <path class="cls-2" d="M208.2,14.48c.02.05.07.11.13.16.01-.03-.04-.09-.13-.16"/>
      <path class="cls-2" d="M142.96,10.75s0,.03,0,.05c.12-.01.15-.03,0-.05"/>
      <path class="cls-2" d="M165.57,15.23l-.32.02c-.03.05-.07.11-.07.16l.39-.18Z"/>
      <path class="cls-2" d="M214.73,89.09s.04-.03.06-.05c.34-.34.14-.16-.06.05"/>
      <path class="cls-2" d="M62.1,151.47c1.9.19-3.07.43-.21.61-.27-.1,2.58-.53.21-.61"/>
      <path class="cls-2" d="M140.49.16c.27,0,.54,0,.81-.01-.37,0-.62,0-.81.01"/>
      <path class="cls-2" d="M61.89,152.08h0s.3.02.3.02c-.12,0-.19-.01-.3-.02"/>
      <path class="cls-2" d="M179.98,113.49c.1,0,.26-.05.43-.11-.03-.02-.13,0-.43.11"/>
      <path class="cls-2" d="M206.61,96.34l-.65.44c.26-.17.47-.31.65-.44"/>
      <path class="cls-2" d="M165.82,121.91c-.38.19-.53.22-1.02.53.05-.01.11-.03.17-.05.17-.13.41-.29.85-.48"/>
      <path class="cls-2" d="M150.46,129.34c.09-.03.21-.06.31-.09.15-.08.33-.17.49-.25l-.8.34Z"/>
      <path class="cls-2" d="M91.41,8.29c.37.08.6.16.78.25-.26-.2,2.22-.29-.78-.25"/>
      <path class="cls-2" d="M139.99.29c.1-.07.24-.11.5-.12-.19,0-.38.01-.56.02-.05.04-.06.08.06.11"/>
      <path class="cls-2" d="M166.19,124.21l-2.41,1.27c.68-.34,1.56-.8,2.41-1.27"/>
      <path class="cls-2" d="M.94,72.26v-.64c-.01.25-.02.47,0,.64"/>
      <path class="cls-2" d="M156.44,129.12c-.48.1-.98.24-1.48.41-.1.06-.21.13-.26.19l1.74-.6Z"/>
      <path class="cls-2" d="M92.2,8.54s0,0,0,0c0,0,0,0,0,0"/>
      <path class="cls-2" d="M56.12,12.51c-.72.29-.98.33-1.1.31.35-.12.74-.29,1.28-.47.02-.01.06-.04.08-.06-.06.07-.12.14-.26.22M45.57,14.74c.57-.25,1.28-.57,2.02-.9.2.02.06.19-.41.39.23-.18-.89.27-1.61.51M50.24,12.69h0c.48-.21.89-.38,1.15-.5-.24.1-.57.25-1.15.5M109.96,7.63c-2.58,0-1.21.37-1.76.58-3.07.13-1.42-.26-2.47-.44-1.92.12-3.38.49-4.81.5-.11-.06-.39-.08-.06-.16-2.02.33-6,.13-8.35.52-.18-.03-.26-.06-.31-.09.38.18.44.37.37.5-1.15.02-2.13.25-2.57.01.71,0,.76-.09,1.09-.17l-1.2.11c-1.08-.34,1.64-.13,1.64-.38-2.35.14-5.08.4-6.88.25-.37-.34,4.2-.04,1.81-.38l2.77.15c-2.12-.54,1.69.04-.26-.54-3.64-.12-4.08.11-7.73-.09-.83.16.26.29-.57.45-5.21.19-4.09-.98-7.95-.55-1,.24-1.38.64-4.13.52l.92-.42c-3.6.15-2.02.61-5.79.74.65-.26,2.81-.4,2.26-.41-2.47-.08-1.71.39-3.57.63l-.43-.28c-1.9.36-3.9.81-5.88,1.51-2,.68-3.95,1.55-5.88,2.4.18-.18.82-.56-.14-.28-4.89,2.22-10.44,4.7-15.06,7.1l-1.59,1.25c-.4.23-.8.32-.4.01-1.79.94,0,.21-.78.81-.98.61-1.38.65-.8.19-.73.52-1.62,1.15-2.59,1.84-.95.69-1.96,1.33-3.08,1.96-2.21,1.22-4.54,2.49-6.16,3.65.19-.18.37-.37.56-.55-1.26.88-1.82,1.66-2.29,2.38-.47.72-.88,1.43-1.8,2.44l.28-.45c-.49.63-.99,1.27-1.49,1.83-.51.57-1.09,1.12-1.68,1.71-.59.58-1.19,1.2-1.72,1.91-.57.75-.95,1.62-1.22,2.42-.28.8-.49,1.55-.76,2.2-.27.63-.65,1.24-1.04,1.81-.8,1.15-1.7,2.22-2.44,3.34-.09.59-.82,1.94-1.53,3.35-.7,1.39-1.28,2.8-1.1,3.11-.82,1.71-1.09,2.35-1.42,3.19-.29.85-.69,1.95-.93,4.69-.09,1.46.3,2.17.36,3.9l-.29.04c.1.77.19,1.54.27,2.32l-.4,1.22-.02,1.61c.06-.64.21-1.35.29-1.25,0,2.52-.65,6.14-.8,6.19-.07,2.01-.13,4.04-.09,6.09-.12-.14-.13-1.17-.16-1.98.18,3.27-.36.58-.13,3.59.07-.4.17.22.24.28-.17,1.47-.14,4.83.04,7.32l-.22-.47c.11,4.5.61,9.49,1.4,14.51-.18-1.82.23-1.46.49,0l-.22.64c.33.91-.12-1.55.41.35.32,1.86-.11,1.32-.41.27l.54,2.24c-.07.15-.22-.37-.36-.48.18.45.29,1.44.49,2.48.18,1.04.39,2.13.76,2.74l-.05.15c.35,1.23.65,2.29,1.01,3.23.34.94.61,1.8.98,2.59.35.8.66,1.57,1.03,2.38.39.79.8,1.62,1.26,2.55.25-.05,1.01,1.38,1.79,2.33,1.49,2.61,3.26,5.54,5.73,8.17,1.82,1.75.67.38,1.55,1.09-.06.32,2.53,2.82,1.08,1.65,1.57,1.49,2.62,2.37,3.81,3.31,1.19.93,2.53,1.9,4.82,3.33-.43-.41-.94-.83-.62-.71.81.54,1.81,1.3,1.62,1.34l-.23-.12c2.64,1.47,5.62,3.27,8.65,4.68,3.02,1.43,6.07,2.44,8.47,2.69-.09-.01-.18-.01-.27-.03l2.46.33c.83.07,1.65.16,2.47.19,2.26.29-1.38.04.28.38,2.66.07,4.76.13,6.74.18,1.97.05,3.83.06,5.99-.15,1.69.33,4.66.17,7.75,0,3.07-.17,6.34-.3,8.61-.17l-.27-.17c1.16-.23,1.42.04,2.28.04-.13-.13-1.28-.1-.55-.23,9.87-.7,20.46-1.49,30.45-4.03,1.82-.46,2.29-.86,2.86-1.22.58-.38,1.28-.73,3.57-1.31l-1.17.76c3.53-1.42,7.07-2.83,10.67-3.88,3.61-1.07,7.39-2.05,10.76-3.91-.38.27-.35.37-1.03.68.77-.21,2.16-.9,3.22-1.58,1.08-.68,1.94-1.32,1.9-1.41,1-.58.31.01.97-.27,1.42-.7,3.21-2.33,4.03-2.55.14-.04-.34.3-.57.46.81-.65,4.06-2.42,3.1-2.16,2.38-1.31,4.5-2.5,6.6-3.2,1.2-.82,4.44-1.72,4.69-2.36-.01.26,1.18-.22,2.46-.92,1.29-.69,2.75-1.57,3.47-2.08-.45.4,1.4-.61.88-.11,1.75-.97,3.32-1.93,2.91-1.96,3.47-1.3,6.28-3.99,8.4-4.42,5.06-3.17,9.71-6.16,14.19-9.14.07.5-5,3.2-4.58,3.47,4.25-2.84,6.53-4.75,10.77-7.5,1.11-.7-.51.59-.84.89,4.14-2.99,8.11-5.68,11.57-8.62.01.04-.35.38-.7.68.71-.55,1.69-1.21,1.5-1.31l-.66.58c-1.3.63,2.47-2.67,2.49-2.91-.84,1.44,3.58-2.72,2.14-.6.44-.41.95-.96.76-.98.69-.54.96-.66.37.04,2.38-2.22,1.39-1.61,3.53-3.63.06.08-.35.52-.49.82.96-1.19,1.91-2.36,3.59-4.24-.06.15.19-.02-.29.56,2.74-3.37,4.04-6.14,7.05-9.69-.53,1.35,1.08-1.15,1.51-1.09.5-.66,1-1.32,1.51-1.96l-.77.63c1.39-1.67,2.56-3.17,3.94-4.52-.33.45-.67.89-1.02,1.32.95-1.02,1.86-2.08,2.71-3.19-.52.59-1.07,1.16-1.62,1.71,1.33-1.83-.46-.11,1.47-2.32-.33.5,1.35-1.74,2.14-2.61h0c.51-.99,1-2.01,1.86-3.42.3-.32.18.51.38.3.13-.55.75-1.8,1.08-3.16.36-1.36.45-2.8.33-3.51.05.47.23.52.28.36-.06-.32-.12-.64-.19-.95.11-1.05.14-1.2.29-1.03.03-3.15-.43.99-.28-2.72.02.29.06.15.1.76,0-.94.03-1.82-.04-2.76-.08-.92-.07-1.83-.27-2.71-.28-1.77-.74-3.46-1.27-5.11-.03-.54.31.14.53.85.21.71.41,1.42.4.8-.3-1.24-.88-2.4-1.37-3.6-.63-1.12-1.2-2.29-1.95-3.32-.68-1.08-1.49-2.05-2.24-3.03-.39-.48-.81-.92-1.2-1.39-.39-.46-.79-.92-1.2-1.33l.58.66c-.41-.06-.97-.72-1.67-1.57-.72-.83-1.6-1.82-2.58-2.48.47.33.76.26.61.2-2.41-2.15-5.21-4.01-9.39-6.37l.58.19c-1.54-1.09-4.19-2.58-5.96-3.57-.59-.15-1.61-.69-1.07-.2-2.61-1.75-5.39-2.84-8.12-3.71-2.73-.87-5.4-1.55-7.98-2.56.63.16,1.54.29,1.03.15-1.51-.37-3.03-.7-4.56-1,.31.3.57.27,1.48.67-.6-.01-1.9-.2-3.02-.44,2.07.3.06-.38-.81-.67.14.1-.18.11-.12.2-2.31-.88-.48.36-3.68-.51l.19-.09c-1.23-.15-2.38-.18-3.68-.45-.5-.36,1.32.11,1.43-.1-1.85-.3-3.72-.15-5.34-.72.79.07,1.92.28,2.71.35-1.76-.64-1.99-.6-3.32-.9l.13.03-3.09-.73.78.23c-2.42.25-4.71-.77-7.89-.89,3.09.13.54-.15.82-.41-.78-.23-1.97-.54-1.62-.56-1.51-.02-2.43-.62-4.57-.61-.08-.11-1.58-.26-1.21-.45-1.94-.21.43.24.25.34-1.52-.07-3.22-.38-5.06-.88-1.86-.47-3.81-1.11-6.03-1.32-1.88-.25-3-.21-4.07-.17-1.07.05-2.11.11-3.83.19-1.16-.16.96-.34.96-.34-1.88-.18-3.29-.12-5.05,0,.36-.09-.01-.16-.55-.26-1.41.04-.94.36-2.81.22.32-.11.73-.28,1.41-.39-1.67.09-3.31.27-5.04.36-.46-.17,1.04-.26,1.65-.37-1.94.08-5.03.15-5.63.42l1.25.1c-.71.01-.36-.23.16-.28,1.66-.21,2.4.09,2.49.19l-1.23.06c1.26.57,4.94-.08,7.41-.06l-1.03.42,2.53-.37c.54.1.91.33-.31.41,1.78.19,1.57-.17,3.09.06.17.03.09.05-.06.07l1.73-.11c-.34.08.28.29-.78.22,3.08.27,5-.07,6.13.4h-.26c2.12.23,2.23.24,2.22.11,0-.1-.15-.28,1.47-.08l1.96,1.25.48-.2c.43.12,1.29.33,1.11.41,1.67.15-.25-.19.73-.18,2.06.74,5.87.81,6.26,1.4.79-.11-2-.5.28-.3.57.62,2.63.35,4.52.93-.64.16-2.44-.31-.55.27,1.24-.24,3.74.79,5.38,1.01.14-.34,3.56.53,6.31.92-.2.1,5.12,1.13,7.63,1.69l-.08.05c.55-.28,3.15.28,5.06.63-.12.2-.47.2-1.51.09l1.77.38c.44-.03,1.01.04,2.16.28l-.5.16c2.34.55,4.79.89,7.7,2.05.25-.18-2.16-1.47,1.04-.58.07.18.12.43-.72.21.28.06.99.22,1.51.47l-1.32-.22c1.31.57.76.06,1.83.46-.08.17.74.43.54.52-.27-.09-.9-.43-1.34-.49,1.2.46,2.6,1.13,3.02,1.47-.07-.15.09-.25.97.08,2.23.95.68.55,1.93,1.21.58.12,1.92.91,2.08.67.63.32.7.51.91.7,1.19.41,5.16,2.8,4.07,1.82l-.27-.18c.06.03.12.06.19.09h0s0,0,0,0c3.74,1.8,7.26,4.65,10.5,7.18l-.06.07c1,.71,2,1.65,2.97,2.5.93.89,1.79,1.71,2.43,2.32.48.56,1,1.43.71,1.27,1.18,1.46,1.47,1.53,2.76,3.95-1.14-1.52.22.64-1.13-1.58,1.23,2.12,1.4,2.65,2.67,4.94-.57-.72.46,1.8.74,2.92-.11-.56-.15-1.15-.33-1.69.27.6.38,1.21.55,1.78.16.58.31,1.13.37,1.72l-.41-.55c.08,1.25.35,2.39.39,3.52.05.56.11,1.12.16,1.66.04.57.08,1.13.11,1.68.17,2.17.28,4.2-.41,5.94-.03.65.16.02.31-.65.15-.67.24-1.38.32-.78-.13,1.15-.51,2.26-.93,3.1-.42.85-.86,1.42-1.03,1.74-.82,1.34-1.11,2.02-1.4,2.74-.3.7-.61,1.45-1.64,2.73.33-.27.85-.38-.61,1.65-1.53,1.77-2.22,1.8-1.32.67.36-.42.55-.6.56-.56.45-.6,1.01-1.39.35-.77l-.1.31c-.78.83-2.94,3.12-2.57,2.44-1.16,1.37-.37.67.55-.21-2.2,2.02-3.24,3.46-5.26,5.81.36-.35.75-.61.44-.23-2.92,3.5-1.07,1.72-2.9,4.21-1.19,1.29.05-.77-1.69,1.8-1.23,1.43-.47.12-.1-.53-.76,1.2-1.58,2.22-2.35,3.08-.76.86-1.46,1.51-2,2.08l.87-1.14c-.51.69-.98,1.21-1.47,1.72l.72-.43c-.6.59-1.1,1.11-1.16,1.02-.51.73.74-.2-.35,1.2-.88.72-2.47,2.47-2.96,2.48,2.73-2.31-.47.03,1.72-2.04-.4.42-.92.91-1.59,1.44-.12.06.05-.13.21-.3-2.75,2.02-.95,1.32-3.71,3.57.25-.42-.84.24-1.27.63,1.12-.89.71-.18-.25.73-1.89,1.29-1.92,1.6-2.88,2.31l1.13-.78c-.27.42-1.2,1.1-2.45,2.11-.19-.03,1.11-.95.62-.66-1.25,1.32-3.38,2.15-5.28,3.74-.99.57-.27-.21-1.13.31-2.15,1.76-2.58,1.51-4.89,3.28.82-.27.91-.39-.67.94,1.29-.93,2.6-1.85,3.87-2.81-.78.68-1.57,1.35-2.35,2.01,1.21-.79,2.44-1.83,3.17-2.29-1.1.99-1.01.86-.34.63-1.81.83-3.13,2.38-5.16,3.43l-.24-.54c-3,1.65-4.97,3.55-8.85,5.71l1.27-.65c-.4.51-2.33,1.45-3.53,2.26.02-.24-.78.15-1.37.36.13.09-2.82,1.62-2.99,2.17l-1.84.75c-3.17,1.68-3.31,2.51-6.36,4.13.81-.69-.62-.06,1.33-1.32-1.01.56-1.93,1.03-1.88,1.16-.65.21-2.68,1.78-3.69,2.12-.39.31-.44.57-1.58,1.18-.14.03-.04-.09-.04-.09.04.09-1.72,1.09-.63.74-.85.28-1.82.75-2.83,1.23-1.02.48-2.12.99-3.22,1.47-2.21.96-4.39,1.88-5.9,2.33-2.3,1.17-4.83,2.87-6.78,4.07.1-.13-.04-.09.34-.3-2.78,1.49-1.37,1.52-4.54,3.19-1.72.66,1.55-1.13.51-.65-.74-.32-3.64,2.36-5.96,2.88l.51-.26c-1.7.54-4,1.83-6.89,2.62,0,0,.12-.1,0-.1-.94.45-2.33.96-3.83,1.52-1.5.56-3.08,1.17-4.42,1.7.77-.54,1.19-.57.6-.63-1.21.47.48.26-1.92,1.21-.83.16-2.62.67-2.94.49l2.28-.83c-1.28.09-2.95,1.07-4.18,1.41l.11-.2c-1.74.6-2.6.96-3.52,1.32-.91.36-1.86.71-3.8,1.16l.43.02c-2.04.88-1.82.21-3.89.94l-.72-.26c-1.38.39-4.87,1.31-7.42,1.72,1.41-.49,4.36-1.11,6.15-1.63-1.39.27-4.74.85-5.45,1.13.56-.12,1.26-.32,1.83-.35-1.68.58-3.93,1.07-6.75,1.37.21-.4-1.63-.24-3.79-.08-2.16.17-4.64.32-5.68.08-2.49.29-4.97.36-7.56.36-2.6,0-5.32.03-8.24.18,2.1.5-1.71.09-1.32.68-1.36.1-1.88.1-2,.07-1.38-.07-2.75-.16-4.12-.27-.97-.17,1.29-.15,1.16-.29-2.96-.01-1.25-.24-3.19-.4.4.22-1.03.31-2.7.17.78.12,1.57.24,2.36.34-2.07.14-2.95-.06-3.83-.23-.88-.2-1.76-.37-3.81-.47.44,0,.87-.02,1.31-.03-1.06-.03-2.96-.34-4.87-.69-1.9-.38-3.78-.85-4.83-.95-.33-.19-.75-.51.14-.25-2.39-.81-5.03-1.82-7.47-2.99-2.43-1.17-4.67-2.47-6.2-3.77l.4.1c-.81-.5-1.52-.73-2.38-1.59.08-.01.39.12.04-.16-.44-.25-2.15-1.39-3.04-2.31.31.2.6.41.92.59-1.83-1.73-3.28-2.99-4.62-4.25-1.36-1.23-2.62-2.46-3.93-4.14.18-.14-.36-.99-.93-2.1-.3-.55-.65-1.14-.98-1.7-.3-.58-.59-1.14-.81-1.58l.09.03c-.75-1.27-1.3-2.52-1.9-3.67-.55-1.18-1.07-2.32-1.56-3.45-.44-1.16-.96-2.28-1.33-3.49-.2-.6-.41-1.21-.62-1.84-.17-.64-.35-1.29-.54-1.96-.2-1.74-.68-4.63-1.09-7.82-.4-3.18-.64-6.67-.66-9.48-.04.86-.33-.12-.42-1.12.02-1.32-.4-3.65-.01-3.45v.47c.35-1,.21-3.74.23-5.83l-.5-.35c.4-2.74.64-6.34.82-9.7.2-3.34.17-6.45.47-7.96-.13-1.34-.11-2.96-.1-4.24l.26.1c.21-1.75.56-2.96,1.03-4.32.47-1.35,1.05-2.79,2-4.83l-.22.92c.54-1.14.74-1.95.91-2.75.19-.82.3-1.52.95-2.5l.72-.33c.62-.91,1.33-1.84,1.92-2.93.63-1.15.94-2.35,1.31-3.29.36-.97.81-1.6,1.54-2.4.69-.77,1.48-1.55,2.2-2.46,0,.1-.02.3-.53.83.37-.37.98-.95,1.56-1.66.57-.68,1.14-1.43,1.63-2.07.97-1.28,1.78-2.08,1.35-2.07.14.13.9-.6,1.98-1.42,1.07-.83,2.48-1.74,3.49-2.37l-.2.42c1.59-1.27,1.65-1.32,4.03-2.89.57-.32.61-.12-.18.29,1.95-1.06,1.31-1.16,3.66-2.42l-.76.67c1.94-1.15,1.74-1.14,2.72-1.95,1.17-.82,3.77-2.04,4.17-1.96.2-.28,1.2-1.04,2.42-1.58.2,0-.21.28-.41.42,3.43-1.54,4.9-2.76,7.37-3.57.08.06.25.04.46-.02-2.74,1.19-4.9,2.23-4.71,2.12.1.23,2.29-.76.7.38,1.66-1.01,4.52-2.76,6.74-3.53.11-.02.23-.04.32-.04l-.21.12c.51-.18.95-.39,1.36-.6.7-.24,1.15-.39,1.82-.61.16.06.8-.15,1.54-.39.75-.21,1.6-.5,2.17-.63-.16-.25,1.36-.55-.1-.46.19-.02-.21.07-.96.31-.17.06-.37.12-.48.17.02-.01.04-.03.07-.05-.75.2-1.7.55-2.78.94.83-.44,1.72-.92,3.02-1.1.53-.35,1.15-.7,1.5-.86,1.66-.06,4.78-.27,5.24-.08,3.55-.65,8.48-.62,10.78-1.11,1.04-.06,1.19.17,1.58.26-.6.04-1.31.02-1.64.1,2.07-.12,6.15.1,6.66-.25,2.62.25-1.49.29,2.12.34l-.49.1c7.12.81,11.57-.89,19.43-.26-.54-.04-.82-.05-.93-.11,8.95.17,18.5-.55,27.21,1.06,2.47.42,2.75.25,4.31.3l.5.38,2.65.03c3.72.25,6.33,1.54,11.07,1.6l-.58-.27c1.68.23,5.34.51,5.03.71.18-.02.57-.14,1.22.05l.03.16c1.39.09,2.75.17,4.12.37,3.14.76-.65.53,4.02,1.49.88.13,2.18.21,3.16.14.99-.07,1.65-.26,1.31-.29-.74.04-1.85-.15-1.88-.31.54.01,1.08.02,1.61-.02.14-.23.5-.48.35-.7-.16-.23-.78-.32-2.61-.71-.88-.02-1.77-.08-2.67-.17l-.81-.4c.75.15,1.49.3,2.23.42-1.22-.43-2.05-.43-2.99-.49-.19-.16-.55-.33-1.08-.48-.91-.04-1.85-.07-2.78-.04-.3-.22,1.25-.19-.54-.54-1.28.04,1.15.57-.94.42-1.28-.38-.88-.5-2.43-.51-.2-.15.13-.18.74-.16-1.38-.03-3.61-.37-4.34-.21-1.33-.42-4.6-.46-4.41-.88-.44.06-2.43.06-3.67-.07,2.33-.23-4.65-.63-3.97-1.13-1.7.24-6.12-.75-9.17-.75.17-.02.51-.07.78-.02-1.7-.19-2.18-.4-3.27-.56-.25.37-2.9.28-4.34.46-2.07-.47,1.28-.4.65-.79.09.3-3.64.17-2.94.46-1.59-.29-1.37-.15-2.19-.49-.29.49-1.49.05-2.81.35-2.3-.26-.59-.47-3.12-.31-1.21-.15,1.05-.33,1.05-.33"/>
      <path class="cls-2" d="M57.37,11.76c.11-.04.16-.07.31-.11-.16.02-.31.05-.47.07-.08.06-.17.11-.24.16.14-.04.28-.08.41-.12"/>
      <path class="cls-2" d="M218.15,18.97l.09.06c-.07-.05-.14-.1-.18-.15.06.05.05.05.09.09"/>
    </g>
  </g>
</svg>