<?xml version="1.0" encoding="UTF-8"?>
<svg xmlns="http://www.w3.org/2000/svg" xmlns:xlink="http://www.w3.org/1999/xlink" viewBox="0 0 280.99 226.39">
  <defs>
    <style>
      .cls-1 {
        fill: none;
      }

      .cls-2 {
        isolation: isolate;
      }

      .cls-3 {
        mix-blend-mode: multiply;
      }

      .cls-4 {
        clip-path: url(#clippath-1);
      }

      .cls-5 {
        clip-path: url(#clippath-2);
      }

      .cls-6 {
        fill: #f58676;
      }

      .cls-7 {
        clip-path: url(#clippath);
      }
    </style>
    <clipPath id="clippath">
      <rect class="cls-1" x="17" y="35" width="203.39" height="190.39"/>
    </clipPath>
    <clipPath id="clippath-1">
      <rect class="cls-1" x="17" y="35" width="203.39" height="190.39"/>
    </clipPath>
    <clipPath id="clippath-2">
      <rect class="cls-1" width="280.99" height="226.39"/>
    </clipPath>
  </defs>
  <g class="cls-2">
    <g id="Layer_2" data-name="Layer 2">
      <g id="Layer_1-2" data-name="Layer 1">
        <g class="cls-7">
          <g class="cls-4">
            <g class="cls-3">
              <g class="cls-5">
                <path class="cls-6" d="M128.34,61.55c-.28.14-.07.34.68.11l.46-.5c-.38.16-.76.29-1.14.4"/>
                <path class="cls-6" d="M133.68,60.57c.9-.4,1.93-.97,1.27-1.14-.87.57-1.12.49-2.04,1.13-.79.25-1.4.33-1.31.15-.26.18-1.22.37-1.58.72,1.07-.09,2.34-.6,3.68-1.12.31,0,.04.16-.01.25"/>
                <path class="cls-6" d="M209.36,78.05c-.12-.13-.24-.27-.37-.4.1.11.22.26.37.4"/>
                <path class="cls-6" d="M211.25,129.38c.2-.36.26-.54.25-.57-.17.35-.31.64-.25.57"/>
                <path class="cls-6" d="M205.93,136.84c.12-.15.22-.28.33-.42-.14.15-.28.3-.33.42"/>
                <path class="cls-6" d="M209.36,78.05c.31.35.62.7.91,1.07.13-.01-.43-.59-.91-1.07"/>
                <path class="cls-6" d="M144.42,57.92c-.28.04-.5.1-.71.16.23-.03.44-.07.67-.1.01-.02.02-.04.04-.06"/>
                <path class="cls-6" d="M190.14,67.36l-.38-.14c-.12,0-.24,0-.35.02l.73.11Z"/>
                <path class="cls-6" d="M174.09,62.89c.36.1.54-.17.71-.26-.23.07-.51.07-.84.01-.02.05.02.13.13.25"/>
                <path class="cls-6" d="M148.19,58.95l-.46.05c.12-.01.32-.04.46-.05"/>
                <path class="cls-6" d="M201.04,72.44c0,.06.04.12.09.18.01-.03-.02-.1-.09-.18"/>
                <path class="cls-6" d="M112.43,37.13s0,.03,0,.05c.09-.05.12-.07,0-.05"/>
                <path class="cls-6" d="M131.62,36.87l-.25-.09s-.08.09-.1.14l.35-.05Z"/>
                <path class="cls-6" d="M195.14,149.38s.03-.03.05-.05c.27-.35.11-.16-.05.05"/>
                <path class="cls-6" d="M74.57,221.39c1.52.57-2.58-.16-.28.6-.2-.16,2.19-.04.28-.6"/>
                <path class="cls-6" d="M144.86,57.92c.22-.01.45-.03.68-.04-.31,0-.52.02-.68.04"/>
                <path class="cls-6" d="M74.29,221.99h0s.24.08.24.08c-.1-.03-.15-.05-.24-.08"/>
                <path class="cls-6" d="M168.42,176.14c.08,0,.22-.07.35-.15-.03-.02-.11.01-.35.15"/>
                <path class="cls-6" d="M188.86,156.93l-.51.48c.21-.18.37-.34.51-.48"/>
                <path class="cls-6" d="M157.6,185.82c-.3.22-.42.26-.8.62.04-.02.09-.04.14-.07.12-.15.3-.32.66-.55"/>
                <path class="cls-6" d="M145.81,195.06c.07-.03.16-.08.25-.11.12-.09.25-.2.37-.3l-.62.41Z"/>
                <path class="cls-6" d="M70.84,51.25c.31-.07.52-.08.69-.07-.28-.09,1.61-1.16-.69.07"/>
                <path class="cls-6" d="M144.44,58.09c.08-.08.2-.14.42-.16-.17.01-.32.04-.48.06-.04.05-.05.09.06.11"/>
                <path class="cls-6" d="M158.27,188.16l-1.89,1.47c.54-.39,1.23-.92,1.89-1.47"/>
                <path class="cls-6" d="M20.32,150.3l.1-.6c-.05.23-.09.44-.1.6"/>
                <path class="cls-6" d="M150.83,194.06c-.39.17-.78.39-1.16.64-.07.08-.15.16-.18.23l1.35-.88Z"/>
                <path class="cls-6" d="M71.54,51.18s0,0,0,0c0,0,0,0,0,0"/>
                <path class="cls-6" d="M48.03,73.54c-.39.62-.57.79-.67.83.19-.29.42-.62.71-1.07,0-.02.02-.07.02-.09,0,.09-.01.19-.07.33M41.3,80.68c.29-.5.66-1.13,1.05-1.79.16-.09.14.13-.1.54.08-.26-.52.67-.94,1.24M43.73,76.59h0c.26-.42.48-.77.62-.99-.13.21-.3.49-.61.99M85.26,44.12c-2.07.78-.86.75-1.24,1.13-2.41,1.11-1.21.19-2.1.34-1.5.73-2.54,1.62-3.67,2.1-.1-.02-.33.06-.1-.14-1.49,1.05-4.68,2.28-6.34,3.6-.15.04-.23.04-.27.03.36.03.48.19.47.35-.88.46-1.55,1.09-1.97,1.03.54-.28.55-.4.78-.6l-.88.59c-.96.1,1.21-.78,1.12-1.04-1.77,1.05-3.73,2.5-5.13,3.2-.43-.17,3.14-1.94,1.2-1.19.72-.37,1.45-.7,2.17-1.05-1.83.37,1.31-.68-.41-.41-2.85,1.46-3.07,1.9-5.85,3.53-.53.57.33.13-.2.7-1.84,1.42-2.67,1.78-3.38,2.04-.71.27-1.3.48-2.52,1.77-.57.78-.61,1.34-2.55,2.84l.4-.9c-2.38,2.23-1.04,1.7-3.53,4.01.31-.58,1.68-1.99,1.31-1.67-1.71,1.39-.95,1.32-2.06,2.62h-.45c-2.25,2.78-4.29,6.14-6.37,9.51.04-.25.33-.89-.24-.17-2.54,4.33-5.36,9.29-7.47,13.74l-.49,1.88c-.17.4-.42.69-.29.22-.81,1.74.11.18-.13,1.09-.38,1.03-.67,1.27-.49.58-1.09,3.27-2.76,9.38-4.01,12.72l.12-.7c-.88,2.65-.35,3.24-1.27,5.65l.09-.5c-1.71,5.83-3.01,12.46-4.4,16.88.17.97-1.45,5.85-1,6.38-.98,3.33-.87,2.33-2.03,7.08-.29,1.28-.07,2-.35,3.59l-.28-.04-.18,2.23-.57,1.04-.25,1.5c.15-.59.4-1.22.46-1.1-.39,2.34-1.4,5.6-1.55,5.62-.3,1.86-.57,3.74-.81,5.63-.09-.15.03-1.1.09-1.86-.22,3.06-.4.47-.58,3.28.12-.36.14.24.18.31-.39,1.33-.78,4.5-.87,6.87l-.16-.47c-.4,4.27-.13,9.14.81,13.91-.22-1.74.18-1.42.46-.05-.07.21-.11.42-.16.63.4.83-.24-1.46.42.28.4,1.74-.03,1.29-.38.31.22.69.4,1.41.65,2.08-.05.15-.24-.31-.38-.4.22.39.41,1.31.66,2.27.27.95.56,1.96.96,2.47l-.04.16c.86,2.22,1.67,3.75,2.48,5.12.8,1.39,1.66,2.59,2.79,4.08.24-.16,1.09,1.05,1.98,1.65,1.74,2.04,3.86,4.15,6.43,5.85,1.86,1.08.63.13,1.52.5.02.35,2.62,1.88,1.2,1.25,3.13,1.79,3.99,2.32,8.07,4.28-.39-.34-.86-.65-.58-.6.74.36,1.61.99,1.46,1.05l-.2-.07c4.62,2.02,10.29,5.91,14.23,6.78l-.22-.06c1.32.42,2.66.77,3.98,1.15,1.81.64-1.14-.16.17.44,4.35.99,6.76,2.12,10.41,2.59,1.33.69,3.83,1.13,6.47,1.33,2.64.26,5.41.19,7.34.39l-.23-.19c.99-.21,1.21.11,1.94.08-.11-.13-1.08-.1-.47-.24,8.37-.66,17.19-2.8,25.2-6.44,2.93-1.34,1.32-1.69,5.07-3.15-.29.3-.6.57-.89.86,5.6-3.43,11.52-6.79,16.62-10.83-.28.29-.24.39-.75.75,1.23-.56,4.1-2.92,4.02-3.12.82-.57.27.02.82-.25,1.17-.67,2.61-2.31,3.31-2.52.12-.04-.27.3-.46.46.66-.63,3.34-2.45,2.52-2.19,2-1.33,3.64-2.9,5.25-3.94.85-1.04,3.36-2.42,3.45-3.05.1.52,3.53-2.32,4.62-3.48-.33.45,1.11-.72.74-.17,1.36-1.12,2.57-2.21,2.21-2.22,2.79-1.6,4.77-4.58,6.53-5.17,3.84-3.65,7.36-7.07,10.75-10.43.15.51-3.81,3.63-3.4,3.88,3.22-3.2,4.86-5.34,8.13-8.39.86-.77-.35.63-.59.96,3.11-3.33,6.2-6.2,8.82-9.33.02.04-.25.39-.51.72.54-.59,1.31-1.29,1.13-1.39l-.5.61c-1.05.69,1.79-2.79,1.79-3.03-.56,1.46,2.81-2.81,1.81-.65.33-.42.72-.98.55-1,.55-.55.77-.67.33.04,1.86-2.21,1.04-1.62,2.78-3.56.06.08-.27.5-.38.79.75-1.14,1.51-2.27,2.99-3.89-.05.15.17.01-.26.51,2.44-2.93,3.8-5.36,6.42-8.62-.44,1.3.95-1.05,1.33-1l1.22-1.96c-.21.22-.43.43-.65.64,1.14-1.65,1.88-3.33,2.87-4.74l-.67,1.38c.65-1.08,1.28-2.19,1.87-3.31l-1.18,1.78c.88-1.89-.46-.09.95-2.36-.22.51.96-1.78,1.61-2.61h0c.33-.98.71-1.95,1.37-3.31.25-.31.21.49.38.29.2-1.04,1.7-4.58,1.78-5.95-.07.44.1.53.17.41.02-.3.04-.6.03-.91.32-.91.4-1.04.49-.83.4-1.41.24-1.22.11-1.09-.14.12-.19.21.25-1.47-.04.27.02.15-.06.72.88-3.4,1-6.74,1.09-9.98.15-.48.22.23.21.93-.01.7-.03,1.38.14.83.17-4.78-1.01-9.75-2.28-14l.2.81c-.6-.4-.78-3.27-1.88-5.21.24.48.52.52.41.41-.55-1.42-1.24-2.81-2.16-4.26-.92-1.45-2.05-2.98-3.59-4.51.15.09.3.19.45.3-1.03-1.42-3.13-3.19-4.52-4.29-.49-.2-1.3-.79-.89-.26-2.02-1.93-4.27-3.19-6.49-4.23-2.23-1.04-4.42-1.87-6.48-3.07.52.19,1.27.39.86.21-1.24-.46-2.49-.9-3.74-1.29.23.34.45.32,1.18.79-.51-.02-1.58-.31-2.5-.62,1.71.41.08-.39-.61-.76.1.11-.16.11-.12.21-1.85-1.06-.44.37-3.04-.75l.17-.08c-1.02-.23-1.98-.34-3.05-.66-.4-.4,1.1.16,1.21-.05-1.53-.41-3.11-.29-4.45-.92.66.09,1.6.33,2.26.42-1.45-.72-1.64-.69-2.75-1.02l.11.04-2.57-.79.65.25c-2.05.27-3.93-.8-6.61-.9,2.6.11.46-.17.71-.45-.65-.24-1.64-.56-1.34-.59-1.27,0-2.03-.64-3.83-.59-.07-.12-1.32-.25-1.01-.46-1.62-.21.36.25.21.35-2.51-.09-5.81-1.38-9.46-1.16-3.12,0-3.71.34-6.58.53-.97-.15.79-.4.79-.4-1.57-.13-2.76-.08-4.23.14.3-.11-.02-.17-.47-.26-1.19.13-.77.45-2.35.44.26-.14.59-.36,1.16-.53-1.4.21-2.76.59-4.19.9-.4-.12.84-.42,1.34-.59-1.62.28-4.18.86-4.63,1.26l1.04-.11c-.58.14-.34-.18.09-.32,1.36-.47,2.01-.25,2.1-.16l-1.01.24c1.12.4,4.09-.73,6.18-.85l-.83.53c.7-.2,1.4-.37,2.1-.53.46.09.77.32-.24.45,1.49.14,1.31-.24,2.58-.02.14.04.08.06-.05.08l1.45-.16c-.28.09.24.31-.65.26,2.59.23,4.19-.26,5.15.12l-.22.02c3.6.1.36-.32,3.09-.48l1.75.99.38-.29c.37.06,1.1.18.95.29,1.4-.04-.22-.17.6-.28,1.75.51,4.92.64,5.25,1.24.67-.13-1.67-.5.25-.32.46.67,2.2.32,3.77.95-.54.18-2.04-.31-.47.3,1.05-.27,3.11.81,4.48,1.04.13-.37,2.97.53,5.26.98-.16.09,4.22,1.31,6.26,2.1l-.07.04c.49-.26,2.62.48,4.18.95-.12.2-.42.19-1.28.02.48.16.97.32,1.45.5.37,0,.84.1,1.79.41l-.44.14c1.91.71,3.94,1.19,6.27,2.53.23-.19-1.67-1.64.94-.55.04.18.05.46-.63.18.22.09.81.28,1.23.56l-1.09-.28c1.05.65.64.09,1.5.56-.09.18.58.49.4.57-.22-.1-.71-.5-1.07-.58.96.54,2.07,1.31,2.39,1.67-.04-.16.11-.26.81.14,1.79,1.07.51.6,1.49,1.35.49.14,1.53,1.03,1.7.78.5.36.53.55.68.76.48.25,1.49,1.02,2.26,1.62.76.62,1.31,1.05.94.5l-.2-.21s.09.07.14.11h0s0,0,0,0c1.43,1.09,2.71,2.57,3.78,4.21,1.07,1.64,1.95,3.42,2.79,5.14l-.08.04c1.05,2.03,1.92,4.74,2.55,6.28.22.66.24,1.64.08,1.39.24.86.37,1.34.52,1.91.11.59.21,1.28.33,2.58-.43-1.75-.04.64-.4-1.8.14,1.15.22,1.86.25,2.6.03.73.19,1.47.32,2.71-.26-.83-.2,1.75-.23,2.85.07-.54.17-1.08.21-1.62.03.62-.01,1.2-.03,1.77-.02.57-.05,1.11-.13,1.66l-.24-.62c-.39,2.32-.53,4.43-.87,6.4-.12.99-.38,1.92-.6,2.83-.26.89-.61,1.73-1.02,2.5-.2,1.27.93-2.35.82-1.2-.68,2.07-1.94,3.91-2.21,4.51-.63,1.3-.85,1.96-1.04,2.66-.19.7-.41,1.41-1.17,2.72.26-.29.72-.41-.32,1.65-1.08,1.84-1.7,1.95-1.08.75.24-.45.39-.64.41-.6.31-.62.71-1.43.2-.78l-.04.31c-.59.86-2.1,3.33-1.89,2.62-.75,1.42-.21.71.45-.26-1.54,2.19-2.27,3.55-3.95,5.72.3-.31.64-.54.38-.19-2.48,3.17-.9,1.59-2.51,3.82-1.08,1.09.06-.75-1.55,1.52-1.13,1.22-.43.05-.08-.55-1.4,2.12-3.05,3.48-4,4.52l.79-1.07c-.47.64-.89,1.12-1.32,1.61l.64-.38c-.53.55-.96,1.04-1.01.95-.42.71.65-.15-.25,1.19-.76.67-2,2.42-2.44,2.43,2.23-2.3-.43.02,1.36-2.04-.33.42-.75.9-1.3,1.43-.1.06.03-.13.16-.3-2.25,2.05-.73,1.33-2.9,3.66.17-.44-.71.27-1.04.68.88-.93.6-.21-.12.75-1.49,1.38-1.46,1.7-2.21,2.46l.88-.83c-.18.44-.89,1.17-1.84,2.24-.17-.02.83-1.01.45-.69-.9,1.4-2.66,2.32-4.07,4.06-.79.62-.27-.2-.95.37-1.6,1.93-2.01,1.69-3.75,3.64.67-.32.73-.46-.43,1,.98-1.04,1.96-2.06,2.93-3.11l-1.74,2.19c.92-.89,1.84-2.01,2.4-2.53-.8,1.08-.74.94-.19.66-1.45.95-2.36,2.61-3.95,3.82l-.3-.53c-2.35,1.87-3.73,3.97-6.73,6.48l.99-.76c-.25.56-1.78,1.65-2.67,2.58-.02-.25-.65.22-1.12.47.13.08-2.16,1.88-2.22,2.45l-1.46.92c-2.45,1.96-2.44,2.82-4.81,4.71.59-.77-.54-.01.93-1.45-.78.65-1.49,1.2-1.43,1.33-.52.27-2.03,2-2.85,2.43-.29.34-.28.62-1.18,1.31-.12.04-.05-.09-.05-.09.05.09-1.32,1.22-.43.8-2.73,1.41-6.81,5.4-9.22,6.56-1.72,1.38-3.8,3.02-5.39,4.22.07-.13-.04-.09.27-.3-2.29,1.47-1.08,1.51-3.7,3.17-1.44.65,1.25-1.13.39-.66-.66-.33-3,2.29-4.89,3.14l.4-.32c-1.41.71-3.08,2.45-5.27,3.83,0,0,.08-.12-.03-.1-1.33,1.29-4.13,3.17-6.24,4.51.56-.64.91-.71.4-.72-.94.6.46.26-1.44,1.41-.69.22-2.12.89-2.42.71l1.81-1.03c-.54.09-1.12.42-1.7.79-.58.35-1.16.74-1.65.96l.07-.22c-1.39.77-2.08,1.22-2.8,1.68-.72.44-1.46.95-3.03,1.59l.36-.02c-1.59,1.11-1.49.43-3.12,1.38l-.63-.21c-1.1.55-3.9,1.86-5.98,2.51.57-.3,1.44-.7,2.35-1.11.91-.4,1.87-.79,2.58-1.18-1.12.45-3.85,1.33-4.4,1.71.46-.16,1.01-.47,1.48-.55-.66.4-1.45.77-2.37,1.09-.92.32-1.95.69-3.12.9.14-.47-1.37-.13-3.16.12-.89.12-1.85.26-2.7.33-.85.03-1.58,0-2.01-.12-4.12.62-8.22.05-13-.65,1.63.89-1.4-.19-1.19.5-1.12-.18-1.55-.28-1.64-.34-1.11-.33-2.21-.74-3.31-1.14-.76-.38,1.08.11,1-.06-2.4-.65-.97-.5-2.52-1.1.28.32-.9.09-2.25-.39l1.86.84c-3.43-.62-2.78-1.37-6.2-2.17l1.1.18c-1.74-.47-6.28-2.31-8.07-2.59-.28-.2-.62-.54.14-.26-3.99-1.78-9.04-3.64-11.95-5.61l.35.02c-.74-.36-1.38-.4-2.22-1.07.07-.03.35.02.02-.18-.4-.17-2.03-.82-2.93-1.48l.88.32c-3.68-2.38-5.86-2.98-8.78-5.24.12-.18-.45-.88-1.18-1.68-.72-.82-1.57-1.8-2.11-2.48h.08c-1.63-1.96-2.89-3.76-4.02-5.64-1.12-1.89-2.1-3.87-2.97-6.27-.28-1.63-.99-4.18-1.39-7.09-.4-2.91-.46-6.13-.22-8.71-.11.79-.31-.14-.31-1.08.16-1.21-.01-3.41.35-3.17l-.05.43c.45-.87.65-3.36.98-5.3l-.42-.43c1.49-4.92,2.46-13.35,3.64-15.98.15-1.27.46-2.79.59-4.04l.24.14c.77-3.38,1.15-5.07,1.99-9.28v.91c.52-2.36-.08-3.2.39-5.38l.52-.54c.92-4.11,2.23-8.14,2.95-12.26.04.09.11.24-.04.9.49-1.91,2.24-7.25,1.55-6.76.33.08,1.23-4.12,1.77-6.33l.14.44c.28-1.93.2-2.04.99-4.57.24-.58.37-.42.03.33.83-1.89.31-1.65,1.35-3.93l-.19.95c.79-1.98.66-1.86.94-3.04.41-1.3,1.68-3.66,2.02-3.81,0-.34.33-1.5.94-2.57.15-.1,0,.34-.08.56,1.72-3.04,2.17-4.82,3.59-6.74.1.01.21-.09.33-.24-1.42,2.37-2.47,4.35-2.4,4.15.2.14,1.31-1.79.73-.03.69-1.69,1.92-4.6,3.18-6.35.08-.07.15-.14.22-.18l-.1.21c.29-.4.51-.8.71-1.17.41-.54.68-.89,1.05-1.43.29-.07,1.52-2,2.19-2.86-.25-.12.64-1.25-.32-.33.12-.13-.1.19-.53.79-.09.14-.2.3-.26.4,0-.02.02-.05.03-.08-.41.6-.96,1.36-1.55,2.26.38-.83.83-1.64,1.64-2.53.21-.58.45-1.21.6-1.56.58-.47,1.37-1.21,2.04-1.86.7-.62,1.3-1.14,1.5-1.2,2.04-2.6,5.34-5.43,6.69-7.1.68-.63.91-.5,1.22-.63-.4.35-.89.73-1.08.97,1.35-1.26,4.32-3.17,4.54-3.72,1.99-1.06-.94.99,1.69-.71l-.31.32c2.73-1.31,4.81-2.71,7.01-4.1,2.19-1.39,4.49-2.79,7.67-3.79-.44.14-.66.22-.77.19,7.04-2.88,14.55-6.07,21.88-7.32,2.07-.39,2.25-.7,3.48-1.16l.5.22c.7-.28,1.39-.57,2.1-.83,3.03-.9,5.41-.26,9.24-1.4l-.53-.14c1.41-.18,4.43-.81,4.22-.51.14-.06.44-.29,1-.25l.06.16,3.42-.75c2.67-.22-.32.71,3.53.26.69-.1,1.63-.22,2.35-.17.72.05,1.23.18,1.01.01-.51-.26-1.35-.53-1.39-.69.44.04.87.13,1.29.27.18-.19.57-.29.52-.56-.02-.13-.16-.32-.52-.56-.36-.24-.97-.52-1.89-.66-.86.06-1.66.25-2.42.45l-.76-.14c.63-.09,1.29-.19,1.97-.24-1.18-.13-1.84.2-2.59.42-.19-.1-.52-.15-.98-.14l-2.19.76c-.29-.16.97-.52-.55-.42-1.03.37,1.05.29-.67.68-1.11-.07-.81-.3-2.07.07-.19-.1.07-.22.57-.35-1.12.31-3.01.52-3.56.87-1.17-.09-3.83.71-3.77.23-.34.18-1.95.73-2.99.95,1.82-.94-3.9.75-3.49.06-1.33.8-5.04,1.35-7.45,2.3.13-.08.39-.23.61-.26-1.4.33-1.83.28-2.74.44-.09.47-2.23,1.16-3.33,1.79-1.77.15.92-.8.3-1.01.16.3-2.86,1.26-2.22,1.35-1.35.18-1.13.26-1.88.15-.1.59-1.18.49-2.15,1.19-1.91.45-.6-.29-2.58.63-1.01.22.75-.65.75-.65"/>
                <path class="cls-6" d="M48.53,72.21c.06-.09.08-.14.16-.26-.1.11-.2.21-.3.31-.03.09-.06.19-.09.27.08-.11.16-.22.23-.32"/>
                <path class="cls-6" d="M208.93,77.58l.07.07c-.05-.06-.1-.12-.12-.16.04.05.03.06.06.1"/>
                <polygon class="cls-6" points="21.36 144.92 21.42 144.94 21.45 144.5 21.36 144.92"/>
                <path class="cls-6" d="M188.32,65.3s-.12-.09-.28-.17c0,.02.13.09.28.17"/>
                <path class="cls-6" d="M178.55,62.44l-1.37-.45c.59.21,1.02.35,1.37.45"/>
                <path class="cls-6" d="M171.01,60.5c-.11.03-.14.06-.17.09h.01s.16-.09.16-.09Z"/>
                <path class="cls-6" d="M190.41,158.02c-.07.09-.15.17-.21.24-.49.59-.15.2.21-.24"/>
                <path class="cls-6" d="M214.42,125.66c-.15.43-.32.83-.51,1.26.36-.64.63-1.15.51-1.26"/>
                <path class="cls-6" d="M158.48,188s0,0,0,0c-.07.06-.13.11-.21.17l.21-.16Z"/>
                <path class="cls-6" d="M213,128.62c.41-.6.67-1.17.91-1.7-.3.52-.64,1.15-.91,1.7"/>
                <path class="cls-6" d="M137.51,58.81l-.37.07s-.01.04-.04.06l.41-.12Z"/>
                <path class="cls-6" d="M137.11,58.93l-.41.12c.19-.04.35-.08.41-.12"/>
                <path class="cls-6" d="M135.85,59.31l.85-.26c-.3.06-.67.13-.85.26"/>
                <path class="cls-6" d="M147.79,57.85l.12-.11c-.06.02-.11.06-.12.11"/>
                <path class="cls-6" d="M150.92,57.8c-.75-.05-1.87-.25-2.92-.15l-.1.09c.49-.18,2.31.22,3.01.06"/>
                <path class="cls-6" d="M163.75,60.38l-2.56-.48c.44.18,1.01.42-.16.28,3.2.83-.64-.37,2.72.2"/>
                <path class="cls-6" d="M171.64,62.16c-1.38-.26-.01.17-.1.22.89.1,1.1.12.1-.22"/>
                <path class="cls-6" d="M218.04,95.23l-.26-.08c.3,1.18.09-.01.26.08"/>
                <path class="cls-6" d="M219.99,108.11l.27-1.23c-.05-.21-.11-.41-.18-.62,0,.62-.06,1.23-.09,1.85"/>
                <path class="cls-6" d="M216.94,115.16l.11-.52c-.15.66-.29,1.33-.48,1.97.15-.48.27-.96.38-1.45"/>
                <path class="cls-6" d="M147.8,193.23l.43.07c.58-.52.53-.93-.43-.07"/>
                <path class="cls-6" d="M111.13,217.29c-.48.03-1.62.4-2.25.85.89-.36,1.81-.61,2.25-.85"/>
                <path class="cls-6" d="M20.93,158.32l-.07.99c.07-.61.16-1.23.25-1.84l-.18.85Z"/>
              </g>
            </g>
          </g>
        </g>
      </g>
    </g>
  </g>
</svg>