<?xml version="1.0" encoding="UTF-8"?>
<svg id="Layer_2" data-name="Layer 2" xmlns="http://www.w3.org/2000/svg" viewBox="0 0 369.83 555.62">
  <defs>
    <style>
      .cls-1 {
        fill: #b83025;
      }

      .cls-2 {
        fill: #46bfb2;
      }

      .cls-3 {
        fill: #ffebca;
      }

      .cls-4 {
        fill: #f58676;
      }
    </style>
  </defs>
  <g id="Layer_1-2" data-name="Layer 1">
    <path class="cls-2" d="M278.94,534.8c.42-.66.83-1.32,1.23-2.01-.27.5-.56,1.02-.91,1.6-.15.21-.26.33-.33.4M291.1,211.39s0,0,0,0h0s0,0,0,0ZM291.1,211.39h0s0,0,0,0h0ZM243.28,359.84c-.06-1.39-.03-1.85.02-2.04.02.66.05,1.42.09,2.43,0,.04.03.12.03.16-.05-.13-.1-.28-.14-.55M321.41,318.97c.82-2.07.34-3.57.13-4.29-.23-.73-.35-1.06-.46-1.31-.22-.5-.38-.69-1.12-3.21-.65-2.92.69.92-.9-4.14-.79-3.14.09-.74.53.47-.77-2.3-1.36-4.44-1.75-6.38-.39-1.94-.73-3.7-1.09-5.04.26.81.51,1.64.75,2.46-.42-1.48-.77-2.69-1.13-3.92l.19,1.47c-.37-1.46-.73-2.67-.63-2.67-.58-1.44-.01,1.23-1.08-1.64-.49-1.94-1.89-5.74-1.78-6.49,1.5,5.36.38.57,1.24,3.05-.22-.7-.44-1.47-.67-2.35-.03-.22.12.18.25.57-.7-2.89-.99-3.56-1.32-4.21-.32-.65-.71-1.36-1.71-4.26.4.68-.16-1.44-.47-2.39.73,2.35.07,1.22-.7-.93-.98-3.85-1.3-4.13-1.87-6.13l.61,2.3c-.38-.73-.93-2.64-1.75-5.29.06-.26.79,2.39.57,1.43-.56-1.44-1-3.13-1.39-4.96-.41-1.82-.64-3.83-1.27-5.94-.4-1.98.26-.27-.13-2-1.55-4.57-1.17-5.06-2.73-9.9.18,1.47.31,1.69-.88-1.67.83,2.64,1.61,5.32,2.4,7.96l-1.74-5.05c.68,2.42,1.54,5.07,1.92,6.52-.86-2.39-.74-2.16-.59-.95-.59-3.39-1.99-6.51-2.9-10.38l.56-.04c-.73-2.91-1.55-5.41-2.42-8.15-.45-1.38-.95-2.82-1.56-4.34-.61-1.51-1.2-3.09-1.7-4.95.2.8.42,1.59.65,2.37-.57-.88-1.41-4.52-2.18-6.91.24.17-.12-1.35-.31-2.41-.04.06-.27-.73-.58-1.76-.16-.51-.33-1.09-.5-1.64-.04-.14-.09-.28-.13-.41l-.03-.08c.09-.15.18-.32.22-.49.13-.63.18-1.03.14-1.23l1.14-3.28c1.76-6.03,1.34-7.05,2.84-12.88-.24,1.81.54-.82-.29,3.14.48-1.95.95-3.7.83-3.76.41-1.11,1.06-5.48,1.64-7.24.11-.84-.01-1.16.51-3.35.06-.15.08-.1.08-.04.03-.46.63-3.25.04-1.52.9-2.96,1.92-7.15,2.61-11.36.63-4.22.76-8.35,1.38-10.96.49-4.32,1.29-9.61,1.17-13.64.04.19.07.1.08.38.08-5.01-.6-3.14-.52-9.23.2-3.2.26,3.32.31,1.33.56-.87-.28-7.57-.12-11.77l.1,1.01c-.05-3.18-.48-7.83-1.32-13.07,0,0,.09.24.09.02-.41-1.76-1.01-4.29-1.65-7.01-.3-1.36-.67-2.75-1.03-4.11-.36-1.36-.7-2.69-1.02-3.91.6,1.47.67,2.21.67,1.21-.57-2.2-.22.73-1.35-3.64-.2-1.47-.95-4.63-.81-5.12.35,1.38.77,2.72,1.09,4.11-.21-2.21-1.4-5.31-1.94-7.52l.22.24c-.9-3.16-1.58-4.73-2.28-6.31-.71-1.58-1.48-3.2-2.88-6.41l.19.71c-1.85-3.37-1.09-3.03-2.91-6.42l-.14-1.21c-.57-1.13-1.53-3.14-2.66-5.34-1.25-2.14-2.61-4.5-3.72-6.48.73,1.07,1.75,2.76,2.81,4.54.51.9,1.1,1.78,1.54,2.69.45.9.88,1.75,1.25,2.49-.89-2.37-3.87-7.63-4.64-8.71.51.88,1.2,1.96,1.62,2.87-.86-1.29-1.8-2.81-2.82-4.56-.53-.87-1-1.83-1.63-2.77-.6-.96-1.24-1.97-1.9-3.03.54.19-1.14-2.61-3.15-5.88-2.1-3.26-4.9-6.66-5.74-8.27-2.78-3.38-5.11-7.15-8.16-10.65-1.5-1.74-3.03-3.52-4.6-5.35-.8-.9-1.56-1.86-2.45-2.76-.87-.91-1.78-1.8-2.73-2.69,1.15,1.48.59.95-.24.17-.83-.78-1.97-1.78-1.92-1.36-1.81-1.57-2.49-2.17-2.63-2.35l.36.35c-.15-.15-.24-.24-.37-.36h0l-.32-.31s-.09-.07-.14-.11c.05.04.1.07.15.11.09.09.2.2.31.31-.29-.39,3.7,2.72.67-.15,1.17,1.19.1.35-.8-.35-.33-.28-.77-.44-1.11-.47-.35-.03-.58.04-.62.08-.05.04.09,0,.47.05.19.02.43.1.7.24.04.02.08.06.11.09-.08-.05-.17-.1-.26-.15-.39-.19-.89-.22-1.32-.06-.44.15-.8.5-1.01.91-.21.4-.21.92-.22,1.16-.06,1.21-.13,2.41-.24,3.6-.23,1.7-.05-2.26-.2-2.04-.2,5.19-.33,2.13-.62,5.63.23-.72.2,1.88.15,4.88.09-1.4.17-2.83.3-4.25.21,7.39-.49,6.38-.19,13.77l-.18-2.34c.09,3.79.08,14.02.49,17.71-.07.67-.23,1.55-.26-.11-.09,4.52-.01,9.61.18,14.4.16,4.77.19,9.33.06,12.85l-.14-.69c.04,1.69.26,2.95.12,5.06-.06-.11-.14-.68-.15.1.06.9.2,4.47.09,6.73l-.13-1.93c-.16,4.44-.05,7.85.14,11.07.2,3.2.34,6.23.4,9.95-.41-.02-.51,6.95-.61,10.41l-.06-.12c-.08,5.13-.1,9.56.25,13.88.17,2.12.26,4.2.31,6.37.07,2.17-.02,4.35-.08,6.78-.16,1.49-.25,3.5-.26,5.83-.02,2.35.17,4.96.17,7.65,0,2.71,0,5.59.03,8.34.02,2.74-.03,5.41-.09,7.79.07-1.46.32.24.36,1.93-.07,2.23.29,6.17-.08,5.82v-.8c-.18.85-.23,2.4-.32,4.17-.08,1.75-.24,3.82-.27,5.65l.48.61c-.21,2.35-.26,5.1-.15,7.93.1,2.79.14,5.72.11,8.49-.07,2.76-.16,5.5-.14,7.79-.01,2.3-.05,4.22-.18,5.5.18,2.26.18,5.03.32,7.3l-.26-.12c0,1.58.03,2.99.1,4.29.06,1.3.11,2.48.12,3.73.02,2.5.01,5.22-.01,9.09l-.17-1.59c-.09,4.39.77,5.55.68,9.55l-.44,1.19c-.19,3.83-.3,7.7-.16,11.57.17,3.79.17,7.56.21,11.31-.05-.12-.15-.35-.13-1.57-.06,1.74-.29,5.29-.26,8.15,0,2.67,0,4.79.24,4.52-.13.39-.19,2.19-.15,4.41.07,2.47.14,5.44.2,7.5l-.25-.64c.28,3.48.36,3.6.46,8.46-.03,1.15-.2,1.01-.14-.52-.12,3.84.28,3,.18,7.64l-.18-1.73c0,3.93.08,3.62.29,5.8.06,1.24.1,3.12.09,4.75-.01,1.63-.11,3.02-.22,3.31.15.53.33,2.69.28,5.01-.09.31-.15-.53-.17-.96-.15,6.6.36,9.8.02,14.33-.09.09-.14.39-.17.76.11-4.79.08-8.72.1-9.04-.23.08-.27,4.19-.6.86.09,1.7.24,3.99.3,6.37.06,2.39.1,4.89.06,6.96-.02.2-.04.4-.08.55l-.03-.43c-.02.96.01,1.82.07,2.63,0,1.33.02,2.18.06,3.43-.15.49,0,4.8-.04,6.91.26-.17.19,2.51.43.08-.02.06-.02-.65-.02-1.87,0-.32-.01-.69-.03-.9,0,.04.01.09.02.14,0-1.38-.03-3.17-.14-5.21.21,1.65.37,3.38.22,5.7.17,1.08.33,2.27.4,2.94-.2,1.44-.42,3.54-.57,5.4-.14,1.86-.24,3.45-.36,3.83.07,3.19-.06,7.01.04,10.51.08,3.48.07,6.67.31,8.71.05,1.84-.15,2.11-.22,2.8-.06-1.07-.04-2.32-.11-2.9.05,1.83.03,4.57.26,6.96.26,2.37.4,4.32.58,4.77-.12,4.59-.31-2.58-.25,3.73l-.1-.85c-.13,3.1-.3,5.91-.26,8.65.05,2.73.13,5.24.04,7.87-.05,2.65.02,5.32.14,8.2.06,1.45.19,2.94.23,4.49.04,1.55,0,3.18-.1,4.9.05-.96.07-1.44.12-1.63-.05,3.93-.22,7.93-.19,11.97,0,2.01-.05,4.01-.14,6.03-.08,2.04-.09,4.07-.06,6.1.01,2.04.21,4.1.36,6.08.14,1.99.12,3.99.11,6-.03,4-.04,7.99-.22,11.84-.26,4.36-.17,4.91-.01,7.61l-.29.96.35,4.62c.19,3.28.01,6.09-.13,9.16-.12,3.07-.15,6.32.05,10.46l.19-1.07c-.03,2.97.09,9.43-.12,8.93.03.3.2.98.1,2.14l-.15.09c.09,2.43.12,4.86.15,7.31-.16,5.67-.59-.88-.65,7.38.01,3.07.37,8.77.47,7.61,0-1.24.1-3.17.25-3.26l.07,2.81s.06.07.08.11v.45c0,.74.73,1.25,1.47,1.23,3.97-.12,7.61-.72,10.98-1.81,3.64-1.18,7.05-2.69,10.06-4.84,2.35-1.68,4.47-3.69,6.45-5.89-.06.1-.12.21-.18.31.22-.28.43-.57.65-.86.38-.44.77-.87,1.14-1.32.52-.63,1.03-1.28,1.54-1.94-.03.13-.23.47-.75,1.17,2.07-2.36,1.58-2.27,3.28-4.36.19-.23.13-.11,0,.13.53-.87,1.04-1.76,1.53-2.65-.24.55.51-.29-.53,1.29,1.55-2.29,2.49-4.31,3.22-5.94.73-1.63,1.22-2.9,1.77-3.79l-.16.43c1.43-3.54,1.37-3.76,1.27-3.74-.06,0-.14.07-.09-.22.42-1.11.82-2.23,1.2-3.37.42-.77.85-1.53,1.26-2.31l-.05-.8c.24-.75.69-2.23.72-1.93.61-2.86-.25.45.03-1.24,1.37-3.56,1.9-10.23,2.57-10.96.03-1.37-.82,3.51-.23-.47.67-1.03.92-4.55,1.86-7.88.04,1.09-.81,4.26.16.93.01-1.07.38-2.71.68-4.48.27-1.76.6-3.62.73-5.07-.16-.09-.01-1.66.23-3.82.29-2.15.5-4.94.49-7.38.06.16.14-2.14.3-5.02.18-2.88.58-6.36.8-8.62l.05.14c-.14-.45-.1-1.85-.08-3.57,0-1.71.02-3.73.03-5.43.2.14.27.75.33,2.6l.06-3.21c-.1-.76-.13-1.76-.13-3.84l.24.81c.07-4.27-.4-8.59-.24-14.07-.16-.22-.42,1.88-.6,1.41,0-.23,0-.46,0-.69,0-.78.02-1.54.04-2.28.08.1.14.43.15,1.2-.01-.49-.07-1.77.04-2.77.03.77.07,1.54.13,2.32.17-2.48-.15-1.31-.02-3.29.17.05.25-1.46.37-1.16-.04.5-.21,1.72-.18,2.48.12-2.24.57-4.9.87-5.74-.13.18-.26-.04.03-1.65.44-2.06.66-2.37.75-2.49.12-.11.14-.02.57-1.16.16-1.02,1.35-3.39,1.16-3.57.55-1.1.79-1.22,1.08-1.59.47-.97,1.86-3.06,3.29-4.36.45-.41.86-1.06.75-1.59-.12-.58-.23-.84-.31-1.06-.16-.43-.22-.45-.11.18.05.2.08.35.14.6-.03-.11-.07-.25-.11-.39-1.16-3.51-3.04-6.77-4.55-10.2-.79-1.7-1.57-3.4-2.35-5.09-.4-.84-.8-1.67-1.22-2.49-.21-.41-.42-.81-.65-1.21l-.3-.53c-.07-.15-.11-.31-.1-.48l.1.02c0-.29.16-.58.44-.75,1.7-1.18,3.04-2.99,4.05-4.7,1.01-1.73,1.76-3.41,2.25-4.71.52-1.16,1.33-2.7,1.22-2.15.59-1.54.86-2.41,1.23-3.45.36-1.04.78-2.25,1.56-4.49-.84,3.21.51-1.04-.93,3.27.46-1.25.79-2.21,1.08-3.07.14-.43.27-.84.39-1.27l.08-.29c.04-.14.08-.3.11-.46.05-.31.02-.64-.14-.93-.24-.47-.51-.99-.82-1.59-.3-.57-.65-1.21-1.06-1.97.86,1.3-1.1-3-1.87-4.84.31.93.65,1.86,1,2.79-.95-2.05-1.65-3.89-2.3-5.79l.66.91c-.66-2.06-1.29-4.01-1.89-5.88-.62-1.88-1.24-3.68-1.78-5.41-.55-1.74-1.08-3.42-1.55-5.07-.47-1.65-.87-3.27-1.1-4.93-.39-1.09-.13.07.12,1.26.24,1.19.56,2.38.15,1.43-.95-3.89-1.58-8.05-1.86-9.25-.1-.48-.19-.92-.27-1.31-.03-.17-.06-.33-.09-.49,0-.01,0-.02,0-.04.01-.1.24-.29.4-.32,1.77-.13,2.97-.35,6.6-.31-.73-.1-1.43-.4,2.86-.52,4.01.04,4.91.49,2.39.55-.96,0-1.42-.03-1.38-.07-1.29.04-2.99.09-1.41.21l.52-.11c1.99.09,7.47.17,6.18.34,3.04-.05,1.29-.15-.94-.26,1.28.06,2.43.11,3.51.13,1.1.01,2.04.04,3.16,0,2.24-.1,4.55-1.61,5.46-4.37-.29.74-.66,1.17-.31.42"/>
    <path class="cls-4" d="M328.02,366.16c-.13-1.35-.08-1.81-.04-2,.03.64.07,1.39.16,2.37.01.04.03.12.04.15-.06-.12-.12-.26-.17-.52M369.81,315.94c-.03-.21-.07-.43-.1-.64-.04-.18-.08-.36-.11-.54-.29-1.37-.5-2.36-.26-1.78-.82-2.78-.47-1.16-.02.94-.49-2.41-1.02-4.26-1.49-6.1-.46-1.85-.96-3.74-1.37-6.17.09.78.11,1.52-.05.75-.3-1.81-.49-2.91-.6-3.62-.14-.72-.23-1.05-.32-1.3-.18-.49-.29-.7-.88-3.14-.25-1.41-.1-1.18-.04-1.22.03-.02.03-.1-.06-.48-.1-.38-.28-1.07-.67-2.28-.8-2.98.1-.73.53.45-.78-2.22-1.37-4.18-1.72-6.04-.38-1.84-.64-3.46-.88-4.73l.59,2.32c-.37-1.39-.6-2.52-.84-3.7l.06,1.39c-.24-1.38-.48-2.58-.39-2.57-.45-1.41-.12,1.17-.93-1.64-.29-1.88-1.44-5.59-1.34-6.29,1.24,5.37.32.24,1.14,3.24-.19-.74-.38-1.59-.6-2.55-.02-.22.11.18.22.56-1.16-5.61-1.02-2.43-2.38-8.16.33.69,0-1.4-.27-2.33.54,2.31,0,1.17-.63-.92-.75-3.7-1.04-3.97-1.48-5.9l.46,2.21c-.33-.71-.77-2.55-1.38-5.1.07-.24.6,2.3.45,1.38-.47-1.39-.71-3-.93-4.79-.23-1.8-.56-3.74-1.13-5.7-.32-1.86.26-.25-.04-1.88-1.25-4.4-.91-4.87-2.18-9.5.1,1.4.2,1.62-.77-1.62l1.95,7.65-1.47-4.86c.54,2.32,1.29,4.86,1.58,6.26-.73-2.31-.62-2.08-.54-.93-.42-3.25-1.68-6.25-2.29-9.97h.56c-.52-2.8-1.12-5.24-1.92-7.9-.4-1.33-.88-2.68-1.31-4.12-.21-.73-.42-1.49-.62-2.29-.05-.2-.1-.41-.15-.61-.03-.17-.07-.21-.04-.32.01-.05.03-.09.05-.14l.11-.22c.1-.21.21-.41.31-.62l-.28.52-.21.37c-.05.08-.05.18-.03.27l.04.21.06.29c-.05-.1-.12-.28-.17-.43-.04-.1-.1-.23-.04-.37.02-.07.05-.13.09-.22.06-.13.13-.27.2-.41.13-.27.27-.56.41-.85.57-1.19,1.21-2.54,1.64-3.65.08.28.74-1.07,1.23-1.97-.09.03.44-1.22.94-2.58.51-1.37.99-2.84.93-3.21l1.36-3.01c1.06-2.79,1.46-4.47,1.82-6.11.35-1.65.68-3.27,1.35-6.05-.21,1.73.55-.78-.25,3,.49-1.86.89-3.55.77-3.6.38-1.07.82-5.26,1.27-6.97.05-.81-.08-1.1.22-3.23.04-.15.07-.09.08-.03-.02-.41.23-3.18-.14-1.46.3-1.45.51-3.21.62-5.12.12-1.91.08-3.95.1-5.94.05-4.01.06-7.93.13-10.53-.15-2.1-.41-4.38-.64-6.61-.22-2.22-.37-4.41-.53-6.3.07.24.09,0,.13.72-.22-5.22-.76-3.16-1.02-9.09,0-1.52.12-.74.22.18.09.93.16,2,.15,1.05.58-.88-.8-7.12-.84-11.14l.13.96c-.03-.77-.1-1.61-.21-2.53-.13-.91-.29-1.89-.46-2.93-.35-2.08-.74-4.39-1.04-6.87,0,0,.08.23.09.02-.76-3.34-1.85-9.71-2.66-14.43.46,1.43.47,2.12.56,1.19-.36-2.11-.3.69-.99-3.54-.06-1.4-.4-4.48-.22-4.93l.61,4.01c.04-2.09-.75-5.21-1.14-7.32l.2.24c-1.29-6.08-1.59-6.11-2.98-12.63l.05.7c-1.17-3.47-.49-3.02-1.57-6.51l.11-1.15c-.16-.58-.38-1.38-.63-2.32-.28-.93-.6-2-.93-3.12-.67-2.25-1.4-4.73-1.97-6.81.87,2.3,2.28,7.15,3.2,10.15-.58-2.32-2.05-7.85-2.53-9.01.28.92.67,2.07.85,3.01-.51-1.38-1.03-3-1.58-4.84-.57-1.84-1.21-3.89-1.85-6.18.46.31-.35-2.68-1.31-6.18-.92-3.49-1.88-7.54-2.12-9.3-.87-2.69-1.8-5.31-2.73-7.98-.23-.66-.47-1.33-.7-2l-.35-1.02-.28-.82c-.11-.26-.24-.49-.35-.74-.25-.44-.63-.76-1.1-.95-.47-.17-1.01-.2-1.49-.05-.49.15-.93.46-1.21.88-.13.21-.24.43-.31.68l-.13.84c-.03,1.63-.05,3.29-.08,5-.03,1.57-.05,3.18-.05,4.84.56-3.48,0,2.86.59,2.26.05,2.26.06,3.14.03,3.35v-.48c0,.21,0,.32,0,.5h0c-.05,2.31-.13,4.59-.25,6.88-.17,1.63-.12-2.16-.26-1.95-.05,4.96-.22,2.09-.45,5.33.25-.65.2,1.68.01,4.6.12-1.36.29-2.7.44-4.01-.04,3.47-.17,5.03-.3,6.55-.12,1.51-.25,3.07,0,6.58l-.24-2.23c.1,1.83.2,5.1.21,8.41.03,3.28-.03,6.61.22,8.4-.07.64-.23,1.49-.26-.11-.03,2.16,0,4.46.1,6.78.11,2.31.18,4.6.23,6.9.04,2.3.28,4.57.38,6.59.1,2.03.06,3.94-.02,5.61l-.13-.65c.03,1.6.22,2.77.01,4.79-.05-.11-.12-.65-.15.09,0,.85.17,4.33.09,6.43l-.15-1.81c-.05,2.08-.09,3.92-.13,5.62-.05,1.72-.03,3.32.03,4.86.13,3.07.3,5.95.34,9.47-.2,0-.35,1.63-.43,3.72-.1,2.09.03,4.63.07,6.23l-.06-.11c.08,2.39.08,4.65.07,6.78-.02,2.11-.11,4.2-.07,6.26.04,2.05.1,4.07.22,6.15.12,2.08.25,4.17.28,6.44-.11,1.4-.18,3.28-.29,5.46-.12,2.19-.18,4.71-.17,7.32-.02,2.63.19,5.36.2,7.92.01,2.6-.04,5.12-.19,7.35.13-1.37.31.23.3,1.85-.15,2.15.25,5.9-.13,5.56v-.76c-.38,1.61-.17,5.99-.18,9.37l.49.56c-.17,2.23-.29,4.75-.4,7.46-.07,2.7-.05,5.5.09,8.2.39,5.32.36,10.08-.14,12.47-.04,2.17-.06,4.9.08,7.01l-.26-.12c-.04,5.96-.13,8.92.03,16.31l-.21-1.5c.04,4.14.8,5.22.82,9.06l-.39,1.15c0,3.62-.05,7.27-.14,10.88-.11,3.62-.18,7.27.11,10.89-.06-.12-.19-.33-.23-1.52,0,.86.03,2.14.09,3.52.06,1.37.09,2.84.1,4.19.03,2.7.03,4.8.32,4.2-.17.05-.25,1.86-.3,4.24-.03,2.39.11,5.21.2,7.18l-.27-.61c.36,3.32.49,3.41.59,8.01-.03,1.09-.21.96-.14-.49-.13,3.64.24,2.84.12,7.26l-.17-1.65c0,3.75.08,3.45.28,5.51.1,2.36-.06,7.11-.3,7.66.14.5.34,2.56.27,4.76-.09.3-.14-.5-.17-.91-.08,3.13-.06,5.44-.05,7.53.02,2.09.09,3.94-.04,6.09-.09.09-.13.37-.16.73-.02-4.55.09-8.31.11-8.62-.24.05-.37,4-.63.8.09,3.27.53,8.77.38,12.69-.02.19-.05.38-.09.52l-.02-.41c-.03.9,0,1.72.03,2.48-.04,1.25-.07,2.06-.04,3.27-.1.23-.09,1.42,0,2.78.1,1.36.22,2.84.23,3.83.26-.17.27,2.36.43.06-.01.06-.03-.61-.11-1.76-.03-.3-.05-.65-.08-.84,0,.04.02.08.03.13-.1-1.29-.25-3.05-.27-5.02.14,1.59.37,3.28.38,5.48.23,1,.44,2.12.52,2.76-.31,2.74-.63,8-.86,8.75.03,3.08.07,6.69.2,10.02.12,3.31.2,6.35.47,8.27.08,1.74-.11,2.01-.18,2.66-.07-1-.07-2.2-.15-2.75.2,3.49.14,10.29.43,11.13-.28,4.37-.24-2.47-.36,3.55l-.08-.82c-.24,2.98-.22,5.68-.19,8.24.03,2.56.1,5.02.2,7.51.12,2.49.13,4.99.04,7.73-.03,2.43-.1,5.01-.1,7.87,0-.21.02-.36.04-.45.04,1.9.18,3.76.19,5.64.02,1.88-.01,3.8.03,5.72.09,3.83.22,7.68.07,11.49-.26,3.84-.26,7.72-.15,11.53.17,3.8.08,7.54-.06,11.25-.13,4.2.1,4.66.26,7.23l-.28.91.32,4.39c.12,3.11-.07,5.8-.18,8.71-.1,2.91-.17,6,.02,9.93l.2-1.01c-.05,2.82,0,8.96-.2,8.49.03.29.2.93.1,2.04l-.15.09c.08,2.32.24,4.64.36,6.95-.08,5.38-.56-.84-.61,7.01.01,2.92.38,8.33.48,7.23,0-1.18.1-3.01.25-3.1l.07,2.67s.05.07.08.11v.43c0,1.38,1.59,1.77,2.25.55,1.6-2.99,2.93-6.36,4.18-10.03,1.12-3.28,2.52-6.67,3.39-10.38.48-2.06.81-4.2,1.13-6.38l.03.33.07-1.01c.18-1.23.36-2.47.57-3.71.01-.09.03-.18.04-.26.03.14.02.53-.08,1.31.64-2.9.23-2.62.78-5.11.07-.27.07-.15.05.12l.27-2.89c0,.57.34-.44.04,1.32.45-2.56.66-4.67.81-6.34.17-1.68.34-2.95.65-3.89l-.05.43c.53-3.57.44-3.77.35-3.73-.06.02-.12.09-.14-.21.11-.79.21-1.57.27-2.36.03-.31.04-.62.06-.93.22-.83.43-1.66.64-2.49l-.25-.72c.04-.74.11-2.22.22-1.94-.1-2.77-.14.47-.27-1.15.41-3.57.29-9.88.77-10.66-.17-1.29-.3,3.42-.3-.41.27-.54.29-1.64.29-3.02-.01-1.38-.11-3.03.02-4.67.24,1.01.09,4.11.34.84-.41-1.99.12-6.38.08-9.14-.34-.13-.04-6.01-.12-10.64.1.29.24-8.72.31-13.03l.06.13c-.34-.83-.33-5.28-.4-8.51.21.13.27.7.38,2.46,0-1.02-.02-2.03.01-3.02-.09-.71-.13-1.65.03-3.6l.18.78c.16-1.99.38-3.99.77-6.11.41-2.12.92-4.39,2-6.71-.05-.18-.6.7-.87,1.01-.09.11-.16.13-.17.01.35-.96.72-1.83,1.09-2.6.03.12-.03.43-.31,1.11.18-.43.59-1.58,1.13-2.36-.3.67-.57,1.35-.8,2.04.53-1.04.65-1.32.72-1.57.08-.24.09-.45.61-1.24.12.12.89-1.07.86-.76-.27.38-.98,1.29-1.25,1.96.52-.91,1.19-1.85,1.86-2.58.66-.73,1.31-1.24,1.65-1.44-.1.02-.14-.03-.02-.2.03-.13.72-.52.91-1.53.04-.24,0-.47-.04-.58-.42-1.72-.46-1.93-.43-2.09.02-.14.12-.15-.19-1.25-.42-.91-1.23-3.4-1.53-3.35-.45-1.11-.43-1.36-.54-1.81-.47-.95-1.5-3.19-2.41-4.87-.9-1.68-1.62-2.81-1.17-1.71l.24.48c-.05-.09-.11-.19-.17-.3-1.01-1.68-2.04-3.39-3.08-5.12-.15-.21-.24-.48-.18-.74.05-.26.22-.48.4-.65.46-.46.87-.96,1.27-1.47.79-1.02,1.48-2.11,2.12-3.22,1.27-2.22,2.33-4.52,3.19-6.82l.08.04c1.05-2.88,2.09-6.26,2.78-9.02.09-.28.08-.58,0-.84-.09-.28-.23-.49-.33-.67-.21-.38-.4-.73-.58-1.05-.52-1.08-.98-2.65-.69-2.22-.62-1.41-.96-2.2-1.31-3.17-.35-.97-.72-2.11-1.19-4.29.96,2.95-.18-1.05.97,3.02-.56-1.92-.78-3.13-1.06-4.36-.27-1.24-.57-2.5-1.09-4.61.52,1.4-.31-3.03-.56-4.92.08.94.12,1.88.24,2.82-.38-2.12-.57-3.99-.82-5.89l.45.98c-.3-3.61-.94-6.85-1.21-9.92-.16-1.54-.27-3.03-.35-4.49-.03-.69-.06-1.36-.09-2.04,0-.18.06-.37.2-.49.14-.12.33-.14.5-.12l1.08.06,1.15.09c.75-.08.46-.12-.16-.15-.31,0-.7-.02-1.09-.04-.19,0-.39-.01-.57-.02-.18,0-.38-.01-.42-.02-.32-.03-.53,0-.17-.16h.15c.92.03,1.84.06,2.72.08.91.04,1.78.08,2.57.11,1.58.07,2.83.12,3.42.1,2.59-.01,3.79-.13,5.03-.27.62-.07,1.25-.13,2.06-.17.81-.05,2.04-.07,3.4-.81-.37.15-.76.19-.54,0,.1-.12.36-.26.77-.61.4-.34.99-.85,1.49-1.79.49-.86.66-1.66.73-2.27.07-.61.06-1.03.08-1.25.02-.22.08-.24.17-.03.09.2.22.64.21,1.33-.05,1.05-.32,1.51-.32,1.46-.36,1.37-1.7,2.78-.48,1.48.08-.18.13-.37.2-.55.28-.47.59-1.22.69-2.07.05-.43.05-.87.01-1.31"/>
    <path class="cls-1" d="M204.9,385.75h0,0s0,0,0,0c0,0,0,0-.01,0,0,0,0,0,.01,0M204.9,385.75h0s0,0,0,0h0,0ZM204.98,385.72s.02,0,.02,0c-.02,0-.04.01-.05.01,0,0,.01,0,.03-.01M205.07,385.7s.01,0,.02,0c0,0-.02,0-.03,0,0,0,0,0,0,0M57.38.45c-.74,0-1.38,0-1.95.02.55-.03,1.13-.05,1.76-.06.23.01.39.03.51.04-.11,0-.21,0-.32,0M201.18,218.2c-1.1-2.56.93,2.03.99,2.19.18-.12-3.01-11.49-2.7-12.07-3.55-16.9-6.48-40.18-5.85-69.9C195.16,66.84,139.43,6.41,90.17.84c-5.47,0-5.47-.07-10.93-.07-4.79,0-5.39-.06-9.14-.07l.42-.07c-.41.02-.82.04-1.24.07-.31,0-.63,0-.98,0-2.08,0-3.37-.03-4.47-.08.17-.05.69-.08,1.75-.07-3.92-.3-3.48-.04-6.87-.29-.37-.04-.2-.05.14-.07-1.29.03-2.57.07-3.86.14.75-.09-.65-.27,1.73-.25-3.49-.12-6.26.33-8.48.4-2.24.1-3.95.12-5.23-.09h.57c-4.75-.24-5.03-.19-4.95-.08.03.06.14.11-.22.16-.79-.03-1.71-.05-2.9-.05-.59,0-1.11,0-1.59,0-1.1-.15-2.2-.29-3.3-.42l-.93.32c-.99.03-2.94.04-2.58-.09-3.67.23.63.12-1.51.32-2.38-.1-5.65-.15-8.47-.24-2.82-.05-5.18-.04-5.72-.26-1.71.23,4.56.13-.52.32-1.22-.4-4.4.1-7.97.08-.4-.03-.83.08-1.1.41-.27.32-.37.74-.38,1.17-.06-.3-.05-.81.23-1.22.27-.43.81-.59,1.23-.58.51-.02.75-.03.82-.04.02,0-.01-.02-.14-.03-.06,0-.14-.01-.25-.02-.12,0-.27-.01-.45-.02-.33-.02-.92,0-1.37.52-.23.38-.34.88-.3,1.41.02.43.04.88.04,1.37,0,.97-.05,2.05-.14,3.17-.21,2.23-.41,4.64-.35,6.48.31.18.21,7.98.32,14.13-.07-.2-.07,2.71-.09,6.36-.04,3.66-.08,8.08-.11,10.95l-.06-.17c.18.55.24,2.3.29,4.46.05,2.15.12,4.7.17,6.85-.21-.17-.29-.93-.43-3.26l.06,4.03c.11.95.19,2.21.18,4.82l-.24-1.02c-.01,2.66-.13,5.38-.07,8.3.03,1.46.05,2.96.08,4.53.04,1.58.11,3.21.08,4.93.16.27.36-2.34.56-1.81.03.97.05,2.1.06,3.75-.07-.11-.13-.42-.17-1.13.04.76.1,2.06.05,3.12l-.22-2.92c-.08,3.15.19,1.65.16,4.17-.18-.05-.15,1.86-.29,1.5,0-.64.09-2.2.02-3.16-.03,2.84-.22,6.26-.36,7.41.11-.25.24,0,.26,2.09.01,5.38-.22,1.84-.31,4.98.13,1.3.01,4.73.29,4.82,0,1.57-.13,1.86-.2,2.47.12,2.78,0,13.01.31,9.87l.02-.71c0,.13,0,.29.01.46.18,4.56-.05,9.3-.07,14.03-.01,2.37-.02,4.73-.03,7.07,0,2.33-.03,4.65.06,6.92h-.09c.36,5.38.18,12,.4,15.86,0,1.6-.17,3.77-.28,3.09.03,2.06.04,3.2-.01,4.58-.05,1.37-.16,2.99-.24,5.99-.11-4.17-.21,1.44-.03-4.28-.15,2.7-.18,4.36-.2,6.05-.02,1.7.04,3.45.2,6.33-.26-1.96-.24,4.04-.25,6.57.08-1.24.15-2.49.2-3.74.06,2.87-.06,5.34-.18,7.9l-.26-1.4c-.21,2.77-.23,5.39-.14,7.93.1,2.57.42,4.9.48,7.19.09,2.3.12,4.51.02,6.67-.12,2.17-.22,4.33-.37,6.42.11,1.45.14-.03.19-1.57.05-1.54.16-3.12.25-1.81-.08,2.54-.16,5.12-.31,7.26-.15,2.14-.28,3.86-.28,4.65-.2,6.94.5,6.48.39,13.71.13-.93.36-1.8.56,3.62.16,5.07-.27,6.21-.44,3.04-.06-1.2-.05-1.8,0-1.74-.11-1.64-.18-3.8-.27-1.78l.13.66c-.02,1.28.08,3.62.06,5.45-.01,1.84-.07,3.16-.16,2.35.05,3.78.18,1.63.24-1.19-.04,3.24-.22,5.69-.34,8.29-.08,2.6-.06,5.17-.04,8.53.03-1.07.15-2.05.17-.99.1,9.78.26,4.28.42,10.94-.07,3.78-.43-1.32-.12,5.33-.09,4.06-.27.86-.4-.75.16,3.01.08,5.88.07,8.4-.02,2.52-.11,4.69-.13,6.42l-.1-3.19c.07,1.91.06,3.48.05,5.06l.23-1.82c-.04,1.88-.07,3.46-.16,3.42.1,1.93.4-1.48.51,2.37-.18,2.53.09,7.66-.28,8.49.19-7.05-.18-.7-.27-4.21,0,.95,0,1.99-.05,3.16-.04.28-.05-.26-.06-.77-.21,3.7-.24,4.59-.14,5.51.09.92.17,1.87.2,5.81-.18-1.01-.3,1.84-.19,3.13-.1-3.2.2-1.52.46,1.37.04,4.97.16,5.42.19,8.05l.05-3.01c.16,1.01.15,3.54.25,7.03-.12.3-.13-3.17-.17-1.93.35,3.89-.24,8.75-.15,14.18-.13,2.52-.32.24-.4,2.45.23,6.05-.4,6.53-.19,12.97.23-1.86.11-2.18.44,2.35-.17-3.53-.15-7.05-.1-10.54.05,2.23.1,4.51.21,6.75-.01-3.18,0-6.7.04-8.58.14,3.2.07,2.87.29,1.36-.42,4.32-.07,8.6.05,13.62l-.56-.12c.07,1.87.08,3.6.1,5.35.01,1.75.02,3.46-.06,5.25-.17,3.66-.04,7.6.03,12.49l.02-3.15c.24,1.33.2,6.02.25,9.19-.19-.29-.25,1.68-.37,3.03.13-.17-.04,7.16.34,8.05l-.2,4.38c0,7.87.54,8.99.48,16.58-.2-2.29-.33,1.17-.47-3.92-.01,2.54-.04,4.82.08,4.85-.06.74,0,2.48,0,4.34,0,1.86,0,3.85-.09,5.01.08,1.07.25,1.42.29,4.28-.02.21-.05.13-.08.06.08.54.31,4.22.39,1.89-.03,3.9-.08,9.34-.13,14.66-.02,5.33.11,10.54-.15,13.93.01,2.76.03,5.81.04,8.79.02,3,.05,5.88-.14,8.37-.04-.32-.09-.02-.01-.96-.33,3.45-.18,4.56-.07,5.74.14,1.19.19,2.49.33,6.44-.07,4.04-.39-4.17-.37-1.66-.3.58-.06,2.94.03,5.8.04,1.44.08,3.02.03,4.55-.04,1.53-.18,3.04-.32,4.38l.03-1.3c-.22,2.04-.21,4.54-.07,7.36.06,1.41.22,2.92.35,4.43.13,1.52.18,3.11.16,4.75,0,0-.05-.32-.09-.04.08,1.13.13,2.5.11,4.03-.02,1.53-.09,3.24-.08,5,.01,1.76.04,3.58.14,5.36.1,1.78.29,3.5.36,5.08-.31-1.96-.29-2.87-.44-1.65.1,1.41.17,1.2.28,1.34.05.07.11.23.17.73.07.51.07,1.29.16,2.84.03.26.14.57.41.77.26.2.66.27.99.27.67.04,1.4.08,2.08.12,1.33.08,2.48.2,2.76.33l-2.68-.03h-1.34s-.81-.01-.81-.01h-.41c-.16-.02-.31-.05-.46-.1.48.2.9.15,1.38.2.48.03.81.04,1.25.05.82.02,1.69.02,2.56.01,1.74,0,3.52-.05,4.93-.02l-.36.14c4.13-.03,6.18-.09,8.36-.13,2.18-.05,4.42-.13,8.85-.13l-.92-.11c4.84-.38,4.06.18,8.88-.08l1.46.37c1.6-.03,4.39-.09,7.51-.16,1.56-.04,3.2-.1,4.81-.23,1.61-.13,3.16-.27,4.59-.31-1.61.14-4.06.48-6.69.63-2.62.14-5.33.18-7.41.24,1.59.02,4.27.04,6.79-.02,2.54-.06,4.85-.33,5.64-.43-1.25.09-2.86.31-4.14.29,1.97-.21,4.17-.54,6.71-.62,2.55-.11,5.38-.05,8.54.12-.29.17.6.31,2.17.38,1.58.07,3.79.07,6.2.14,2.4.08,5.02.1,7.28.13,2.26.04,4.2.17,5.35.33,2.81-.03,5.58-.02,8.43-.14,1.42-.07,2.8-.16,4.2-.18,1.4-.03,2.82-.01,4.26,0,2.88.05,5.82.09,8.85.14,3.06.04,6.23-.11,9.48-.41-4.66-.16,3.8-.34,2.94-.86,2.97-.33,4.13-.46,4.42-.46l-.63.05c.27-.02.42-.03.66-.05h0c3.05-.24,6.15-.67,9.15-1.28,2.17-.33-2.79.77-2.5.82,3.27-.69,3.96-.83,4.39-.85.43-.04.58.04,2.75-.49-.94.03,2.2-.83,5.83-2.19-1.72.59-3.47,1.09-5.22,1.51,4.46-1.5,6.35-2.3,8.26-3.02,1.9-.77,3.8-1.51,7.85-4.04-.83.57-1.69,1.12-2.53,1.64,1.04-.59,2.59-1.47,4.25-2.57,1.67-1.1,3.49-2.42,5.23-3.81,3.57-2.74,6.67-6.02,8.11-7.9.63-.58,1.52-1.3.09.28,1.98-2.11,4.01-4.36,5.95-6.81,1.95-2.45,3.64-5.16,5.14-7.81,3-5.34,5.35-10.61,7.14-14.74l-.2.87c.77-2.02,1.12-3.6,2.12-6.1.01.15-.15.87.18-.08.31-1.1,1.54-5.51,2.31-8.26l-.5,2.39c3.23-10.83,3.34-16.93,4.64-26.22.2.04.57-2.13.95-4.86.18-1.37.38-2.87.57-4.31.18-1.44.24-2.82.34-3.91l.05.16c.2-3.26.39-6.27.5-9.17.04-2.92-.11-5.67-.22-8.36-.05-1.34-.13-2.69-.07-3.93.06-1.27.26-2.55.58-3.84.62-2.57,1.68-5.15,2.98-7.84.75-1.29,1.71-2.93,2.92-4.75.6-.91,1.27-1.87,1.99-2.86.36-.49.74-.99,1.13-1.49.2-.25.4-.49.6-.74l.31-.37.38-.43c.29-.31.49-.7.53-1.12.02-.21.02-.43-.02-.64-.01-.1-.04-.22-.06-.31l-.04-.2c-.1-.51-.22-1.02-.36-1.53-.27-1.02-.58-2.04-.93-3.04-.7-2.01-1.55-4-2.46-5.92-.91-1.92-1.88-3.78-2.85-5.55-.49-.88-.98-1.75-1.47-2.58-.25-.42-.49-.83-.73-1.23-.12-.19-.23-.37-.34-.55,0-.01-.02-.03-.03-.05v-.02s-.04.02-.05.03h0s0,.01,0,.01c.01.04,0,.05-.03.04h-.02v-.02s-.04.03-.06.04c0,0,0,0,0,0-.02,0-.04-.04-.04-.09-.02-.1.04-.29.14-.39.27-.25.56-.51.83-.79,1.13-1,2.33-2.65,3.16-3.99.84-1.33,1.4-2.33,1.46-2.04l-.53.88c1.49-1.65,4.19-6.87,5.98-11.09l-.16-.89c.33-.67.66-1.37.98-2.12l.24-.57.12-.3c.04-.11.1-.3.14-.45.07-.32.09-.66,0-.99-.04-.16-.12-.31-.2-.47l-.15-.3c-.71-1.47-1.39-3.05-2.04-4.68-1.32-3.27-2.52-6.71-3.47-10.1-.96-3.41-1.88-6.65-2.66-9.44-.78-2.78-1.25-5.08-1.4-6.69-.34-1.37-.65-2.93-.93-4.49-.14-.78-.28-1.56-.41-2.32-.07-.38-.14-.76-.21-1.13-.05-.28-.11-.55-.16-.82.09.03.18.05.27.07-.02-.21.18-.33.29-.29.77.01,1.49.03,2.2.04.75.03,1.47.05,2.18.08,1.42.07,2.83.16,4.32.21,2.96.07,6.18.11,10.55-.15l-2,.29c2.81-.12,4.46-.41,6.14-.62.86-.1,1.7-.2,2.65-.31,1.05-.15,2.21-.55,3.32-1.45.53-.25,1.03-.6,1.48-1.02.41-.59.71-1.26.91-1.95.18-.7.24-1.43.18-2.16-.06-.36-.09-.72-.2-1.07l-.16-.52-.16-.43-.65-1.71c-.89-2.31-1.92-4.47-2.75-6.69-.86-2.25-1.64-4.44-2.28-6.73-.66-2.35-1.55-4.65-2.52-6.83.11.13.33.35.9,1.82-.4-1.07-.98-2.65-1.73-4.37-.76-1.71-1.53-3.45-2.17-5.13-1.22-3.11-2.04-5.61-2.16-5.24-.03-.53-.67-2.73-1.7-5.33-1.16-2.89-2.57-6.38-3.54-8.79l.53.67c-.93-2-1.42-3.04-1.99-4.26-.55-1.24-1.29-2.69-2.6-5.41-.53-1.34-.31-1.23.39.53-.91-2.2-1.27-3.07-1.71-4.04-.43-.98-.92-2.07-1.8-4.86l.87,2c-1.61-4.69-1.57-4.32-2.7-6.82,0,0-3.33-6.43-7-19.29-.64-1.65-1.23-3.1-1.81-4.47"/>
    <g>
      <g>
        <path class="cls-3" d="M18.23,182.22h2.57l5.43,12.76h-2.91l-1.16-2.84h-5.36l-1.16,2.84h-2.84l5.43-12.76ZM21.16,189.67l-1.68-4.11-1.68,4.11h3.37Z"/>
        <path class="cls-3" d="M28.18,182.31h2.57l5.94,7.8v-7.8h2.75v12.67h-2.37l-6.13-8.05v8.05h-2.75v-12.67Z"/>
      </g>
      <g>
        <path class="cls-3" d="M14.01,204.03h2.79v12.67h-2.79v-12.67Z"/>
        <path class="cls-3" d="M19.97,204.03h2.57l5.94,7.8v-7.8h2.75v12.67h-2.37l-6.13-8.05v8.05h-2.75v-12.67Z"/>
        <path class="cls-3" d="M37.21,206.6h-3.85v-2.57h10.5v2.57h-3.85v10.1h-2.79v-10.1Z"/>
        <path class="cls-3" d="M45.99,204.03h5.79c1.61,0,2.86.45,3.69,1.29.71.71,1.09,1.7,1.09,2.9v.04c0,2.04-1.1,3.33-2.71,3.93l3.09,4.52h-3.26l-2.71-4.05h-2.19v4.05h-2.79v-12.67ZM51.6,210.18c1.36,0,2.13-.72,2.13-1.79v-.04c0-1.19-.83-1.81-2.19-1.81h-2.77v3.64h2.82Z"/>
        <path class="cls-3" d="M58.52,210.4v-.04c0-3.6,2.84-6.55,6.75-6.55s6.71,2.91,6.71,6.51v.04c0,3.6-2.84,6.55-6.75,6.55s-6.71-2.91-6.71-6.51ZM69.07,210.4v-.04c0-2.17-1.59-3.98-3.84-3.98s-3.8,1.77-3.8,3.95v.04c0,2.17,1.59,3.98,3.84,3.98s3.8-1.77,3.8-3.95Z"/>
        <path class="cls-3" d="M74.46,204.03h4.94c3.98,0,6.73,2.73,6.73,6.3v.04c0,3.57-2.75,6.33-6.73,6.33h-4.94v-12.67ZM77.25,206.54v7.64h2.15c2.28,0,3.82-1.54,3.82-3.78v-.04c0-2.24-1.54-3.82-3.82-3.82h-2.15Z"/>
        <path class="cls-3" d="M88.42,211.27v-7.24h2.79v7.17c0,2.06,1.03,3.13,2.73,3.13s2.73-1.03,2.73-3.04v-7.26h2.79v7.15c0,3.84-2.15,5.72-5.56,5.72s-5.48-1.9-5.48-5.63Z"/>
        <path class="cls-3" d="M101.74,210.4v-.04c0-3.6,2.71-6.55,6.61-6.55,2.39,0,3.82.8,4.99,1.95l-1.77,2.04c-.98-.89-1.97-1.43-3.24-1.43-2.13,0-3.67,1.77-3.67,3.95v.04c0,2.17,1.5,3.98,3.67,3.98,1.45,0,2.33-.58,3.33-1.48l1.77,1.79c-1.3,1.39-2.75,2.26-5.19,2.26-3.73,0-6.5-2.88-6.5-6.51Z"/>
        <path class="cls-3" d="M118.6,206.6h-3.85v-2.57h10.5v2.57h-3.85v10.1h-2.79v-10.1Z"/>
        <path class="cls-3" d="M127.51,204.03h2.79v12.67h-2.79v-12.67Z"/>
        <path class="cls-3" d="M132.9,210.4v-.04c0-3.6,2.84-6.55,6.75-6.55s6.71,2.91,6.71,6.51v.04c0,3.6-2.84,6.55-6.75,6.55s-6.71-2.91-6.71-6.51ZM143.45,210.4v-.04c0-2.17-1.59-3.98-3.84-3.98s-3.8,1.77-3.8,3.95v.04c0,2.17,1.59,3.98,3.84,3.98s3.8-1.77,3.8-3.95Z"/>
        <path class="cls-3" d="M148.85,204.03h2.57l5.94,7.8v-7.8h2.75v12.67h-2.37l-6.13-8.05v8.05h-2.75v-12.67Z"/>
      </g>
      <g>
        <path class="cls-3" d="M16.83,227.62h-3.85v-2.57h10.5v2.57h-3.85v10.1h-2.79v-10.1Z"/>
        <path class="cls-3" d="M24.51,231.42v-.04c0-3.6,2.84-6.55,6.75-6.55s6.71,2.91,6.71,6.51v.04c0,3.6-2.84,6.55-6.75,6.55s-6.71-2.91-6.71-6.51ZM35.06,231.42v-.04c0-2.17-1.59-3.98-3.84-3.98s-3.8,1.77-3.8,3.95v.04c0,2.17,1.59,3.98,3.84,3.98s3.8-1.77,3.8-3.95Z"/>
      </g>
      <g>
        <path class="cls-3" d="M45.26,246.79c1.78-1.61,1.89-2.2,1.89-11.77s-.14-10.23-1.89-11.84v-.07c1.5.07,2.51.07,5.06.07,2.34,0,3.7-.07,7.75-.07,5.24,0,7.58,2.48,7.58,6.81,0,2.83-1.43,5.1-3.53,6.43,5.06,9.12,5.83,9.85,7.3,10.34v.07c-2.24.03-4.44.21-6.99.21-.91,0-1.4-.31-1.92-1.12-1.12-1.64-2.79-4.86-4.58-8.17-.84-.04-1.57-.11-2.2-.21.04,7.23.28,7.86,1.89,9.33v.07h-10.37v-.07ZM56.05,233.34c1.85,0,3.04-1.15,3.04-3.04s-.98-2.93-3.14-2.93c-.59,0-1.29.04-2.13.07-.04,1.82-.07,3.74-.07,5.8.91.07,1.82.11,2.31.11Z"/>
        <path class="cls-3" d="M68.87,235.02c0-7.72,5.59-12.4,12.64-12.4s12.64,4.64,12.64,12.36-5.55,12.4-12.64,12.4-12.64-4.64-12.64-12.36ZM87.17,235.54c0-5.1-2.55-8-6.04-8-2.93,0-5.27,2.58-5.27,6.92,0,5.1,2.55,8,6.08,8,2.97,0,5.24-2.58,5.24-6.92Z"/>
      </g>
      <g>
        <path class="cls-3" d="M127.31,246.79c1.92-2.06,2.13-3.21,2.13-11.77,0-3.11,0-5.24-.04-6.81-3.42,0-4.16.14-5.8.8h-.07l.21-6.11h.07c.66.35,7.58.38,8.7.38,1.19,0,8.52-.04,9.22-.38h.07l-.25,6.11h-.07c-1.43-.66-2.2-.8-5.41-.8-.04,1.57-.04,3.7-.04,6.81,0,8.66.21,9.75,2.13,11.77v.07h-10.86v-.07Z"/>
        <path class="cls-3" d="M143.87,246.79c1.68-1.78,1.89-2.58,1.89-11.77s-.21-10.06-1.89-11.84v-.07c11.7,0,14.49,0,15.47-.21h.07l.31,5.59h-.07c-1.43-.7-2.76-.94-4.86-.94-.84,0-1.61,0-2.3.03-.07,1.05-.11,2.38-.11,3.98.42,0,.91.03,1.43.03,1.5,0,3.32-.07,5.41-.31l.11,4.54c-2.97-.24-5.2-.24-6.99-.24,0,2.72.03,4.79.07,6.32.73.04,1.57.04,2.51.04,2.24,0,3.49-.59,5.17-1.43h.07l-.31,6.57h-.07c-.98-.21-4.51-.21-12.22-.21h-3.7v-.07Z"/>
        <path class="cls-3" d="M162.2,246.79c1.68-1.92,1.85-2.76,1.85-11.77s-.17-9.92-1.85-11.84v-.07c1.12.07,2.69.14,5.8.14,2.06,0,4.61-.24,6.71-.24,6.99,0,11.35,3.98,11.35,10.65,0,8.21-4.58,13.27-10.93,13.27-2.27,0-4.65-.14-6.74-.21-3.28,0-4.96.07-6.18.14v-.07ZM174.15,241.97c2.83,0,4.61-2.62,4.61-7.09,0-4.71-1.61-6.92-4.79-6.92-1.15,0-2.17.04-3.11.07-.07,1.75-.11,4.09-.11,7.27,0,2.93,0,5.06.07,6.64.98.04,2.1.04,3.32.04Z"/>
      </g>
      <g>
        <path class="cls-3" d="M13.12,276.97c1.71-1.78,1.89-2.58,1.89-11.77s-.17-10.06-1.89-11.84v-.07h10.37v.07c-1.71,1.78-1.89,2.65-1.89,11.84s.17,9.99,1.89,11.77v.07h-10.37v-.07Z"/>
        <path class="cls-3" d="M25.38,276.97c1.68-1.92,1.85-2.76,1.85-11.77s-.17-9.92-1.85-11.84v-.07c1.12.07,2.69.14,5.8.14,2.06,0,4.61-.24,6.71-.24,6.99,0,11.35,3.98,11.35,10.65,0,8.21-4.58,13.27-10.93,13.27-2.27,0-4.64-.14-6.74-.21-3.28,0-4.96.07-6.18.14v-.07ZM37.33,272.15c2.83,0,4.61-2.62,4.61-7.09,0-4.71-1.61-6.92-4.79-6.92-1.15,0-2.17.04-3.11.07-.07,1.75-.1,4.09-.1,7.27,0,2.93,0,5.06.07,6.64.98.04,2.1.04,3.32.04Z"/>
        <path class="cls-3" d="M50.67,276.97c1.68-1.78,1.89-2.58,1.89-11.77s-.21-10.06-1.89-11.84v-.07c11.7,0,14.5,0,15.47-.21h.07l.31,5.59h-.07c-1.43-.7-2.76-.94-4.85-.94-.84,0-1.61,0-2.31.03-.07,1.05-.1,2.38-.1,3.98.42,0,.91.03,1.43.03,1.5,0,3.32-.07,5.41-.31l.11,4.54c-2.97-.24-5.21-.24-6.99-.24,0,2.72.04,4.79.07,6.32.73.04,1.57.04,2.51.04,2.24,0,3.49-.59,5.17-1.43h.07l-.31,6.57h-.07c-.98-.21-4.5-.21-12.22-.21h-3.7v-.07Z"/>
        <path class="cls-3" d="M68.49,276.97c1.82-1.64,1.89-2.03,1.89-11.77v-4.3c0-2.3-.04-4.61-.17-8.1l.45-.07c3.91,3,9.64,7.61,14.18,11.28v-1.36c0-6.64-.21-7.51-2.13-9.29v-.07h9.43v.07c-1.57,1.61-1.64,2.1-1.64,11.84,0,7.79.1,10.27.28,12.29l-.28.07c-3.04-2.93-9.36-8.42-14.5-12.75.04.63.04,1.36.04,2.17,0,7.33.21,8.28,2.13,9.99v.07h-9.67v-.07Z"/>
        <path class="cls-3" d="M96.95,276.97c1.92-2.06,2.13-3.21,2.13-11.77,0-3.11,0-5.24-.04-6.81-3.42,0-4.16.14-5.8.8h-.07l.21-6.11h.07c.66.35,7.58.38,8.7.38,1.19,0,8.52-.04,9.22-.38h.07l-.25,6.11h-.07c-1.43-.66-2.2-.8-5.41-.8-.04,1.57-.04,3.7-.04,6.81,0,8.66.21,9.75,2.13,11.77v.07h-10.86v-.07Z"/>
        <path class="cls-3" d="M112.74,276.97c1.71-1.78,1.89-2.58,1.89-11.77s-.17-10.06-1.89-11.84v-.07h10.37v.07c-1.71,1.78-1.89,2.65-1.89,11.84s.17,9.99,1.89,11.77v.07h-10.37v-.07Z"/>
        <path class="cls-3" d="M128.25,276.97c1.92-2.06,2.13-3.21,2.13-11.77,0-3.11,0-5.24-.04-6.81-3.42,0-4.16.14-5.8.8h-.07l.21-6.11h.07c.66.35,7.58.38,8.7.38,1.19,0,8.52-.04,9.22-.38h.07l-.25,6.11h-.07c-1.43-.66-2.2-.8-5.41-.8-.04,1.57-.04,3.7-.04,6.81,0,8.66.21,9.75,2.13,11.77v.07h-10.86v-.07Z"/>
        <path class="cls-3" d="M149.66,276.97c1.64-1.71,2.06-2.69,2.13-9.95-.59-1.01-1.71-2.93-3.95-6.74-3.28-5.83-3.6-5.94-4.58-6.92v-.07h10.58v.07c-.66.8-1.05,1.29-1.05,2.1,0,1.01.7,2.38,2.34,5.55.31.56.63,1.05.91,1.54.25-.45.52-.98.87-1.54,1.57-3.11,2.24-4.51,2.24-5.55,0-.77-.38-1.33-1.08-2.1v-.07h8.84v.07c-1.05.87-1.29,1.15-4.58,6.92-2.2,3.7-3.32,5.66-3.91,6.78.04,7.23.49,8.21,2.1,9.92v.07h-10.86v-.07Z"/>
      </g>
      <g>
        <path class="cls-3" d="M17.2,328.43v.78h-1.7v-8.17h1.7v3.03c.41-.56.98-.97,1.87-.97,1.4,0,2.73,1.1,2.73,3.1v.02c0,2-1.31,3.1-2.73,3.1-.91,0-1.47-.41-1.87-.9ZM20.1,326.22v-.02c0-1-.67-1.66-1.46-1.66s-1.45.66-1.45,1.66v.02c0,1,.66,1.66,1.45,1.66s1.46-.65,1.46-1.66Z"/>
        <path class="cls-3" d="M26.72,323.21h1.77l-2.3,6.14c-.46,1.22-.95,1.68-1.97,1.68-.62,0-1.07-.16-1.51-.41l.57-1.23c.22.13.5.24.73.24.29,0,.45-.09.59-.39l-2.35-6.02h1.8l1.36,4.08,1.31-4.08Z"/>
      </g>
      <g>
        <path class="cls-3" d="M33.1,321.38h1.72v7.83h-1.72v-7.83Z"/>
        <path class="cls-3" d="M36.78,321.38h3.58c1,0,1.77.28,2.28.79.44.44.67,1.05.67,1.79v.02c0,1.26-.68,2.06-1.68,2.43l1.91,2.8h-2.01l-1.68-2.5h-1.35v2.5h-1.72v-7.83ZM40.24,325.18c.84,0,1.32-.45,1.32-1.11v-.02c0-.74-.51-1.12-1.35-1.12h-1.71v2.25h1.75Z"/>
        <path class="cls-3" d="M44.94,321.38h1.72v7.83h-1.72v-7.83Z"/>
        <path class="cls-3" d="M48.62,321.38h1.59l3.67,4.82v-4.82h1.7v7.83h-1.47l-3.79-4.98v4.98h-1.7v-7.83Z"/>
        <path class="cls-3" d="M60.14,321.33h1.59l3.36,7.88h-1.8l-.72-1.76h-3.31l-.72,1.76h-1.76l3.36-7.88ZM61.95,325.93l-1.04-2.54-1.04,2.54h2.08Z"/>
        <path class="cls-3" d="M69.65,321.38h1.59l3.67,4.82v-4.82h1.7v7.83h-1.47l-3.79-4.98v4.98h-1.7v-7.83Z"/>
        <path class="cls-3" d="M78.48,321.38h5.91v1.53h-4.19v1.59h3.69v1.53h-3.69v1.64h4.25v1.53h-5.96v-7.83Z"/>
        <path class="cls-3" d="M85.3,321.38h1.9l2.05,5.51,2.05-5.51h1.86l-3.17,7.88h-1.52l-3.17-7.88Z"/>
        <path class="cls-3" d="M94.03,327.9l4.31-5.01h-4.17v-1.51h6.39v1.31l-4.31,5.01h4.31v1.51h-6.52v-1.31Z"/>
        <path class="cls-3" d="M102.18,321.38h1.72v6.26h3.9v1.57h-5.63v-7.83Z"/>
        <path class="cls-3" d="M109.18,321.38h1.72v7.83h-1.72v-7.83Z"/>
        <path class="cls-3" d="M112.86,321.38h1.59l3.67,4.82v-4.82h1.7v7.83h-1.46l-3.79-4.98v4.98h-1.7v-7.83Z"/>
      </g>
      <path class="cls-3" d="M109.6,247.37c7.09,0,12.64-4.68,12.64-12.4s-5.55-12.37-12.64-12.37-12.65,4.68-12.65,12.4,5.59,12.37,12.65,12.37"/>
    </g>
  </g>
</svg>