<?xml version="1.0" encoding="UTF-8"?>
<svg id="Layer_2" data-name="Layer 2" xmlns="http://www.w3.org/2000/svg" xmlns:xlink="http://www.w3.org/1999/xlink" viewBox="0 0 346.8 557.58">
  <defs>
    <style>
      .cls-1 {
        fill: none;
      }

      .cls-2 {
        clip-path: url(#clippath-1);
      }

      .cls-3 {
        clip-path: url(#clippath-2);
      }

      .cls-4 {
        fill: #ffebca;
      }

      .cls-5 {
        fill: #881d17;
      }

      .cls-6 {
        fill: #f58676;
      }

      .cls-7 {
        clip-path: url(#clippath);
      }
    </style>
    <clipPath id="clippath">
      <rect class="cls-1" width="346.8" height="557.58"/>
    </clipPath>
    <clipPath id="clippath-1">
      <rect class="cls-1" width="346.8" height="557.58"/>
    </clipPath>
    <clipPath id="clippath-2">
      <rect class="cls-1" width="346.8" height="557.58"/>
    </clipPath>
  </defs>
  <g id="Layer_1-2" data-name="Layer 1">
    <g class="cls-7">
      <path class="cls-6" d="M337.59,20.24c1.21-.31,2.48-.64,3.25-.95-.97.18-2.01.39-3.09.63-1.07.27-2.19.6-3.34.93-2.32.64-4.71,1.56-7.15,2.51-1.09.3-.09-.14.14-.28-3.31,1.38-6.99,3.21-4.74,2.62,1.58-.79,2.58-1.24,3.61-1.7,1.04-.44,2.12-.86,3.86-1.67,1.42-.54,2.7-.89,3.56-1.09.86-.21,1.3-.27,1.07-.14.5-.2,1.64-.52,2.83-.87"/>
      <path class="cls-6" d="M292.41,43.76c.78-.66,1.41-1.23,1.99-1.76-.64.54-1.26,1.07-1.9,1.61-.02.04-.04.08-.09.14"/>
      <path class="cls-6" d="M286.27.28c-.05.02.02.03,0,.05.36-.03.47-.05,0-.05"/>
      <path class="cls-6" d="M291.15,44.76c-.62.56-1.25,1.13-1.89,1.69.86-.77,1.44-1.29,1.89-1.69"/>
      <path class="cls-6" d="M123.96.41c1.17.08,1.9.17,2.47.25-.82-.2,7.02-.27-2.47-.25"/>
      <path class="cls-6" d="M292.28,43.66c-.19.25-.52.57-1.14,1.1.47-.39.91-.77,1.35-1.13.09-.13.09-.18-.21.04"/>
      <path class="cls-6" d="M72.95,212.04c.27.7.54,1.34.76,1.79l-.76-1.79Z"/>
      <path class="cls-6" d="M315.76,28.19c-.16.05-.49.2-1.03.47.34-.17.69-.32,1.03-.47"/>
      <path class="cls-6" d="M83.23,237.85c-.07-.17-.15-.34-.22-.5.08.18.15.34.22.5"/>
      <path class="cls-6" d="M73.62,406.13s0,0,0,.01c.16-.22.31-.45.47-.67l-.47.66Z"/>
      <path class="cls-6" d="M83.79,239.14c-.17-.38-.35-.81-.56-1.29.19.42.38.86.56,1.29"/>
      <path class="cls-6" d="M299.32,517.86c-.62-.29-1.29-.61-1.95-.92-.64-.33-1.26-.65-1.8-.93-1.08-.55-1.83-.91-1.74-.74l2.4,1.18c.16.1.28.17.38.24.04,0,.38.16.88.37.51.22,1.18.51,1.83.8"/>
      <path class="cls-6" d="M296.59,516.68s0,0,.01,0c0,0,0,0,0,0,0,0,0,0,0,0"/>
      <path class="cls-5" d="M3.21,19.02c-.12-.05-.21-.11-.2-.13,0-.02.11-.02.24,0,.28.03.82.15,1.59.34-.86-.13,2.76.79,5,1.51-1.84-.55-4.18-1.09-6.63-1.73M290.83,44.09c-.98.91-1.9,1.86-2.86,2.79-.67.52-1.25.95-1.31.92-.02-.01,0-.05.03-.11,1.94-1.85,3.98-3.64,6.12-5.39l-1.98,1.79ZM263.78,80.42l-1.13,1.99c.84-1.98,1.74-3.95,2.72-5.9-.14.45-.56,1.51-1.59,3.92M264.13,232.94l1.99-4.94c-.05.38-.49,1.71-1.69,4.84-.13.15-.28.28-.3.1M.41,10.41c0-1.63-.01-3.01-.02-3.9,0,.81.01,1.94.02,3.9h0ZM346.76,551.81c-.02-.81-.03-1.6-.05-2.39-.03-1.58-.06-3.13-.09-4.68-.02-1.55-.05-3.1-.07-4.68,0-.39,0-.79-.01-1.19v-.6c-.01-.2,0-.38-.02-.67-.09-1.08-.7-2.1-1.63-2.69-.23-.15-.48-.27-.74-.37-.27-.1-.42-.14-.63-.2-.4-.13-.8-.25-1.21-.38-.81-.26-1.64-.52-2.49-.79-1.69-.54-3.45-1.11-5.3-1.75-3.82-1.33,2.24.55,3.57.88-7.52-2.35-14.73-4.79-21.65-7.35-6.91-2.57-13.55-5.25-19.83-8.25,1.05.69-1.26-.33-4.02-1.64-1.47-.79-3.11-1.59-4.35-2.33-1.02-.61-1.82-1.08-2.13-1.24.89.42.69.2-.04-.34-.79-.54-2.05-1.58-3.28-2.51-2.36-2-4.33-3.86-1.32-1.75-.67-.58-1.5-1.16-2.03-1.67-.55-.48-.91-.77-.81-.57-.92-.95-1.52-1.58-1.6-1.79-.09-.19.21.15,1.23,1.03-3.35-3.47-4.1-4.87-5.01-5.99-.72-1.24-1.62-2.28-3.2-6.38.05.02.8,1.62,1.26,2.4-1.94-3.94-3.43-8.31-3.74-15.8.09.45.11-.42.26,1.8-.44-6.4-.04-11.93.61-17.57.69-5.64,1.72-11.42,3.46-18.33-.26,2.1.05.92.48-.85.46-1.77,1.08-4.15,1.35-4.47.56-2.49,1.22-4.96,1.83-7.45l-.96,2.93c.84-3.25,1.64-6.32,2.4-9.27.18-.75.41-1.44.55-2.23l.22-1.15c.08-.38.06-.77.1-1.15.14-1.54-.08-3.05-.32-4.53.38,1.68.62,3.43.46,5.2.27-2.22-.06-4.45-.71-6.53-.65-2.08-1.61-4.04-2.74-5.86,1.23,2.1,2.24,4.35,2.8,6.74-.48-1.69-.92-2.4-1.08-2.77-.19-.35-.24-.3-.3-.33-.05-.02-.13-.11-.42-.71-.14-.3-.34-.72-.67-1.31-.3-.6-.75-1.34-1.35-2.3.5.77-.36-.7-1.81-2.57-.73-.93-1.59-1.97-2.45-2.91-.42-.48-.85-.92-1.24-1.34-.2-.21-.39-.4-.56-.59-.14-.15-.26-.32-.34-.48.32.46,1,.93,1.5,1.45.54.51,1.07,1.04,1.59,1.6-.82-.93-1.59-1.72-2.17-2.26-.28-.25-.5-.45-.66-.59-.13-.13-.21-.21-.26-.2h0c-.4-.6-.52-1.32-.27-2.14.19-.84.41-1.7.7-2.59.58-1.79,1.35-3.74,2.47-5.95.67-1.1-.08,1.11.36.39.56-1.56,2.3-4.98,4.48-8.5.56-1.11.38-2.52-.37-3.43-.42-.48-.71-.73-1.05-1.09-.33-.32-.61-.69-.91-1.01-1.14-1.35-2.02-2.63-2.64-3.46.8,1.12,1,1.07.8.67-.56-.71-1.1-1.45-1.63-2.19-1.42-2.75-1.53-3.2-1.18-2.81-1.02-2.09-1.41-2.99-1.58-3.27-.17-.29-.09.02-.03.28.06.26.1.47-.14-.03-.23-.5-.78-1.69-1.71-4.3.33.8.21.41.91,2.07-.25-.65-.49-1.29-.74-1.94-.11-.31-.25-.68-.33-.94-.07-.26-.1-.54-.06-.82.03-.28.12-.53.25-.8l.44-.94c.29-.62.6-1.24.85-1.88,1.09-2.51,1.94-5.06,2.73-7.6,1.57-5.07,2.76-10.12,3.92-15.13.5-1.45.06.76-.42,2.9-.48,2.14-.99,4.22-.42,2.57.86-3.62,1.61-7.33,2.3-11.07.34-1.87.66-3.75.97-5.63l.12-.71c.04-.3.06-.6.02-.9-.07-.6-.29-1.18-.65-1.65-.36-.48-.84-.86-1.39-1.08-.27-.12-.56-.19-.85-.23-.15-.02-.29-.02-.44-.03h-.36c-7.61.1-15.16.17-22.32.13l2.67.04c-.99.26-3.66.2-6.99.1-1.65-.05-3.47-.11-5.33-.16-1.72-.11-3.37-.99-4.42-2.3.51.65,1.01.91,1.25,1.02.25.12.29.08.1-.02-1.76-1.29-2.73-3.65-2.22-5.89l.1-.41c.01-.08.09-.24.15-.39l.36-.91c.24-.61.48-1.23.73-1.85.49-1.25.99-2.53,1.5-3.84,2.05-5.27,4.32-11.12,7.02-18.05l-.56,1.76c2.28-5.32,5.76-14.1,8.16-19.88.57-1.77,1.92-5.08.93-3.14,7.92-17.58,13.36-34.24,20.35-49.85-.76,1.9-1.71,4.56-1.1,3.05l5.33-13.55c-.64.98-.84,1.72-2.15,4.49.28-.88.78-2.28,1.38-3.88.3-.8.63-1.65.96-2.51.19-.41.31-.9.27-1.37-.01-.48-.21-.91-.37-1.33.78,1.51.23,2.5.22,2.69-.03.13,0,.13.06.03.05-.1.19-.29.29-.63.09-.32.15-.74.08-1.2-.08-.49-.26-.89-.4-1.33-.29-.87-.59-1.76-.82-2.43.1.47-.32-.41-.3-.16-2.28-7.26-.92-1.02-4.2-10.87l.3.48c-1.36-3.64-2.68-6.97-3.98-10.96-.3-1.73,1.43,3.88,1.74,4.06-1.92-5.56-4.15-10.86-5.46-16.03.78,2.37,1.9,5.79,2.73,8.15-1.45-5.53-1.74-6.22-2.89-10.18-.09-.33-.18-.65-.28-.98-.41-1.45-.8-2.9-1.19-4.35.21.81.41,1.54.58,2.2-.58-2.08-1.14-4.16-1.69-6.25.19.82.39,1.64.6,2.46-2.66-6.9-4.07-14.42-6.47-24.04,2.36,9.35.57,1.51,1.01,2.17-.21-1.25-.5-2.81-.67-3.94-.15-1.13-.23-1.81-.09-1.28-.26-1.14-.46-2.19-.65-3.23l-.13-.78-.06-.38-.02-.28c.02-.52.04-1.05.06-1.59.04-1.09.07-2.24.16-3.52.03-.64.05-1.32.08-2.04.04-.72.09-1.49.13-2.31.07-.29.64-4.94.74-3.86.4-2.99.36-2.64.11-1.62-.23,1.03-.49,2.75-.53,2.49.92-9.32,4.81-21.49,10.7-33.54,1.28-2.6,2.45-4.59,3.4-6.35,1.05-1.7,1.86-3.2,2.79-4.59.92-1.39,1.78-2.8,2.93-4.32.57-.77,1.14-1.6,1.84-2.48.46-.57.96-1.19,1.49-1.83.42-.49.84-.98,1.27-1.46.71-.69.3-.14-.33.68-.72.96-1.75,2.26-1.75,2.26,3.86-4.42,6.93-7.6,10.98-11.37-.77.82.13.09,1.45-.95,3.42-2.82,2-2.24,6.78-5.63-.74.7-1.67,1.59-3.29,2.98,4.05-3.29,8.21-6.35,12.83-9.18.68-.26-.03.15-1.04.86-1.02.69-2.38,1.62-3.17,2.16,1.28-.81,2.74-1.76,4.27-2.69,1.55-.88,3.13-1.82,4.62-2.65,1.51-.8,2.9-1.54,4.01-2.14,1.12-.59,1.98-1.01,2.38-1.27-.86.35-1.71.71-2.55,1.1.42-.13-.31.39-1.35.95-1.14.63-2.14,1.15-2.98,1.58-.83.46-1.53.83-2.1,1.11-1.13.56-1.75.79-1.91.82l3.34-1.94c-.93.36-2.25,1.02-3.8,1.86-1.52.9-3.27,1.99-5.07,3.21-3.58,2.49-7.37,5.49-10.33,8.01l1.88-2.01c12.92-10.36,29.42-18.71,50.07-23.51,1.22-.28,2.1-1.36,2.1-2.62v-.8c.15.38.29.94.44,1.06-.08.59-.32,1.5-1.33,2.27-.31.28-.68.52-1.09.67l-1,.43,1.15-.32c.48-.13.93-.37,1.31-.69.76-.64,1.21-1.63,1.19-2.61,0,0,0,0,0-.01.19-.74.37-3.01.52-8.56l-.07-2.15-.02-.54c0-.17-.02-.48-.07-.71-.09-.49-.28-.97-.56-1.38-.55-.83-1.43-1.42-2.39-1.59-.24-.04-.48-.06-.73-.06l-.55.02-1.08.04-2.77-.23h3.62s.45,0,.45,0c.15,0,.28,0,.52.01.43.03.85.12,1.25.29.79.34,1.46.94,1.88,1.69-.65-1.33-2.02-2.06-3.28-2.08-.92-.02-1.68,0-2.46.01-1.53.04-2.91.12-4.37.18-.69-.12-1.9-.2-3.61-.25l-8.45.45c-1.02-.18,3.79-.36-1.88-.46-3.96.21,3.8.41-2.76.54-4.12-.21-2.92-.38-7.75-.2-.68-.12.35-.2,2.26-.25-4.3.14-11.39.06-13.61.31-4.29-.26-14.53.07-14.1-.37-1.35.1-7.58.34-11.53.36,7.22-.53-14.8-.03-12.89-.6-5.34.47-19.31.21-28.77.47.53-.04,1.57-.11,2.4-.09-5.33-.04-6.88-.18-10.3-.27-.68.39-8.98.48-13.45.72-6.53-.38,3.97-.46,1.92-.82.33.32-11.35.32-9.13.58-5-.23-4.3-.11-6.88-.44-.88.49-4.65.08-8.79.38-7.23-.24-1.86-.46-9.8-.31-3.78-.15,3.28-.32,3.28-.32-8.09,0-3.8.36-5.51.57-9.65.1-4.47-.27-7.75-.46-6.03.1-10.65.44-15.14.42-.33-.06-1.21-.08-.18-.16-6.37.29-18.91.02-26.33.38-.55-.03-.83-.06-.97-.09,1.2.18,1.39.37,1.14.51-3.62,0-6.73.23-8.09,0,2.22,0,2.41-.09,3.45-.17l-3.8.1c-3.42-.35,5.18-.12,5.18-.38-7.41.11-16.04.4-21.71.3-1.19-.34,13.27-.11,5.7-.42l8.78.13c-6.71-.54,5.33.04-.83-.54-11.55-.1-12.92.17-24.45.07-2.6.19.86.28-1.74.47-16.38.34-12.9-.85-24.94-.4-3.12.23-4.33.65-12.9.43l2.92-.38c-11.19-.04-6.39.55-18.1.29,2.08-.15,8.79-.13,7.1-.17-7.59-.3-5.37.22-11.2.22l-1.21-.34c-5.96.06-12.21.12-18.63.18-1.61.02-3.22.04-4.84.06-.81,0-1.62.02-2.44.03h-1.22s-.61.02-.61.02c-.17,0-.52.01-.77.06-1.09.18-2.05.91-2.55,1.88-.25.49-.39,1.03-.4,1.58v1.26c.02,1.64.03,3.29.04,4.94-.1-.73-.21-2.99-.31.1,0,1.04.02,2.09.03,3.14,0,.53,0,1.06.01,1.59v.4c0,.15.01.37.04.55.05.38.16.74.32,1.09.32.69.85,1.27,1.5,1.65.32.19.68.34,1.04.43l.8.2c1.04.26,2.09.53,3.13.79,4.2,1.06,8.37,2.42,12.48,3.9,8.2,3,15.94,6.97,22.61,11.24,1.79.95,3.49,2.04,5.22,3.09,1.18.78,2.03,1.66.79.77,4.87,3.8.37.04,2.81,1.74,1.43,1.03,2.27,1.84,2.59,2.16.31.33.05.2-.84-.47,4.36,3.28,10.17,8.5,15.24,14.53,5.12,5.98,9.3,12.8,11.83,17.96l-1.13-1.94c1.03,1.99,1.88,3.52,2.55,4.86.35.66.68,1.27.98,1.84.29.58.57,1.14.84,1.69.55,1.1,1.1,2.17,1.62,3.5.27.66.55,1.37.85,2.16.29.8.56,1.69.87,2.68l-.57-1.49c3.22,9.19,5.3,19.34,5.67,29.01.02,1.19.07,2.45.06,3.55,0,.17-.06.5-.12.79l-.16.88c-.1.58-.21,1.16-.31,1.74-.39,2.31-.86,4.54-1.33,6.71-.94,4.33-1.97,8.36-3.01,11.95-.13,1.43-1.41,6.11-2.72,10.58-1.29,4.47-2.64,8.72-2.53,9.41-1.82,5.3-2.54,7.17-3.43,9.58-.89,2.41-1.97,5.36-4.69,12.76-1.45,3.95-1.79,6.03-3.59,10.92h-.33s-.56,1.68-.56,1.68c-.28.72-.33,1.65-.09,2.42.03.11.08.24.12.33l.09.2.18.4,1.11,2.42,1.07,3.64,1.9,4.51c-.71-1.82-1.42-3.9-1.23-3.65,1.49,3.52,3.19,7.86,4.5,11.35.65,1.74,1.21,3.28,1.6,4.39.39,1.11.61,1.8.59,1.86l7.01,16.68c-.2-.24-.89-1.83-1.62-3.52,2.6,6.02-.15.59,3.15,8.06-.38-1.13.41.53.54.69,1.48,4.16,5.23,13.47,8.08,20.33l-.73-1.24c4.97,12.46,10.67,26.19,16.3,40.16-1.93-5.05-1.12-4.03.56.05l.36,1.76c.15.31.26.52.27.49.03.06.04,0,.04-.03-.03-.14-.21-.64-.34-.99-.13-.37-.22-.65-.13-.51.04.07.14.25.29.58.08.16.17.37.28.61.03.06.06.12.09.19.02.05.03.07.05.14.04.13.08.27.13.43.25,1.22.03,2.06-.12,2.52-.14.47-.29.6-.3.52-.04-.15.26-1.21.02-2.5.13.91.02,1.85-.32,2.72-.36.86-.94,1.63-1.68,2.21-.16.06.02-.12.24-.35.21-.25.46-.57.51-.75-.3.46-.94,1.1-1.88,1.49-.47.21-1.01.33-1.59.37l-.44.02h-.56c-.38-.02-.77-.03-1.15-.03-3.11-.06-6.37-.11-8.39.07l-.39-.1c-7.53.02-12.99.04-18.12.05-.64,0-1.27,0-1.91.01h-.95s-.47,0-.47,0c-.18,0-.46,0-.69.06-1.93.27-3.5,2.08-3.44,4.09,0,.24.04.51.07.71l.09.49c.06.33.12.65.18.98.12.66.25,1.33.38,2.02.27,1.37.54,2.8.84,4.31.32.18,1.21,4.92,2.29,8.43,1,4.41,2.17,9.05,3.77,13.84.83,2.38,1.71,4.82,2.9,7.22.17.36.24.49.28.67.04.18.05.37.03.54-.01.09-.03.18-.06.26l-.15.42-.35.92c-.47,1.22-.98,2.45-1.52,3.67-1.48,3.46-1.76,3.93-1.7,3.99.04.05.34-.34-.39,1.19-.23.19-1.66,2.61-2.89,4.2-.62.79-1.14,1.41-1.32,1.55-.18.14.07-.11.84-1.22-.46.63-.94,1.19-1.4,1.72-.24.25-.48.5-.71.74-.09.1-.3.29-.45.49-.16.19-.3.4-.42.62-.48.87-.59,1.89-.36,2.79.1.44.34.91.53,1.21.16.26.32.52.48.77,1.26,2.04,2.32,3.92,3.35,5.93,1.02,2.01,2.04,4.15,2.98,6.78.24.65.46,1.34.67,2.06.09.35.19.7.29,1.06.05.24.04.51-.03.76-.07.26-.21.5-.4.71-.31.31-.63.63-.96.95-.67.68-1.35,1.42-2.03,2.22,1.28-1.31,2.78-2.7,2.09-1.89-1.06,1.09-2.23,2.36-3.08,3.34-.82.95-1.37,1.59-1.33,1.44-1.22,1.73-2.37,3.61-3.29,5.67-1.03,2.32-1.78,4.92-1.8,7.64.04.68.06,1.36.14,2.04.14.67.26,1.37.41,2.01.33,1.24.65,2.49.98,3.73.66,2.49,1.28,4.99,1.88,7.46,1.22,4.94,2.29,9.79,3.28,14.29.88,4.33,1.68,8.32,2.32,11.81.84,4.86,1.4,9.76,1.51,14.67-.07,6.92-.17-4.15-.35.97.02,4.03-.27,7.66-1.08,10.89-.09.41-.18.81-.27,1.21-.11.39-.24.77-.36,1.16-.25.76-.47,1.52-.74,2.25-.64,1.41-1.15,2.84-1.94,4.11-1.37,2.65-3.21,4.9-5.16,7.14-1.07,1.03-2.05,2.19-3.27,3.17-.59.51-1.18,1.03-1.78,1.56-.64.49-1.28.99-1.94,1.5-2.17,1.4-5.26,3.22-8.91,5.19-3.68,1.92-7.95,3.97-12.41,5.87-8.93,3.82-18.58,7.19-25.36,9.22l.83-.09c-3.42,1.31-4.23,1.29-6.81,2.1.41.02,3.82-1.09,1.69-.29-1.84.61-3.69,1.22-5.54,1.83l-2.79.91-.18.06-.25.09c-.16.07-.32.14-.47.23-.3.17-.58.39-.83.63-.49.5-.85,1.13-1.01,1.81-.08.32-.11.74-.11,1v.74s0,1.48,0,1.48v2.96c0,1.98,0,3.96,0,5.95v2.99s-.01.75-.01.75v.37c0,.16,0,.35.03.52.09.71.39,1.39.84,1.95.46.55,1.06.98,1.74,1.21.34.11.7.19,1.05.2.36.02.53,0,.81.01h3.01c4.01.04,8.03.06,12.06.09,16.11.12,32.33.23,48.24.35,11.64.05,6.6-.92,21.28-.49l-4.16.33c23.49-.4,48.03.01,71.02-.32-1.37.08-1.41.18-3.65.17,2.43.12,6.92.12,10.81.07,1.95-.03,3.74-.06,5.06-.11,1.32-.04,2.15-.1,2.17-.14,3.58.02.83.18,3.04.28,4.87.14,12.23-.31,14.82-.07.27.03-.33.05-1.03.07,4.19-.06,13.25.03,10.52-.22,8.63.13,16.51-.12,23.39.04,4.49-.31,14.77.15,16.2-.29-.62.45,15.13.36,20.59.15-1.83.14,4.74.14,2.61.33,6.23,0,11.93-.09,10.85-.32,11.47.54,23.06-.44,29.52.26,9.25-.11,18.15-.21,26.82-.31,4.34-.04,8.61-.08,12.85-.11h1.59s.79-.02.79-.02c.29,0,.69-.03,1.01-.13,1.37-.36,2.44-1.58,2.61-2.97.03-.17.03-.35.03-.51v-1.18s-.02-1.57-.02-1.57c0-1.04-.01-2.09-.02-3.12.11.15.17,1.37.2,3.12,0,.43.01.9.02,1.39,0,.24,0,.5,0,.75v.39c0,.13,0,.25,0,.46-.05,1.49-1.15,2.97-2.67,3.4-.37.12-.78.16-1.13.16-.27,0-.55,0-.82,0-.54,0-1.07,0-1.58,0-1.02.01-1.96.02-2.74.03-1.58.04-2.55.1-2.38.22,1.97-.03,3.84-.05,5.63-.08.45,0,.89-.01,1.33-.02h.68c.32-.03.63-.07.93-.16,1.22-.33,2.2-1.26,2.61-2.39.1-.28.18-.57.21-.87.04-.3.03-.61.03-.78,0-.41-.01-.81-.02-1.22"/>
    </g>
    <polygon class="cls-6" points="69.04 196.44 69.12 196.45 69.55 195.14 69.04 196.44"/>
    <g class="cls-2">
      <path class="cls-6" d="M276.49,195.25c-.04-.16-.13-.48-.34-1.1,0,.05.15.53.34,1.1"/>
      <path class="cls-6" d="M257.22,131.48c-.12-.35-.18-.44-.23-.53,0,.02,0,.04.01.06l.22.47Z"/>
      <path class="cls-6" d="M299.32,517.86c.35.16.7.32,1.01.46,2.38,1.06.77.33-1.01-.46"/>
      <path class="cls-6" d="M270.22,403.15c1.35,1.52,2.79,3.43,3.93,5.14-1.29-2.13-2.62-3.74-3.93-5.14"/>
      <path class="cls-6" d="M315.13,29.18s.04-.06.13-.11l-1.37.72,1.25-.61Z"/>
      <path class="cls-6" d="M316.63,28.35c-.64.3-1.19.59-1.37.71.46-.23.9-.49,1.37-.71"/>
      <path class="cls-6" d="M319.56,26.96l-2.94,1.39c1.03-.46,2.3-1.01,2.94-1.39"/>
      <path class="cls-6" d="M283.05,52.6c.15-.19.23-.32.22-.39l-.22.39Z"/>
      <path class="cls-6" d="M282.86,52.92l.18-.32c-1.18,1.36-5.82,6.24-7.23,8.48,1.7-2.18,4.43-5.34,7.04-8.16"/>
      <path class="cls-6" d="M270.54,341.09c-.47,1.89-.97,3.77-1.52,5.65.44-1.25.85-2.5,1.26-3.76l.26-1.88Z"/>
    </g>
    <g>
      <path class="cls-4" d="M137.33,51.16h-3.2v-2.13h8.7v2.13h-3.2v8.37h-2.31v-8.37Z"/>
      <path class="cls-4" d="M143.62,51.49h2.28v1.62c.46-1.11,1.21-1.83,2.57-1.77v2.38h-.12c-1.51,0-2.45.92-2.45,2.83v2.97h-2.28v-8.04Z"/>
      <path class="cls-4" d="M149.96,56.69v-5.21h2.28v4.49c0,1.08.51,1.63,1.38,1.63s1.42-.55,1.42-1.63v-4.49h2.28v8.04h-2.28v-1.14c-.52.67-1.2,1.29-2.35,1.29-1.73,0-2.73-1.14-2.73-2.99Z"/>
      <path class="cls-4" d="M158.89,58.46l.97-1.5c.87.63,1.79.96,2.54.96.66,0,.96-.24.96-.6v-.03c0-.49-.78-.66-1.67-.93-1.12-.33-2.4-.85-2.4-2.42v-.03c0-1.64,1.32-2.55,2.94-2.55,1.02,0,2.13.34,3,.93l-.87,1.58c-.79-.47-1.59-.75-2.17-.75-.55,0-.84.24-.84.55v.03c0,.45.76.66,1.63.96,1.12.38,2.43.91,2.43,2.38v.03c0,1.79-1.33,2.6-3.07,2.6-1.12,0-2.38-.38-3.45-1.22Z"/>
      <path class="cls-4" d="M167.42,57.25v-3.81h-.96v-1.95h.96v-2.05h2.28v2.05h1.89v1.95h-1.89v3.43c0,.53.22.78.73.78.42,0,.79-.1,1.12-.29v1.83c-.48.29-1.03.46-1.8.46-1.39,0-2.34-.55-2.34-2.42Z"/>
      <path class="cls-4" d="M180.34,58.48v1.05h-2.28v-10.95h2.28v4.06c.56-.75,1.32-1.3,2.5-1.3,1.88,0,3.66,1.47,3.66,4.15v.03c0,2.68-1.75,4.16-3.66,4.16-1.21,0-1.96-.56-2.5-1.2ZM184.22,55.52v-.03c0-1.33-.9-2.22-1.96-2.22s-1.95.88-1.95,2.22v.03c0,1.33.88,2.22,1.95,2.22s1.96-.87,1.96-2.22Z"/>
      <path class="cls-4" d="M187.94,55.55v-.03c0-2.31,1.86-4.18,4.36-4.18s4.33,1.84,4.33,4.15v.03c0,2.31-1.86,4.18-4.36,4.18s-4.33-1.84-4.33-4.15ZM194.39,55.55v-.03c0-1.18-.85-2.22-2.11-2.22s-2.08,1-2.08,2.19v.03c0,1.18.85,2.22,2.11,2.22s2.08-1,2.08-2.19Z"/>
      <path class="cls-4" d="M198.82,57.25v-3.81h-.96v-1.95h.96v-2.05h2.28v2.05h1.89v1.95h-1.89v3.43c0,.53.23.78.74.78.42,0,.79-.1,1.12-.29v1.83c-.48.29-1.04.46-1.8.46-1.4,0-2.34-.55-2.34-2.42Z"/>
      <path class="cls-4" d="M204.8,48.58h2.28v4.05c.52-.67,1.2-1.29,2.35-1.29,1.73,0,2.73,1.14,2.73,2.98v5.21h-2.28v-4.48c0-1.08-.51-1.64-1.38-1.64s-1.42.56-1.42,1.64v4.48h-2.28v-10.95Z"/>
    </g>
    <g>
      <path class="cls-4" d="M110.14,64.58h2.4v2.02h-2.4v-2.02ZM110.2,67.49h2.28v8.04h-2.28v-8.04Z"/>
      <path class="cls-4" d="M114.77,67.49h2.28v1.14c.52-.67,1.2-1.29,2.35-1.29,1.73,0,2.73,1.14,2.73,2.98v5.21h-2.28v-4.48c0-1.08-.51-1.64-1.38-1.64s-1.42.56-1.42,1.64v4.48h-2.28v-8.04Z"/>
      <path class="cls-4" d="M123.26,67.49h2.42l1.8,5.38,1.81-5.38h2.37l-3.17,8.1h-2.07l-3.17-8.1Z"/>
      <path class="cls-4" d="M133.18,64.58h2.4v2.02h-2.4v-2.02ZM133.24,67.49h2.28v8.04h-2.28v-8.04Z"/>
      <path class="cls-4" d="M138.19,73.25v-3.81h-.96v-1.95h.96v-2.05h2.28v2.05h1.89v1.95h-1.89v3.43c0,.53.23.78.74.78.42,0,.79-.1,1.12-.29v1.83c-.48.29-1.04.46-1.8.46-1.4,0-2.34-.55-2.34-2.42Z"/>
      <path class="cls-4" d="M143.59,71.56v-.03c0-2.29,1.64-4.18,3.98-4.18,2.68,0,3.91,2.08,3.91,4.36,0,.18-.01.39-.03.6h-5.59c.22,1.04.94,1.57,1.96,1.57.76,0,1.32-.24,1.95-.82l1.31,1.15c-.75.93-1.83,1.5-3.29,1.5-2.42,0-4.2-1.69-4.2-4.15ZM149.26,70.88c-.13-1.02-.73-1.71-1.69-1.71s-1.56.67-1.74,1.71h3.43Z"/>
      <path class="cls-4" d="M152.69,74.47l.97-1.5c.87.63,1.79.96,2.54.96.66,0,.96-.24.96-.6v-.03c0-.49-.78-.66-1.67-.93-1.12-.33-2.4-.85-2.4-2.42v-.03c0-1.64,1.32-2.55,2.94-2.55,1.02,0,2.13.35,3,.93l-.87,1.58c-.79-.47-1.59-.75-2.17-.75s-.84.24-.84.55v.03c0,.45.76.66,1.63.96,1.12.38,2.43.91,2.43,2.38v.03c0,1.79-1.33,2.6-3.08,2.6-1.12,0-2.38-.38-3.45-1.22Z"/>
      <path class="cls-4" d="M165.26,71.56v-.03c0-2.31,1.86-4.18,4.36-4.18s4.33,1.84,4.33,4.15v.03c0,2.31-1.86,4.18-4.36,4.18s-4.33-1.84-4.33-4.15ZM171.71,71.56v-.03c0-1.18-.85-2.22-2.11-2.22s-2.08,1-2.08,2.19v.03c0,1.18.85,2.22,2.11,2.22s2.08-1,2.08-2.19Z"/>
      <path class="cls-4" d="M175.76,67.49h2.28v1.16c.56-.75,1.32-1.3,2.5-1.3,1.88,0,3.66,1.47,3.66,4.15v.03c0,2.68-1.75,4.16-3.66,4.16-1.21,0-1.96-.56-2.5-1.2v3.45h-2.28v-10.44ZM181.92,71.53v-.03c0-1.33-.9-2.22-1.96-2.22s-1.95.88-1.95,2.22v.03c0,1.33.88,2.22,1.95,2.22s1.96-.87,1.96-2.22Z"/>
      <path class="cls-4" d="M185.64,71.56v-.03c0-2.29,1.63-4.18,3.97-4.18,2.68,0,3.92,2.08,3.92,4.36,0,.18-.01.39-.03.6h-5.59c.23,1.04.95,1.57,1.96,1.57.77,0,1.32-.24,1.95-.82l1.3,1.15c-.75.93-1.83,1.5-3.29,1.5-2.41,0-4.2-1.69-4.2-4.15ZM191.31,70.88c-.14-1.02-.74-1.71-1.7-1.71s-1.56.67-1.74,1.71h3.44Z"/>
      <path class="cls-4" d="M195.38,67.49h2.28v1.14c.52-.67,1.2-1.29,2.35-1.29,1.73,0,2.73,1.14,2.73,2.98v5.21h-2.28v-4.48c0-1.08-.51-1.64-1.38-1.64s-1.42.56-1.42,1.64v4.48h-2.28v-8.04Z"/>
      <path class="cls-4" d="M204.87,67.49h2.28v1.14c.52-.67,1.2-1.29,2.35-1.29,1.73,0,2.73,1.14,2.73,2.98v5.21h-2.28v-4.48c0-1.08-.51-1.64-1.38-1.64s-1.42.56-1.42,1.64v4.48h-2.28v-8.04Z"/>
      <path class="cls-4" d="M213.98,71.56v-.03c0-2.29,1.64-4.18,3.98-4.18,2.68,0,3.91,2.08,3.91,4.36,0,.18-.01.39-.03.6h-5.59c.22,1.04.94,1.57,1.96,1.57.76,0,1.32-.24,1.95-.82l1.31,1.15c-.75.93-1.83,1.5-3.29,1.5-2.42,0-4.2-1.69-4.2-4.15ZM219.65,70.88c-.13-1.02-.73-1.71-1.69-1.71s-1.56.67-1.74,1.71h3.43Z"/>
      <path class="cls-4" d="M223.08,74.47l.97-1.5c.87.63,1.79.96,2.54.96.66,0,.96-.24.96-.6v-.03c0-.49-.78-.66-1.67-.93-1.12-.33-2.4-.85-2.4-2.42v-.03c0-1.64,1.32-2.55,2.94-2.55,1.02,0,2.13.35,3,.93l-.87,1.58c-.79-.47-1.59-.75-2.17-.75s-.84.24-.84.55v.03c0,.45.76.66,1.63.96,1.12.38,2.43.91,2.43,2.38v.03c0,1.79-1.33,2.6-3.08,2.6-1.12,0-2.38-.38-3.45-1.22Z"/>
      <path class="cls-4" d="M230.61,74.47l.97-1.5c.87.63,1.79.96,2.54.96.66,0,.96-.24.96-.6v-.03c0-.49-.78-.66-1.67-.93-1.12-.33-2.4-.85-2.4-2.42v-.03c0-1.64,1.32-2.55,2.94-2.55,1.02,0,2.13.35,3,.93l-.87,1.58c-.79-.47-1.59-.75-2.17-.75s-.84.24-.84.55v.03c0,.45.76.66,1.63.96,1.12.38,2.43.91,2.43,2.38v.03c0,1.79-1.33,2.6-3.08,2.6-1.12,0-2.38-.38-3.45-1.22Z"/>
    </g>
    <g>
      <path class="cls-4" d="M123.94,89.23v-.03c0-1.75,1.33-2.57,3.24-2.57.81,0,1.4.14,1.96.33v-.13c0-.94-.58-1.47-1.72-1.47-.87,0-1.49.17-2.22.43l-.57-1.74c.88-.39,1.75-.65,3.12-.65,1.25,0,2.14.33,2.71.9.6.6.87,1.48.87,2.56v4.67h-2.21v-.87c-.55.62-1.32,1.02-2.43,1.02-1.51,0-2.76-.87-2.76-2.46ZM129.17,88.7v-.41c-.39-.18-.9-.3-1.46-.3-.97,0-1.57.39-1.57,1.11v.03c0,.61.51.97,1.24.97,1.07,0,1.79-.58,1.79-1.41Z"/>
      <path class="cls-4" d="M133.45,83.5h2.28v1.14c.53-.67,1.2-1.29,2.36-1.29,1.72,0,2.73,1.14,2.73,2.98v5.21h-2.28v-4.48c0-1.08-.51-1.64-1.38-1.64s-1.42.56-1.42,1.64v4.48h-2.28v-8.04Z"/>
      <path class="cls-4" d="M142.58,87.53v-.03c0-2.68,1.75-4.15,3.66-4.15,1.21,0,1.96.55,2.5,1.2v-3.96h2.28v10.95h-2.28v-1.16c-.56.75-1.32,1.31-2.5,1.31-1.88,0-3.66-1.47-3.66-4.16ZM148.78,87.53v-.03c0-1.33-.88-2.22-1.95-2.22s-1.96.87-1.96,2.22v.03c0,1.33.9,2.22,1.96,2.22s1.95-.88,1.95-2.22Z"/>
      <path class="cls-4" d="M157.51,87.53v-.03c0-2.68,1.75-4.15,3.66-4.15,1.21,0,1.96.55,2.5,1.2v-3.96h2.28v10.95h-2.28v-1.16c-.55.75-1.32,1.31-2.5,1.31-1.88,0-3.66-1.47-3.66-4.16ZM163.7,87.53v-.03c0-1.33-.88-2.22-1.95-2.22s-1.96.87-1.96,2.22v.03c0,1.33.9,2.22,1.96,2.22s1.95-.88,1.95-2.22Z"/>
      <path class="cls-4" d="M167.75,87.56v-.03c0-2.29,1.64-4.18,3.98-4.18,2.68,0,3.91,2.08,3.91,4.36,0,.18-.01.39-.03.6h-5.59c.22,1.04.94,1.57,1.96,1.57.76,0,1.32-.24,1.95-.82l1.31,1.15c-.75.93-1.83,1.5-3.29,1.5-2.42,0-4.2-1.69-4.2-4.15ZM173.42,86.89c-.13-1.02-.73-1.71-1.69-1.71s-1.56.67-1.74,1.71h3.43Z"/>
      <path class="cls-4" d="M177.49,83.5h2.28v1.16c.56-.75,1.32-1.3,2.5-1.3,1.88,0,3.66,1.47,3.66,4.15v.03c0,2.68-1.75,4.16-3.66,4.16-1.21,0-1.96-.56-2.5-1.2v3.45h-2.28v-10.44ZM183.65,87.53v-.03c0-1.33-.9-2.22-1.96-2.22s-1.95.88-1.95,2.22v.03c0,1.33.88,2.22,1.95,2.22s1.96-.87,1.96-2.22Z"/>
      <path class="cls-4" d="M187.37,87.56v-.03c0-2.29,1.63-4.18,3.97-4.18,2.68,0,3.92,2.08,3.92,4.36,0,.18-.01.39-.03.6h-5.59c.23,1.04.95,1.57,1.96,1.57.77,0,1.32-.24,1.95-.82l1.3,1.15c-.75.93-1.83,1.5-3.29,1.5-2.41,0-4.2-1.69-4.2-4.15ZM193.04,86.89c-.14-1.02-.74-1.71-1.7-1.71s-1.56.67-1.74,1.71h3.44Z"/>
      <path class="cls-4" d="M197.1,83.5h2.28v1.14c.52-.67,1.2-1.29,2.35-1.29,1.73,0,2.73,1.14,2.73,2.98v5.21h-2.28v-4.48c0-1.08-.51-1.64-1.38-1.64s-1.42.56-1.42,1.64v4.48h-2.28v-8.04Z"/>
      <path class="cls-4" d="M206.24,87.53v-.03c0-2.68,1.75-4.15,3.66-4.15,1.21,0,1.96.55,2.5,1.2v-3.96h2.28v10.95h-2.28v-1.16c-.55.75-1.32,1.31-2.5,1.31-1.88,0-3.66-1.47-3.66-4.16ZM212.43,87.53v-.03c0-1.33-.88-2.22-1.95-2.22s-1.96.87-1.96,2.22v.03c0,1.33.9,2.22,1.96,2.22s1.95-.88,1.95-2.22Z"/>
      <path class="cls-4" d="M216.25,90.47l.97-1.5c.87.63,1.79.96,2.54.96.66,0,.96-.24.96-.6v-.03c0-.49-.78-.66-1.67-.93-1.12-.33-2.4-.85-2.4-2.42v-.03c0-1.64,1.32-2.55,2.94-2.55,1.02,0,2.13.34,3,.93l-.87,1.58c-.79-.47-1.59-.75-2.17-.75s-.84.24-.84.55v.03c0,.45.76.66,1.63.96,1.12.38,2.43.91,2.43,2.38v.03c0,1.79-1.33,2.6-3.08,2.6-1.12,0-2.38-.38-3.45-1.22Z"/>
    </g>
    <g>
      <path class="cls-4" d="M156.44,103.57v-.03c0-2.31,1.86-4.18,4.36-4.18s4.33,1.84,4.33,4.15v.03c0,2.31-1.86,4.18-4.36,4.18s-4.33-1.84-4.33-4.15ZM162.89,103.57v-.03c0-1.18-.85-2.22-2.11-2.22s-2.08,1-2.08,2.19v.03c0,1.18.85,2.22,2.11,2.22s2.08-1,2.08-2.19Z"/>
      <path class="cls-4" d="M166.94,99.5h2.28v1.14c.53-.67,1.2-1.29,2.36-1.29,1.72,0,2.73,1.14,2.73,2.98v5.21h-2.28v-4.48c0-1.08-.51-1.64-1.38-1.64s-1.42.56-1.42,1.64v4.48h-2.28v-8.04Z"/>
      <path class="cls-4" d="M181.13,96.59h2.4v2.02h-2.4v-2.02ZM181.19,99.5h2.28v8.04h-2.28v-8.04Z"/>
      <path class="cls-4" d="M186.14,105.26v-3.81h-.96v-1.95h.96v-2.05h2.28v2.05h1.89v1.95h-1.89v3.43c0,.53.23.78.74.78.42,0,.79-.1,1.12-.29v1.83c-.48.29-1.04.46-1.8.46-1.4,0-2.34-.55-2.34-2.42Z"/>
    </g>
    <g>
      <path class="cls-4" d="M136.24,157v-.03c0-2.98,2.35-5.43,5.59-5.43s5.56,2.42,5.56,5.4v.03c0,2.99-2.35,5.43-5.59,5.43s-5.56-2.42-5.56-5.4ZM144.98,157v-.03c0-1.8-1.32-3.3-3.18-3.3s-3.15,1.47-3.15,3.27v.03c0,1.8,1.32,3.3,3.18,3.3s3.15-1.47,3.15-3.27Z"/>
      <path class="cls-4" d="M149.36,154.18h2.28v1.16c.56-.75,1.32-1.3,2.5-1.3,1.88,0,3.66,1.47,3.66,4.15v.03c0,2.68-1.75,4.16-3.66,4.16-1.21,0-1.96-.56-2.5-1.2v3.45h-2.28v-10.44ZM155.53,158.21v-.03c0-1.33-.9-2.22-1.96-2.22s-1.95.88-1.95,2.22v.03c0,1.33.88,2.22,1.95,2.22s1.96-.87,1.96-2.22Z"/>
      <path class="cls-4" d="M159.25,158.24v-.03c0-2.29,1.63-4.18,3.97-4.18,2.68,0,3.92,2.08,3.92,4.36,0,.18-.01.39-.03.6h-5.59c.23,1.04.95,1.57,1.96,1.57.77,0,1.32-.24,1.95-.82l1.3,1.15c-.75.93-1.83,1.5-3.29,1.5-2.41,0-4.2-1.69-4.2-4.15ZM164.92,157.57c-.14-1.02-.74-1.71-1.7-1.71s-1.56.67-1.74,1.71h3.44Z"/>
      <path class="cls-4" d="M168.98,154.18h2.28v1.14c.52-.67,1.2-1.29,2.35-1.29,1.73,0,2.73,1.14,2.73,2.98v5.21h-2.28v-4.48c0-1.08-.51-1.64-1.38-1.64s-1.42.56-1.42,1.64v4.48h-2.28v-8.04Z"/>
      <path class="cls-4" d="M178.48,154.18h2.28v1.14c.53-.67,1.2-1.29,2.36-1.29,1.72,0,2.73,1.14,2.73,2.98v5.21h-2.28v-4.48c0-1.08-.51-1.64-1.38-1.64s-1.42.56-1.42,1.64v4.48h-2.28v-8.04Z"/>
      <path class="cls-4" d="M187.58,158.24v-.03c0-2.29,1.64-4.18,3.98-4.18,2.68,0,3.91,2.08,3.91,4.36,0,.18-.01.39-.03.6h-5.59c.22,1.04.94,1.57,1.96,1.57.76,0,1.32-.24,1.95-.82l1.31,1.15c-.75.93-1.83,1.5-3.29,1.5-2.42,0-4.2-1.69-4.2-4.15ZM193.25,157.57c-.13-1.02-.73-1.71-1.69-1.71s-1.56.67-1.74,1.71h3.43Z"/>
      <path class="cls-4" d="M196.69,161.15l.97-1.5c.87.63,1.79.96,2.54.96.66,0,.96-.24.96-.6v-.03c0-.49-.78-.66-1.67-.93-1.12-.33-2.4-.85-2.4-2.42v-.03c0-1.64,1.32-2.55,2.94-2.55,1.02,0,2.13.34,3,.93l-.87,1.58c-.79-.47-1.59-.75-2.17-.75s-.84.24-.84.55v.03c0,.45.76.66,1.63.96,1.12.38,2.43.91,2.43,2.38v.03c0,1.79-1.33,2.6-3.08,2.6-1.12,0-2.38-.38-3.45-1.22Z"/>
      <path class="cls-4" d="M204.22,161.15l.97-1.5c.87.63,1.79.96,2.54.96.66,0,.96-.24.96-.6v-.03c0-.49-.78-.66-1.67-.93-1.12-.33-2.4-.85-2.4-2.42v-.03c0-1.64,1.32-2.55,2.94-2.55,1.02,0,2.13.34,3,.93l-.87,1.58c-.79-.47-1.59-.75-2.17-.75-.55,0-.84.24-.84.55v.03c0,.45.76.66,1.63.96,1.12.38,2.43.91,2.43,2.38v.03c0,1.79-1.33,2.6-3.07,2.6-1.12,0-2.38-.38-3.45-1.22Z"/>
    </g>
    <g>
      <path class="cls-4" d="M129.46,174.25v-.03c0-2.29,1.63-4.18,3.97-4.18,2.68,0,3.92,2.08,3.92,4.36,0,.18-.01.39-.03.6h-5.59c.23,1.04.95,1.57,1.96,1.57.77,0,1.32-.24,1.95-.82l1.3,1.15c-.75.93-1.83,1.5-3.29,1.5-2.41,0-4.2-1.69-4.2-4.15ZM135.13,173.57c-.14-1.02-.74-1.71-1.7-1.71s-1.56.67-1.74,1.71h3.44Z"/>
      <path class="cls-4" d="M139.19,170.18h2.28v1.14c.52-.67,1.2-1.29,2.35-1.29,1.73,0,2.73,1.14,2.73,2.98v5.21h-2.28v-4.48c0-1.08-.51-1.64-1.38-1.64s-1.42.56-1.42,1.64v4.48h-2.28v-8.04Z"/>
      <path class="cls-4" d="M148.3,174.25v-.03c0-2.29,1.75-4.18,4.21-4.18,1.51,0,2.46.51,3.21,1.35l-1.4,1.5c-.51-.54-1.02-.88-1.83-.88-1.14,0-1.95,1-1.95,2.19v.03c0,1.23.79,2.22,2.04,2.22.76,0,1.29-.33,1.84-.85l1.33,1.35c-.78.86-1.68,1.47-3.29,1.47-2.42,0-4.18-1.86-4.18-4.15Z"/>
      <path class="cls-4" d="M156.8,174.25v-.03c0-2.31,1.86-4.18,4.36-4.18s4.33,1.84,4.33,4.15v.03c0,2.31-1.86,4.18-4.36,4.18s-4.33-1.84-4.33-4.15ZM163.25,174.25v-.03c0-1.18-.85-2.22-2.11-2.22s-2.08,1-2.08,2.19v.03c0,1.18.85,2.22,2.11,2.22s2.08-1,2.08-2.19Z"/>
      <path class="cls-4" d="M167.24,175.39v-5.21h2.28v4.49c0,1.08.51,1.63,1.38,1.63s1.42-.55,1.42-1.63v-4.49h2.28v8.04h-2.28v-1.14c-.52.67-1.2,1.29-2.35,1.29-1.73,0-2.73-1.14-2.73-2.99Z"/>
      <path class="cls-4" d="M176.8,170.18h2.28v1.62c.46-1.11,1.21-1.83,2.56-1.77v2.38h-.12c-1.51,0-2.44.92-2.44,2.83v2.97h-2.28v-8.04Z"/>
      <path class="cls-4" d="M182.36,175.91v-.03c0-1.75,1.33-2.57,3.24-2.57.81,0,1.4.14,1.96.33v-.13c0-.94-.58-1.47-1.72-1.47-.87,0-1.49.17-2.22.43l-.57-1.74c.88-.39,1.75-.65,3.12-.65,1.25,0,2.14.33,2.71.9.6.6.87,1.48.87,2.56v4.67h-2.21v-.87c-.55.62-1.32,1.02-2.43,1.02-1.51,0-2.76-.87-2.76-2.46ZM187.59,175.39v-.41c-.39-.18-.9-.3-1.46-.3-.97,0-1.57.39-1.57,1.11v.03c0,.62.51.98,1.24.98,1.07,0,1.79-.58,1.79-1.41Z"/>
      <path class="cls-4" d="M191.9,179.81l.78-1.71c.83.46,1.65.74,2.72.74,1.56,0,2.29-.75,2.29-2.19v-.39c-.67.81-1.41,1.3-2.62,1.3-1.88,0-3.57-1.37-3.57-3.75v-.03c0-2.4,1.72-3.75,3.57-3.75,1.24,0,1.98.52,2.59,1.2v-1.05h2.28v6.23c0,1.44-.34,2.49-1.02,3.16-.75.75-1.91,1.08-3.46,1.08-1.3,0-2.54-.3-3.55-.84ZM197.69,173.81v-.03c0-1.1-.85-1.86-1.96-1.86s-1.95.76-1.95,1.86v.03c0,1.11.84,1.86,1.95,1.86s1.96-.76,1.96-1.86Z"/>
      <path class="cls-4" d="M201.74,174.25v-.03c0-2.29,1.63-4.18,3.97-4.18,2.68,0,3.92,2.08,3.92,4.36,0,.18-.01.39-.03.6h-5.59c.23,1.04.95,1.57,1.96,1.57.77,0,1.32-.24,1.95-.82l1.3,1.15c-.75.93-1.83,1.5-3.29,1.5-2.41,0-4.2-1.69-4.2-4.15ZM207.41,173.57c-.14-1.02-.74-1.71-1.7-1.71s-1.56.67-1.74,1.71h3.44Z"/>
      <path class="cls-4" d="M210.84,177.16l.97-1.5c.87.63,1.79.96,2.54.96.66,0,.96-.24.96-.6v-.03c0-.49-.78-.66-1.67-.93-1.12-.33-2.4-.85-2.4-2.42v-.03c0-1.64,1.32-2.55,2.94-2.55,1.02,0,2.13.35,3,.93l-.87,1.58c-.79-.47-1.59-.75-2.17-.75-.55,0-.84.24-.84.55v.03c0,.45.76.66,1.63.96,1.12.38,2.43.91,2.43,2.38v.03c0,1.79-1.33,2.6-3.07,2.6-1.12,0-2.38-.38-3.45-1.22Z"/>
    </g>
    <g>
      <path class="cls-4" d="M140.45,190.25v-.03c0-2.29,1.75-4.18,4.21-4.18,1.51,0,2.46.51,3.21,1.35l-1.4,1.5c-.51-.54-1.02-.88-1.83-.88-1.14,0-1.95,1-1.95,2.19v.03c0,1.23.79,2.22,2.04,2.22.76,0,1.29-.33,1.84-.85l1.33,1.35c-.78.86-1.68,1.47-3.29,1.47-2.42,0-4.18-1.86-4.18-4.15Z"/>
      <path class="cls-4" d="M149.48,191.39v-5.21h2.28v4.49c0,1.08.51,1.63,1.38,1.63s1.43-.55,1.43-1.63v-4.49h2.28v8.04h-2.28v-1.14c-.53.67-1.2,1.29-2.36,1.29-1.72,0-2.73-1.14-2.73-2.99Z"/>
      <path class="cls-4" d="M159.04,186.19h2.28v1.62c.46-1.11,1.21-1.83,2.57-1.77v2.38h-.12c-1.51,0-2.45.92-2.45,2.83v2.97h-2.28v-8.04Z"/>
      <path class="cls-4" d="M165.49,183.28h2.4v2.02h-2.4v-2.02ZM165.55,186.19h2.28v8.04h-2.28v-8.04Z"/>
      <path class="cls-4" d="M169.73,190.25v-.03c0-2.31,1.86-4.18,4.37-4.18s4.33,1.84,4.33,4.15v.03c0,2.31-1.86,4.18-4.37,4.18s-4.33-1.84-4.33-4.15ZM176.18,190.25v-.03c0-1.18-.86-2.22-2.12-2.22s-2.08,1-2.08,2.19v.03c0,1.18.86,2.22,2.12,2.22s2.08-1,2.08-2.19Z"/>
      <path class="cls-4" d="M179.6,193.16l.97-1.5c.87.63,1.79.96,2.54.96.66,0,.96-.24.96-.6v-.03c0-.49-.78-.66-1.67-.93-1.12-.33-2.4-.85-2.4-2.42v-.03c0-1.64,1.32-2.55,2.94-2.55,1.02,0,2.13.35,3,.93l-.87,1.58c-.79-.47-1.59-.75-2.17-.75s-.84.24-.84.55v.03c0,.45.76.66,1.63.96,1.12.38,2.43.91,2.43,2.38v.03c0,1.79-1.33,2.6-3.08,2.6-1.12,0-2.38-.38-3.45-1.22Z"/>
      <path class="cls-4" d="M187.94,183.28h2.4v2.02h-2.4v-2.02ZM188,186.19h2.28v8.04h-2.28v-8.04Z"/>
      <path class="cls-4" d="M192.95,191.95v-3.81h-.96v-1.95h.96v-2.05h2.28v2.05h1.89v1.95h-1.89v3.43c0,.53.22.78.73.78.42,0,.79-.1,1.12-.29v1.83c-.48.29-1.03.46-1.8.46-1.39,0-2.34-.55-2.34-2.42Z"/>
      <path class="cls-4" d="M204.22,186.19h2.37l-3.09,8.24c-.62,1.63-1.28,2.25-2.64,2.25-.83,0-1.44-.21-2.03-.56l.77-1.65c.3.18.67.31.97.31.39,0,.6-.12.79-.52l-3.15-8.07h2.42l1.83,5.48,1.75-5.48Z"/>
    </g>
    <g>
      <path class="cls-4" d="M124.03,243.68v-.03c0-2.98,2.25-5.43,5.47-5.43,1.98,0,3.17.66,4.14,1.62l-1.47,1.7c-.81-.74-1.63-1.19-2.68-1.19-1.77,0-3.04,1.47-3.04,3.27v.03c0,1.8,1.24,3.3,3.04,3.3,1.2,0,1.93-.48,2.76-1.23l1.47,1.48c-1.08,1.16-2.28,1.88-4.3,1.88-3.09,0-5.38-2.38-5.38-5.4Z"/>
      <path class="cls-4" d="M135.41,246.07v-5.21h2.28v4.49c0,1.08.51,1.63,1.38,1.63s1.43-.55,1.43-1.63v-4.49h2.28v8.04h-2.28v-1.14c-.53.67-1.2,1.29-2.36,1.29-1.72,0-2.73-1.14-2.73-2.99Z"/>
      <path class="cls-4" d="M144.97,240.86h2.28v1.62c.46-1.11,1.21-1.83,2.56-1.77v2.38h-.12c-1.51,0-2.44.92-2.44,2.83v2.97h-2.28v-8.04Z"/>
      <path class="cls-4" d="M151.42,237.95h2.4v2.02h-2.4v-2.02ZM151.48,240.86h2.28v8.04h-2.28v-8.04Z"/>
      <path class="cls-4" d="M155.66,244.93v-.03c0-2.31,1.86-4.18,4.37-4.18s4.33,1.84,4.33,4.15v.03c0,2.31-1.86,4.18-4.37,4.18s-4.33-1.84-4.33-4.15ZM162.11,244.93v-.03c0-1.18-.86-2.22-2.12-2.22s-2.08,1-2.08,2.19v.03c0,1.18.86,2.22,2.12,2.22s2.08-1,2.08-2.19Z"/>
      <path class="cls-4" d="M165.53,247.84l.97-1.5c.87.63,1.79.96,2.54.96.66,0,.96-.24.96-.6v-.03c0-.49-.78-.66-1.67-.93-1.12-.33-2.4-.85-2.4-2.42v-.03c0-1.64,1.32-2.55,2.94-2.55,1.02,0,2.13.34,3,.93l-.87,1.58c-.79-.47-1.59-.75-2.17-.75-.55,0-.84.24-.84.55v.03c0,.45.76.66,1.63.96,1.12.38,2.43.91,2.43,2.38v.03c0,1.79-1.33,2.6-3.07,2.6-1.12,0-2.38-.38-3.45-1.22Z"/>
      <path class="cls-4" d="M173.87,237.95h2.4v2.02h-2.4v-2.02ZM173.93,240.86h2.28v8.04h-2.28v-8.04Z"/>
      <path class="cls-4" d="M178.88,246.62v-3.81h-.96v-1.95h.96v-2.05h2.28v2.05h1.89v1.95h-1.89v3.43c0,.53.22.78.73.78.42,0,.79-.1,1.12-.29v1.83c-.48.29-1.03.46-1.8.46-1.39,0-2.34-.55-2.34-2.42Z"/>
      <path class="cls-4" d="M190.14,240.86h2.37l-3.09,8.24c-.62,1.63-1.28,2.25-2.64,2.25-.83,0-1.44-.21-2.03-.56l.77-1.65c.3.18.67.31.97.31.39,0,.6-.12.79-.52l-3.15-8.07h2.42l1.83,5.48,1.75-5.48Z"/>
      <path class="cls-4" d="M198.71,237.95h2.4v2.02h-2.4v-2.02ZM198.77,240.86h2.28v8.04h-2.28v-8.04Z"/>
      <path class="cls-4" d="M202.72,247.84l.97-1.5c.87.63,1.79.96,2.54.96.66,0,.96-.24.96-.6v-.03c0-.49-.78-.66-1.67-.93-1.12-.33-2.4-.85-2.4-2.42v-.03c0-1.64,1.32-2.55,2.94-2.55,1.02,0,2.13.34,3,.93l-.87,1.58c-.79-.47-1.59-.75-2.17-.75s-.84.24-.84.55v.03c0,.45.76.66,1.63.96,1.12.38,2.43.91,2.43,2.38v.03c0,1.79-1.33,2.6-3.08,2.6-1.12,0-2.38-.38-3.45-1.22Z"/>
      <path class="cls-4" d="M215.18,246.59v-.03c0-1.75,1.33-2.57,3.24-2.57.81,0,1.4.14,1.96.33v-.13c0-.94-.58-1.47-1.72-1.47-.87,0-1.49.17-2.22.43l-.57-1.74c.88-.39,1.75-.65,3.12-.65,1.25,0,2.14.33,2.71.9.6.6.87,1.48.87,2.56v4.67h-2.21v-.87c-.55.62-1.32,1.02-2.43,1.02-1.51,0-2.76-.87-2.76-2.46ZM220.41,246.07v-.41c-.39-.18-.9-.3-1.46-.3-.97,0-1.57.39-1.57,1.11v.03c0,.61.51.97,1.24.97,1.07,0,1.79-.58,1.79-1.41Z"/>
    </g>
    <g>
      <path class="cls-4" d="M122.21,258.82h-.95v-1.88h.95v-.51c0-.88.22-1.53.64-1.95.42-.42,1.04-.63,1.85-.63.72,0,1.2.09,1.62.23v1.89c-.33-.12-.65-.2-1.04-.2-.53,0-.83.27-.83.87v.32h1.84v1.86h-1.81v6.09h-2.28v-6.09Z"/>
      <path class="cls-4" d="M127.16,260.93v-.03c0-2.31,1.86-4.18,4.36-4.18s4.33,1.84,4.33,4.15v.03c0,2.31-1.86,4.18-4.36,4.18s-4.33-1.84-4.33-4.15ZM133.61,260.93v-.03c0-1.18-.85-2.22-2.11-2.22s-2.08,1-2.08,2.19v.03c0,1.18.85,2.22,2.11,2.22s2.08-1,2.08-2.19Z"/>
      <path class="cls-4" d="M137.6,262.07v-5.21h2.28v4.49c0,1.08.51,1.63,1.38,1.63s1.42-.55,1.42-1.63v-4.49h2.28v8.04h-2.28v-1.14c-.52.67-1.2,1.29-2.35,1.29-1.73,0-2.73-1.14-2.73-2.99Z"/>
      <path class="cls-4" d="M147.16,256.87h2.28v1.14c.52-.67,1.2-1.29,2.35-1.29,1.73,0,2.73,1.14,2.73,2.98v5.21h-2.28v-4.48c0-1.08-.51-1.64-1.38-1.64s-1.42.56-1.42,1.64v4.48h-2.28v-8.04Z"/>
      <path class="cls-4" d="M156.29,260.9v-.03c0-2.68,1.75-4.15,3.66-4.15,1.21,0,1.96.55,2.5,1.2v-3.96h2.28v10.95h-2.28v-1.16c-.56.75-1.32,1.31-2.5,1.31-1.88,0-3.66-1.47-3.66-4.16ZM162.48,260.9v-.03c0-1.33-.88-2.22-1.95-2.22s-1.96.87-1.96,2.22v.03c0,1.33.9,2.22,1.96,2.22s1.95-.88,1.95-2.22Z"/>
      <path class="cls-4" d="M166.45,262.6v-.03c0-1.75,1.33-2.57,3.24-2.57.81,0,1.4.14,1.96.33v-.13c0-.94-.58-1.47-1.72-1.47-.87,0-1.49.17-2.22.43l-.57-1.74c.88-.39,1.75-.65,3.12-.65,1.25,0,2.14.33,2.71.9.6.6.87,1.48.87,2.56v4.67h-2.21v-.87c-.55.62-1.32,1.02-2.43,1.02-1.51,0-2.76-.87-2.76-2.46ZM171.68,262.07v-.41c-.39-.18-.9-.3-1.46-.3-.97,0-1.57.39-1.57,1.11v.03c0,.62.51.98,1.24.98,1.07,0,1.79-.58,1.79-1.41Z"/>
      <path class="cls-4" d="M176.26,262.63v-3.81h-.96v-1.95h.96v-2.05h2.28v2.05h1.89v1.95h-1.89v3.43c0,.53.22.78.73.78.42,0,.79-.1,1.12-.29v1.83c-.48.29-1.03.46-1.8.46-1.39,0-2.34-.55-2.34-2.42Z"/>
      <path class="cls-4" d="M182.29,253.96h2.4v2.02h-2.4v-2.02ZM182.34,256.87h2.28v8.04h-2.28v-8.04Z"/>
      <path class="cls-4" d="M186.53,260.93v-.03c0-2.31,1.86-4.18,4.37-4.18s4.33,1.84,4.33,4.15v.03c0,2.31-1.86,4.18-4.37,4.18s-4.33-1.84-4.33-4.15ZM192.98,260.93v-.03c0-1.18-.86-2.22-2.12-2.22s-2.08,1-2.08,2.19v.03c0,1.18.86,2.22,2.12,2.22s2.08-1,2.08-2.19Z"/>
      <path class="cls-4" d="M197.03,256.87h2.28v1.14c.52-.67,1.2-1.29,2.35-1.29,1.73,0,2.73,1.14,2.73,2.98v5.21h-2.28v-4.48c0-1.08-.51-1.64-1.38-1.64s-1.42.56-1.42,1.64v4.48h-2.28v-8.04Z"/>
      <path class="cls-4" d="M210.78,260.93v-.03c0-2.31,1.86-4.18,4.36-4.18s4.33,1.84,4.33,4.15v.03c0,2.31-1.86,4.18-4.36,4.18s-4.33-1.84-4.33-4.15ZM217.23,260.93v-.03c0-1.18-.85-2.22-2.11-2.22s-2.08,1-2.08,2.19v.03c0,1.18.85,2.22,2.11,2.22s2.08-1,2.08-2.19Z"/>
      <path class="cls-4" d="M221.67,258.82h-.95v-1.88h.95v-.51c0-.88.22-1.53.64-1.95.42-.42,1.04-.63,1.85-.63.72,0,1.2.09,1.62.23v1.89c-.33-.12-.65-.2-1.04-.2-.53,0-.83.27-.83.87v.32h1.84v1.86h-1.81v6.09h-2.28v-6.09Z"/>
    </g>
    <g>
      <path class="cls-4" d="M114.32,279.85l.97-1.5c.87.63,1.79.96,2.54.96.66,0,.96-.24.96-.6v-.03c0-.49-.78-.66-1.67-.93-1.12-.33-2.4-.85-2.4-2.42v-.03c0-1.64,1.32-2.55,2.94-2.55,1.02,0,2.13.34,3,.93l-.87,1.58c-.79-.47-1.59-.75-2.17-.75s-.84.24-.84.55v.03c0,.45.76.66,1.63.96,1.12.38,2.43.91,2.43,2.38v.03c0,1.79-1.33,2.6-3.08,2.6-1.12,0-2.38-.38-3.45-1.22Z"/>
      <path class="cls-4" d="M122.24,276.94v-.03c0-2.29,1.63-4.18,3.97-4.18,2.68,0,3.92,2.08,3.92,4.36,0,.18-.01.39-.03.6h-5.59c.23,1.04.95,1.57,1.96,1.57.77,0,1.32-.24,1.95-.82l1.3,1.15c-.75.93-1.83,1.5-3.29,1.5-2.41,0-4.2-1.69-4.2-4.15ZM127.91,276.26c-.14-1.02-.74-1.71-1.7-1.71s-1.56.67-1.74,1.71h3.44Z"/>
      <path class="cls-4" d="M132.08,269.96h2.28v10.95h-2.28v-10.95Z"/>
      <path class="cls-4" d="M137.05,274.82h-.95v-1.88h.95v-.51c0-.88.22-1.53.64-1.95s1.04-.63,1.84-.63c.72,0,1.2.09,1.62.23v1.89c-.33-.12-.64-.2-1.04-.2-.52,0-.83.27-.83.87v.32h1.85v1.86h-1.82v6.09h-2.28v-6.09Z"/>
      <path class="cls-4" d="M142.27,275.17h4.62v2.19h-4.62v-2.19Z"/>
      <path class="cls-4" d="M148.81,269.96h2.28v5.83l2.67-2.92h2.73l-3.06,3.17,3.17,4.88h-2.64l-2.05-3.3-.81.85v2.45h-2.28v-10.95Z"/>
      <path class="cls-4" d="M157.82,272.87h2.28v1.14c.53-.67,1.2-1.29,2.36-1.29,1.72,0,2.73,1.14,2.73,2.98v5.21h-2.28v-4.48c0-1.08-.51-1.64-1.38-1.64s-1.42.56-1.42,1.64v4.48h-2.28v-8.04Z"/>
      <path class="cls-4" d="M166.92,276.94v-.03c0-2.31,1.86-4.18,4.37-4.18s4.33,1.84,4.33,4.15v.03c0,2.31-1.86,4.18-4.37,4.18s-4.33-1.84-4.33-4.15ZM173.38,276.94v-.03c0-1.18-.86-2.22-2.12-2.22s-2.08,1-2.08,2.19v.03c0,1.18.86,2.22,2.12,2.22s2.08-1,2.08-2.19Z"/>
      <path class="cls-4" d="M176.4,272.87h2.31l1.29,4.88,1.51-4.9h1.96l1.53,4.92,1.32-4.89h2.27l-2.5,8.1h-2.06l-1.54-4.93-1.57,4.93h-2.04l-2.48-8.1Z"/>
      <path class="cls-4" d="M190.22,269.96h2.28v10.95h-2.28v-10.95Z"/>
      <path class="cls-4" d="M194.4,276.94v-.03c0-2.29,1.64-4.18,3.98-4.18,2.68,0,3.91,2.08,3.91,4.36,0,.18-.01.39-.03.6h-5.59c.22,1.04.94,1.57,1.96,1.57.76,0,1.32-.24,1.95-.82l1.31,1.15c-.75.93-1.83,1.5-3.29,1.5-2.42,0-4.2-1.69-4.2-4.15ZM200.07,276.26c-.13-1.02-.73-1.71-1.69-1.71s-1.56.67-1.74,1.71h3.43Z"/>
      <path class="cls-4" d="M203.78,276.91v-.03c0-2.68,1.75-4.15,3.66-4.15,1.21,0,1.96.55,2.5,1.2v-3.96h2.28v10.95h-2.28v-1.16c-.56.75-1.32,1.31-2.5,1.31-1.88,0-3.66-1.47-3.66-4.16ZM209.97,276.91v-.03c0-1.33-.88-2.22-1.95-2.22s-1.96.87-1.96,2.22v.03c0,1.33.9,2.22,1.96,2.22s1.95-.88,1.95-2.22Z"/>
      <path class="cls-4" d="M214.46,282.5l.78-1.71c.83.46,1.65.74,2.71.74,1.56,0,2.29-.75,2.29-2.19v-.39c-.67.81-1.41,1.3-2.62,1.3-1.88,0-3.57-1.37-3.57-3.75v-.03c0-2.4,1.72-3.75,3.57-3.75,1.25,0,1.98.52,2.59,1.2v-1.05h2.28v6.23c0,1.44-.34,2.49-1.02,3.16-.75.75-1.9,1.08-3.46,1.08-1.3,0-2.53-.3-3.55-.84ZM220.25,276.5v-.03c0-1.1-.85-1.86-1.96-1.86s-1.95.76-1.95,1.86v.03c0,1.11.84,1.86,1.95,1.86s1.96-.76,1.96-1.86Z"/>
      <path class="cls-4" d="M224.3,276.94v-.03c0-2.29,1.63-4.18,3.97-4.18,2.68,0,3.92,2.08,3.92,4.36,0,.18-.01.39-.03.6h-5.59c.23,1.04.95,1.57,1.96,1.57.77,0,1.32-.24,1.95-.82l1.3,1.15c-.75.93-1.83,1.5-3.29,1.5-2.41,0-4.2-1.69-4.2-4.15ZM229.97,276.26c-.14-1.02-.74-1.71-1.7-1.71s-1.56.67-1.74,1.71h3.44Z"/>
    </g>
    <g>
      <path class="cls-4" d="M113.81,325.09h4.8c1.33,0,2.37.38,3.06,1.07.58.58.9,1.41.9,2.4v.03c0,1.7-.92,2.76-2.25,3.25l2.57,3.75h-2.7l-2.25-3.36h-1.81v3.36h-2.31v-10.5ZM118.46,330.19c1.12,0,1.77-.6,1.77-1.49v-.03c0-.99-.69-1.5-1.81-1.5h-2.29v3.02h2.34Z"/>
      <path class="cls-4" d="M124.03,331.61v-.03c0-2.31,1.86-4.18,4.37-4.18s4.33,1.84,4.33,4.15v.03c0,2.31-1.86,4.18-4.37,4.18s-4.33-1.84-4.33-4.15ZM130.48,331.61v-.03c0-1.18-.86-2.22-2.12-2.22s-2.08,1-2.08,2.19v.03c0,1.18.86,2.22,2.12,2.22s2.08-1,2.08-2.19Z"/>
      <path class="cls-4" d="M134.14,331.61v-.03c0-2.31,1.86-4.18,4.36-4.18s4.33,1.84,4.33,4.15v.03c0,2.31-1.86,4.18-4.36,4.18s-4.33-1.84-4.33-4.15ZM140.59,331.61v-.03c0-1.18-.85-2.22-2.11-2.22s-2.08,1-2.08,2.19v.03c0,1.18.85,2.22,2.11,2.22s2.08-1,2.08-2.19Z"/>
      <path class="cls-4" d="M145.01,333.31v-3.81h-.96v-1.95h.96v-2.05h2.28v2.05h1.89v1.95h-1.89v3.43c0,.53.23.78.74.78.42,0,.79-.1,1.12-.29v1.83c-.48.29-1.04.46-1.8.46-1.4,0-2.34-.55-2.34-2.42Z"/>
      <path class="cls-4" d="M150.41,331.61v-.03c0-2.29,1.64-4.18,3.98-4.18,2.68,0,3.91,2.08,3.91,4.36,0,.18-.01.39-.03.6h-5.59c.22,1.04.94,1.57,1.96,1.57.76,0,1.32-.24,1.95-.82l1.31,1.15c-.75.93-1.83,1.5-3.29,1.5-2.42,0-4.2-1.69-4.2-4.15ZM156.08,330.94c-.13-1.02-.73-1.71-1.69-1.71s-1.56.67-1.74,1.71h3.43Z"/>
      <path class="cls-4" d="M159.79,331.58v-.03c0-2.68,1.75-4.15,3.66-4.15,1.21,0,1.96.55,2.5,1.2v-3.96h2.28v10.95h-2.28v-1.16c-.56.75-1.32,1.31-2.5,1.31-1.88,0-3.66-1.47-3.66-4.16ZM165.98,331.58v-.03c0-1.33-.88-2.22-1.95-2.22s-1.96.87-1.96,2.22v.03c0,1.33.9,2.22,1.96,2.22s1.95-.88,1.95-2.22Z"/>
      <path class="cls-4" d="M175.12,324.64h2.4v2.02h-2.4v-2.02ZM175.17,327.55h2.28v8.04h-2.28v-8.04Z"/>
      <path class="cls-4" d="M179.39,331.58v-.03c0-2.68,1.75-4.15,3.66-4.15,1.21,0,1.96.55,2.5,1.2v-3.96h2.28v10.95h-2.28v-1.16c-.56.75-1.32,1.31-2.5,1.31-1.88,0-3.66-1.47-3.66-4.16ZM185.58,331.58v-.03c0-1.33-.88-2.22-1.95-2.22s-1.96.87-1.96,2.22v.03c0,1.33.9,2.22,1.96,2.22s1.95-.88,1.95-2.22Z"/>
      <path class="cls-4" d="M189.63,331.61v-.03c0-2.29,1.63-4.18,3.97-4.18,2.68,0,3.92,2.08,3.92,4.36,0,.18-.01.39-.03.6h-5.59c.23,1.04.95,1.57,1.96,1.57.77,0,1.32-.24,1.95-.82l1.3,1.15c-.75.93-1.83,1.5-3.29,1.5-2.41,0-4.2-1.69-4.2-4.15ZM195.3,330.94c-.14-1.02-.74-1.71-1.7-1.71s-1.56.67-1.74,1.71h3.44Z"/>
      <path class="cls-4" d="M199.37,327.55h2.28v1.14c.52-.67,1.2-1.29,2.35-1.29,1.73,0,2.73,1.14,2.73,2.98v5.21h-2.28v-4.48c0-1.08-.51-1.64-1.38-1.64s-1.42.56-1.42,1.64v4.48h-2.28v-8.04Z"/>
      <path class="cls-4" d="M209.24,333.31v-3.81h-.96v-1.95h.96v-2.05h2.28v2.05h1.89v1.95h-1.89v3.43c0,.53.23.78.74.78.42,0,.79-.1,1.12-.29v1.83c-.48.29-1.04.46-1.8.46-1.4,0-2.34-.55-2.34-2.42Z"/>
      <path class="cls-4" d="M215.27,324.64h2.4v2.02h-2.4v-2.02ZM215.33,327.55h2.28v8.04h-2.28v-8.04Z"/>
      <path class="cls-4" d="M220.28,333.31v-3.81h-.96v-1.95h.96v-2.05h2.28v2.05h1.89v1.95h-1.89v3.43c0,.53.23.78.74.78.42,0,.79-.1,1.12-.29v1.83c-.48.29-1.04.46-1.8.46-1.4,0-2.34-.55-2.34-2.42Z"/>
      <path class="cls-4" d="M231.54,327.55h2.37l-3.09,8.24c-.61,1.63-1.27,2.25-2.64,2.25-.83,0-1.44-.21-2.02-.56l.76-1.65c.3.18.67.31.97.31.39,0,.6-.12.79-.52l-3.15-8.07h2.42l1.83,5.48,1.75-5.48Z"/>
    </g>
    <g>
      <path class="cls-4" d="M127.79,340.64h2.4v2.02h-2.4v-2.02ZM127.85,343.55h2.28v8.04h-2.28v-8.04Z"/>
      <path class="cls-4" d="M131.8,350.53l.97-1.5c.87.63,1.79.96,2.54.96.66,0,.96-.24.96-.6v-.03c0-.49-.78-.66-1.67-.93-1.12-.33-2.4-.85-2.4-2.42v-.03c0-1.64,1.32-2.55,2.94-2.55,1.02,0,2.13.34,3,.93l-.87,1.58c-.79-.47-1.59-.75-2.17-.75s-.84.24-.84.55v.03c0,.45.76.66,1.63.96,1.12.38,2.43.91,2.43,2.38v.03c0,1.79-1.33,2.6-3.08,2.6-1.12,0-2.38-.38-3.45-1.22Z"/>
      <path class="cls-4" d="M145.12,349.31v-3.81h-.96v-1.95h.96v-2.05h2.28v2.05h1.89v1.95h-1.89v3.43c0,.53.22.78.73.78.42,0,.79-.1,1.12-.29v1.83c-.48.29-1.03.46-1.8.46-1.39,0-2.34-.55-2.34-2.42Z"/>
      <path class="cls-4" d="M151.1,340.64h2.28v4.05c.53-.67,1.2-1.29,2.36-1.29,1.72,0,2.73,1.14,2.73,2.98v5.21h-2.28v-4.48c0-1.08-.51-1.64-1.38-1.64s-1.42.56-1.42,1.64v4.48h-2.28v-10.95Z"/>
      <path class="cls-4" d="M160.21,347.62v-.03c0-2.29,1.63-4.18,3.97-4.18,2.68,0,3.92,2.08,3.92,4.36,0,.18-.01.39-.03.6h-5.59c.23,1.04.95,1.57,1.96,1.57.77,0,1.32-.24,1.95-.82l1.3,1.15c-.75.93-1.83,1.5-3.29,1.5-2.41,0-4.2-1.69-4.2-4.15ZM165.88,346.94c-.14-1.02-.74-1.71-1.7-1.71s-1.56.67-1.74,1.71h3.44Z"/>
      <path class="cls-4" d="M173.96,350.53l.97-1.5c.87.63,1.79.96,2.54.96.66,0,.96-.24.96-.6v-.03c0-.49-.78-.66-1.67-.93-1.12-.33-2.4-.85-2.4-2.42v-.03c0-1.64,1.32-2.55,2.94-2.55,1.02,0,2.13.34,3,.93l-.87,1.58c-.79-.47-1.59-.75-2.17-.75s-.84.24-.84.55v.03c0,.45.76.66,1.63.96,1.12.38,2.43.91,2.43,2.38v.03c0,1.79-1.33,2.6-3.08,2.6-1.12,0-2.38-.38-3.45-1.22Z"/>
      <path class="cls-4" d="M182.21,348.76v-5.21h2.28v4.49c0,1.08.51,1.63,1.38,1.63s1.43-.55,1.43-1.63v-4.49h2.28v8.04h-2.28v-1.14c-.53.67-1.2,1.29-2.36,1.29-1.72,0-2.73-1.14-2.73-2.99Z"/>
      <path class="cls-4" d="M191.76,343.55h2.28v1.62c.46-1.11,1.21-1.83,2.57-1.77v2.38h-.12c-1.51,0-2.45.92-2.45,2.83v2.97h-2.28v-8.04Z"/>
      <path class="cls-4" d="M197.58,347.62v-.03c0-2.29,1.64-4.18,3.98-4.18,2.68,0,3.91,2.08,3.91,4.36,0,.18-.01.39-.03.6h-5.59c.22,1.04.94,1.57,1.96,1.57.76,0,1.32-.24,1.95-.82l1.31,1.15c-.75.93-1.83,1.5-3.29,1.5-2.42,0-4.2-1.69-4.2-4.15ZM203.25,346.94c-.13-1.02-.73-1.71-1.69-1.71s-1.56.67-1.74,1.71h3.43Z"/>
      <path class="cls-4" d="M206.69,350.53l.97-1.5c.87.63,1.79.96,2.54.96.66,0,.96-.24.96-.6v-.03c0-.49-.78-.66-1.67-.93-1.12-.33-2.4-.85-2.4-2.42v-.03c0-1.64,1.32-2.55,2.94-2.55,1.02,0,2.13.34,3,.93l-.87,1.58c-.79-.47-1.59-.75-2.17-.75-.55,0-.84.24-.84.55v.03c0,.45.76.66,1.63.96,1.12.38,2.43.91,2.43,2.38v.03c0,1.79-1.33,2.6-3.07,2.6-1.12,0-2.38-.38-3.45-1.22Z"/>
      <path class="cls-4" d="M215.22,349.31v-3.81h-.96v-1.95h.96v-2.05h2.28v2.05h1.89v1.95h-1.89v3.43c0,.53.23.78.74.78.42,0,.79-.1,1.12-.29v1.83c-.48.29-1.04.46-1.8.46-1.4,0-2.34-.55-2.34-2.42Z"/>
    </g>
    <g>
      <path class="cls-4" d="M111.28,359.56h2.28v1.16c.56-.75,1.32-1.3,2.5-1.3,1.88,0,3.66,1.47,3.66,4.15v.03c0,2.68-1.75,4.16-3.66,4.16-1.21,0-1.96-.56-2.5-1.2v3.45h-2.28v-10.44ZM117.44,363.59v-.03c0-1.33-.9-2.22-1.96-2.22s-1.95.88-1.95,2.22v.03c0,1.33.88,2.22,1.95,2.22s1.96-.87,1.96-2.22Z"/>
      <path class="cls-4" d="M121.07,365.29v-.03c0-1.75,1.33-2.57,3.24-2.57.81,0,1.4.14,1.96.33v-.13c0-.94-.58-1.47-1.72-1.47-.87,0-1.49.17-2.22.43l-.57-1.74c.88-.39,1.75-.65,3.12-.65,1.25,0,2.14.33,2.71.9.6.6.87,1.48.87,2.56v4.67h-2.21v-.87c-.55.62-1.32,1.02-2.43,1.02-1.51,0-2.76-.87-2.76-2.46ZM126.31,364.76v-.41c-.39-.18-.9-.3-1.46-.3-.97,0-1.57.39-1.57,1.11v.03c0,.62.51.98,1.24.98,1.07,0,1.79-.58,1.79-1.41Z"/>
      <path class="cls-4" d="M130.87,365.32v-3.81h-.96v-1.95h.96v-2.05h2.28v2.05h1.89v1.95h-1.89v3.43c0,.53.23.78.74.78.42,0,.79-.1,1.12-.29v1.83c-.48.29-1.04.46-1.8.46-1.4,0-2.34-.55-2.34-2.42Z"/>
      <path class="cls-4" d="M136.87,356.65h2.28v4.05c.53-.67,1.2-1.29,2.36-1.29,1.72,0,2.73,1.14,2.73,2.98v5.21h-2.28v-4.48c0-1.08-.51-1.64-1.38-1.64s-1.42.56-1.42,1.64v4.48h-2.28v-10.95Z"/>
      <path class="cls-4" d="M151.39,365.32v-3.81h-.96v-1.95h.96v-2.05h2.28v2.05h1.89v1.95h-1.89v3.43c0,.53.23.78.74.78.42,0,.79-.1,1.12-.29v1.83c-.48.29-1.04.46-1.8.46-1.4,0-2.34-.55-2.34-2.42Z"/>
      <path class="cls-4" d="M156.79,363.62v-.03c0-2.31,1.86-4.18,4.36-4.18s4.33,1.84,4.33,4.15v.03c0,2.31-1.86,4.18-4.36,4.18s-4.33-1.84-4.33-4.15ZM163.23,363.62v-.03c0-1.18-.85-2.22-2.11-2.22s-2.08,1-2.08,2.19v.03c0,1.18.85,2.22,2.11,2.22s2.08-1,2.08-2.19Z"/>
      <path class="cls-4" d="M171.93,356.65h2.28v5.83l2.67-2.92h2.73l-3.06,3.17,3.17,4.88h-2.64l-2.05-3.3-.81.85v2.45h-2.28v-10.95Z"/>
      <path class="cls-4" d="M180.95,359.56h2.28v1.14c.53-.67,1.2-1.29,2.36-1.29,1.72,0,2.73,1.14,2.73,2.98v5.21h-2.28v-4.48c0-1.08-.51-1.64-1.38-1.64s-1.42.56-1.42,1.64v4.48h-2.28v-8.04Z"/>
      <path class="cls-4" d="M190.05,363.62v-.03c0-2.31,1.86-4.18,4.36-4.18s4.33,1.84,4.33,4.15v.03c0,2.31-1.86,4.18-4.36,4.18s-4.33-1.84-4.33-4.15ZM196.5,363.62v-.03c0-1.18-.85-2.22-2.11-2.22s-2.08,1-2.08,2.19v.03c0,1.18.85,2.22,2.11,2.22s2.08-1,2.08-2.19Z"/>
      <path class="cls-4" d="M199.53,359.56h2.31l1.29,4.88,1.51-4.9h1.96l1.53,4.92,1.32-4.89h2.27l-2.5,8.1h-2.06l-1.54-4.93-1.57,4.93h-2.04l-2.48-8.1Z"/>
      <path class="cls-4" d="M213.3,356.65h2.4v2.02h-2.4v-2.02ZM213.36,359.56h2.28v8.04h-2.28v-8.04Z"/>
      <path class="cls-4" d="M217.94,359.56h2.28v1.14c.53-.67,1.2-1.29,2.36-1.29,1.72,0,2.73,1.14,2.73,2.98v5.21h-2.28v-4.48c0-1.08-.51-1.64-1.38-1.64s-1.42.56-1.42,1.64v4.48h-2.28v-8.04Z"/>
      <path class="cls-4" d="M227.48,369.19l.78-1.71c.83.46,1.65.74,2.71.74,1.56,0,2.29-.75,2.29-2.19v-.39c-.67.81-1.41,1.3-2.62,1.3-1.88,0-3.57-1.37-3.57-3.75v-.03c0-2.4,1.72-3.75,3.57-3.75,1.25,0,1.98.52,2.59,1.2v-1.05h2.28v6.23c0,1.44-.34,2.49-1.02,3.16-.75.75-1.9,1.08-3.46,1.08-1.3,0-2.53-.3-3.55-.84ZM233.27,363.19v-.03c0-1.1-.85-1.86-1.96-1.86s-1.95.76-1.95,1.86v.03c0,1.11.84,1.86,1.95,1.86s1.96-.76,1.96-1.86Z"/>
    </g>
    <g>
      <path class="cls-4" d="M145.84,379.63v-.03c0-2.31,1.86-4.19,4.36-4.19s4.33,1.85,4.33,4.15v.03c0,2.31-1.86,4.18-4.36,4.18s-4.33-1.84-4.33-4.15ZM152.29,379.63v-.03c0-1.19-.85-2.22-2.11-2.22s-2.08,1.01-2.08,2.19v.03c0,1.18.85,2.22,2.11,2.22s2.08-1,2.08-2.19Z"/>
      <path class="cls-4" d="M156.34,375.56h2.28v1.14c.53-.68,1.2-1.29,2.36-1.29,1.72,0,2.73,1.14,2.73,2.98v5.21h-2.28v-4.48c0-1.08-.51-1.63-1.38-1.63s-1.42.55-1.42,1.63v4.48h-2.28v-8.04Z"/>
      <path class="cls-4" d="M165.44,379.63v-.03c0-2.29,1.63-4.19,3.97-4.19,2.68,0,3.92,2.09,3.92,4.37,0,.18-.01.39-.03.6h-5.59c.23,1.04.95,1.57,1.96,1.57.77,0,1.32-.24,1.95-.82l1.3,1.15c-.75.93-1.83,1.5-3.29,1.5-2.41,0-4.2-1.69-4.2-4.15ZM171.11,378.95c-.14-1.02-.74-1.71-1.7-1.71s-1.56.68-1.74,1.71h3.44Z"/>
      <path class="cls-4" d="M174.55,382.54l.97-1.5c.87.63,1.79.96,2.54.96.66,0,.96-.24.96-.6v-.03c0-.49-.78-.66-1.67-.93-1.12-.33-2.4-.86-2.4-2.42v-.03c0-1.63,1.32-2.55,2.94-2.55,1.02,0,2.13.35,3,.93l-.87,1.57c-.79-.46-1.59-.75-2.17-.75-.55,0-.84.24-.84.55v.03c0,.45.76.66,1.63.96,1.12.38,2.43.91,2.43,2.38v.03c0,1.79-1.33,2.6-3.07,2.6-1.12,0-2.38-.38-3.45-1.21Z"/>
      <path class="cls-4" d="M182.47,379.63v-.03c0-2.29,1.64-4.19,3.98-4.19,2.68,0,3.91,2.09,3.91,4.37,0,.18-.01.39-.03.6h-5.59c.22,1.04.94,1.57,1.96,1.57.76,0,1.32-.24,1.95-.82l1.31,1.15c-.75.93-1.83,1.5-3.29,1.5-2.42,0-4.2-1.69-4.2-4.15ZM188.13,378.95c-.13-1.02-.73-1.71-1.69-1.71s-1.56.68-1.74,1.71h3.43Z"/>
      <path class="cls-4" d="M192.3,372.65h2.28v10.95h-2.28v-10.95Z"/>
      <path class="cls-4" d="M197.27,377.51h-.95v-1.88h.95v-.51c0-.88.22-1.53.64-1.95s1.04-.63,1.84-.63c.72,0,1.2.09,1.62.23v1.89c-.33-.12-.64-.2-1.04-.2-.52,0-.83.27-.83.87v.31h1.85v1.86h-1.82v6.09h-2.28v-6.09Z"/>
    </g>
    <g class="cls-3">
      <path class="cls-6" d="M167.92,300.18c2.04,3.11,3.92,6.13,5.8,9.44h4.09c1.82-3.22,3.75-6.38,5.8-9.46l-4.96-.06-2.88,4.82-2.86-4.82-4.98.08Z"/>
      <path class="cls-6" d="M167.92,211.97c2.04,3.11,3.92,6.13,5.8,9.44h4.09c1.82-3.22,3.75-6.38,5.8-9.46l-4.96-.06-2.88,4.82-2.86-4.82-4.98.08Z"/>
      <path class="cls-6" d="M167.92,123.96c2.04,3.11,3.92,6.13,5.8,9.44h4.09c1.82-3.22,3.75-6.38,5.8-9.46l-4.96-.06-2.88,4.82-2.86-4.82-4.98.08Z"/>
    </g>
  </g>
</svg>