<?xml version="1.0" encoding="UTF-8"?>
<svg id="Layer_2" data-name="Layer 2" xmlns="http://www.w3.org/2000/svg" viewBox="0 0 220.24 6.36">
  <defs>
    <style>
      .cls-1 {
        fill: #ffebca;
      }
    </style>
  </defs>
  <g id="Layer_1-2" data-name="Layer 1">
    <path class="cls-1" d="M36.81,3.09c.25-.08.35-.04.39.01-.12.03-.26.06-.45.1,0,.01-.02.03-.03.04.02-.06.04-.11.08-.15M40.68,4.35c-.21.03-.46.09-.73.15-.08-.08-.03-.19.13-.22-.08.08.33.05.6.08M38.99,4.7h0c-.17.04-.32.07-.41.09.09-.02.2-.05.41-.09M18.53,6.14c.89.11.46-.31.67-.5,1.06,0,.46.32.8.54.67-.04,1.2-.34,1.69-.29.03.06.13.09.01.16.71-.24,2.06.09,2.88-.27.06.03.09.06.1.09-.13-.19-.14-.38-.11-.51.39,0,.73-.22.87.02-.24,0-.26.09-.37.16l.41-.1c.37.35-.56.12-.56.37.8-.1,1.73-.39,2.34-.3.13.34-1.43.12-.61.42l-.95-.13c.73.54-.58-.04.09.54,1.25.1,1.4-.17,2.65-.1.28-.19-.1-.28.18-.47,1.75-.38,1.42.82,2.71.31.33-.25.43-.67,1.37-.51l-.29.4c1.22-.05.65-.6,1.94-.45-.21.18-.94.21-.75.24.85.23.56-.27,1.19-.33l.17.32c1.29-.19,2.67-.63,4.07-.96-.06.11-.28.26.07.3.88-.26,1.83-.44,2.78-.62.93-.17,1.78-.24,2.62-.26l.58-.38c.15-.02.29.09.14.17.65.03,0-.19.31-.34.37-.06.5.12.28.23,1.1-.38,3.25-.77,4.48-.46l-.24.09c.95.11,1.08-.61,1.97-.33l-.17.05c2.08.14,4.41-.05,6.01.43.31-.41,2.09.23,2.24-.36,1.21.3.86.4,2.56.6.45.03.67-.37,1.23-.43v.31s.77-.32.77-.32l.4.37.52-.08c-.21-.02-.44-.14-.41-.23.82-.14,1.99.22,2.01.37l1.93-.26c-.04.12-.37.17-.62.24,1.03-.32.19.33,1.13.04-.13-.07.07-.18.09-.24.47.19,1.55.19,2.34.11l-.15.21c1.44.05,3.03-.1,4.64-.1-.58-.1-.45-.47.03-.5l.19.33c.31-.2-.49-.12.13-.37.6.04.4.37.06.48l.73-.11c.04.1-.13.15-.17.27.3-.2,1.26.33,1.7-.02l.04.1c1.61,0,2.34-.11,3.65-.13.02-.28.54-.22.93-.45.96.09,2.03.31,3.2.29.82-.14.24-.24.61-.4.06.26,1.22.23.62.42,1.39-.04,1.78-.05,3.54-.26-.19-.1-.41-.15-.3-.24.32-.04.73.11.68.23l-.08.03c1.98-.38,4.57.75,6.14.21l-.09.03,1.63-.28c.75.04-.45.19.11.35,1.76-.43,2.78.06,4.24-.22,1.12.76,3.99-.05,5.5.43l-.09-.18c.39-.17.47.1.76.14-.04-.14-.43-.16-.18-.26,3.32-.21,6.85.26,10.26.42,1.24.05.71-.92,2.28-.49l-.44.33c2.51-.4,5.14.01,7.6-.32-.15.08-.15.17-.39.17.52.24,1.92.01,1.93-.18.38.02.09.18.32.28.52.14,1.31-.31,1.59-.07.05.04-.15.08-.24.1.34-.12,1.58.03,1.26-.25.92.13,1.77-.12,2.5.04.48-.31,1.58.15,1.73-.29-.07.45,1.62.37,2.2.15-.2.14.51.14.28.33.67,0,1.28-.09,1.16-.32,1.23.54,2.47-.43,3.16.26,1.98-.24,3.81-.41,5.59-.51-.06.45-1.97.05-1.89.52,1.69-.19,2.66-.57,4.34-.46.43.06-.25.2-.39.27,1.69-.18,3.26.04,4.76-.2,0,.04-.17.09-.32.12.3-.01.69.07.66-.14l-.29.05c-.47-.3,1.18-.62,1.23-.78-.5.59,1.48.15.68.89.2-.04.44-.14.4-.27.29.04.38.12.09.28,1.06-.11.68-.33,1.64-.33,0,.1-.2.14-.3.26.49-.19.98-.39,1.79-.3-.05.06.04.14-.2.14,1.39-.03,2.38-.52,3.9-.33-.45.43.52.14.6.52l.82-.11-.33-.18c.72,0,1.36-.27,1.98-.14l-.54.15,1.35-.07-.76-.14c.73-.19-.08-.47.88-.37-.19.04.72,0,1.1.23h0c.36-.12.72-.24,1.26-.15.14.12-.11.41-.02.49.35-.31,1.69-.09,2.13-.42-.15.08-.16.27-.11.31l.29-.25c.33.08.38.12.33.28,1,.05-.32-.47.87-.27-.09.02-.05.06-.24.1,1.19.11,2.31-.16,3.41-.04.32.38-.96.09-.59.41,1.59-.07,3.28-.45,4.82-.36l-.28-.04c.21-.53,1.14.26,1.92.01-.19.04-.25.3-.2.24,1.05.09,2.15-.13,3.74-.3l-.2.14c.62.12,1.64.07,2.29.13.2-.13.57-.11.35-.31,2.01.81,3.93-.23,5.73.49-.22,0-.53.1-.35.1l1.57-.06c-.12-.24-.2-.15-.52-.34.2-.13.65-.22,1.03-.21-.71.14,0,.37.3.51-.05-.07.06-.15.03-.22.82.42.14-.46,1.26-.18l-.06.12c.42-.07.8-.24,1.25-.23.2.26-.44.14-.46.36.64-.04,1.22-.56,1.81-.36-.26.11-.65.14-.91.23.65.28.72.17,1.2.18h-.05c.37.02.74,0,1.11-.01l-.29-.04c.67-.82,1.62-.4,2.51-1.24-.86.81-.08.31-.03.62.35-.04.81-.24.74-.09.36-.52.88-.43,1.16-1.03.07.06.36-.18.39.09.36-.21-.15-.13-.18-.24.25-.32.83-.29,1.42-.22.6.08,1.26.2,2,.03,1.28-.08,1.54-.43,2.68-.59.39.16-.32.36-.32.36.63.14,1.11.12,1.7,0-.12.09,0,.16.18.27.48-.03.32-.36.95-.21-.11.11-.25.28-.48.39.56-.09,1.12-.27,1.7-.36.15.17-.35.26-.56.37.65-.08,1.69-.15,1.9-.42l-.42-.1c.24-.01.12.23-.05.28-.56.21-.81-.09-.84-.19l.42-.06c-.43-.57-1.66.09-2.5.06l.35-.42-.86.35c-.18-.11-.31-.34.11-.4-.6-.2-.53.15-1.04-.08-.06-.04-.03-.06.02-.07l-.58.12c.11-.09-.1-.29.26-.23-1.05-.23-1.67.3-2.05-.05l.09-.02c-1.45.03-.16.29-1.28.56-.22-.27-.45-.54-.69-.8l-.16.3c-.15-.02-.46-.04-.4-.16-.57.22.1.13-.23.33-.37-.13-.88-.06-1.31.07-.43.14-.74.34-.95.18-.1.34.7-.23.12.33-.5-.31-.66.65-1.34.75.04-.32.57-.51-.05-.39-.06.6-1.09.3-1.57.5.06.36-1.12.4-2.02.59.05-.11-1.74-.07-2.6-.2l.02-.06c-.16.37-1.05.3-1.7.36.03-.22.15-.3.5-.4h-.61c-.15.1-.34.16-.73.18l.16-.27c-.81-.01-1.65.25-2.68,0-.07.25.79.76-.32.87-.03-.14-.06-.38.23-.42-.1.01-.35.1-.53.03l.46-.21c-.47-.13-.26.18-.64.14.02-.2-.28-.16-.21-.31.1-.01.33.1.48.03-.43-.06-.95-.2-1.11-.36.03.11-.01.26-.33.28-.82-.02-.27-.25-.75-.37-.21.13-.73-.03-.75.27-.24,0-.29-.14-.38-.22-.44.12-1.98.03-1.51.34l.11.02s-.04,0-.07.01h0,0c-1.39.29-2.88-.17-4.25-.04v-.1c-.82.11-1.82.07-2.41.28-.24,0-.57-.18-.47-.3-.63.07-.7.18-1.6.02.63-.17-.22-.15.65-.13-.82-.09-1-.24-1.87.03.3-.25-.61-.32-1-.24l.57.18c-.44.04-.82.01-1.2,0l.21-.33c-1.67-.41-3.01.69-4.27.01-.44.23.9.16.51.44-.77-.05-1.57-.52-1.81-.52-1.05-.18-.98.49-2.08.36.14.12.27.43-.55.55-.77-.04-.94-.5-.46-.59.18,0,.27.03.26.07.25-.04.57-.09.27-.22l-.1.12c-.38-.12-1.44-.11-1.19-.3-.58.11-.25.19.18.26-.98-.17-1.54,0-2.55-.12.16.07.31.2.15.2-1.49-.15-.65.22-1.66.28-.57-.18.21-.43-.81-.28-.62-.12-.13-.32.12-.41-.92.23-1.73-.15-2.25-.19l.49-.1c-.29.06-.53.06-.77.06l.28.24c-.29-.04-.53-.04-.52-.14-.29.16.23.39-.36.61-.38-.12-1.16.13-1.29-.18,1.2.11-.13-.32.88-.37-.19.04-.43.04-.72,0-.04-.04.04-.07.12-.08-1.15-.28-.53.36-1.71.35.15-.18-.28-.34-.47-.3.48,0,.23.3-.21.43-.76-.14-.83.1-1.23.09l.46.07c-.15.18-.54.15-1.07.21-.04-.14.48-.09.29-.16-.59.31-1.33-.32-2.15-.11-.38-.12-.04-.33-.37-.41-.92.23-1-.24-1.96-.05.28.24.33.18-.35.41l1.59-.17-1.02.35c.48,0,1.01-.15,1.3-.11-.49.19-.44.14-.21.33-.66-.36-1.3.21-2.06-.03l.02-.59c-1.14-.26-2.03.3-3.51.15l.48.1c-.2.23-.92.03-1.4.13.04-.2-.26-.27-.46-.39.02.15-1.08-.01-1.22.38l-.66-.26c-1.2-.11-1.37.56-2.52.49.35-.22-.18-.36.59-.51-.38,0-.73-.04-.74.1-.22-.12-1.07.27-1.42.08-.16.09-.21.29-.65.28-.05-.04,0-.1,0-.1,0,.1-.68.13-.3.35-1.18-.62-3.31.04-4.34-.48-.84.07-1.85.13-2.61.14.05-.06,0-.1.15-.08-1.05-.18-.65.57-1.84.36-.61-.32.63-.17.25-.29-.17-.65-1.44.09-2.25-.29l.19-.04c-.61-.22-1.5.25-2.5.2,0,0,.05-.06,0-.1-.69.33-1.99.44-2.95.53.3-.25.44-.13.26-.39-.43.04.13.41-.74.49-.28-.14-.91-.26-.99-.54l.82-.02c-.42-.36-1.06.01-1.49-.05l.06-.16c-1.25.05-1.27.44-2.61.42l.14.12c-.73.39-.61-.22-1.35.07l-.22-.39c-.48.09-1.7.38-2.57.46.49-.29,1.51-.44,2.14-.62-.48,0-1.63.03-1.88.22.19-.04.44-.13.63-.07-.59.31-1.36.46-2.32.46.17-.76-2.49-.19-3.19-.79-1.69.28-3.36-.12-5.33-.08.7.6-.58.02-.45.63-.46.04-.64.03-.68-.01l-1.39-.37c-.33-.18.44-.13.4-.27-1.01-.05-.42-.26-1.09-.42.14.22-.35.31-.92.23l.81.28c-1.41.33-1.22-.51-2.63-.19l.45-.19c-.73.11-2.68,0-3.39.49-.13-.07-.3-.24.02-.28-1.74-.07-3.87.52-5.22.22l.13-.15c-.32.04-.56.28-.97.13.02-.06.13-.15-.02-.16-.17.05-.86.26-1.29.17l.37-.17c-1.69-.2-2.6.41-4.02.51,0-.44-1.33-.58-1.99-.66l.02-.06c-1.97-.05-3.35.36-5.18.54-1.13-.48-3.84-.2-5.67-.47.28.08-.04.34-.37.39-.43-.09-1.18.3-1.11-.1h.15c-.32-.39-1.2-.28-1.89-.29l-.11.53c-1.79-.77-4.7.28-5.68-.41-.43.13-.97.13-1.4.26l.02-.28c-1.21-.07-1.79-.1-3.26-.06l.3-.2c-.83-.03-1.07.79-1.84.79l-.22-.43c-1.46-.03-2.93-.45-4.39-.08.03-.06.07-.18.31-.2-.69-.03-2.69-.3-2.44.28-.02-.38-1.53-.02-2.32.18l.11-.28c-.66.39-.68.48-1.61.64-.22-.02-.21-.21.09-.16-.76-.09-.56.31-1.47.25l.32-.21c-.77.05-.7.15-1.09.41-.46.16-1.45.16-1.61-.07-.08.16-.45.46-.91.49-.08-.08.07-.17.14-.22-1.31.1-1.74.75-2.66.65-.04-.09-.1-.12-.17-.14.97-.19,1.74-.36,1.67-.33-.06-.25-.84-.11-.31-.6-.57.34-1.55.97-2.34.99-.04-.02-.08-.04-.12-.07l.07-.04c-.18,0-.33.06-.47.13-.25,0-.41,0-.64.03-.12-.19-.91.02-1.31.06.07.28-.45.3.06.47-.07-.01.07-.04.33-.09.06-.02.13-.03.16-.05l-.02.03c.26-.04.59-.1.97-.17-.29.19-.6.36-1.06.27-.18.21-.38.42-.49.53-.6-.32-1.66-.42-1.83-.65-1.19.28-2.84.32-3.59.88-.35.08-.41-.13-.54-.21.2-.06.44-.06.54-.14-.69.17-2.06.12-2.22.49-.88-.15.49-.35-.72-.27l.16-.11c-2.37-.57-3.88.97-6.47.04.18.06.27.09.3.15-1.48-.26-3.01-.35-4.54-.53-1.53-.15-3-.53-4.52-.96-.85-.2-.96.03-1.5.16l-.16-.32-.91.27c-1.28.14-2.08-.92-3.67-.66l.17.23c-.55-.1-1.77-.18-1.63-.4-.06.03-.22.17-.41.02l.02-.16c-.46-.02-.92-.05-1.37-.12-.91-.48.32-.5-.92-1.12-.45-.16-1.39-.48-1.34-.3.16.14.35.43.27.57l-.45-.28c-.2.14-.47.2-.59.39-.12.17-.08.54.48,1.15.37.12.72.25,1.07.29l.21.35c-.27-.13-.54-.23-.81-.39.35.44.74.4,1.11.43.03.14.14.27.31.38.37-.01.73-.06,1.07-.12.07.21-.52.23.09.5.49-.08-.31-.51.44-.45.4.31.24.45.8.39.05.13-.07.18-.3.19.51-.04,1.27.18,1.55-.04.43.33,1.59.14,1.49.57.16-.08.86-.26,1.28-.24-.82.45,1.59.17,1.33.71.61-.42,2.06-.04,3.03-.15-.06.03-.18.09-.26.06.54.12.62.29.96.44.15-.37,1.06-.28,1.58-.43.63.5-.51.38-.35.77.02-.31,1.28-.1,1.08-.4.5.32.44.19.67.55.17-.47.52,0,1.01-.24.75.34.14.49,1.03.44.4.2-.4.28-.4.28"/>
  </g>
</svg>