<?xml version="1.0" encoding="UTF-8"?>
<svg id="Layer_2" data-name="Layer 2" xmlns="http://www.w3.org/2000/svg" xmlns:xlink="http://www.w3.org/1999/xlink" viewBox="0 0 272.12 6.27">
  <defs>
    <style>
      .cls-1 {
        fill: none;
      }

      .cls-2 {
        fill: #ffebca;
      }

      .cls-3 {
        clip-path: url(#clippath);
      }
    </style>
    <clipPath id="clippath">
      <rect class="cls-1" x="0" y="0" width="272.12" height="6.27"/>
    </clipPath>
  </defs>
  <g id="Layer_1-2" data-name="Layer 1">
    <g class="cls-3">
      <path class="cls-2" d="M45.47,3.11c.31-.08.43-.04.49.02-.15.03-.33.06-.56.1,0,.01-.02.03-.03.04.02-.06.05-.11.1-.15M50.24,4.42c-.26.03-.57.08-.91.14-.1-.09-.04-.19.17-.22-.1.08.4.06.74.08M48.15,4.75h0c-.21.04-.4.07-.51.09.11-.02.25-.04.51-.09M22.86,5.97c1.09.12.57-.31.83-.49,1.31.01.56.33.98.55.83-.03,1.48-.33,2.08-.28.04.06.16.09.01.16.88-.24,2.55.11,3.56-.24.07.03.11.06.13.09-.16-.19-.17-.38-.14-.51.48,0,.9-.21,1.07.03-.3-.01-.32.08-.46.16l.51-.1c.45.35-.69.11-.7.37,1-.09,2.14-.38,2.89-.28.16.34-1.76.11-.76.41l-1.17-.14c.89.55-.71-.05.1.54,1.55.11,1.72-.16,3.27-.07.34-.19-.12-.28.22-.47,2.17-.36,1.75.83,3.35.34.41-.24.54-.67,1.7-.5l-.36.4c1.51-.04.81-.59,2.4-.43-.26.17-1.16.2-.93.23,1.05.24.7-.26,1.48-.32l.2.33c1.6-.18,3.31-.6,5.04-.91-.08.11-.35.26.08.3,1.09-.25,2.26-.42,3.44-.59,1.15-.16,2.21-.22,3.24-.23l.72-.37c.18-.01.35.1.17.17.8.04.01-.19.38-.34.45-.05.62.12.34.23,1.36-.37,4.02-.73,5.54-.41l-.29.09c1.18.12,1.33-.6,2.44-.31l-.21.05c2.57.16,5.44,0,7.42.5.39-.41,2.58.25,2.77-.34,1.49.31,1.06.41,3.15.63.56.03.83-.36,1.53-.42v.31s.95-.31.95-.31l.49.37.65-.07c-.26-.02-.55-.14-.51-.23,1.01-.13,2.46.24,2.49.39l2.39-.24c-.05.12-.46.16-.77.24,1.28-.3.23.33,1.4.05-.16-.07.09-.18.11-.24.58.19,1.91.2,2.89.13l-.19.21c1.77.07,3.74-.07,5.73-.05-.71-.1-.55-.47.04-.5l.23.33c.38-.2-.61-.13.17-.37.74.04.5.37.07.48l.9-.11c.05.1-.16.15-.22.27.37-.2,1.56.34,2.1,0l.05.1c1.99.02,2.89-.08,4.51-.09.03-.28.67-.21,1.15-.44,1.19.1,2.51.33,3.95.32,1.01-.13.3-.23.75-.4.07.26,1.5.25.76.42,1.72-.03,2.2-.03,4.38-.22-.24-.11-.5-.16-.36-.24.4-.04.9.12.84.24l-.11.03c2.45-.36,5.64.79,7.59.28l-.11.03,2.02-.26c.93.05-.56.19.13.35,2.18-.41,3.44.09,5.24-.18,1.38.77,4.93,0,6.8.49l-.11-.18c.49-.17.58.11.94.15-.05-.14-.52-.16-.22-.26,4.1-.18,8.47.33,12.67.53,1.54.06.88-.91,2.82-.47l-.55.33c3.11-.37,6.35.07,9.39-.24-.18.08-.19.17-.49.17.64.25,2.37.03,2.39-.16.47.03.11.18.4.28.64.15,1.62-.29,1.96-.05.06.04-.18.08-.3.09.42-.11,1.95.05,1.55-.23,1.14.14,2.18-.1,3.09.07.6-.3,1.95.17,2.14-.27-.09.45,2,.38,2.72.18-.24.13.63.15.34.33.82,0,1.58-.08,1.44-.31,1.51.55,3.05-.41,3.9.29,2.45-.22,4.71-.37,6.91-.45-.08.45-2.43.02-2.34.5,2.09-.17,3.3-.54,5.36-.42.54.07-.31.19-.49.27,2.09-.17,4.03.08,5.89-.15,0,.04-.21.09-.4.12.37-.01.85.07.81-.13l-.36.05c-.58-.3,1.46-.61,1.53-.77-.63.58,1.83.16.84.9.24-.04.54-.13.49-.27.36.04.47.12.11.28,1.31-.1.85-.32,2.03-.31,0,.1-.24.13-.37.25.6-.19,1.21-.38,2.21-.28-.06.06.05.14-.24.13,1.72-.02,2.94-.49,4.83-.29-.56.43.64.15.74.52l1.02-.1-.41-.18c.89.01,1.68-.25,2.44-.12l-.66.15,1.67-.05-.94-.15c.9-.19-.09-.47,1.09-.36-.24.04.89.01,1.35.24h0c.44-.11.9-.24,1.55-.14.17.12-.14.41-.03.49.44-.31,2.09-.07,2.64-.4-.18.08-.19.27-.14.31l.37-.25c.41.08.47.12.4.28,1.24.06-.39-.48,1.08-.26-.12.02-.06.06-.3.09,1.48.12,2.86-.14,4.21,0,.4.38-1.19.08-.73.4,1.96-.05,4.06-.41,5.95-.31l-.35-.04c.27-.53,1.41.27,2.37.03-.24.04-.31.29-.25.23,1.3.1,2.65-.11,4.62-.26l-.24.13c.76.13,2.02.09,2.83.16.24-.13.71-.1.43-.3,2.47.84,4.85-.19,7.08.56-.27-.01-.65.09-.44.1l1.95-.05c-.14-.24-.25-.15-.65-.34.25-.13.8-.21,1.28-.2-.87.13,0,.37.37.51-.06-.07.07-.15.04-.22,1,.43.18-.46,1.55-.17l-.07.12c.52-.06.99-.23,1.54-.21.24.26-.54.14-.57.36.79-.03,1.51-.55,2.24-.34-.32.1-.8.13-1.13.22.8.29.89.18,1.48.19h-.06c.46.02.91,0,1.38,0l-.36-.04c.84-.81,2.01-.38,3.11-1.22-1.07.8-.11.31-.04.62.43-.04,1.01-.23.91-.08.45-.51,1.08-.42,1.44-1.01.09.06.45-.17.48.09.45-.21-.18-.13-.22-.24.32-.31,1.03-.29,1.75-.2.74.08,1.56.21,2.48.06,1.58-.06,1.91-.41,3.32-.56.48.16-.4.35-.4.35.78.15,1.36.13,2.1.02-.15.08,0,.16.23.27.59-.02.4-.35,1.17-.2-.13.11-.31.28-.59.39.7-.08,1.38-.26,2.1-.34.19.17-.44.25-.69.36.81-.07,2.09-.14,2.35-.4l-.52-.1c.29,0,.15.23-.07.28-.7.21-1-.1-1.04-.2l.51-.06c-.52-.58-2.06.07-3.09.03l.43-.41-1.06.34c-.22-.11-.37-.34.14-.4-.74-.21-.66.14-1.29-.09-.07-.04-.04-.06.03-.07l-.72.12c.14-.09-.12-.29.33-.23-1.3-.24-2.07.28-2.54-.07l.11-.02c-1.79.01-.21.29-1.58.55-.27-.27-.55-.54-.85-.8l-.2.3c-.19-.02-.56-.05-.49-.17-.71.21.12.13-.29.33-.45-.13-1.09-.07-1.62.06-.53.14-.92.33-1.18.17-.12.34.87-.23.15.33-.62-.32-.82.64-1.66.73.05-.32.71-.5-.06-.39-.08.6-1.35.29-1.95.48.07.37-1.38.39-2.5.56.06-.1-2.15-.08-3.21-.23l.03-.06c-.2.37-1.3.29-2.11.34.04-.22.19-.3.62-.39l-.75-.02c-.18.11-.42.16-.91.19l.2-.27c-1-.02-2.04.23-3.32-.02-.09.25.98.77-.41.86-.04-.14-.07-.38.29-.42-.12.01-.43.09-.66.02l.57-.2c-.58-.13-.32.18-.79.13.02-.2-.34-.16-.26-.31.12-.01.41.1.59.04-.53-.06-1.17-.21-1.37-.37.04.11-.02.27-.41.27-1.01-.03-.33-.26-.92-.38-.25.13-.9-.04-.93.26-.3,0-.35-.15-.47-.23-.55.11-2.45.01-1.87.33l.13.02s-.05,0-.09.01h0,0c-1.71.28-3.55-.2-5.25-.09v-.1c-1.01.1-2.25.05-2.98.25-.3,0-.71-.19-.58-.3-.77.07-.86.18-1.98,0,.78-.17-.27-.16.8-.12-1.01-.09-1.23-.25-2.31,0,.37-.25-.76-.33-1.23-.25l.7.19c-.54.03-1.01,0-1.49-.02l.26-.33c-2.06-.42-3.72.66-5.28-.03-.55.23,1.12.17.63.44-.95-.05-1.93-.54-2.23-.54-1.3-.2-1.22.48-2.57.34.17.12.33.44-.68.54-.95-.05-1.16-.51-.56-.6.23,0,.34.03.33.07.31-.04.71-.09.34-.22l-.12.12c-.47-.13-1.77-.12-1.47-.32-.72.11-.31.19.22.26-1.21-.18-1.9-.02-3.15-.15.2.07.38.21.18.21-1.84-.16-.81.22-2.05.26-.71-.19.26-.43-1-.29-.76-.13-.16-.32.14-.41-1.14.22-2.13-.17-2.78-.22l.6-.09c-.36.05-.65.05-.95.05l.34.24c-.35-.04-.65-.05-.64-.15-.37.15.27.4-.45.6-.47-.12-1.43.12-1.59-.2,1.48.12-.16-.32,1.09-.36-.24.04-.54.03-.89-.01-.05-.04.05-.07.15-.08-1.41-.29-.65.35-2.12.33.19-.18-.34-.34-.58-.3.59,0,.28.3-.26.43-.94-.14-1.02.1-1.52.07l.56.07c-.19.18-.66.15-1.32.2-.06-.14.6-.09.36-.15-.73.31-1.64-.34-2.66-.14-.47-.12-.04-.33-.46-.42-1.14.22-1.23-.25-2.43-.08.34.24.4.18-.44.41l1.97-.15-1.26.33c.59,0,1.26-.14,1.61-.09-.6.19-.54.13-.26.33-.81-.36-1.61.2-2.55-.05l.03-.59c-1.41-.28-2.51.28-4.34.12l.59.11c-.25.23-1.13.02-1.73.11.06-.2-.31-.27-.57-.4.03.15-1.34-.03-1.51.37l-.82-.27c-1.48-.12-1.69.55-3.12.47.43-.21-.21-.36.74-.5-.47,0-.9-.05-.91.09-.28-.13-1.32.25-1.75.06-.2.09-.27.29-.8.27-.06-.04,0-.1,0-.1,0,.1-.84.12-.37.35-1.46-.63-4.09,0-5.36-.53-1.04.06-2.29.11-3.23.12.06-.06,0-.1.18-.08-1.3-.19-.8.56-2.28.34-.75-.33.79-.17.32-.29-.2-.65-1.78.07-2.77-.31l.24-.04c-.76-.23-1.86.23-3.1.17,0,0,.06-.06,0-.1-.85.32-2.46.42-3.65.5.37-.25.54-.13.32-.39-.54.03.15.42-.92.48-.35-.14-1.12-.27-1.22-.55h1.01c-.51-.37-1.3,0-1.84-.07l.07-.15c-1.54.04-1.57.43-3.23.39l.17.12c-.91.38-.76-.23-1.67.06l-.27-.4c-.6.09-2.1.36-3.17.43.61-.29,1.87-.43,2.65-.59-.59,0-2.02.01-2.33.2.24-.04.54-.13.78-.07-.73.3-1.69.45-2.87.43.22-.76-3.08-.22-3.93-.82-2.1.27-4.15-.16-6.58-.13.86.6-.71.01-.57.62-.57.03-.78.02-.83-.02l-1.72-.38c-.41-.18.54-.13.49-.27-1.24-.06-.52-.26-1.34-.43.17.22-.43.31-1.14.22l1,.29c-1.74.31-1.5-.53-3.25-.22l.56-.19c-.9.11-3.31-.03-4.2.45-.16-.07-.37-.24.03-.28-2.15-.09-4.78.48-6.45.16l.17-.15c-.4.04-.7.28-1.2.12.03-.06.16-.15-.02-.16-.21.05-1.07.25-1.6.16l.46-.16c-2.09-.22-3.22.38-4.97.47,0-.44-1.64-.6-2.46-.68l.03-.06c-2.44-.08-4.15.33-6.4.48-1.4-.49-4.75-.24-7-.53.34.08-.06.34-.46.38-.53-.09-1.46.29-1.38-.11h.19c-.39-.39-1.48-.29-2.33-.31l-.14.53c-2.21-.79-5.81.23-7.02-.47-.54.13-1.2.12-1.73.25l.03-.28c-1.49-.09-2.21-.12-4.03-.1l.38-.2c-1.02-.04-1.32.78-2.28.78l-.27-.43c-1.8-.05-3.62-.48-5.43-.13.03-.06.09-.18.38-.19-.85-.04-3.33-.33-3.01.26-.02-.38-1.89-.04-2.87.16l.14-.28c-.82.38-.84.47-2,.63-.28-.02-.26-.21.11-.16-.93-.1-.69.3-1.82.23l.4-.21c-.95.05-.87.14-1.35.4-.57.16-1.79.14-1.99-.09-.1.16-.56.45-1.13.48-.1-.08.09-.17.18-.22-1.61.09-2.16.73-3.28.62-.04-.09-.12-.12-.22-.14,1.2-.18,2.16-.34,2.07-.31-.08-.25-1.04-.12-.38-.61-.7.33-1.92.96-2.9.96-.05-.02-.1-.04-.14-.07l.09-.04c-.22,0-.41.05-.59.12-.31,0-.51-.01-.8.02-.15-.19-1.13.01-1.62.05.08.28-.56.29.07.46-.08-.01.09-.04.41-.09.07-.02.16-.03.2-.05l-.03.03c.32-.04.73-.1,1.21-.16-.36.19-.74.36-1.31.25-.22.21-.47.42-.61.52-.74-.32-2.05-.43-2.25-.66-1.47.27-3.51.29-4.44.84-.43.08-.5-.14-.67-.22.25-.06.54-.06.67-.14-.85.16-2.54.1-2.74.46-1.09-.16.6-.34-.89-.28l.2-.11c-2.92-.59-4.8.93-8-.03.22.06.33.09.37.15-1.83-.28-3.72-.38-5.6-.58-1.89-.17-3.7-.56-5.57-1.01-1.05-.21-1.19.02-1.85.14l-.19-.32-1.13.26c-1.58.13-2.56-.94-4.53-.7l.21.23c-.68-.11-2.19-.2-2.01-.42-.08.02-.28.16-.51.01l.03-.16c-.56-.03-1.14-.06-1.7-.13-1.13-.49.4-.49-1.13-1.12C2.12.2.96-.13,1.02.05c.19.15.43.44.33.58l-.55-.29c-.25.13-.58.2-.73.39-.15.17-.11.53.58,1.16.45.13.89.25,1.32.3l.25.35c-.33-.13-.67-.24-.99-.4.43.45.91.41,1.36.44.04.14.16.27.38.38.46,0,.9-.05,1.33-.11.08.21-.65.22.1.51.61-.07-.38-.51.55-.44.49.31.29.45.99.4.06.13-.09.18-.37.18.62-.03,1.57.19,1.91-.02.53.34,1.96.15,1.84.58.2-.08,1.06-.25,1.59-.22-1.02.45,1.96.19,1.63.73.76-.41,2.55-.02,3.75-.12-.07.03-.22.09-.32.05.66.12.76.29,1.18.45.19-.36,1.31-.26,1.95-.41.78.5-.63.37-.44.77.03-.31,1.58-.08,1.34-.39.62.32.55.19.83.56.21-.47.64,0,1.25-.24.93.35.17.49,1.26.45.49.2-.49.28-.49.28"/>
    </g>
  </g>
</svg>