<?xml version="1.0" encoding="UTF-8"?>
<svg id="Layer_2" data-name="Layer 2" xmlns="http://www.w3.org/2000/svg" viewBox="0 0 199.39 11.99">
  <defs>
    <style>
      .cls-1 {
        fill: #ffebca;
      }
    </style>
  </defs>
  <g id="Layer_1-2" data-name="Layer 1">
    <path class="cls-1" d="M177.06,4.48h0s0,0,0,0Z"/>
    <path class="cls-1" d="M166.6,8.86c-.22.1-.31.07-.36.02.11-.03.24-.08.4-.14,0-.01.01-.03.02-.04,0,.06-.02.11-.06.16M162.97,7.81c.18-.04.41-.1.64-.16.08.08.05.19-.1.23.06-.08-.3-.04-.54-.06M164.45,7.4h0c.15-.05.28-.09.36-.12-.07.02-.18.06-.36.12M182.29,2.88c-.77.13-.3.42-.43.66-.9.26-.47-.19-.82-.32-.56.2-.94.61-1.37.67-.04-.06-.13-.06-.04-.15-.56.4-1.81.34-2.45.83-.06-.02-.09-.05-.11-.07.15.16.2.34.2.48-.35.07-.6.35-.77.13.21-.03.21-.13.3-.22l-.34.17c-.39-.28.47-.21.43-.46-.69.24-1.46.67-2.02.68-.18-.31,1.25-.35.47-.51l.86-.03c-.74-.41.52-.06-.18-.51-1.12.11-1.21.4-2.33.52-.21.23.13.26-.08.49-1.5.64-1.4-.59-2.46.09-.25.28-.28.72-1.14.68l.2-.44c-1.08.2-.49.67-1.66.67.16-.19.81-.31.64-.32-.79-.13-.46.32-1.02.46l-.19-.3c-1.12.32-2.31.87-3.54,1.26.04-.11.23-.27-.09-.3-1.51.59-3.32.85-4.84.98l-.51.41c-.13.02-.27-.08-.14-.16-.6,0,0,.19-.25.36-.33.08-.47-.08-.28-.21-.96.46-2.85,1.02-3.98.78l.21-.1c-.86-.04-.92.68-1.74.45l.15-.06c-1.86-.03-3.95.21-5.42-.23-.28.42-1.89-.19-2.01.4-1.09-.29-.77-.4-2.31-.59-.41-.03-.61.37-1.12.43v-.31s-.7.32-.7.32l-.36-.37-.48.08c.19.02.4.14.37.23-.74.14-1.81-.21-1.83-.37l-1.75.26c.04-.12.33-.17.57-.25-.94.32-.17-.32-1.03-.04.12.07-.06.18-.08.25-.43-.19-1.4-.19-2.12-.11l.14-.21c-1.3-.05-2.74.1-4.2.1.52.1.4.47-.02.5l-.17-.33c-.28.2.45.12-.12.37-.54-.04-.37-.37-.05-.48l-.66.11c-.04-.1.12-.15.16-.27-.27.2-1.14-.33-1.54.02l-.04-.1c-1.46,0-2.12.11-3.31.13-.02.28-.49.22-.84.45-.87-.09-1.84-.31-2.89-.29-.74.14-.22.24-.55.4-.05-.26-1.11-.23-.56-.42-1.26.04-1.61.05-3.21.26.17.1.37.15.27.24-.29.04-.66-.11-.62-.23l.08-.03c-1.79.38-4.14-.75-5.56-.21l.08-.03-1.48.28c-.68-.04.41-.19-.1-.35-1.6.43-2.52-.06-3.84.22-1.02-.75-3.61.05-4.98-.43l.08.18c-.35.17-.43-.1-.69-.14.04.14.39.16.17.26-3.01.21-6.21-.26-9.29-.42-1.13-.05-.64.92-2.06.5l.4-.33c-2.28.4-4.65-.01-6.88.32.13-.08.14-.17.35-.17-.47-.24-1.74-.01-1.75.18-.35-.02-.08-.18-.29-.28-.47-.14-1.18.31-1.44.07-.04-.04.13-.08.22-.1-.31.12-1.43-.03-1.14.25-.84-.13-1.6.12-2.27-.04-.43.31-1.43-.15-1.57.29.06-.45-1.47-.37-1.99-.15.18-.14-.46-.14-.25-.33-.6,0-1.16.09-1.05.32-1.11-.54-2.23.44-2.86-.26-1.79.24-3.45.41-5.06.51.06-.45,1.78-.05,1.71-.52-1.53.19-2.41.57-3.93.46-.39-.06.22-.2.35-.27-1.53.19-2.95-.04-4.31.2,0-.04.15-.09.29-.12-.27.01-.62-.07-.59.14l.26-.06c.43.3-1.06.62-1.11.78.46-.59-1.34-.15-.62-.89-.18.04-.4.14-.36.27-.26-.04-.34-.12-.08-.28-.96.11-.62.33-1.49.33,0-.1.18-.14.27-.25-.44.19-.88.39-1.62.3.04-.06-.04-.14.18-.14-1.26.03-2.15.52-3.54.33.41-.43-.47-.14-.54-.51l-.74.11.3.18c-.65,0-1.23.27-1.79.14l.49-.15-1.22.07.69.14c-.66.19.07.47-.8.37.18-.04-.65,0-.99-.22h0c-.32.12-.65.24-1.14.15-.12-.12.1-.41.02-.49-.32.31-1.53.09-1.93.42.13-.08.14-.27.1-.31l-.27.25c-.3-.08-.35-.12-.3-.28-.91-.05.29.47-.79.27.08-.02.04-.06.22-.1-1.08-.11-2.09.16-3.09.04-.29-.38.87-.09.53-.41-1.43.07-2.97.45-4.36.36l.26.04c-.19.53-1.04-.26-1.74-.01.17-.04.22-.29.18-.24-.95-.08-1.95.13-3.39.3l.18-.14c-.56-.12-1.48-.07-2.08-.13-.18.14-.53.11-.32.31-1.87-.78-3.56.42-5.22-.23.2,0,.47-.12.31-.12l-1.41.12c.11.23.18.14.48.32-.18.14-.58.24-.93.24.63-.15,0-.37-.28-.5.05.07-.05.15-.02.22-.74-.41-.12.47-1.13.19l.05-.12c-.38.06-.72.22-1.13.19-.17-.27.4-.12.43-.35-.57.01-1.13.51-1.64.24.24-.08.59-.08.83-.15-.56-.31-.63-.23-1.04-.28h.04s-.97-.13-.97-.13l.25.08c-.71.7-1.45.13-2.42.58.93-.43.15-.25.23-.55-.25-.08-.62-.18-.51-.26-.46.24-.76-.19-1.4.17-.03-.1-.49,0-.38-.26-.59.08.14.17.09.29-.91.33-2.14-.4-3.45.05-1.13.19-1.34.52-2.39.68-.35-.16.29-.35.29-.35-.57-.14-1-.12-1.54,0,.11-.08,0-.16-.17-.27-.43.03-.29.35-.86.21.1-.11.22-.28.43-.39-.51.09-1.01.27-1.54.36-.14-.17.32-.26.5-.37-.59.08-1.53.15-1.72.42l.38.1c-.22.01-.11-.23.05-.28.51-.21.73.09.76.19l-.38.06c.39.57,1.51-.09,2.26-.06l-.32.42.77-.35c.16.11.28.34-.1.4.54.21.48-.15.94.08.05.04.03.06-.02.07l.53-.12c-.1.09.09.29-.24.23.95.24,1.53-.31,1.89,0l-.08.03c1.32-.14.13-.31,1.12-.66l.66.75.13-.31c.14.01.4.03.35.16.51-.21-.09-.13.21-.33.65.28,1.8-.13,1.95.36.23-.23-.62-.18.07-.34.2.52.81-.09,1.4.15-.18.27-.75.13-.15.37.36-.46,1.16.1,1.67.01.02-.36,1.1-.15,1.94-.27-.05.12,1.59.2,2.38.33l-.02.06c.15-.37.96-.3,1.55-.37-.02.22-.13.31-.45.4h.56c.13-.12.3-.18.66-.22l-.14.27c.74-.01,1.49-.32,2.44-.14.05-.26-.76-.71.25-.89.04.14.07.38-.19.43.09-.02.31-.12.48-.06l-.4.23c.43.1.23-.19.57-.17,0,.2.26.14.21.3-.09.02-.3-.08-.43,0,.39.03.86.15,1.02.3-.04-.11,0-.27.29-.29.74-.01.25.24.68.34.18-.14.65,0,.66-.29.22,0,.26.14.34.22.38-.13,1.79-.04,1.36-.35l-.1-.02s.04,0,.06-.01h0,0c1.25-.29,2.61.17,3.85.04v.1c.74-.11,1.65-.07,2.18-.28.22,0,.52.18.43.3.57-.07.63-.19,1.45-.02-.57.17.2.15-.58.13.74.08.9.24,1.7-.03-.27.25.56.32.91.24l-.52-.18c.39-.04.74-.01,1.09,0l-.19.33c1.51.4,2.72-.69,3.87-.01.4-.23-.82-.16-.46-.44.69.04,1.42.52,1.64.52.95.18.89-.49,1.88-.36-.13-.12-.25-.44.5-.55.69.04.85.5.41.59-.17,0-.25-.03-.24-.07-.23.04-.52.09-.24.22l.09-.12c.35.12,1.3.11,1.08.3.53-.11.23-.19-.16-.26.89.17,1.39,0,2.31.12-.15-.06-.28-.2-.14-.2,1.35.15.59-.23,1.51-.28.52.18-.19.43.73.28.56.12.12.31-.1.41.84-.23,1.56.15,2.04.19l-.44.1c.26-.06.48-.06.7-.06l-.25-.24c.26.04.48.04.47.14.27-.15-.2-.39.33-.61.35.12,1.05-.13,1.17.18-1.08-.11.12.32-.8.37.18-.04.39-.04.65,0,.04.03-.04.06-.11.08,1.04.28.48-.36,1.55-.35-.14.18.25.34.43.3-.43,0-.21-.3.19-.43.69.14.75-.1,1.11-.09l-.41-.06c.14-.18.48-.15.96-.21.04.14-.44.09-.26.16.53-.31,1.21.32,1.95.11.35.12.03.33.34.42.83-.23.9.24,1.78.05-.25-.24-.3-.18.32-.41l-1.44.17.92-.35c-.44,0-.92.15-1.18.11.44-.19.39-.13.19-.33.6.36,1.18-.21,1.87.03l-.02.59c1.04.26,1.84-.3,3.18-.15l-.43-.1c.18-.24.83-.03,1.26-.13-.04.2.23.27.42.39-.02-.15.98.01,1.11-.38l.6.26c1.08.11,1.24-.56,2.28-.5-.31.22.16.35-.54.51.35,0,.66.04.67-.1.2.12.97-.26,1.29-.08.15-.09.19-.29.58-.28.04.04,0,.1,0,.1,0-.1.61-.13.27-.35,1.07.62,3-.05,3.93.48.76-.07,1.68-.13,2.36-.14-.04.06,0,.1-.13.08.95.18.58-.57,1.67-.36.55.32-.57.17-.23.29.15.65,1.31-.09,2.03.29l-.18.04c.56.22,1.36-.25,2.27-.2,0,0-.04.06,0,.1.62-.33,1.8-.44,2.68-.53-.27.25-.4.13-.23.39.39-.04-.11-.41.67-.49.26.14.82.26.9.54h-.74c.38.37.96,0,1.34.06l-.05.16c1.13-.05,1.15-.44,2.36-.42l-.13-.12c.67-.39.56.22,1.22-.07l.2.4c.44-.1,1.54-.38,2.32-.46-.45.29-1.37.44-1.94.62.44,0,1.48-.03,1.7-.22-.18.04-.4.13-.57.07.53-.31,1.24-.46,2.1-.46-.15.76,2.26.19,2.89.79,1.53-.28,3.04.12,4.83.08-.63-.6.52-.02.41-.63.42-.04.58-.03.61.01l1.26.37c.3.18-.4.13-.36.27.91.05.38.26.98.42-.12-.22.32-.31.84-.23l-.73-.28c1.27-.33,1.1.51,2.38.19l-.41.19c.66-.11,2.43,0,3.08-.49.12.07.27.24-.02.28,1.57.07,3.5-.52,4.73-.22l-.12.15c.29-.04.51-.28.88-.13-.02.06-.12.15.02.16.16-.05.78-.26,1.17-.18l-.33.17c1.54.2,2.36-.41,3.64-.51,0,.44,1.2.58,1.81.65l-.02.06c1.79.05,3.04-.37,4.69-.54,1.03.48,3.48.2,5.13.47-.25-.08.04-.34.34-.39.39.09,1.07-.31,1.01.1h-.14c.29.39,1.09.28,1.71.29l.1-.53c1.63.77,4.26-.28,5.15.41.39-.13.88-.13,1.27-.26l-.02.28c1.09.07,1.63.11,2.97.04l-.27.2c.76.02.96-.82,1.66-.83l.21.42c1.31-.01,2.67.38,4.01-.06-.02.06-.05.19-.27.21.63,0,2.49.16,2.22-.41.05.38,1.4-.08,2.1-.35l-.08.29c.57-.43.57-.53,1.4-.76.21,0,.21.19-.07.17.69.03.48-.34,1.3-.35l-.27.23c.69-.11.61-.2.94-.48.4-.19,1.29-.22,1.45,0,.06-.17.37-.46.79-.49.08.08-.05.17-.12.22,1.17-.1,1.58-.74,2.41-.69.04.08.1.12.17.12-.88.24-1.6.4-1.54.37.06.25.79.1.31.6.53-.33,1.4-1.02,2.11-1.08.04.02.08.03.11.06l-.06.05c.17-.02.3-.08.42-.15.23-.02.38-.02.59-.08.13.18.83-.1,1.19-.17-.1-.27.38-.33-.11-.46.06,0-.06.05-.29.12-.05.02-.11.04-.14.06l.02-.03c-.23.06-.53.15-.87.24.24-.21.5-.41.93-.35.14-.22.29-.45.39-.56.58.26,1.56.24,1.74.45,1.05-.4,2.53-.67,3.11-1.32.3-.13.39.07.52.13-.17.09-.38.12-.46.22.59-.26,1.83-.42,1.9-.81.82.01-.38.42.69.15l-.12.14c2.22.17,3.28-1.57,5.78-1.24-.17-.02-.26-.02-.3-.08,2.75-.15,5.5-1.27,8.25-1.26.78-.04.81-.29,1.24-.55l.22.26.72-.49c1.06-.48,2.09.34,3.39-.46l-.23-.16c.51-.08,1.57-.47,1.54-.23.04-.05.12-.25.34-.19l.05.15,1.17-.57c.99-.13,0,.65,1.41.31.51-.2,1.36-.84,1.13-.89-.21.05-.56.05-.62-.1l.45-.21c-.04-.47.19-1.03-1.04-1.03l-.72.49-.31-.15.67-.19c-.43-.1-.63.14-.86.34-.09-.1-.23-.15-.4-.16l-.68.62c-.14-.15.27-.44-.29-.41-.32.29.45.31-.13.59-.43-.11-.36-.31-.77-.02-.09-.1-.01-.2.15-.29-.37.24-1.05.3-1.21.59-.46-.16-1.35.37-1.4-.07-.11.13-.64.49-1.01.58.57-.66-1.4.26-1.33-.34-.41.56-1.78.57-2.63.99.04-.05.13-.14.21-.13-.51.05-.69-.06-1.03-.09,0,.4-.77.63-1.15.94-.69-.26.3-.52.04-.84.09.31-1.02.5-.77.73-.52-.15-.43-.04-.73-.31,0,.5-.43.16-.77.53-.73-.12-.26-.42-.99-.14-.39-.08.26-.37.26-.37"/>
    <path class="cls-1" d="M166.93,8.4s.05-.03.09-.04c-.05-.01-.1-.02-.15-.03-.02.04-.04.07-.06.1.04-.01.09-.02.12-.03"/>
    <path class="cls-1" d="M27.63,10.79h.03s-.05-.02-.07-.03c.02.01.02.02.04.03"/>
    <polygon class="cls-1" points="142.1 9.16 142.24 9.1 142.1 9.09 142.1 9.16"/>
    <polygon class="cls-1" points="72.28 8.96 72.37 8.96 72.28 8.95 72.28 8.96"/>
    <polygon class="cls-1" points="37.76 9.77 38.33 9.69 37.95 9.53 37.76 9.77"/>
    <polygon class="cls-1" points="40.73 11.52 40.56 11.55 41.21 11.46 40.73 11.52"/>
    <path class="cls-1" d="M76.41,11.42l-.12-.31c-.26.06-.32.41.12.31"/>
    <path class="cls-1" d="M91.82,11.1c.17.16.6.26.87.1-.35-.02-.69-.14-.87-.1"/>
    <polygon class="cls-1" points="137.71 11.72 138.29 11.63 138.02 11.62 137.71 11.72"/>
  </g>
</svg>