<?xml version="1.0" encoding="UTF-8"?>
<svg id="Layer_2" data-name="Layer 2" xmlns="http://www.w3.org/2000/svg" viewBox="0 0 299.73 5.86">
  <defs>
    <style>
      .cls-1 {
        fill: #ffebca;
      }
    </style>
  </defs>
  <g id="Layer_1-2" data-name="Layer 1">
    <path class="cls-1" d="M249.47,4.71c-.38.05-.51,0-.56-.03.18,0,.38-.02.66-.05.01,0,.03-.02.04-.02-.03.04-.07.07-.14.1M244.53,3.43c.28.01.63.02,1,.02.08.07,0,.13-.24.13.13-.04-.41-.09-.76-.15M246.83,3.44h0c.23-.01.43-.01.56-.02-.12,0-.28,0-.56.02M273.96.82c-1.22.11-.53.3-.75.46-1.42.23-.7-.11-1.23-.17-.91.19-1.44.5-2.09.58-.06-.03-.18-.03-.05-.1-.85.32-2.65.31-3.67.62-.08-.02-.12-.04-.15-.05.19.11.23.24.21.33-.52.04-.95.22-1.16.06.32-.01.34-.08.48-.14l-.54.1c-.51-.21.74-.12.72-.3-1.04.14-2.28.37-3.1.32-.18-.22,1.9-.12.81-.3l1.26.05c-.99-.32.76,0-.15-.36-1.64,0-1.83.17-3.48.11-.38.13.13.19-.26.32-1.24.12-1.72.02-2.14-.1-.42-.11-.77-.21-1.64.02-.43.2-.55.5-1.83.5l.37-.31c-1.63.17-.84.48-2.56.51.27-.13,1.24-.23.99-.24-1.13-.07-.73.24-1.57.33l-.22-.21c-1.67.23-3.47.49-5.38.53.11-.07.43-.14-.01-.21-1.19.06-2.48.03-3.76-.02-1.27-.06-2.62-.12-3.71-.21l-.88.17c-.2-.01-.37-.11-.14-.14-.88-.11-.06.12-.49.18-.51-.01-.65-.15-.33-.19-1.58.1-4.54,0-6.19-.38l.34-.03c-1.3-.21-1.56.26-2.75-.02l.24-.02c-1.43-.15-2.97-.25-4.45-.22-1.46.02-2.79.07-3.85-.08-.2.15-.88.12-1.51.07-.64-.05-1.21-.13-1.35.05-.7-.2-.97-.34-1.32-.46-.35-.12-.77-.27-1.94-.51-.64-.11-1.02.11-1.81.09v-.21c-.36.05-.73.09-1.09.15l-.56-.27-.74.04c.29.01.62.1.58.16-1.17.08-2.73-.15-2.77-.26l-2.63.17c.06-.08.5-.11.85-.16-1.4.2-.25-.22-1.54-.04.17.05-.1.12-.12.17-.64-.13-2.09-.15-3.17-.12l.21-.14c-1.94-.07-4.1-.02-6.28-.09.78.09.58.34-.06.34l-.24-.23c-.42.12.66.11-.2.24-.82-.05-.53-.27-.06-.33l-1,.04c-.05-.07.18-.09.25-.18-.42.12-1.68-.29-2.31-.07l-.05-.07c-2.24-.07-3.24,0-5.05.01-.03.19-.74.15-1.27.31-1.32-.04-2.79-.17-4.37-.11-1.11.12-.32.17-.81.29-.09-.17-1.66-.12-.85-.27-1.89.07-2.41.09-4.79.24.26.07.55.1.4.16-.43.03-.99-.07-.92-.15l.11-.02c-2.69.28-6.1-.64-8.26-.41h.12s-2.24.05-2.24.05c-1.02-.09.63-.09-.12-.24-2.43.15-3.8-.26-5.81-.13-.75-.28-2.16-.3-3.59-.26-1.42.03-2.91.09-3.95-.08l.12.12c-.53.12-.65-.07-1.04-.1.06.09.58.11.25.17-2.28.08-4.55.02-6.98-.04-2.52-.04-4.96.35-7.04.39-1.64.04-.87.66-3.04.45l.6-.25c-.89.09-1.78.18-2.68.27-.46.05-.92.11-1.39.19-.46.07-.95.18-1.32.25-1.59.31-3.23.47-4.83.67.19-.06.18-.13.5-.15-.69-.11-2.53.1-2.54.23-.51,0-.12-.12-.44-.18-.69-.09-1.75.22-2.12.05-.06-.03.2-.05.33-.06-.46.08-2.13-.04-1.7.15-1.25-.1-2.4.05-3.41-.06-.68.21-2.14-.11-2.35.18.1-.3-2.17-.29-2.98-.17.27-.09-.69-.11-.37-.23-.91-.02-1.75.02-1.6.18-1.68-.4-3.4.27-4.38-.16-1.39.13-2.71.29-4.01.51-1.31.24-2.5.56-3.64.88-.07-.32,2.6-.63,2.4-.89-2.3.57-3.38,1.22-5.54,1.61-.56.07.26-.19.42-.28-1.04.3-2.06.49-3.01.54-.99.06-2,.04-3.01.08,0-.03.23-.05.43-.07-.39,0-.91-.08-.88.06l.39-.02c.62.23-1.62.35-1.71.45.73-.37-2.03-.19-.89-.64-.27.02-.62.07-.56.17-.4-.04-.53-.09-.12-.19-1.51.06-.95.22-2.27.21,0-.07.27-.09.4-.17-.66.13-1.33.26-2.43.2.07-.04-.06-.09.27-.09-1.9.02-3.24.35-5.32.22.61-.29-.71-.1-.82-.35l-1.12.08.45.12c-.98,0-1.85.18-2.69.1l.73-.1-1.84.05,1.04.1c-.99.13.11.32-1.2.25.27-.03-.98,0-1.49-.15h0c-.49.08-.98.16-1.71.1-.19-.08.15-.28.03-.33-.48.21-2.3.06-2.9.28.2-.05.21-.18.15-.21l-.4.17c-.45-.06-.52-.08-.45-.19-1.37-.03.43.32-1.19.18.13-.01.07-.04.33-.07-1.63-.07-3.15.11-4.64.02-.44-.26,1.31-.06.8-.28-2.16.05-4.47.31-6.55.25l.39.03c-.29.36-1.55-.18-2.61,0,.26-.03.34-.2.27-.16-1.43-.06-2.92.09-5.09.2l.27-.09c-.84-.08-2.22-.05-3.13-.09-.27.09-.79.08-.47.21-2.81-.53-5.35.28-7.85-.16.3,0,.71-.08.47-.08-.7.03-1.43.06-2.14.1.17.15.28.09.73.21-.27.1-.86.18-1.39.19.95-.12-.02-.25-.43-.33.07.05-.07.1-.03.15-1.11-.27-.18.33-1.69.14l.08-.08c-.56.04-1.09.13-1.69.07-.22-.2.6-.05.66-.19-.82-.02-1.72.2-2.43-.09.37,0,.88.07,1.24.06-.77-.3-.86-.27-1.46-.4l.06.02-1.37-.34.34.12c-1.19.28-2.19-.31-3.71-.09,1.46-.19.26-.15.39-.35-.37-.09-.97-.17-.79-.22-.75.15-1.17-.13-2.13.11-.04-.07-.72-.01-.57-.18-.88.04.2.12.13.2-1.37.21-3.18-.34-5.16-.1-1.71.06-2.04.27-3.62.34-.53-.12.45-.23.45-.23-.85-.12-1.5-.12-2.32-.06.17-.05,0-.11-.25-.18-.65,0-.44.24-1.3.13.15-.07.34-.19.66-.26-.78.06-1.53.18-2.32.24-.21-.11.48-.17.76-.25-.89.05-2.31.1-2.58.29l.57.07c-.32,0-.17-.16.07-.19.76-.14,1.1.06,1.14.13l-.56.04c.58.39,2.26-.07,3.41-.03l-.48.28,1.17-.22c.25.08.41.24-.15.27.81.16.72-.09,1.41.09.08.03.04.04-.03.05l.8-.06c-.16.05.12.2-.36.15,1.41.2,2.31-.13,2.83.1h-.12c1.98,0,.21-.19,1.71-.38l.96.54.21-.2c.2.01.61.04.53.12.77-.12-.12-.09.32-.22.98.22,2.71-.04,2.93.29.35-.16-.94-.13.11-.23.3.36,1.22-.08,2.1.12-.29.17-1.09.06-.24.24.56-.3,1.67.19,2.39.25.11-.25,1.61.18,2.9.3-.05.03.53.16,1.29.27.77.11,1.71.17,2.31.21l-.04.04c.24-.24,1.46-.21,2.35-.28-.03.15-.18.21-.67.29l.83-.02c.19-.08.45-.13.99-.16l-.2.19c1.09-.02,2.23-.22,3.66-.1.08-.17-1.14-.48.38-.6.06.09.11.25-.28.29.13-.01.46-.08.72-.04l-.6.16c.65.07.34-.13.86-.12-.01.13.39.09.31.2-.13.01-.45-.06-.65,0,.59.02,1.3.1,1.53.2-.05-.08,0-.18.43-.2,1.11-.01.38.16,1.03.23.27-.09.98,0,1-.2.32,0,.38.09.51.15.57-.09,2.69-.03,2.04-.24h-.15s.06-.02.09-.02h0,0c1.89-.2,3.92.11,5.79.03v.07c1.11-.08,2.48-.05,3.28-.19.33,0,.78.12.64.2.85-.05.95-.12,2.18-.01-.86.12.3.1-.88.09,1.11.06,1.36.16,2.55-.02-.4.17.84.22,1.36.16l-.78-.12c.59-.03,1.11-.01,1.64,0l-.29.23c2.27.27,4.09-.47,5.82,0,.6-.16-1.23-.11-.7-.3,1.04.03,2.13.35,2.46.36,1.43.12,1.33-.33,2.83-.25-.19-.08-.37-.29.75-.37,1.04.03,1.28.34.62.4-.25,0-.37-.02-.36-.05-.34.03-.78.06-.37.15l.14-.08c.52.08,1.96.07,1.62.21.79-.08.34-.13-.25-.17,1.34.12,2.09,0,3.47.08-.22-.05-.42-.14-.2-.14,2.02.1.89-.15,2.26-.19.78.12-.28.29,1.1.19.84.08.18.21-.16.28,1.26-.15,2.35.1,3.07.13l-.66.06c.4-.04.72-.04,1.05-.04l-.38-.16c.39.03.72.03.71.1.4-.11-.31-.27.49-.41.51.08,1.59-.09,1.75.13-1.61-.08.18.21-1.19.25.27-.03.59-.02.98,0,.06.02-.05.04-.16.06,1.48.21.68-.24,2.27-.17-.21.11.35.24.62.23-.65-.03-.29-.22.31-.28,1.03.14,1.14-.02,1.69,0l-.63-.06c.22-.11.74-.07,1.48-.11.06.09-.67.06-.41.1.81-.2,1.88.24,3.07-.06.56,0,.12.22.61.2,1.23-.37,1.46-.1,2.7-.52-.44-.07-.48-.01.34-.38-.67.2-1.36.41-2.07.59.44-.17.86-.35,1.27-.52-.63.15-1.31.4-1.71.44.61-.25.55-.2.2-.27.98.06,1.66-.51,2.71-.6l.15.39c1.55-.18,2.49-.87,4.41-1.04-.21,0-.41.01-.62.02.21-.21,1.16-.19,1.79-.31-.04.14.37.15.65.22-.05-.11,1.43-.08,1.59-.35l.89.15c1.6.05,1.83-.4,3.39-.34-.47.14.23.24-.81.33.52,0,.99.04,1-.05.3.09,1.45-.15,1.93-.01.22-.05.3-.19.89-.17.06.03,0,.07,0,.07,0-.07.92-.07.42-.23,1.6.47,4.52.01,5.9.4,1.14-.03,2.52-.06,3.56-.06-.07.04,0,.07-.2.05,1.44.12.88-.38,2.52-.27.85.2-.87.14-.34.21.25.44,1.98-.11,3.12.06l-.27.04c.88.09,2.06-.33,3.44-.51,0,0-.06.05.01.07.44-.18,1.1-.38,1.76-.57.65-.19,1.39-.32,2.02-.41-.37.21-.56.15-.29.3.56-.08-.23-.27.92-.41.39.06,1.24.11,1.36.3l-1.09.06c.57.21,1.4-.07,1.99-.05l-.07.11c1.71-.1,1.72-.33,3.58-.48l-.21-.06c.95-.36.87.06,1.81-.25l.36.23c.63-.14,2.2-.52,3.36-.58-.65.2-1.96.41-2.77.62.64-.08,2.13-.22,2.45-.35-.25.03-.56.12-.82.1.74-.28,1.77-.38,3.09-.37-.23.52,3.4.13,4.34.53,2.29-.19,4.6.07,7.23.06-.93-.42.77,0,.63-.42.62,0,.86,0,.91.03l1.86.32c.43.14-.6.07-.55.16,1.35.09.55.2,1.43.35-.17-.16.49-.19,1.26-.09l-1.07-.25c1.92-.12,1.6.44,3.54.33l-.62.09c.99-.02,3.65.22,4.66-.07.17.06.4.18-.05.19,2.39.18,5.35-.2,7.19-.01l-.18.1c.45-.03.77-.2,1.33-.1-.03.04-.18.1.03.11.24-.04,1.17-.19,1.76-.15l-.5.12c2.32.09,3.53-.35,5.46-.46,0,.3,1.82.36,2.71.41l-.03.04c2.66.01,4.49-.24,6.98-.25,1.52.39,5.24.32,7.72.55-.38-.06.07-.23.51-.25.58.07,1.62-.18,1.52.09h-.21c.43.27,1.64.21,2.58.23l.16-.36c1.22.27,2.83.23,4.3.17,1.44-.07,2.71-.06,3.29.24.56-.04,1.25.06,1.83.06l-.09.18c.77.16,1.35.28,1.97.41.7.14,1.51.24,2.6.27l-.46.11c1.26.08,1.57-.5,2.64-.53l.34.28c1.01-.03,2.01-.02,2.96,0l1.4.03c.48.01.97,0,1.45-.03-.04.04-.1.12-.42.11.91.05,3.5.48,3.24.06-.02.25,2.02.22,3.11.21l-.2.17c.95-.16.99-.22,2.26-.18.3.05.24.17-.15.09.99.17.81-.12,2.02.06l-.47.09c1.04.07.97,0,1.55-.12.65-.05,1.98.08,2.12.25.14-.1.7-.24,1.3-.19.08.07-.14.1-.25.12,1.71.15,2.56-.18,3.74.01.02.06.1.09.2.11-1.38-.02-2.47-.05-2.37-.06,0,.17,1.1.22.21.45.89-.12,2.42-.38,3.51-.31.05.02.11.03.15.06l-.11.02c.25.02.48,0,.69-.04.35.02.57.04.91.03.13.14,1.32.03,1.89-.01-.07-.18.67-.21-.04-.32.09,0-.1.03-.48.06-.08.01-.18.02-.24.03l.04-.02c-.37.02-.86.05-1.4.07.44-.11.89-.21,1.52-.14.27-.14.57-.29.74-.36.8.21,2.29.19,2.52.32,1.66-.31,3.86-.54,4.84-.97.46-.08.55.06.73.11-.26.05-.58.07-.72.13.92-.18,2.72-.16,2.96-.4,1.21.11-.68.23.99.19l-.23.08c1.65.19,3.01-.02,4.36-.25,1.37-.24,2.74-.5,4.59-.49-.26,0-.38,0-.45-.03,1.05-.08,2.05-.22,3.07-.33,1.02-.11,2.06-.2,3.1-.27,2.08-.13,4.18-.15,6.21.03,1.15.08,1.28-.09,1.98-.2l.24.21c.39-.08.79-.15,1.2-.22,1.71-.13,2.9.61,5.1.36l-.27-.15c.78.06,2.47-.02,2.34.13.08-.03.26-.14.56-.07l.02.11c.64-.06,1.29-.14,1.92-.23,1.51-.01-.2.47,2.04.29.37-.05.87-.2,1.26-.33l.56-.19-.02-.22c-.03-.38-.1-.66-.19-.55-.05.16-.15.39-.25.49l-.16.16h-.04c-.08-.02-.14-.04-.15-.07l.13-.03.1-.02v-.06s.05-.44.05-.44c-.36-.13-.68-.51-1.18.29l.76-.58c-.13,0-.29,0-.48,0-.36.13-.74.22-1.12.33l-.41-.12c.33-.03.66-.06.99-.11-.58-.07-.91.07-1.31.19-.11-.07-.28-.12-.52-.14-.38.12-.77.23-1.17.34-.15-.12.52-.26-.27-.31-.56.14.55.27-.39.37-.59-.14-.42-.26-1.11-.14-.1-.08.05-.13.33-.17-.61.1-1.63.01-1.96.17-.61-.19-2.11-.03-2.02-.33-.2.06-1.12.19-1.7.18,1.09-.32-2.17-.09-1.88-.46-.83.31-2.83.13-4.23.31.08-.02.23-.08.35-.06-.78-.03-1.01-.12-1.51-.18-.1.27-1.32.34-1.97.52-.97-.23.57-.32.26-.56.06.21-1.67.26-1.33.43-.75-.13-.64-.05-1.04-.26-.1.34-.69.09-1.28.34-1.1-.08-.32-.3-1.49-.09-.58-.04.46-.26.46-.26"/>
  </g>
</svg>