<?xml version="1.0" encoding="UTF-8"?>
<svg id="Layer_2" data-name="Layer 2" xmlns="http://www.w3.org/2000/svg" viewBox="0 0 272.74 6.7">
  <defs>
    <style>
      .cls-1 {
        fill: #ffebca;
      }
    </style>
  </defs>
  <g id="Layer_1-2" data-name="Layer 1">
    <path class="cls-1" d="M45.69,3.81c.33.03.44-.03.49-.08-.16,0-.34,0-.58-.02-.01,0-.03-.02-.04-.03.03.05.07.1.14.14M50.07,1.77c-.26.02-.57.03-.91.03-.07.1.01.2.22.19-.12-.06.38-.13.69-.22M47.97,1.81h0c-.22,0-.4,0-.52,0,.11,0,.26,0,.52,0M22.93,1.48c1.07-.03.52.35.76.56,1.28.08.58-.28,1-.48.8.08,1.43.41,2.03.38.04-.06.16-.09.02-.16.86.28,2.51-.04,3.5.31.07-.03.11-.07.12-.09-.15.19-.17.38-.13.51.48,0,.9.22,1.07-.03-.29.01-.32-.08-.46-.16l.51.09c.44-.36-.69-.11-.7-.36.99.09,2.14.36,2.89.24.14-.34-1.76-.08-.77-.4l-1.16.15c.87-.55-.71.05.09-.54,1.53-.13,1.72.14,3.24,0,.35.18-.1.28.25.46,2.18.29,1.68-.89,3.29-.47.42.22.59.64,1.72.39l-.4-.38c1.48-.07.86.53,2.4.24-.28-.15-1.17-.1-.94-.15.99-.33.72.2,1.49.19l.15-.34c1.58.02,3.32.23,5.07.25-.1-.1-.4-.2,0-.31,2.21.12,4.7-.14,6.81-.39l.82.28c.19,0,.35-.14.14-.19.82-.13.05.18.45.29.47.01.62-.18.31-.26,1.47.22,4.18.45,5.71.1l-.3-.08c1.19-.14,1.37.57,2.47.28l-.22-.05c2.6-.18,5.48.03,7.45-.46.39.41,2.57-.24,2.75.34,1.48-.32,1.05-.42,3.13-.66.56-.04.85.35,1.54.4v-.31s.95.3.95.3l.49-.38.65.07c-.26.02-.54.15-.5.24,1.02.12,2.46-.27,2.48-.43l2.4.21c-.06-.12-.46-.16-.78-.23,1.29.29.22-.33,1.4-.07-.15.07.09.18.12.24.58-.2,1.9-.23,2.89-.17l-.2-.21c1.77-.09,3.75.02,5.74-.02-.71.11-.53.48.05.5l.22-.33c.38.19-.61.14.18.37.74-.05.49-.38.06-.48l.91.09c.05-.1-.16-.14-.22-.27.38.2,1.55-.36,2.1-.02l.05-.1c1.99-.04,2.9.05,4.52.03.04.28.67.2,1.17.42,1.19-.11,2.5-.36,3.94-.37,1.01.12.31.23.77.39.06-.26,1.5-.26.75-.43,1.71.01,2.21-.01,4.46.2-.25.1-.52.15-.38.23.4.05.92-.1.87-.22l-.11-.03c2.46.41,5.86-.49,7.74.21l-.1-.03,1.97.45c.93.04-.52-.24.19-.34,2.09.62,3.43.26,5.14.7,1.5-.62,4.81.44,6.72.01l-.12.17c.48.2.61-.08.98-.1-.07.14-.55.13-.26.25,4.14.41,8.58.36,12.73.49,1.51.05.73.98,2.69.67l-.5-.36c3.03.58,6.14.21,9.17.46-.19-.07-.19-.17-.49-.16.63-.25,2.38-.06,2.4.13.47-.03.1-.18.39-.28.64-.15,1.63.27,1.97.03.06-.04-.19-.07-.3-.09.42.11,1.96-.07,1.57.21,1.14-.16,2.19.08,3.1-.11.6.3,1.95-.19,2.15.24-.11-.45,2.02-.41,2.76-.19-.25-.14.64-.14.35-.33.84,0,1.61.1,1.46.33,1.58-.52,3.07.51,3.99-.14,2.46.35,4.7.66,6.88.91-.02-.46-2.42-.2-2.27-.67,2.05.31,3.25.8,5.25.8.52-.04-.27-.21-.43-.3,1.95.29,3.87.02,5.73.24,0-.04-.21-.08-.4-.12.36,0,.85-.08.81.12l-.36-.05c-.58.31,1.47.59,1.54.75-.64-.58,1.85-.17.84-.9.25.03.56.13.5.27.36-.04.48-.12.11-.28,1.34.11.86.33,2.08.35,0-.1-.24-.14-.37-.26.62.21,1.21.41,2.26.4-.05-.06.08-.13-.23-.15,1.82.14,2.94.86,4.77.91-.43-.49.66-.07.84-.42.31.08.63.15.95.21l-.43.14c.86.08,1.58.42,2.35.35l-.62-.2,1.62.18-.94.08c.86.25-.16.47,1.03.43-.24-.05.89.04,1.37-.16h0c.43.13.87.27,1.53.2.18-.12-.11-.41,0-.49.41.32,2.06.12,2.6.45-.18-.08-.19-.28-.13-.32l.36.26c.41-.08.47-.12.4-.28,1.23-.06-.39.48,1.07.26-.12-.02-.06-.06-.3-.09,1.47-.12,2.85.12,4.2-.04.38-.38-1.19-.06-.74-.39,1.95.02,4.07.34,5.96.19l-.35.05c.29.52,1.4-.3,2.38-.08-.24-.03-.32-.29-.26-.23,1.31-.12,2.66.07,4.64.2l-.25-.13c.76-.14,2.01-.11,2.84-.19.25.13.72.1.44.3,2.52-.83,4.88.31,7.12-.38-.27,0-.65-.11-.43-.11l1.93.08c-.14.23-.25.15-.65.33.25.13.8.23,1.27.22-.87-.13,0-.37.37-.51-.06.07.07.15.04.22.99-.43.18.46,1.55.16l-.08-.12c.52.05,1,.2,1.55.15.22-.27-.55-.11-.59-.33.78,0,1.55.47,2.25.19-.33-.07-.81-.06-1.14-.13.76-.33.85-.25,1.42-.31h-.06s1.31-.16,1.31-.16l-.33.09c1,.68,1.99.09,3.32.51-1.29-.4-.22-.25-.33-.55.33-.09.84-.2.69-.28.63.23,1.03-.21,1.92.12.04-.1.66-.02.52-.27.81.06-.19.17-.11.29,1.26.31,2.91-.47,4.71-.05,1.55.15,1.85.48,3.28.61.48-.17-.41-.35-.41-.35.78-.16,1.36-.14,2.1-.05-.15-.08,0-.16.22-.27.59.01.41.35,1.18.19-.14-.11-.31-.28-.6-.38.7.08,1.39.24,2.11.32.19-.17-.44-.25-.7-.35.81.06,2.1.11,2.36.37l-.52.11c.3,0,.14-.23-.07-.28-.7-.2-.99.11-1.03.21l.51.05c-.51.58-2.06-.05-3.09,0l.44.41-1.07-.32c-.22.11-.37.35.14.4-.73.22-.66-.13-1.29.11-.07.04-.04.06.03.07l-.73-.11c.14.08-.11.3.33.23-1.29.27-2.1-.27-2.58.06l.11.02c-1.8-.1-.18-.3-1.54-.63l-.88.77-.19-.3c-.19.02-.55.05-.48.17-.7-.19.11-.13-.29-.32-.88.3-2.47-.08-2.65.41-.33-.22.85-.2-.11-.34-.25.53-1.1-.07-1.91.19.26.27,1.03.11.22.36-.51-.45-1.58.13-2.28.06-.04-.36-1.5-.12-2.66-.22.08.12-2.17.25-3.24.4l.03.06c-.22-.36-1.33-.27-2.13-.33.04.22.19.3.63.39h-.76c-.18-.1-.42-.16-.92-.19l.2.27c-1.01,0-2.04-.28-3.34-.07-.08-.26,1.01-.74-.37-.88-.05.14-.09.38.27.43-.12-.02-.42-.11-.66-.04l.56.22c-.59.12-.32-.19-.79-.16.01.2-.35.15-.27.3.12.02.41-.09.59-.02-.53.05-1.17.18-1.38.33.04-.11,0-.27-.4-.28-1.01,0-.34.24-.92.36-.25-.13-.89.02-.92-.27-.3,0-.35.15-.46.23-.53-.12-2.44.01-1.86-.31l.13-.02s-.05,0-.09-.01h0,0c-1.72-.26-3.55.24-5.25.15v.1c-1.01-.09-2.25,0-2.98-.2-.3.01-.7.2-.56.32-.78-.05-.87-.16-1.98.04.79.15-.26.16.81.1-1,.12-1.22.28-2.32.04.38.24-.75.34-1.23.27l.7-.2c-.54-.02-1.01,0-1.49.04l.27.33c-2.08.45-3.75-.63-5.35.03-.55-.24,1.14-.16.65-.43-.95.05-1.98.5-2.28.49-1.34.14-1.2-.51-2.59-.46.19-.11.39-.42-.62-.58-.95-.02-1.24.41-.65.55.23.03.35,0,.34-.04.3.06.71.13.31.24l-.11-.12c-.49.09-1.82-.02-1.54.2-.71-.17-.28-.22.27-.24-1.27.07-1.93-.16-3.23-.2.22-.04.44-.16.24-.18-1.89-.09-.76-.33-1.98-.55-.75.08.09.45-1.03.14-.74.03-.22.29.02.42-.97-.37-1.98-.06-2.58-.04.18.04.37.08.54.13-.32-.08-.6-.09-.88-.1l.35-.22c-.34.02-.62.01-.62.11-.34-.16.3-.39-.38-.62-.46.1-1.4-.15-1.56.16,1.44-.1-.16.31,1.05.38-.23-.04-.52-.04-.86,0-.05.03.05.07.14.08-1.37.28-.62-.36-2.07-.34.19.18-.33.34-.57.31.59-.01.27-.3-.27-.43-.93.15-1.02-.08-1.52-.06l.56-.07c-.2-.17-.67-.14-1.33-.19-.05.14.6.09.37.15-.74-.3-1.66.35-2.7.13-.49.11-.06.33-.49.41-1.16-.26-1.32.21-2.55-.05.38-.21.43-.15-.38-.44.63.1,1.33.2,2,.28-.43-.12-.86-.27-1.27-.41.61.03,1.28.22,1.65.18-.61-.21-.54-.15-.24-.34-.87.33-1.62-.29-2.58-.11l-.05.59c-1.44.17-2.45-.47-4.29-.43l.6-.07c-.21-.25-1.12-.1-1.7-.23.03.2-.34.25-.61.36.05-.15-1.32-.05-1.45-.45l-.83.23c-1.47.05-1.63-.62-3.05-.58.41.22-.23.35.7.52-.47,0-.89.02-.89-.12-.28.12-1.29-.28-1.73-.09-.2-.09-.26-.29-.79-.27-.06.04,0,.1,0,.1,0-.1-.83-.12-.37-.35-1.44.64-4.09.04-5.34.59-1.04-.04-2.29-.08-3.23-.08.06.06,0,.1.18.07-1.29.21-.82-.55-2.29-.31-.74.34.79.16.33.29-.18.65-1.79-.05-2.77.35l.24.03c-.74.23-1.89-.2-3.15-.16,0,0,.06.06,0,.1-.86-.32-2.48-.47-3.67-.61.35.27.54.15.29.4-.54-.06.19-.4-.87-.52-.36.12-1.15.21-1.29.47l1.02.07c-.56.33-1.32-.08-1.86-.05l.05.16c-1.55-.15-1.51-.54-3.18-.64l.19-.1c-.84-.46-.79.16-1.65-.2l-.34.37c-.58-.14-2.02-.55-3.08-.71.56.34,1.78.59,2.52.82-.59-.04-2-.19-2.27-.41.23.06.51.18.76.14-.67-.37-1.6-.59-2.77-.67.09.77-3.09-.02-4,.53-1.99-.37-4.21-.06-6.64-.31.96-.52-.71-.08-.46-.67-.56-.09-.78-.1-.84-.06l-1.78.21c-.44.14.51.18.43.32-1.25-.07-.57.21-1.42.29.21-.2-.37-.35-1.09-.33l1.04-.19c-1.66-.48-1.59.37-3.25-.11l.51.24c-.87-.19-3.25-.29-4.04-.82-.17.06-.4.21-.02.28-2.09-.08-4.62-.78-6.26-.47l.16.15c-.38-.05-.67-.28-1.16-.12.03.06.16.15-.02.16-.2-.05-1.05-.25-1.58-.15l.46.16c-2.09.24-3.24-.34-5-.41.02.44-1.62.62-2.44.71l.03.06c-2.44.11-4.16-.28-6.43-.4-1.39.51-4.74.3-6.99.62.34-.09-.07-.34-.47-.38-.53.1-1.47-.27-1.38.13h.19c-.39.39-1.48.31-2.32.34l-.16-.53c-2.19.82-5.83-.16-7.02.56-.54-.12-1.2-.11-1.74-.23l.04.28c-1.48.1-2.22.15-4.06.13l.38.19c-1.04.04-1.33-.79-2.29-.78l-.27.43c-1.81.03-3.62.44-5.42.1.03.06.09.18.38.19-.85.03-3.28.36-2.99-.23,0,.38-1.86.08-2.84-.07l.16.28c-.83-.34-.87-.44-2.02-.51-.27.04-.23.23.13.15-.9.17-.72-.25-1.81-.08l.42.17c-.93.04-.86-.06-1.38-.25-.59-.1-1.77.11-1.9.36-.13-.15-.65-.35-1.2-.26-.07.1.13.15.23.18-1.56.22-2.33-.27-3.4.02-.02.09-.09.14-.18.17,1.24-.03,2.24-.07,2.14-.09,0,.26-.99.32-.18.66-.81-.18-2.2-.57-3.17-.43-.05.03-.09.05-.13.09l.1.03c-.23.03-.43.01-.62-.03-.31.05-.51.08-.81.09-.11.21-1.15.14-1.64.16.03-.28-.62-.22-.02-.47-.08.02.1.03.43.04.08,0,.16,0,.21.02l-.03-.02c.33,0,.76,0,1.24,0-.4-.14-.82-.25-1.37-.08-.26-.17-.55-.36-.71-.44-.67.41-1.98.65-2.16.89-1.53-.13-3.6-.03-4.58-.54-.44-.06-.49.16-.65.25.25.05.55.03.69.11-.87-.12-2.57,0-2.79-.36-1.09.19.63.33-.88.3l.21.11c-2.93.65-4.84-.84-8.08-.02.22-.05.34-.07.38-.14-3.72.41-7.71-.16-11.36.45-1.04.13-1.17-.11-1.82-.27l-.21.31-1.11-.32c-.77-.1-1.4.15-2.03.4-.64.25-1.28.49-2.28.47l.15-.25c-.64.17-2.12.41-1.9.6-.08-.02-.32-.14-.52.03l.06.15-1.74.22c-1.19.47.54.52-1.3,1.09-.73.14-2.22.1-2-.07.28-.08.67-.28.62-.43l-.67.08c-.33-.41-.99-.74.33-1.43l1.18-.02.22-.31-.88.24c.38-.34.79-.25,1.21-.24.02-.14.12-.26.31-.36l1.27.1c.03-.2-.66-.19-.01-.49.6.05-.26.52.63.4.4-.35.17-.46.88-.47.03-.14-.14-.17-.41-.15.61-.02,1.52-.34,1.92-.17.47-.39,1.99-.33,1.8-.74.23.07,1.16.18,1.72.15-.56-.22-.04-.27.59-.34.64-.05,1.34-.09,1.18-.37.74.46,2.57.16,3.84.4-.07-.04-.21-.11-.32-.08.7-.05.9-.2,1.35-.3.11.39,1.22.46,1.82.69.84-.39-.55-.45-.3-.82-.03.32,1.52.29,1.24.56.65-.25.56-.12.89-.46.14.49.62.07,1.18.36.95-.26.22-.46,1.28-.34.49-.16-.45-.31-.45-.31"/>
  </g>
</svg>