<?xml version="1.0" encoding="UTF-8"?>
<svg id="Layer_2" data-name="Layer 2" xmlns="http://www.w3.org/2000/svg" viewBox="0 0 49.33 31.33">
  <defs>
    <style>
      .cls-1 {
        fill: #ffebca;
      }
    </style>
  </defs>
  <g id="Layer_1-2" data-name="Layer 1">
    <path class="cls-1" d="M49.33.32c0-.09-.09-.27-.17-.19l.06.34.11-.15Z"/>
    <path class="cls-1" d="M48.46.05c-.05.2-.04.51.16.75-.04-.33.05-.22,0-.62.08-.08.21.02.24.14,0-.09.17,0,.14-.21-.22-.18-.39-.11-.46.15-.07-.05-.07-.14-.09-.2"/>
    <path class="cls-1" d="M40.67,6.87l.07-.03s-.05.02-.07.03"/>
    <path class="cls-1" d="M37.47,12.5s0-.08-.03-.09c0,.05,0,.09.03.09"/>
    <path class="cls-1" d="M36.64,13.25s.03-.03.05-.04c-.04,0-.07.02-.05.04"/>
    <path class="cls-1" d="M40.67,6.87l-.18.09c.08.07.12-.03.18-.09"/>
    <path class="cls-1" d="M47.64,1.41s.03-.07.03-.12c-.02.03-.03.05-.05.08l.02.05Z"/>
    <path class="cls-1" d="M42.16,4.38l.03-.04s-.04-.08-.08-.12l.04.16Z"/>
    <path class="cls-1" d="M43.61,2.66s.14.24.22.33c-.06-.1-.08-.17-.06-.21-.04-.04-.09-.08-.16-.12"/>
    <path class="cls-1" d="M46.62.73l.03-.07s-.02.04-.03.07"/>
    <path class="cls-1" d="M41.14,5.61s-.07-.04-.09-.04c.03.02.06.03.09.04"/>
    <path class="cls-1" d="M35.31,14.7h0c0-.06,0-.04,0,0"/>
    <path class="cls-1" d="M24.26,28.27c.16.2.08.53.27.72-.05-.14-.15-.62-.27-.72"/>
    <path class="cls-1" d="M47.58,1.41s-.04.04-.07.05c.04-.01.06-.03.07-.05"/>
    <polygon class="cls-1" points="24.53 28.99 24.55 29 24.53 28.98 24.53 28.99"/>
    <path class="cls-1" d="M32.77,18.51s.09.03.13.04c-.02-.02-.06-.03-.13-.04"/>
    <path class="cls-1" d="M35.12,15.97l-.08.05s.06-.03.08-.05"/>
    <path class="cls-1" d="M32.03,20.21s-.09.02-.09.09c.01,0,.03,0,.04,0-.02-.04-.01-.08.05-.1"/>
    <path class="cls-1" d="M30.98,21.76s.04,0,.07,0l.02-.06-.09.05Z"/>
    <path class="cls-1" d="M47.56,1.28c.03.07.04.1.02.13l.04-.05s-.04-.07-.06-.09"/>
    <path class="cls-1" d="M33.81,21.54l-.2.21c.07-.05.14-.13.2-.21"/>
    <path class="cls-1" d="M33.16,22.49c-.11-.01-.19,0-.26.03.01.02.02.04.04.07l.21-.1Z"/>
    <path class="cls-1" d="M10.96,13.17c.09.03.08.1.04.15-.03-.03-.08-.05-.14-.08l-.03.02s.08-.06.12-.08M10.44,15.39c-.04-.06-.1-.12-.16-.18.06-.08.14-.14.17-.1-.07.02-.01.16-.01.27M10.05,15h0s-.08-.06-.11-.08c.02.02.05.04.11.08M4.61,11.67c.23.16.3-.23.47-.38.34.09-.02.31-.03.53.22.03.54-.17.66-.07-.02.06-.01.09-.08.14.34-.12.52.34.93.18,0,.04-.02.07-.03.09.08-.17.18-.33.27-.43.1.07.32-.05.21.17-.06-.05-.12.02-.19.06h.16c-.12.34-.21-.02-.36.19.25.05.66,0,.75.21-.19.29-.42-.2-.42.2l-.14-.28c-.16.55-.11-.13-.31.44.22.29.44.14.67.45.19-.09.16-.23.35-.32.65.11-.22.94.38.86.23-.1.55-.39.61-.03l-.33.22c.26.28.53-.26.66.19-.15.06-.31-.11-.3-.03-.01.4.28-.04.43.1l-.2.28c.33.23.83.37,1.2.64-.09.05-.22.08-.21.22.53.28.83.89,1.07,1.42l.36-.05s-.03.16-.11.16c.07.23.14-.12.3-.12.1.07-.01.23-.13.24.44.1,1.13.42,1.17.93h-.12c.12.31.68-.14.67.26h-.08c.36.58,1.06.97,1.06,1.66.38-.2.3.63.77.28.03.49-.12.47.08,1.01.07.13.42-.07.59.03l-.23.2.41-.02-.2.34.17.08c-.03-.06.01-.2.09-.25.28.11.26.64.13.74.19.1.38.18.57.3-.11.07-.2,0-.31,0,.44.06-.22.24.18.3.03-.07.16-.09.21-.12-.06.23.14.5.35.66l-.2.09c.22.4.65.73.95,1.17-.03-.21.3-.39.41-.29l-.23.24c.22-.04,0-.2.33-.18.08.18-.23.32-.38.29l.23.13c-.07.07-.15.05-.26.11.22-.04-.02.53.35.44l-.07.07c.31.43.55.57.83.91.23-.16.28.01.54-.02.12.31.17.73.44,1.02.28.13.23-.09.44-.1-.18.18.09.46-.18.43.34.33.43.43,1,.74.03-.12.01-.2.1-.24.1.05.09.26,0,.33h-.04c.37.11.52.52.69.91.09.19.19.38.31.52.03.04.06.07.1.09.06.04.11.07.17.09.11.05.23.08.35.09h-.05c.29.07.53.17.8.19.33.21-.26.09-.04.37.45,0,.72.14,1.04.29.29.13.65.4.85.29.01-.07.03-.14.04-.22.33.22.61-.51.88-1.11.08-.15.13-.29.23-.45.03-.06.07-.11.1-.16.09-.09.19-.16.35-.14l-.14-.11c-.05-.2.16-.02.24-.04-.1-.09-.19-.04-.22-.15.49-.79,1.82-1.12,2.79-1.82.35-.25-.44-.84.23-.89l.12.35c.35-.87,1.3-1.27,1.58-2.17.03.09.1.15.05.22.31,0,.43-.53.27-.65.1-.09.16.08.29.07.22-.06.02-.54.26-.48.04,0,.03.08.03.12-.03-.16.33-.42.04-.49.28-.18.23-.55.5-.66-.17-.3.41-.35.08-.63.36.27.59-.22.52-.49.08.13.21-.05.32.12.12-.18.16-.38-.05-.49.67,0,.11-.9.8-.67.18-.66.4-1.24.66-1.77.35.28-.35.54.05.8.18-.55.06-1.04.47-1.42.13-.08.11.18.15.26.18-.56.67-.85.75-1.4.03.03.04.1.04.16.04-.09.19-.15.01-.26v.11c-.34-.04-.3-.67-.42-.78.39.47.4-.32.86.32,0-.08-.03-.2-.15-.26.09-.06.17-.04.24.13.11-.35-.15-.37.03-.64.08.05.08.13.16.22-.07-.24-.14-.48.07-.67.04.05.12.06.08.13.23-.41-.02-.94.4-1.29.3.35.21-.08.55.08l.04-.3h-.21c.12-.2,0-.51.19-.64l.05.23.14-.44-.24.17c-.06-.31-.43-.19-.2-.43,0,.07.11-.21.36-.23h0c-.06-.16-.12-.32.04-.44.13,0,.36.2.45.21-.23-.24.15-.53-.1-.8.05.08.23.16.27.16l-.19-.19c.12-.06.16-.06.3.02.17-.27-.48-.11-.13-.37,0,.04.05.04.05.11.27-.3.17-.74.46-1,.38.08-.06.31.28.35.17-.47.09-1.14.42-1.52l-.08.06c-.42-.33.41-.19.32-.53,0,.07.21.22.17.18.25-.24.24-.66.38-1.17l.08.13c.21-.1.34-.4.51-.54-.08-.13.01-.22-.19-.27,1.01-.09.4-1.28,1.28-1.35-.04.06,0,.21.03.16.07-.16.14-.31.21-.47-.2-.12-.15-.04-.36-.07-.07-.13-.06-.31.02-.41-.03.27.29.23.45.24-.06-.03-.1-.11-.17-.15.48.06-.33-.33.11-.43l.08.09c.04-.14,0-.34.12-.43.24.13,0,.19.16.34.12-.16-.11-.63.21-.59,0,.12-.09.21-.09.32.37.06.32,0,.46-.08h-.01s.33-.15.33-.15h-.12c-.33-.66.27-.45.18-1.01.07.54.14.22.33.45.12,0,.28-.03.31.06-.06-.29.32-.04.24-.45.07.06.13-.1.27.1.1-.19-.15-.1-.22-.2.02-.47.81-.19.88-.81.19-.39.05-.71.27-1.05.19.06.12.35.12.35.25,0,.35-.1.45-.3.01.09.09.13.19.19.11-.1-.11-.36.14-.34.03.11.08.28.08.41.1-.16.16-.4.27-.57.12.12.03.28.03.41.13-.16.38-.39.31-.66l-.16-.02c.06-.05.14.18.12.26-.05.27-.26.04-.32-.04l.08-.12c-.4-.43-.43.34-.65.45l-.13-.42-.04.45c-.11-.06-.27-.23-.19-.36-.28-.06-.06.22-.33.13-.04-.02-.04-.04-.03-.06l-.09.21c-.02-.09-.2-.22-.06-.24-.44,0-.27.58-.56.41v-.04c-.29.41.16.27.1.77l-.67-.43.16.26s-.13.07-.2-.04c0,.28.11.08.16.3-.36-.05-.4.53-.77.21.09.23.29-.02.21.27-.41-.34-.16.26-.47.24-.14-.24.11-.29-.22-.3.23.42-.37.23-.44.43.25.26-.17.39-.29.71-.07-.1-.55.29-.83.43l-.04-.05c.24.28,0,.46-.08.68-.17-.15-.21-.23-.21-.38l-.13.16c.06.11.07.2.02.33l-.18-.21c-.16.22-.08.63-.44.8.19.17.74.21.65.6-.12-.07-.32-.2-.3-.31,0,.04.02.16-.06.17l-.1-.26c-.18.07.11.18.01.27-.16-.12-.17,0-.28-.12,0-.04.13-.04.1-.12-.12.09-.31.17-.47.13.1.05.22.15.18.26-.14.23-.25-.06-.42,0,.07.13-.14.2.1.37-.05.06-.17,0-.25-.02.02.19-.33.57.01.61l.04-.02s0,.02,0,.03h0s0,0,0,0c0,.54-.66.71-.78,1.16l-.08-.05c-.05.29-.25.55-.16.83-.04.07-.25.07-.34-.01-.04.22.04.29-.24.48-.05-.27-.17-.01,0-.25-.21.2-.37.18-.27.56-.18-.21-.38.03-.37.18l.25-.09c-.03.14-.11.25-.19.35l-.27-.21c-.62.33.18,1.2-.61,1.31.15.23.28-.21.47.02-.15.22-.69.27-.72.33-.3.21.32.48.06.73.13.01.43.11.41.4-.15.2-.58.04-.59-.14.02-.06.06-.06.1-.04,0-.09,0-.2-.16-.18l.09.08c-.16.05-.3.35-.44.19.01.21.13.16.25.07-.3.19-.23.42-.49.64.08-.01.23.02.2.06-.37.33.09.29-.03.6-.25.06-.33-.28-.37.07-.21.1-.29-.13-.33-.25.04.37-.41.38-.54.49v-.18c0,.11-.04.17-.08.23l.25.06c-.08.05-.13.12-.21.06.08.16.37.16.44.43-.17.04-.1.38-.38.24.3-.26-.28-.14-.15-.44,0,.07-.04.13-.13.19-.04,0-.05-.05-.05-.08-.44.14.2.34-.02.64-.12-.14-.33-.12-.33-.05.09-.12.28.11.32.3-.25.12-.07.28-.16.37l.14-.08c.12.14.03.23-.03.4-.12-.07.01-.18-.07-.17.15.34-.51.16-.5.5-.17.03-.28-.19-.41-.15.01.38-.39.12-.42.48.25.07.21.02.26.34l.17-.51.08.47c.09-.12.07-.35.16-.4.06.24.03.19.23.25-.42-.04-.08.46-.42.52l-.47-.36c-.43.14-.15.71-.56,1.01l.17-.06c.15.19-.15.26-.17.44-.15-.13-.27-.09-.4-.11.12.08-.22.28.07.55l-.34.02c-.32.26.19.69-.08.96-.11-.22-.32-.16-.3-.45-.08.1-.17.17-.06.26-.14,0,.01.44-.21.43.04.09.2.23.11.33-.04,0-.08-.06-.08-.06.08.06-.02.26.23.28-.73-.02-.57.92-1.19.9-.1.26-.23.56-.36.77-.04-.05-.08-.06-.04-.08-.34.16.34.5-.05.69-.37-.04-.02-.26-.19-.24-.55-.35-.2.42-.66.38v-.07c-.28,0-.09.51-.34.71,0,0-.03-.05-.07-.07.11.38-.1.76-.26,1.04-.11-.25,0-.19-.22-.34-.07.12.32.26.17.51-.16-.04-.39.01-.6-.17l.18-.19c-.34-.17-.23.24-.38.29l-.09-.13c-.26.3,0,.6-.34.87l.11.06c.08.45-.29-.04-.28.34l-.31-.26c-.05.17-.17.64-.35.87-.06-.33.1-.65.14-.91-.11.09-.38.35-.32.55.03-.07.03-.19.11-.18.05.36-.05.64-.3.83-.44-.63-.76.37-1.35.12-.13.32-.37.52-.63.75-.06.05-.15.13-.18.15,0-.01-.05.01-.06.01-.04.01-.07.04-.09.08.37.5-.02.07.3.7-.03.13-.05.16-.07.12-.03-.01-.05-.03-.07-.05-.03-.03-.06-.06-.09-.09-.04-.06-.08-.14-.12-.2-.08-.25.01-.16-.05-.34-.09-.09-.11-.36-.15-.57.04.28.03.39,0,.27,0,.12.03.24.07.37-.06.17-.11-.01-.11-.17-.01-.16.02-.29-.06-.15.03-.06.06-.12.08-.18-.02.06-.07.02-.13.03-.04,0-.06.03-.16.03-.1,0-.21,0-.33.07.02-.08.09-.24.19-.21-.32-.36-1.2-.4-1.27-.92l.14-.07c-.1-.04-.33.06-.3-.13.05-.04.14-.07.11-.11-.08,0-.37-.03-.39-.19l.2-.02c-.19-.52-.84-.36-1.2-.65.34-.27.2-.69.13-.9l.05-.03c-.33-.52-.93-.63-1.42-1.01.17-.57-.56-1.13-.69-1.78-.01.12-.29.19-.39.13-.01-.17-.48-.14-.14-.36l.02.05c.26-.32,0-.5-.14-.69l-.44.29c.22-.99-1.22-1.05-.89-1.73-.19-.02-.31-.16-.5-.18l.22-.18c-.2-.35-.3-.52-.67-.85l.22-.06c-.17-.22-.85.27-1.02.09l.27-.33c-.32-.36-.36-.97-.97-1.07.05-.04.15-.11.22-.06-.14-.18-.38-.85-.75-.4.28-.26-.31-.4-.61-.47l.23-.16c-.41.08-.49.14-.77-.01-.02-.08.12-.2.13-.08-.06-.28-.32.04-.42-.27l.2-.04c-.16-.19-.21-.11-.46-.07-.19-.04-.28-.39-.12-.59-.13.08-.38.13-.43-.03.05-.08.13-.08.17-.09-.16-.43-.67-.21-.68-.61.06-.07.08-.12.08-.15.23.24.41.44.38.43.18-.18.02-.4.43-.5-.29-.02-.85.02-.95-.25,0-.03.02-.05.04-.09h.04c-.03-.06-.08-.08-.15-.09-.03-.09-.05-.15-.1-.21.12-.18-.14-.3-.24-.4-.18.21-.28.06-.32.34,0-.03.04,0,.12.04.02,0,.04.02.06.02h-.02c.07.07.15.14.25.23-.18.03-.34.04-.34-.18-.17.08-.36.17-.45.2.14-.41.02-.81.15-1.02-.41-.16-.79-.58-1.33-.34-.13-.03,0-.2.02-.29.09,0,.14.06.22.03-.26-.05-.56-.41-.84-.16-.12-.32.34-.15,0-.37l.11-.05c-.11-.48-.54-.52-.94-.55-.41-.03-.79-.06-.95-.62.02.07.04.11.01.16-.65-.83-1.9-.83-2.39-1.81-.16-.24-.32-.06-.56-.01l.13-.28-.43.12c-.49-.05-.07-.99-.74-.94l-.09.19c-.11-.14-.48-.31-.29-.45-.04.01-.2.1-.16-.02l.11-.11-.48-.15c-.09-.33.53-.34.32-.69-.11-.08-.61-.17-.68-.08.02.06,0,.2-.15.28l-.15-.12c-.43.18-.97.18-1,.83.14.08.29.14.44.18l-.12.22-.19-.26c-.08.27.15.26.32.29-.08.09-.12.19-.11.28.19.01.39,0,.57,0-.11.15-.38.11-.3.36.26,0,.21-.38.48-.27-.05.27-.2.35.06.36-.07.1-.15.13-.24.11.23.02.37.29.6.17-.05.3.46.32.16.64.11-.05.45-.09.57,0-.54.25.42.36.03.77.44-.26.71.25,1.14.22-.04.02-.11.06-.12.03.14.14.11.29.16.43.24-.31.53-.23.8-.34-.01.44-.37.31-.5.65.16-.27.51-.05.59-.31.02.29.07.18-.03.5.29-.4.18.02.47-.16.08.34-.19.42.12.44.03.2-.27.21-.27.21"/>
    <path class="cls-1" d="M40.75,6.83h-.01s.03,0,.05,0c-.02,0-.02,0-.03,0"/>
    <path class="cls-1" d="M43.34,4.96s.05.02.08.02c-.01-.01-.04-.01-.08-.02"/>
    <path class="cls-1" d="M44.23,4.03l.19-.07c-.09.02-.15.04-.19.07"/>
    <path class="cls-1" d="M45.01,3.42s-.05-.07-.07-.1h0l.07.1Z"/>
    <path class="cls-1" d="M36.7,17s-.01.03-.01.04c0,.11,0,.04.01-.04"/>
    <path class="cls-1" d="M38.68,12.46c.02.07.05.14.05.2.06-.07.09-.13-.05-.2"/>
    <polygon class="cls-1" points="33.81 21.55 33.83 21.52 33.83 21.52 33.81 21.55"/>
    <path class="cls-1" d="M38.62,12.87c.09-.05.11-.12.11-.2-.05.06-.11.12-.11.2"/>
    <path class="cls-1" d="M48.38,1.01h.04s-.01-.04-.02-.05l-.03.05Z"/>
    <path class="cls-1" d="M48.41.96l.03-.05s-.04.02-.03.05"/>
    <path class="cls-1" d="M48.5.79l-.06.12s.08-.03.06-.12"/>
    <path class="cls-1" d="M47.25,1.56l.04.09s-.02-.05-.04-.09"/>
    <path class="cls-1" d="M46.94,1.8c.09-.03.31.05.38-.07l-.04-.07c.04.16-.37-.04-.35.15"/>
    <path class="cls-1" d="M44.85,1.89l.31-.17c-.12-.04-.27-.1-.17-.22-.55.05.23.12-.14.4"/>
    <path class="cls-1" d="M43.95,2.52c.1-.17-.11-.11-.15-.16-.02.16-.02.19.15.16"/>
    <path class="cls-1" d="M39.3,8.79l-.21-.14c-.04.14.09.05.21.14"/>
    <polygon class="cls-1" points="39.78 10.7 39.98 10.65 39.8 10.49 39.78 10.7"/>
    <polygon class="cls-1" points="37.74 10.89 37.76 10.7 37.75 10.62 37.74 10.89"/>
    <path class="cls-1" d="M30.96,21.35l.28.14c0-.11-.28-.32-.28-.14"/>
    <path class="cls-1" d="M27.72,25.58c-.15-.08-.33-.06-.3.12.1-.06.28-.05.3-.12"/>
    <polygon class="cls-1" points="18.01 20.9 18.17 20.93 17.96 20.81 18.01 20.9"/>
    <path class="cls-1" d="M22.14,28.45c.05.07.19.21.18.16l-.22-.25.03.1Z"/>
    <path class="cls-1" d="M22.71,28.73c-.09-.14-.27-.36-.51-.55.21.24.11.16.36.45,0,.05-.11-.03-.2-.12.05.07-.08-.02.05.14.21.15.25.12.14-.07.06.04.12.11.16.15"/>
    <path class="cls-1" d="M24.72,26.02h-.04s.04,0,.04,0"/>
    <path class="cls-1" d="M25.36,24.01s.04.03.07.04c-.02-.02-.04-.03-.07-.04"/>
    <path class="cls-1" d="M25.78,23.71s-.02.01-.03.02c.03,0,.05,0,.03-.02"/>
    <path class="cls-1" d="M24.72,26.02l.11-.02c-.1-.04-.08,0-.11.02"/>
    <path class="cls-1" d="M22.38,27.9s.03.04.05.08c0-.01-.01-.03-.01-.04l-.04-.03Z"/>
    <path class="cls-1" d="M24.65,27v.02s.07.04.11.06l-.11-.08Z"/>
    <path class="cls-1" d="M24.4,27.71s-.23-.14-.34-.2c.1.06.14.1.16.12.05.02.11.05.18.08"/>
    <path class="cls-1" d="M23.37,28.47l.02.04s-.01-.02-.02-.04"/>
    <path class="cls-1" d="M24.89,26.53s.08.02.1.03c-.03-.01-.07-.02-.1-.03"/>
    <path class="cls-1" d="M23.8,7.1h.05s-.05,0-.05,0"/>
    <polygon class="cls-1" points="25.2 6.32 25.36 6.32 25.19 6.31 25.2 6.32"/>
    <path class="cls-1" d="M26.23,23.1h0s.03.01,0,0"/>
    <path class="cls-1" d="M26.28,17.09c-.25.07-.32-.1-.6,0,.11-.01.44.09.6,0"/>
    <path class="cls-1" d="M22.41,27.91s0-.02.01-.02c-.01,0-.02.01-.01.02"/>
    <path class="cls-1" d="M25.68,17.09h-.03s.02,0,.03,0"/>
    <path class="cls-1" d="M26.21,21.56s-.09,0-.12,0c.03,0,.06,0,.12,0"/>
    <path class="cls-1" d="M25.71,22.65l.04-.02s-.04.02-.04.02"/>
    <path class="cls-1" d="M25.85,20.95s.06-.02.02-.04c-.01,0-.02,0-.03,0,.04,0,.06.02.01.03"/>
    <path class="cls-1" d="M25.88,20.35s-.04,0-.06,0v.02s.06-.03.06-.03Z"/>
    <path class="cls-1" d="M23.93,8.9c.08-.01.17-.02.25-.03-.2.01-.27-.08-.25.03"/>
    <path class="cls-1" d="M22.5,28c-.06-.05-.08-.07-.09-.09v.02s.06.05.09.06"/>
    <path class="cls-1" d="M23.64,20.8l.05-.09s-.04.06-.05.09"/>
    <path class="cls-1" d="M23.97,13.14l-.03-.02s0,.02.03.02"/>
    <path class="cls-1" d="M23.66,20.45c.1-.01.16-.03.2-.04-.02,0-.04,0-.07-.01l-.12.06Z"/>
    <path class="cls-1" d="M26.32,10.14s-.02.04-.07.04c0-.01-.01-.03-.03-.05h-.03c.05,0,.1,0,.14,0M24.37,10.52s.01-.05.01-.08c.1,0,.2,0,.19.02-.07,0-.12.03-.2.06M24.37,10.34h0s-.01-.03-.02-.04c0,0,.01.02.02.04M23.52,8.25c0,.09.36.04.57.06.1.11-.27.05-.46.09.1.07.44.12.42.17-.06,0-.08.01-.16,0,.29.07.01.21.38.29-.03,0-.06,0-.09.01.19-.01.37-.02.51-.01,0,.04.23.07,0,.09,0-.02-.09-.03-.17-.04l.1.04c-.35.04-.12-.06-.38-.06.11.08.4.18.3.24-.34.01-.11-.15-.42-.06l.13-.1c-.54.08.04-.06-.54.01-.1.13.17.14.08.27.19.03.28,0,.47.02.34.18-.85.14-.4.28.23.03.66.05.43.14l-.38-.03c-.04.12.55.07.29.2-.15-.02-.13-.1-.17-.08-.3.09.22.06.22.12h-.34c.05.15.3.29.36.44-.1,0-.21-.03-.31,0,.17.18-.04.39-.24.57l.29.07s-.13.03-.19.01c-.11.07.19,0,.3.04.02.04-.17.05-.26.03.25.12.54.34.22.48l-.09-.02c-.12.1.6.11.33.2l-.05-.02c-.13.22.14.46-.3.63.42.03-.19.22.4.23-.29.13-.4.09-.59.27-.03.05.37.07.43.12h-.31s.32.08.32.08l-.37.04.08.05s.14-.05.23-.04c.14.08-.22.21-.37.21l.26.2c-.12,0-.17-.04-.25-.06.31.11-.33.02-.04.12.07-.01.18,0,.25,0-.19.05-.19.16-.11.24h-.21c-.05.13.1.3.1.46.1-.06.47-.05.5,0l-.33.02c.2.03.12-.05.37.01-.04.06-.37.05-.48.01l.11.07c-.1,0-.15-.01-.27-.02.2.03-.33.13.02.18h-.1c0,.17.11.25.12.38.28,0,.22.05.45.09-.09.1-.31.21-.29.33.14.08.24.02.41.06-.26,0-.23.13-.42.07.04.14.05.18.26.36.11-.02.15-.04.24-.03.04.03-.11.08-.23.07h-.03c.38.19-.75.47-.21.63h-.03s.28.16.28.16c-.04.08-.19-.04-.35.01.43.18-.06.29.22.44-.76.12.05.41-.43.57h.18c.17.03-.1.04-.14.07.14,0,.16-.04.26-.02.22.34-.26.7-.42,1.04-.05.12.92.08.49.23l-.33-.05c.39.26-.02.51.31.77-.08-.02-.17-.02-.17-.04-.24.05-.02.19.18.2-.02.04-.18,0-.28.02-.14.05.3.14.06.16-.04,0-.08-.02-.1-.03.11.04-.03.16.24.13-.14.09.12.18-.05.25.31.06-.16.15.28.19-.45-.03-.37.14-.16.21-.14-.03-.14.04-.33,0,0,.07.08.13.32.13-.55.09.42.27-.28.3.23.21.38.41.47.6-.45-.05-.03-.2-.5-.23.17.18.55.31.42.47-.07.04-.19-.04-.27-.07.17.18-.07.32.16.49-.04,0-.09-.03-.12-.05.01.03-.07.06.13.08l-.05-.03c.3-.01.61.19.76.21-.58-.12-.17.13-.89-.04.04.02.13.06.26.07-.04.02-.12.02-.27-.02.1.12.32.11.3.2-.1-.01-.13-.04-.25-.06.19.07.37.15.28.22-.06-.01-.14-.01-.13-.04,0,.14.48.31.27.43-.42-.11-.15.03-.52-.02l.1.1h.19c-.02.07.24.17.11.21l-.14-.08.05.14.15-.05c.18.1.47.07.35.15-.03-.03-.02.07-.24.07h0c.11.06.23.12.13.15-.12,0-.4-.09-.48-.09.3.09.06.18.37.29-.07-.03-.27-.07-.31-.07l.24.08c-.09.02-.13.01-.28-.02-.07.09.47.06.24.14-.02-.01-.06-.02-.09-.04-.13.09.11.26-.04.34-.37-.05-.07-.11-.39-.15.03.16.37.42.24.55l.05-.02c.51.15-.28.04-.06.18-.03-.03-.28-.1-.22-.08-.11.08.07.24.19.44l-.13-.06c-.13.03-.11.13-.19.18.12.06.09.09.29.13-.8-.06.27.51-.4.46,0-.02-.09-.09-.1-.07l.06.18c.22.07.14.03.32.07.12.07.2.15.19.19-.12-.12-.35-.14-.48-.16.06.03.14.06.2.09-.41-.08.42.19.12.19l-.11-.05c.04.06.17.16.12.19-.25-.09-.1-.09-.3-.18,0,.06.41.32.15.27-.06-.06-.04-.09-.1-.15-.31-.07-.24-.03-.3-.01h0s-.17.03-.17.03h.09c.59.38.04.2.4.51-.33-.29-.21-.13-.48-.28-.09-.02-.19-.03-.26-.08.19.16-.2-.03.08.2-.09-.04-.03.04-.24-.09.04.09.15.07.26.14.24.26-.45-.02-.14.33.09.2.35.4.42.6-.15-.06-.27-.23-.27-.23-.15-.03-.15.02-.1.13-.06-.06-.12-.09-.22-.15,0,.05.26.25.11.2-.08-.08-.21-.19-.28-.28.04.09.15.24.18.34-.14-.1-.17-.19-.25-.28.02.09.02.21.2.4l.1.04s-.18-.15-.21-.19c-.12-.18.12,0,.2.07l.02.07c.46.34.05-.18.11-.22l.31.29-.22-.28c.1.05.29.18.31.25.2.07-.09-.13.13-.04.03.02.05.03.06.04l-.07-.12c.06.06.25.16.17.16.26.04-.15-.33.13-.19l.02.02c-.03-.21-.24-.18-.48-.47l.68.34-.25-.17s.05-.02.15.04c-.15-.16-.12-.06-.27-.19.28.07-.01-.25.42-.02-.19-.14-.19-.02-.29-.17.47.23-.03-.12.21-.07.23.15.07.14.32.19-.38-.25.16-.08.11-.18-.32-.16-.07-.18-.15-.33.11.06.26-.09.42-.13l.06.03c-.33-.16-.23-.22-.27-.31.2.08.28.13.35.2l.03-.06c-.1-.06-.15-.1-.17-.16l.25.12c.02-.09-.24-.28-.03-.33-.24-.09-.7-.16-.82-.33.13.04.36.12.4.17-.01-.01-.1-.07-.03-.07l.2.12c.11-.01-.17-.09-.14-.12.19.07.14.02.29.08.01.02-.09,0-.02.05.05-.03.18-.05.32-.02-.11-.03-.25-.08-.26-.13.01-.09.24.05.35.03-.12-.06.03-.07-.25-.17.01-.02.14.01.22.03-.11-.08.03-.22-.28-.26h-.02s-.01,0-.01,0c-.24-.22.24-.25.16-.42l.1.03c-.09-.11-.01-.21-.2-.32,0-.02.19-.01.3.02-.05-.08-.16-.12.02-.17.15.11.15.01.11.1.1-.07.26-.05.02-.2.24.09.33,0,.26-.05l-.19.02c-.03-.05,0-.09.03-.12l.32.09c.44-.1-.61-.46.09-.46-.22-.09-.18.06-.44-.03.06-.07.54-.07.55-.09.2-.08-.46-.19-.32-.29-.12,0-.43-.05-.53-.15.06-.07.51-.02.59.05,0,.02-.03.02-.07.02.04.03.08.08.21.07l-.11-.03c.13-.02.13-.13.32-.08-.1-.08-.19-.06-.26-.02.19-.08.03-.16.17-.25-.07,0-.21,0-.2-.02.17-.13-.21-.1-.25-.22.19-.03.42.08.29-.04.13-.05.31.03.41.07-.21-.13.17-.16.22-.22l.09.07c-.05-.04-.05-.07-.04-.09h-.24s.05-.05.15-.04c-.15-.05-.4-.03-.6-.12.12-.02-.11-.14.2-.11-.12.11.32.03.35.14-.03-.02-.03-.05.01-.08.04,0,.06.01.08.02.3-.09-.35-.1-.32-.23.17.04.34.01.3-.01,0,.05-.3,0-.43-.07.15-.06-.09-.1-.07-.14l-.07.04c-.17-.04-.15-.07-.2-.14.14.01.09.06.15.05-.3-.1.34-.11.13-.22.12-.03.33.03.42,0-.22-.12.25-.08.08-.21-.24,0-.18.02-.41-.07l.15.18-.33-.14c0,.05.14.12.09.15-.19-.07-.13-.06-.33-.05.36-.04-.19-.16.06-.21l.59.06c.28-.1-.28-.24-.12-.39l-.11.04c-.23-.04-.02-.1-.12-.16.2.02.27,0,.39-.02-.15,0,.02-.11-.37-.16l.26-.05c.12-.12-.55-.18-.47-.3.21.05.35,0,.5.09,0-.04.04-.07-.09-.08.12-.02-.26-.13-.07-.15-.08-.02-.29-.04-.27-.08.04,0,.1,0,.1,0-.1,0-.13-.08-.35-.05.62-.09-.03-.35.51-.43-.06-.09-.12-.2-.13-.28.06,0,.1,0,.08.02.19-.1-.56-.09-.35-.2.32-.05.17.07.29.04.65,0-.08-.15.3-.23l.04.02c.22-.06-.24-.16-.19-.27,0,0,.06,0,.1,0-.33-.08-.44-.22-.53-.32.25.04.13.05.39.03-.04-.05-.42,0-.49-.08.14-.03.26-.09.54-.1v.09c.37-.04,0-.11.07-.15h.16c-.05-.12-.44-.13-.41-.27h-.12c-.39-.06.22-.05-.07-.13l.4-.02c-.09-.05-.38-.18-.45-.27.29.05.44.16.62.22,0-.05-.03-.17-.22-.2.04.02.14.05.07.07-.31-.06-.46-.14-.46-.24.76.01.19-.26.78-.34-.28-.18.12-.35.07-.55-.6.08-.02-.06-.63-.04-.04-.05-.03-.06.01-.07l.37-.15c.18-.04.13.04.27.04.05-.1.26-.05.42-.12-.22.02-.31-.03-.23-.09l-.28.09c-.33-.14.51-.13.19-.27l.19.04c-.11-.07,0-.28-.49-.35.07-.01.24-.03.28,0,.07-.18-.52-.39-.22-.54h.15s-.28-.04-.13-.09c.06,0,.15.01.16,0-.05-.02-.26-.09-.17-.13l.17.04c.19-.18-.41-.26-.51-.41.44,0,.58-.14.66-.21h.06c.05-.2-.37-.34-.54-.53.48-.12.2-.4.47-.59-.08.03-.34,0-.39-.04.09-.04-.31-.12.1-.12v.02c.39-.04.28-.13.29-.2h-.53c.77-.2-.28-.49.41-.6-.13-.04-.13-.1-.26-.14h.28c.07-.12.11-.19.04-.34l.2.03c.02-.09-.82-.1-.83-.18l.42-.03c0-.15.36-.31-.02-.45.06,0,.18,0,.2.03.01-.07.28-.28-.3-.25.38,0,.04-.16-.13-.24h.28c-.36-.05-.45-.06-.55-.15.04-.02.22-.02.15,0,.15-.08-.26-.06-.11-.15l.18.03c.02-.08-.07-.07-.28-.11-.11-.05.07-.15.32-.16-.15,0-.36-.05-.29-.1.1,0,.15.01.18.02.19-.13-.32-.19-.05-.28.09,0,.14,0,.17-.02,0,.1-.02.19-.04.18.26,0,.3-.09.66-.02-.19-.07-.61-.18-.49-.26.03,0,.05,0,.09-.01h.03s0-.03-.04-.04c.04-.03.07-.04.08-.07.21-.01.11-.1.12-.14-.28,0-.24-.05-.47,0,.02,0,.03,0,.05.04,0,0,.01.01.03.02h-.03s.01.06.02.1c-.14-.03-.26-.07-.11-.11-.18-.02-.37-.05-.45-.06.39-.06.6-.17.85-.18-.16-.13-.1-.3-.63-.38-.07-.04.15-.04.24-.06.05.02.04.05.12.06-.13-.07-.05-.21-.42-.23.17-.09.34.05.28-.07l.11.02c.59-.25-.94-.4-.19-.67-.05.02-.07.03-.13.03.33-.31-.31-.64.22-.95.11-.09-.13-.1-.31-.15l.3-.02-.35-.09c-.26-.13.74-.23.26-.39l-.2.02c.04-.06-.12-.19.11-.18-.04,0-.21-.02-.11-.04h.16s-.27-.15-.27-.15c.11-.11.63.02.66-.15-.06-.06-.46-.17-.57-.15,0,.02-.1.06-.26.06l-.08-.05c-.47-.01-.94-.05-1.27.08l.28.09-.22.03v-.08c-.23.04-.04.07.09.11-.12,0-.2.02-.25.04l.44.09c-.18.01-.36-.04-.46.02.21.04.41-.04.54.03-.21.05-.38.03-.2.09-.12,0-.2,0-.25-.02.14.05.06.13.31.15-.26.05.07.16-.37.16.11.01.35.08.36.13-.53-.08-.03.16-.6.14.47.06.21.21.47.32-.04,0-.11-.02-.09-.03-.04.06-.18.08-.27.11.39,0,.48.1.72.15-.38.07-.46-.04-.82-.02.32,0,.32.12.58.1-.23.06-.11.05-.44.08.49,0,.08.05.38.1-.24.08-.46.02-.31.11-.15.04-.32-.04-.32-.04"/>
    <path class="cls-1" d="M25.95,10.09s-.02,0-.02-.01c-.02,0-.04.01-.06.02h.09s0,0,0,0Z"/>
    <path class="cls-1" d="M24.66,26.03h0s-.02,0-.04,0c.01,0,.02,0,.03,0"/>
    <polygon class="cls-1" points="23.83 12.94 23.9 12.94 23.84 12.93 23.83 12.94"/>
    <path class="cls-1" d="M23.43,26.61s-.05-.01-.07-.02c.02,0,.04.01.07.02"/>
    <path class="cls-1" d="M23.22,26.95h-.11c.06.01.09,0,.11,0"/>
    <path class="cls-1" d="M22.96,27.14s.07.04.1.06h0l-.11-.06Z"/>
    <path class="cls-1" d="M23.84,22.46s0,0-.01-.01c-.05-.03-.03-.01.01.01"/>
    <path class="cls-1" d="M24.28,24.01s-.09-.05-.12-.07c-.03.02-.03.04.12.07"/>
    <polygon class="cls-1" points="23.64 20.81 23.64 20.81 23.64 20.8 23.64 20.81"/>
    <path class="cls-1" d="M24.17,23.87c-.06.02-.05.04-.02.07.02-.02.06-.04.02-.07"/>
    <path class="cls-1" d="M22.2,28.06h-.02s.03.02.03.03l-.02-.03Z"/>
    <path class="cls-1" d="M22.22,28.09v.03s.02-.01,0-.03"/>
    <path class="cls-1" d="M22.26,28.19l-.03-.07s-.02.01.03.07"/>
    <path class="cls-1" d="M22.52,27.87l-.08-.06s.04.03.08.06"/>
    <path class="cls-1" d="M22.56,27.76s-.21-.07-.18,0l.06.05c-.11-.1.24.08.12-.05"/>
    <path class="cls-1" d="M23.91,27.99l-.12.06c.1.04.24.09.24.15.35.03-.22-.1-.11-.21"/>
    <path class="cls-1" d="M24.22,27.75c.01.08.14.07.19.1-.07-.08-.09-.1-.19-.1"/>
    <path class="cls-1" d="M25.09,25.33l.25.07c-.02-.05-.1-.02-.25-.07"/>
    <polygon class="cls-1" points="23.74 24.59 23.96 24.66 23.9 24.58 23.74 24.59"/>
    <polygon class="cls-1" points="25.74 24.69 25.77 24.72 25.7 24.62 25.74 24.69"/>
    <path class="cls-1" d="M26.13,20.47h-.32c.06.03.41.06.32,0"/>
    <path class="cls-1" d="M25.85,18.67c.16-.02.26-.07.1-.1-.02.04-.14.08-.1.1"/>
    <polygon class="cls-1" points="26.36 13.39 26.46 13.42 26.38 13.36 26.36 13.39"/>
  </g>
</svg>