<?xml version="1.0" encoding="UTF-8"?>
<svg id="Layer_2" data-name="Layer 2" xmlns="http://www.w3.org/2000/svg" viewBox="0 0 31.41 21.44">
  <defs>
    <style>
      .cls-1 {
        fill: #ffebca;
      }
    </style>
  </defs>
  <g id="Layer_1-2" data-name="Layer 1">
    <path class="cls-1" d="M31.41.73c0-.09-.08-.27-.13-.21l.08.33.05-.12Z"/>
    <path class="cls-1" d="M30.77.35c0,.18.05.47.24.71-.09-.31-.01-.2-.1-.57.05-.06.15.05.19.17-.01-.09.12.03.07-.18-.17-.2-.3-.16-.31.08-.06-.06-.07-.14-.09-.2"/>
    <path class="cls-1" d="M25.79,5.42l.06-.02s-.04,0-.06.02"/>
    <path class="cls-1" d="M23.52,9.22s-.01-.06-.04-.08c0,.04.01.07.04.08"/>
    <path class="cls-1" d="M22.85,9.72s.03-.02.04-.03c-.04,0-.06,0-.04.03"/>
    <path class="cls-1" d="M25.79,5.42l-.15.05c.09.06.1-.01.15-.05"/>
    <path class="cls-1" d="M30.44,1.51s0-.06,0-.1c0,.02-.01.04-.02.06l.03.04Z"/>
    <path class="cls-1" d="M26.6,3.6l.02-.03s-.06-.06-.1-.1l.08.13Z"/>
    <path class="cls-1" d="M27.45,2.31s.18.2.27.28c-.08-.08-.11-.14-.11-.18-.04-.03-.1-.07-.17-.11"/>
    <path class="cls-1" d="M29.48.82v-.06s0,.04,0,.06"/>
    <path class="cls-1" d="M25.97,4.49s-.07-.03-.09-.04c.03.02.06.03.09.04"/>
    <path class="cls-1" d="M1.23,4.53s.01-.03.02-.05c-.02.02-.03.04-.02.05"/>
    <polygon class="cls-1" points=".01 2.87 .04 2.85 .04 2.7 .01 2.87"/>
    <path class="cls-1" d="M21.9,10.78h0s-.02-.03,0,0"/>
    <path class="cls-1" d="M16.31,18.55c-.16.18-.23.21-.35.29-.02.01-.04.03-.07.06-.03.03-.07.08-.12.14.1-.09.38-.29.53-.5"/>
    <path class="cls-1" d="M30.39,1.5s-.02.03-.04.04c.02,0,.04-.02.04-.04"/>
    <path class="cls-1" d="M15.77,19.04h0s-.02.04-.02.04c.01-.02.02-.03.03-.04"/>
    <path class="cls-1" d="M20.57,13.62s.08.03.12.03c-.03-.01-.06-.02-.12-.03"/>
    <path class="cls-1" d="M22.03,11.75l-.06.03s.05-.02.06-.03"/>
    <path class="cls-1" d="M20.32,14.86s-.07,0-.06.06c.01,0,.03,0,.04,0-.03-.03-.03-.06.03-.07"/>
    <path class="cls-1" d="M19.67,15.92s.04,0,.06.01v-.04s-.06.03-.06.03Z"/>
    <path class="cls-1" d="M4.18,6.25c.03-.08.08-.15.12-.23-.12.16-.3.1-.12.23"/>
    <path class="cls-1" d="M30.35,1.38c.04.06.05.09.05.12l.02-.03s-.05-.07-.07-.08"/>
    <path class="cls-1" d="M22.2,16.03l-.14.16c.05-.04.1-.1.14-.16"/>
    <path class="cls-1" d="M9.76,13.13l-.06-.02s.02.03.06.02"/>
    <path class="cls-1" d="M21.77,16.75c-.1-.02-.18-.02-.23,0,.01.02.02.04.05.06l.18-.06Z"/>
    <path class="cls-1" d="M4.3,6.02h0s0,0,0,0Z"/>
    <path class="cls-1" d="M7.77,6.43c.07.02.04.07,0,.12-.02-.02-.05-.04-.1-.06l-.03.02s.09-.06.12-.08M6.84,8.32s-.06-.09-.1-.13c.06-.07.15-.13.17-.1-.06.03-.05.13-.07.23M6.6,8.05h0s-.06-.04-.07-.05c.02.01.04.03.08.05M2.93,5.78c.13.11.28-.24.43-.39.23.04-.08.28-.14.47.16,0,.45-.21.52-.14-.03.05-.03.08-.1.13.29-.14.33.26.7.08-.01.03-.03.06-.04.08.1-.16.22-.3.31-.4.07.05.27-.08.14.13-.03-.04-.1.03-.17.07l.14-.02c-.17.31-.17.01-.34.21.2.02.55-.06.57.1-.21.27-.3-.12-.38.22l-.06-.23c-.24.5-.07-.1-.34.41.13.24.33.07.45.31.17-.1.18-.22.35-.32.51.02-.37.81.13.68.21-.11.53-.39.51-.09l-.32.22c.15.21.5-.28.5.09-.14.07-.23-.06-.24,0-.1.33.24-.06.34.03l-.23.25c.22.16.6.22.86.41-.09.05-.2.09-.23.21.37.18.5.65.57,1.06l.32-.07s-.07.13-.13.14c0,.18.15-.11.28-.13.07.05-.06.19-.17.2.36.04.87.25.78.65h-.1c.03.25.63-.15.52.16h-.06c.16.44.66.71.47,1.24.4-.17.07.47.59.19-.11.39-.28.32-.2.81.04.12.41-.05.53.04l-.25.18c.12,0,.25-.02.38-.03l-.24.29.14.06c-.02-.05.05-.17.12-.22.23.08.12.52,0,.62l.49.2c-.1.07-.18.04-.28.04.4,0-.22.24.14.23.03-.07.15-.1.2-.14-.07.2.09.39.27.48l-.18.11c.17.28.53.46.76.73-.01-.16.29-.38.38-.33l-.22.24c.2-.08.02-.16.3-.22.06.13-.22.31-.35.32l.19.05c-.07.07-.13.08-.23.15.2-.08-.06.43.26.27l-.07.07c.23.27.42.31.61.52.22-.18.24-.05.47-.13.07.22.03.53.2.71.22.05.22-.11.4-.15-.2.17-.04.35-.26.36.2.21.26.26.63.44.07-.09.08-.15.17-.18.07.03,0,.18-.12.24h-.03c.28.06.23.37.18.62-.04.26-.14.47.18.49h-.03c.13.05.23.1.35.16,0,.13-.21-.01-.33.12.29.16.26.5.23.77-.03.28-.09.6,0,.78.02,0,.05,0,.08,0-.27.42.06.51.49.6.41.1.8.08,1.01.37l.02-.18c.19-.14.14.14.25.17.01-.14-.12-.15-.01-.25.31-.09.61-.07.91-.14.3-.09.62-.1.95-.2.36-.15.65-.22.86-.32.22-.1.48-.21.67-.34.28-.2-.51-.79.08-.77l.16.31c.17-.73.87-.97.96-1.65.04.07.12.13.08.18.27.04.27-.37.11-.48.07-.06.16.09.27.1.19-.02-.07-.43.16-.35.04.01.05.07.05.1-.05-.13.23-.3-.04-.38.23-.11.12-.41.35-.47-.2-.26.32-.23-.03-.49.38.25.51-.13.39-.35.09.11.18-.03.32.11.07-.14.07-.3-.14-.39.61.03-.1-.7.58-.5,0-.51.06-.96.16-1.36.39.23-.17.41.25.62.02-.43-.22-.8.06-1.08.1-.06.15.14.2.21.02-.42.38-.63.32-1.04.04.02.06.07.08.12.02-.07.13-.11-.06-.19l.02.08c-.31-.04-.43-.52-.56-.6.47.37.28-.23.86.27-.01-.06-.08-.15-.2-.2.06-.04.15-.02.25.11.01-.26-.22-.29-.12-.48.09.05.1.1.19.18-.12-.19-.24-.37-.08-.49.05.04.13.05.1.1.12-.29-.21-.71.11-.93.34.29.18-.04.52.12v-.21s-.21-.02-.21-.02c.08-.14-.1-.39.08-.46l.08.18.08-.3-.2.09c-.1-.23-.43-.2-.24-.34.01.06.08-.14.31-.11-.07-.12-.14-.26,0-.32.12.03.35.21.43.23-.24-.22.1-.37-.15-.61.05.06.23.16.27.17l-.19-.18c.11-.03.15-.02.28.06.15-.18-.45-.16-.15-.3,0,.03.05.04.06.09.22-.18.1-.53.33-.69.37.12-.02.23.3.31.11-.34-.05-.86.19-1.11l-.07.03c-.44-.3.35-.09.22-.37.01.06.23.19.18.15.19-.16.12-.48.15-.86l.1.11c.17-.06.24-.27.37-.37-.09-.11-.03-.17-.23-.23.9.02.1-.96.86-.96-.02.04.04.16.06.13l.08-.35c-.21-.1-.14-.04-.33-.08-.09-.11-.12-.25-.08-.32.04.22.31.2.45.22-.06-.03-.12-.09-.18-.13.44.08-.37-.29,0-.34l.09.08c0-.11-.08-.27,0-.33.24.12.04.15.22.28.07-.12-.25-.52.04-.46.03.09-.02.16,0,.25.34.07.28.01.38-.04h-.01s.25-.1.25-.1h-.1c-.46-.56.11-.35-.1-.82.2.45.17.18.4.39.1,0,.23,0,.28.07-.12-.24.25-.02.08-.36.08.06.08-.08.25.1.03-.15-.15-.09-.24-.18-.1-.38.62-.11.5-.62.06-.31-.14-.59-.05-.89.17.06.18.31.18.31.2.02.26-.06.29-.22.03.08.1.12.19.18.06-.08-.16-.32.03-.29.05.1.13.26.16.38.03-.15.02-.35.07-.49.12.13.08.25.11.36.06-.13.19-.3.09-.56l-.12-.04s.14.18.14.25c.02.24-.19,0-.25-.07l.04-.1c-.39-.43-.26.26-.4.35l-.19-.38.07.39c-.1-.06-.27-.22-.23-.33-.24-.07,0,.19-.24.09-.03-.02-.04-.04-.04-.06l-.02.18c-.04-.08-.21-.2-.11-.21-.35-.01-.07.5-.36.33v-.03c-.15.33.19.24.27.66l-.66-.4.2.23s-.09.05-.17-.04c.07.24.11.07.21.26-.32-.06-.2.42-.59.13.14.19.24,0,.25.23-.44-.3-.06.21-.33.18-.18-.2.02-.23-.26-.26.3.36-.26.17-.27.33.28.22-.05.31-.07.56-.09-.08-.4.21-.62.3l-.05-.04c.28.24.11.37.1.53-.18-.13-.24-.2-.27-.32l-.08.12c.08.09.11.16.09.26l-.21-.18c-.09.17.06.49-.22.59.21.15.7.22.72.52-.12-.07-.33-.18-.34-.27,0,.03.06.13-.02.13l-.14-.21c-.14.04.13.15.07.21-.17-.11-.15-.02-.28-.11,0-.03.11-.02.06-.09-.08.06-.24.1-.39.06.1.05.23.14.21.21-.08.16-.24-.07-.38-.03.09.11-.09.14.16.29-.03.05-.15-.02-.23-.04.06.15-.19.4.13.47h.03s0,0,0,0c.1.42-.47.48-.51.81l-.09-.05c0,.22-.14.39-.02.61-.03.05-.22.03-.31-.05,0,.16.09.23-.15.33-.08-.21-.16-.03-.04-.19-.16.12-.32.08-.18.38-.19-.18-.35-.03-.32.08l.22-.03c-.01.1-.08.17-.14.23l-.27-.2c-.53.14.29.92-.44.86.16.19.24-.1.44.1-.12.13-.63.07-.65.11-.27.12.33.42.1.58.12.03.42.15.43.36-.12.13-.54-.04-.57-.18.01-.04.05-.04.09-.02-.01-.07-.02-.16-.17-.16l.1.07c-.15.02-.24.23-.39.1.04.17.15.14.25.08-.26.12-.16.3-.37.45.08,0,.21.03.2.06-.28.23.13.23.08.46-.22.03-.36-.24-.33.03-.17.07-.29-.12-.35-.21.11.29-.31.27-.4.36l-.03-.14c.02.08,0,.13-.03.18l.24.06c-.06.04-.09.09-.18.04.11.13.37.14.5.35-.15.02,0,.29-.3.17.22-.19-.29-.12-.24-.34.01.06-.01.1-.08.14-.04,0-.05-.04-.06-.06-.37.1.26.27.13.5-.14-.11-.33-.1-.31-.05.05-.09.29.09.36.24-.2.09,0,.21-.05.28l.1-.06c.14.11.08.18.08.31-.13-.06-.03-.14-.11-.13.22.26-.42.11-.32.37-.15.02-.3-.15-.41-.12.11.29-.32.08-.25.36.24.06.19.02.33.26l.02-.39.2.36c.05-.09-.03-.27.04-.31.12.19.08.15.27.2-.38-.04.05.35-.25.39l-.52-.28c-.35.1.05.54-.23.75l.14-.04c.19.15-.07.19-.04.33-.17-.1-.26-.08-.39-.1.13.07-.13.2.2.42h-.3c-.22.17.34.54.15.73-.15-.17-.33-.14-.38-.37-.04.07-.11.12,0,.19-.13-.02.11.34-.09.31.06.07.23.19.16.26-.04-.01-.08-.05-.08-.05.08.05.04.2.27.24-.66-.1-.34.65-.91.56-.04.19-.1.41-.19.55-.04-.04-.08-.06-.05-.07-.28.08.39.43.07.53-.34-.07-.06-.21-.21-.21-.55-.35-.1.31-.51.22v-.06c-.26-.03,0,.4-.17.54,0,0-.04-.04-.08-.06.18.33.07.6,0,.82-.15-.22-.04-.16-.26-.3-.03.09.33.25.26.45-.14-.05-.32-.03-.53-.21.04-.04.07-.08.1-.13-.31-.17-.14.16-.25.18l-.1-.12c-.14.2.13.51-.1.66l.1.07c.13.39-.24-.09-.17.23l-.27-.29c0,.14-.05.49-.15.64-.02-.16-.03-.28-.03-.39.01-.12.03-.21.02-.33-.03.03-.09.07-.13.13-.03.06-.02.12,0,.21,0-.05-.02-.14.02-.1.11.29.04.53-.13.58-.08-.39-.16-.41-.24-.41-.08,0-.19,0-.15-.33-.09.18-.18.12-.21.05-.03-.09-.03-.19-.08-.2-.53.65-.01-.02-.56.55-.03-.03-.02-.07.01-.11l.07-.1c.09-.13.18-.24.26-.34.15-.14.12-.05.24-.15.03-.08.23-.19.37-.29-.2.13-.28.15-.21.1-.09.05-.17.11-.25.17-.16.03-.04-.07.07-.12.06-.03.11-.06.15-.05,0-.07-.02-.14-.13-.22l.22.07c-.16-.19-.28-.76-.8-.71.05-.06.18-.18.26-.12-.15-.47-.93-.61-.86-1.04l.14-.06c-.08-.04-.31.04-.24-.13.05-.03.14-.06.13-.09-.07,0-.34-.02-.33-.15l.19-.03c-.09-.45-.7-.26-.98-.44.34-.27.26-.61.21-.77l.05-.04c-.26-.39-.78-.35-1.18-.55.19-.51-.42-.78-.47-1.25-.02.1-.27.22-.35.19,0-.13-.4,0-.08-.25l.02.03c.26-.31.06-.38-.03-.5l-.42.32c.36-.77-.84-.62-.37-1.17-.15,0-.2-.08-.36-.08l.24-.14c-.06-.22-.12-.41-.36-.66l.21-.04c-.09-.19-.83.22-.94.08l.33-.27c-.19-.28-.08-.78-.59-.84.05-.03.16-.09.2-.06-.08-.14-.13-.68-.56-.29.3-.22-.18-.3-.42-.35l.24-.14c-.38.09-.45.14-.66.04,0-.06.15-.17.13-.07.01-.22-.29.06-.3-.19l.19-.05c-.09-.15-.16-.08-.38-.02-.15-.01-.15-.3.03-.48-.13.08-.35.14-.36.01.06-.07.13-.08.17-.09-.04-.34-.53-.12-.44-.45.07-.06.09-.1.1-.14.14.18.25.33.22.33.2-.16.11-.34.48-.45-.25,0-.73.09-.76-.13.01-.02.03-.05.05-.08h.03c-.01-.05-.05-.07-.11-.06,0-.07,0-.12-.04-.16.14-.16-.06-.24-.12-.31-.2.2-.25.07-.34.32,0-.02.04,0,.09.03.01,0,.03.01.05,0h-.02c.05.05.1.11.17.17-.16.04-.3.06-.25-.12-.17.08-.34.17-.42.21.21-.36.19-.69.34-.88-.31-.1-.55-.41-1.05-.16-.11,0,.04-.17.07-.25.07,0,.11.04.18,0-.21-.02-.39-.29-.67-.05-.03-.26.31-.17.07-.32l.1-.06c-.02-.83-1.29.12-1.28-.85,0,.06,0,.09-.02.14-.37-.7-1.32-.59-1.69-1.37-.13-.19-.26,0-.45.11l.09-.29-.34.22c-.36.13-.21-.9-.75-.56v.21c-.14-.07-.46,0-.39-.22-.02.03-.09.19-.12.08l.03-.16c-.13.06-.26.11-.39.19-.25-.14.14-.62-.28-.69-.18.04-.47.42-.41.53.06.01.15.11.14.27l-.12.07c-.04.46-.09.93.11,1.28.06-.09.12-.18.18-.27l.02.23h-.13c.05.22.11.04.18-.08,0,.12,0,.2.03.25.07-.15.15-.28.23-.41-.02.18-.14.34-.06.46.12-.18,0-.42.17-.52.04.23-.03.39.1.24-.02.12-.06.19-.1.23.11-.12.22,0,.34-.23,0,.26.3.04.14.45.06-.09.26-.27.35-.25-.34.43.27.14,0,.64.3-.38.44,0,.74-.15-.03.03-.09.08-.09.06.08.09.04.22.05.34.21-.33.41-.31.62-.46-.08.4-.32.34-.47.68.16-.27.37-.14.48-.39-.04.25.02.15-.12.44.29-.4.13-.02.38-.21-.01.29-.23.4,0,.38-.02.17-.25.22-.25.22"/>
    <path class="cls-1" d="M7.42,6.59s-.02,0-.03,0c0,.03-.01.05-.02.07l.08-.04-.02-.02Z"/>
    <path class="cls-1" d="M25.86,5.39h-.01s.03,0,.04,0c-.01,0-.02,0-.03,0"/>
    <polygon class="cls-1" points="9.36 12.78 9.37 12.82 9.43 12.78 9.36 12.78"/>
    <path class="cls-1" d="M27.78,4.14s.05.02.07.02c-.02,0-.04-.01-.07-.02"/>
    <path class="cls-1" d="M28.34,3.45l.15-.04c-.08.01-.12.03-.15.04"/>
    <path class="cls-1" d="M28.85,3.01s-.06-.06-.09-.08h0l.09.08Z"/>
    <path class="cls-1" d="M23.72,12.59s0,.02,0,.03c.02.08.02.03,0-.03"/>
    <path class="cls-1" d="M24.65,9.37c.03.05.06.11.07.16.05-.04.07-.08-.07-.16"/>
    <polygon class="cls-1" points="22.2 16.03 22.22 16.02 22.22 16.01 22.2 16.03"/>
    <path class="cls-1" d="M24.64,9.65c.08-.03.09-.07.07-.13-.04.03-.09.07-.07.13"/>
    <path class="cls-1" d="M30.89,1.23h.03s-.02-.03-.02-.04v.04Z"/>
    <path class="cls-1" d="M30.89,1.19v-.04s-.01.02,0,.04"/>
    <path class="cls-1" d="M30.92,1.04l-.02.1s.05-.02.02-.1"/>
    <path class="cls-1" d="M30.17,1.59l.06.08s-.03-.05-.06-.08"/>
    <path class="cls-1" d="M30,1.78c.06-.03.25.06.27-.04l-.05-.07c.07.14-.3-.07-.23.1"/>
    <path class="cls-1" d="M28.31,1.73l.22-.13c-.11-.04-.26-.1-.2-.2-.45.02.22.11-.02.32"/>
    <path class="cls-1" d="M27.71,2.21c.04-.13-.12-.1-.17-.14.03.13.03.16.17.14"/>
    <path class="cls-1" d="M24.85,6.72l-.22-.13c-.01.1.09.05.22.13"/>
    <polygon class="cls-1" points="25.54 8.23 25.72 8.22 25.54 8.07 25.54 8.23"/>
    <polygon class="cls-1" points="23.65 8.03 23.65 7.9 23.64 7.85 23.65 8.03"/>
    <path class="cls-1" d="M19.58,15.61l.28.15c-.01-.08-.31-.28-.28-.15"/>
    <path class="cls-1" d="M17.63,18.57c-.13-.1-.26-.12-.21.03.07-.03.21.02.21-.03"/>
    <polygon class="cls-1" points="12.01 12.13 12.14 12.12 11.99 12.07 12.01 12.13"/>
    <path class="cls-1" d="M17.35,19.69c.08.04.26.11.23.07l-.3-.14.07.07Z"/>
    <path class="cls-1" d="M17.98,19.74c-.14-.09-.39-.22-.69-.3.29.14.16.1.51.26.03.04-.12,0-.23-.04.08.04-.08.01.11.1.25.06.28.01.09-.1.07.01.15.05.21.08"/>
    <path class="cls-1" d="M18.68,16.81l-.03.03s.03-.02.03-.03"/>
    <path class="cls-1" d="M18.3,14.95s.04,0,.07,0c-.02,0-.05,0-.07,0"/>
    <path class="cls-1" d="M18.52,14.52s0,.02-.01.03c.03-.02.04-.03.01-.03"/>
    <path class="cls-1" d="M18.68,16.81l.09-.07c-.11.02-.07.04-.09.07"/>
    <path class="cls-1" d="M17.34,19.15s.04.03.08.05c-.01-.01-.02-.02-.03-.03l-.05-.02Z"/>
    <path class="cls-1" d="M19.06,17.64v.02s.08,0,.14,0l-.14-.02Z"/>
    <path class="cls-1" d="M19.11,18.34s-.27-.03-.39-.04c.12.01.17.03.19.04.05,0,.12,0,.2,0"/>
    <path class="cls-1" d="M18.47,19.32l.03.03s-.02-.02-.03-.03"/>
    <path class="cls-1" d="M19.07,17.15s.08-.02.1-.02l-.1.02Z"/>
    <path class="cls-1" d="M13.76.82h.05s-.05,0-.05,0"/>
    <polygon class="cls-1" points="15.21 .13 15.37 .15 15.2 .12 15.21 .13"/>
    <path class="cls-1" d="M18.63,13.85h0s.03,0,0,0"/>
    <path class="cls-1" d="M17.11,9.48c-.25.05-.32-.09-.6,0,.11,0,.44.07.6,0"/>
    <path class="cls-1" d="M17.38,19.15s0-.01,0-.02c-.01,0-.01.01,0,.02"/>
    <path class="cls-1" d="M16.51,9.47h-.03s.02,0,.03,0"/>
    <path class="cls-1" d="M17.97,12.73s-.08.04-.11.06c.03-.01.06-.03.11-.06"/>
    <path class="cls-1" d="M17.97,13.76l.02-.04s-.02.03-.02.04"/>
    <path class="cls-1" d="M17.42,12.44s.05-.04,0-.04c-.01,0-.02.01-.03.02.04,0,.06,0,.02.02"/>
    <path class="cls-1" d="M17.24,11.97s-.03.02-.05.03h.02s.03-.03.03-.03Z"/>
    <path class="cls-1" d="M14.23,2.72c.07-.04.15-.07.23-.1-.19.07-.28.01-.23.1"/>
    <path class="cls-1" d="M17.49,19.19c-.07-.02-.1-.03-.11-.04,0,0,0,.01,0,.02.04.01.08.02.1.03"/>
    <path class="cls-1" d="M15.35,13.23v-.1s-.01.07,0,.1"/>
    <path class="cls-1" d="M15.06,5.96l-.03-.02s0,.01.03.02"/>
    <path class="cls-1" d="M15.22,12.9c.09-.05.13-.08.16-.11-.02,0-.04,0-.07.01l-.09.1Z"/>
    <path class="cls-1" d="M14.46,2.62h0s0,0,0,0Z"/>
    <path class="cls-1" d="M16.86,2.99s0,.04-.06.06c0-.01-.02-.02-.05-.03h-.03c.05,0,.1-.02.14-.03M15.13,3.94s0-.04,0-.06c.09-.04.19-.06.19-.05-.06.01-.11.06-.18.11M15.08,3.8h0s-.02-.02-.03-.03c0,0,.02.01.03.03M13.65,2.17c.02.1.36-.04.57-.07.13.08-.25.12-.43.2.11.05.46.01.45.06-.06.02-.08.04-.15.05.3-.01.07.21.45.17-.03.01-.06.02-.08.04.17-.07.35-.13.48-.17.02.03.24,0,.02.08,0-.02-.09,0-.17.02h.11c-.32.15-.13,0-.38.07.13.04.43.03.36.12-.32.12-.15-.09-.41.08l.09-.13c-.49.24.02-.07-.51.18-.05.16.21.08.16.23.19-.04.26-.1.45-.14.37.04-.76.42-.29.38.22-.05.63-.19.45-.03l-.37.1c0,.12.54-.13.34.06-.15.03-.15-.03-.18,0-.26.17.22-.03.24.03l-.31.13c.09.09.36.12.46.21-.1.03-.2.04-.29.1.21.08.06.31-.1.49l.3-.03s-.12.06-.18.06c-.09.08.18-.05.3-.05.03.02-.15.08-.24.09.26.02.59.13.3.29h-.09c-.1.09.6-.04.35.09h-.05c-.09.18.19.32-.24.49.42,0-.18.17.41.14-.28.11-.39.09-.59.22-.03.03.37.04.43.09h-.31s.33.06.33.06l-.37.03.08.04s.14-.03.23-.03c.14.07-.22.16-.38.16l.26.16c-.12,0-.17-.04-.24-.06.31.1-.32,0-.04.09.07,0,.18.01.24.02-.19.03-.19.12-.12.19l-.21-.03c-.06.11.08.26.07.4.1-.04.47,0,.5.05h-.33c.2.03.13-.05.37.03-.04.05-.37,0-.48-.04l.11.07c-.1,0-.15-.02-.27-.04.2.04-.34.08.01.15h-.1c-.01.13.09.21.09.33.28.03.21.07.43.13-.1.08-.33.15-.31.26.13.09.24.05.4.1-.26-.02-.24.09-.42.02.03.13.03.17.23.36.11,0,.15-.02.24,0,.04.03-.11.06-.24.04h-.03c.37.2-.78.37-.25.57h-.03s.27.16.27.16c-.05.07-.19-.05-.35,0,.42.19-.07.28.21.44-.76.12.05.41-.41.59l.18-.02c.18.03-.1.06-.14.09.14-.01.16-.06.25-.04.23.33-.18.78-.25,1.18-.02.15.91-.12.53.13l-.33.03c.45.16.13.53.52.68-.08,0-.17.04-.18.01-.21.12.05.19.24.13,0,.04-.17.06-.25.12-.12.1.33.03.12.13-.03.02-.08.01-.1,0,.12,0,.02.16.27.04-.09.13.17.13.04.25.31-.07-.08.2.33.05-.43.15-.28.28-.07.25-.13.03-.11.1-.3.15.03.06.13.08.34-.01-.46.32.49.05-.12.38.3.08.52.18.68.28-.42.17-.11-.15-.55.04.23.08.62,0,.59.19-.04.06-.19.06-.26.07.23.07.08.29.36.32-.04.02-.09.02-.12.02.02.02-.04.08.15,0h-.06c.26-.16.61-.15.76-.21-.56.19-.08.18-.79.41.04,0,.14-.02.27-.07-.03.04-.1.08-.25.12.14.04.33-.07.36,0-.09.04-.13.04-.24.07.19-.03.39-.07.34.03-.06.02-.12.06-.13.04.08.1.56,0,.44.19-.42.13-.11.1-.46.24l.13.02.16-.09c.02.06.29.01.2.11h-.16s.11.1.11.1l.11-.11c.2-.01.44-.18.37-.06-.04,0,.02.06-.18.17h0c.12-.01.25-.02.18.05-.11.05-.39.13-.46.17.3-.08.13.11.46.03-.08.01-.26.08-.3.1l.25-.06c-.07.05-.1.07-.25.12-.01.1.44-.18.28-.02-.02,0-.06.02-.1.01-.06.13.21.14.12.27-.35.14-.11-.05-.4.08.1.1.52.14.47.29l.03-.03c.52-.12-.23.16.02.16-.04,0-.29.05-.23.04-.06.1.17.14.36.24h-.14c-.1.09-.04.16-.09.22.14,0,.12.03.31-.02-.75.28.47.28-.17.51,0-.02-.12-.03-.12-.02l.13.11c.23-.03.14-.03.32-.07.14,0,.24.04.25.07-.16-.05-.37.02-.5.05.07,0,.15,0,.22,0-.41.09.46,0,.19.1h-.12c.06.03.23.06.19.11-.27.02-.13-.04-.35-.04.02.05.51.11.25.15-.07-.02-.08-.06-.15-.08-.31.05-.23.06-.28.09h0s-.15.08-.15.08l.09-.02c.69.09.12.13.57.26-.42-.12-.25-.03-.55-.07-.08.02-.18.04-.27.02.24.06-.2.04.16.14-.1,0-.01.04-.26,0,.07.06.17.01.29.03.33.13-.43.11,0,.3.17.13.48.23.62.37-.16,0-.34-.11-.34-.11-.15.02-.13.06-.04.14-.08-.03-.15-.04-.26-.06.01.04.33.12.18.13-.1-.04-.26-.1-.36-.15.07.07.23.16.3.23-.17-.04-.24-.11-.34-.15.06.07.1.17.35.28h.1s-.22-.07-.26-.1c-.19-.11.11-.03.2,0l.05.05c.56.14-.04-.17.01-.22l.39.14-.31-.16c.11.01.34.06.38.11.21,0-.13-.09.1-.08.04,0,.05.01.07.02l-.11-.08c.08.03.29.06.22.08.26-.05-.27-.23.05-.2h.02c-.11-.15-.3-.06-.63-.23l.76.06-.3-.06s.04-.04.16-.01c-.2-.08-.13-.01-.32-.07.29-.03-.1-.2.38-.16-.23-.05-.18.04-.34-.05.52.03-.08-.09.16-.13.27.04.12.09.37.05-.45-.08.11-.12.03-.19-.36-.02-.14-.13-.26-.22.12,0,.19-.17.32-.26h.06c-.37,0-.3-.1-.38-.15.22-.01.31,0,.41.03v-.06c-.12,0-.19-.02-.23-.06h.28c-.02-.09-.33-.14-.17-.27-.25.03-.7.16-.88.08.14-.02.37-.05.43-.03-.02,0-.12-.02-.06-.04h.24c.1-.05-.2.01-.18-.03.2-.02.14-.05.29-.06.02,0-.08.04,0,.05.03-.05.14-.11.28-.15-.11.02-.26.04-.29,0-.03-.08.23-.06.32-.13-.14,0,0-.07-.3-.03,0-.02.13-.05.21-.07-.13-.02-.07-.19-.37-.08h-.02s0,.01-.01.01h0s0,0,0,0c-.32-.07.1-.3-.05-.41l.1-.02c-.13-.05-.1-.16-.32-.15,0-.02.16-.1.27-.12-.09-.04-.2-.01-.07-.14.18,0,.14-.06.14.02.06-.1.2-.16-.08-.17.25-.05.29-.15.2-.17l-.16.11s-.04-.07-.03-.11l.32-.08c.33-.3-.75-.06-.15-.4-.23.04-.12.14-.39.19.02-.08.44-.32.43-.34.14-.16-.49.08-.41-.06-.11.06-.4.18-.53.15.02-.08.43-.26.54-.26.02.01-.02.03-.05.05.05,0,.11.02.22-.06l-.11.03c.1-.08.05-.16.24-.22-.13-.01-.19.05-.23.11.12-.15-.05-.14.02-.27-.06.04-.18.1-.18.09.08-.19-.23.03-.31-.04.15-.12.41-.15.23-.18.09-.1.29-.13.38-.15-.24,0,.08-.21.09-.27h.11c-.06,0-.07-.02-.08-.04l-.21.12s.02-.06.11-.1c-.15.04-.35.17-.57.21.1-.08-.16-.05.12-.18-.05.14.29-.14.37-.07-.04,0-.05-.02-.02-.06.03-.02.06-.02.08-.02.22-.21-.35.1-.38,0,.17-.06.3-.16.26-.16.01.04-.26.14-.4.15.1-.12-.12-.03-.12-.07l-.04.06c-.17.06-.16.02-.23,0,.12-.06.11,0,.15-.04-.31.07.25-.24.03-.22.1-.08.31-.14.37-.19-.24.01.19-.18-.02-.19-.21.12-.15.1-.39.14l.21.06-.35.05s.17.02.15.06c-.2.04-.14.02-.31.12.3-.2-.24-.03-.04-.19l.54-.23c.2-.2-.35-.05-.26-.23l-.08.08c-.22.07-.06-.06-.17-.07.18-.07.24-.12.35-.19-.14.06-.03-.09-.39.05l.22-.15c.06-.14-.57.1-.54-.02.21-.05.32-.15.49-.14,0-.03.01-.07-.11-.02.11-.06-.28.01-.12-.09-.09.02-.28.09-.28.05.04-.02.09-.03.09-.03-.09.03-.15,0-.34.1.54-.32-.15-.26.32-.53-.09-.05-.17-.11-.21-.16.06-.02.09-.03.08-.01.14-.14-.56.13-.4-.04.29-.15.18,0,.29-.07.62-.21-.13-.09.22-.27h.04c.2-.11-.27-.04-.25-.14,0,0,.06-.01.09-.03-.33.04-.47-.05-.58-.1.25-.04.14,0,.39-.08-.04-.03-.4.11-.49.06.13-.06.23-.14.5-.21l.03.06c.34-.12-.03-.08.02-.13l.15-.03c-.07-.09-.45,0-.45-.12l-.11.03c-.39.01.2-.09-.09-.1l.38-.09c-.1-.02-.41-.07-.49-.14.29,0,.46.06.64.08,0-.04-.05-.12-.25-.11.04.01.14.01.08.04-.31,0-.47-.04-.48-.13.76-.07.17-.23.76-.33-.29-.11.11-.26.06-.41-.59.06-.02-.05-.63-.04-.04-.04-.03-.05.01-.06l.37-.11c.18-.02.13.04.27.04.05-.08.26-.03.42-.08-.22,0-.31-.04-.23-.08l-.28.06c-.32-.13.51-.08.2-.21l.19.05c-.11-.07.01-.21-.47-.31.07,0,.24,0,.28.02.08-.14-.5-.37-.18-.47l.15.02s-.28-.07-.12-.1c.06,0,.15.03.16.01-.05-.02-.25-.1-.16-.13l.16.05c.21-.13-.38-.27-.47-.41.44.05.59-.06.67-.12h.06c.07-.17-.33-.34-.49-.52.49-.06.23-.35.51-.51-.08.02-.34-.03-.38-.06.09-.04-.3-.13.1-.1h0c.4,0,.3-.09.31-.16l-.53-.03c.77-.16-.27-.47.41-.57-.13-.04-.13-.1-.27-.14h.28c.07-.13.1-.2.02-.36l.2.02c.01-.1-.82-.05-.84-.13l.42-.06c-.03-.15.32-.38-.08-.47.06,0,.18-.02.2,0,0-.07.23-.35-.34-.2.37-.08,0-.17-.18-.21l.28-.05c-.36.01-.46.04-.58-.03.03-.03.21-.07.15-.03.12-.11-.27.01-.15-.11l.18-.02c0-.08-.09-.05-.3-.03-.12-.01.03-.15.27-.24-.15.03-.36.06-.3,0,.09-.03.15-.04.18-.04.14-.18-.36-.07-.13-.24.09-.03.13-.05.15-.07.02.1.03.18.01.18.25-.08.26-.17.62-.22-.21,0-.64.02-.55-.08.02-.01.05-.02.08-.04h.03s0-.03-.06-.03c.03-.04.06-.06.05-.09.2-.08.08-.12.07-.16-.26.1-.24.04-.44.16.02-.01.03,0,.05.01,0,0,.02,0,.03,0h-.02s.03.06.05.09c-.15.02-.27.03-.14-.06-.18.04-.36.09-.44.11.35-.18.52-.35.74-.44-.19-.06-.19-.21-.71-.1-.08,0,.13-.09.2-.12.06,0,.06.02.13,0-.15-.01-.11-.15-.46-.04.13-.13.33-.07.24-.15l.11-.02c.5-.37-1-.03-.34-.47-.04.03-.06.04-.12.06.26-.31-.43-.45.07-.76.1-.07-.14-.06-.32-.09l.3-.04-.35-.05c-.26-.1.73-.19.25-.31h-.2s-.11-.14.12-.12c-.04,0-.21-.03-.1-.04h.16s-.26-.13-.26-.13c.12-.08.62.07.67-.04-.06-.05-.44-.19-.55-.18,0,.02-.1.04-.26.02l-.08-.06c-.46-.07-.93-.19-1.27-.09l.27.13h-.23s0-.08,0-.08c-.22.02-.03.08.09.12-.12,0-.2,0-.25.02l.43.14c-.18,0-.36-.07-.46-.01.2.06.41-.02.54.07-.21.03-.38.01-.21.08-.12,0-.2-.01-.25-.04.14.06.06.14.3.18-.26.05.06.17-.38.17.11.02.35.09.37.13-.53-.07-.02.18-.59.19.47.04.23.23.51.31-.04,0-.12,0-.09-.02-.03.07-.17.11-.26.16.39-.05.49.04.74.05-.36.14-.46.03-.82.11.31-.06.34.08.59,0-.22.1-.1.07-.41.17.48-.09.09.04.4.02-.22.13-.44.12-.28.18-.13.08-.32.03-.32.03"/>
    <path class="cls-1" d="M16.5,3.07s-.02,0-.02,0c-.02.01-.04.03-.05.04l.09-.02h0Z"/>
    <path class="cls-1" d="M18.64,16.85h0s-.02,0-.04.01c.01,0,.02,0,.03-.01"/>
    <polygon class="cls-1" points="14.92 5.82 14.99 5.81 14.93 5.8 14.92 5.82"/>
    <path class="cls-1" d="M17.78,17.8s-.05,0-.07.01c.02,0,.04,0,.07-.01"/>
    <path class="cls-1" d="M17.73,18.13l-.1.04c.06-.02.09-.03.1-.04"/>
    <path class="cls-1" d="M17.57,18.37s.09.01.12.01h0-.12Z"/>
    <path class="cls-1" d="M16.25,14.53s0,0-.02,0c-.06,0-.03,0,.02,0"/>
    <path class="cls-1" d="M17.36,15.49c-.05,0-.1.01-.14,0-.01.03-.01.05.14,0"/>
    <polygon class="cls-1" points="15.35 13.24 15.35 13.24 15.35 13.23 15.35 13.24"/>
    <path class="cls-1" d="M17.21,15.44s-.03.06.02.06c.01-.02.03-.06-.02-.06"/>
    <path class="cls-1" d="M17.24,19.34h-.02s.03.02.04.02l-.03-.02Z"/>
    <path class="cls-1" d="M17.27,19.36l.03.02s0-.01-.03-.02"/>
    <path class="cls-1" d="M17.36,19.43l-.06-.05s-.02.02.06.05"/>
    <path class="cls-1" d="M17.47,19.08l-.1-.03s.05.01.1.03"/>
    <path class="cls-1" d="M17.45,18.98s-.22,0-.17.05l.08.02c-.14-.05.25-.01.09-.07"/>
    <path class="cls-1" d="M18.78,18.75s-.06.06-.1.09c.11,0,.26,0,.28.05.35-.09-.24,0-.18-.14"/>
    <path class="cls-1" d="M18.96,18.43c.05.06.16.01.22.02-.1-.05-.12-.06-.22-.02"/>
    <path class="cls-1" d="M18.69,16.1l.25-.06s-.1.03-.25.06"/>
    <polygon class="cls-1" points="17.16 16.18 17.39 16.13 17.3 16.1 17.16 16.18"/>
    <polygon class="cls-1" points="18.95 15.28 18.99 15.28 18.88 15.25 18.95 15.28"/>
    <path class="cls-1" d="M17.5,11.97l-.29.12c.06,0,.4-.12.29-.12"/>
    <path class="cls-1" d="M16.8,10.7c.15-.05.24-.1.09-.1-.01.03-.13.09-.09.1"/>
    <polygon class="cls-1" points="17.44 6.26 17.54 6.3 17.46 6.23 17.44 6.26"/>
  </g>
</svg>