<?xml version="1.0" encoding="UTF-8"?>
<svg id="Layer_2" data-name="Layer 2" xmlns="http://www.w3.org/2000/svg" viewBox="0 0 82.55 50.55">
  <defs>
    <style>
      .cls-1 {
        fill: #ffebca;
      }
    </style>
  </defs>
  <g id="Layer_1-2" data-name="Layer 1">
    <path class="cls-1" d="M82.51,13.99c.06-.08.04-.28-.11-.24l-.1.33.21-.08Z"/>
    <path class="cls-1" d="M81.5,13.47c-.15.2-.21.53-.02.78.04-.35.1-.23.2-.64.14-.06.27.07.26.19.04-.09.22.06.29-.15-.19-.25-.49-.24-.68.03-.07-.06-.04-.15-.04-.22"/>
    <path class="cls-1" d="M68.24,21.72l.1-.04s-.07.02-.1.04"/>
    <path class="cls-1" d="M60.29,27.14c.06-.05.07-.09.06-.12-.05.05-.09.1-.06.12"/>
    <path class="cls-1" d="M58.68,27.71s.06-.02.1-.03c-.05,0-.09,0-.1.03"/>
    <path class="cls-1" d="M68.24,21.72l-.26.09c.06.09.15-.03.26-.09"/>
    <path class="cls-1" d="M80.19,15.17s.05-.1.05-.16c-.02.04-.05.08-.08.11l.03.04Z"/>
    <path class="cls-1" d="M71.31,18.69l.06-.05s-.02-.09-.04-.15l-.03.2Z"/>
    <path class="cls-1" d="M73.95,16.61c-.07.03.07.28.11.4-.03-.12-.02-.2.03-.25-.03-.04-.07-.09-.14-.14"/>
    <path class="cls-1" d="M78.9,14.73l.05-.08s-.03.06-.05.08"/>
    <path class="cls-1" d="M69.47,20.19s-.07-.05-.09-.06c.02.03.05.04.09.06"/>
    <path class="cls-1" d="M55.9,29.11s0,0,.01,0c.05-.07.01-.04-.01,0"/>
    <path class="cls-1" d="M80.1,15.2s-.07.06-.11.09c.06-.03.09-.06.11-.09"/>
    <path class="cls-1" d="M50.49,33.9s.09.03.14.04c-.02-.02-.06-.03-.14-.04"/>
    <path class="cls-1" d="M54.75,30.65l-.13.05c.06-.01.1-.03.13-.05"/>
    <path class="cls-1" d="M48.9,36.14c-.06.04-.11.03-.15.12.02,0,.03,0,.04,0,0-.05.02-.1.1-.12"/>
    <path class="cls-1" d="M46.95,38.18s.05,0,.08,0l.05-.08-.13.07Z"/>
    <path class="cls-1" d="M10.57,19.19c-.02-.1-.01-.19,0-.28-.05.2-.45.07,0,.28"/>
    <path class="cls-1" d="M80.09,15.05c.03.07.04.11,0,.15.03-.02.05-.05.07-.07-.02-.04-.04-.07-.07-.08"/>
    <path class="cls-1" d="M50.39,37.79l-.34.29c.11-.07.23-.18.34-.29"/>
    <path class="cls-1" d="M25.44,31.94l-.1-.05s.05.05.1.05"/>
    <path class="cls-1" d="M49.17,39.07c-.13-.01-.23,0-.31.05,0,.03,0,.06.01.09l.3-.13Z"/>
    <path class="cls-1" d="M16.94,20.04c.14.04.15.11.13.17-.06-.03-.12-.06-.22-.1l-.03.02s.08-.07.12-.09M17.35,22.65c-.07-.07-.17-.14-.29-.21.03-.1.11-.16.18-.11-.07.03.06.18.11.32M16.67,22.19h0c-.07-.04-.14-.07-.18-.09.04.02.09.05.18.09M7.63,18.16c.38.2.34-.23.52-.38.5.14.09.35.16.6.33.06.7-.14.91-.01-.01.06.02.1-.06.15.43-.11.9.44,1.41.29.01.04,0,.08,0,.1.03-.19.11-.37.18-.48.17.08.42-.04.38.2-.1-.06-.15.02-.24.06h.23c0,.39-.3-.02-.41.21.4.08.93.03,1.15.26-.1.33-.67-.22-.46.23l-.35-.33c.07.64-.23-.16-.21.5.49.36.68.16,1.16.52.21-.1.09-.27.3-.37.91.11.18,1.07.95.97.25-.12.52-.46.79-.04l-.32.26c.48.32.57-.32.95.22-.17.07-.45-.12-.4-.04.18.46.35-.05.61.11l-.12.32c.55.27,1.26.43,1.86.75-.09.06-.24.09-.17.26.81.33,1.47,1.07,1.95,1.72l.42-.03c.05.05.01.19-.08.18.16.28.13-.13.32-.12.15.1.06.28-.08.27.57.15,1.51.7,1.6,1.34l-.14-.03c.17.4.78.02.79.52l-.09-.04c.19.39.54.92.85,1.35.31.45.59.87.68,1.33.42-.15.56.94,1.05.59.2.65,0,.59.46,1.35.14.18.5-.01.74.14l-.21.22.5.04-.12.4.24.13c-.06-.08-.06-.25.01-.3.39.19.55.84.44.96l.85.48c-.1.07-.24,0-.39-.04.57.13-.17.29.35.42,0-.09.16-.1.21-.14.02.29.38.66.68.89l-.21.09c.42.53,1,1,1.46,1.6-.09-.27.24-.45.41-.29l-.21.27c.25,0-.04-.26.33-.17.14.26-.18.38-.37.31l.3.21c-.07.07-.16.04-.27.1.25,0,.09.66.49.64l-.07.07c.43.63.71.86,1.06,1.39.24-.14.32.1.62.15.17.45.25,1.01.56,1.48.33.27.27-.02.5.05-.2.15.11.64-.2.48.39.57.49.73,1.13,1.38.04-.14.02-.25.13-.25.12.11.1.37-.02.41l-.04-.02c.84.63.61,2.36,1.54,2.72l-.05-.02c.23.18.48.34.72.51.2.33-.29-.07-.24.26.89.45.86,1.17,1.59,1.54-.04.24.04.45.17.65.06.1.16.19.26.28.16.14.33.29.49.43.75.6,1.45,1.05,2.01,1.84l-.08-.3c.24-.03.34.42.55.64-.06-.23-.32-.47-.18-.48.04.04.08.05.12.06.32-.69.65-1.33,1.03-1.93.18-.3.39-.62.58-.87.12-.15.26-.3.39-.45.54-.59,1.15-1.13,1.71-1.68.41-.42-.49-.85.32-1.14l.11.38c.49-1.18,1.67-1.78,2.27-2.9,0,.1.07.18-.01.26.35-.02.66-.68.53-.82.15-.12.16.09.31.08.28-.09.23-.68.49-.61.04.01,0,.11-.01.15.03-.2.56-.54.25-.62.41-.24.51-.71.88-.86-.06-.39.65-.46.39-.82.3.34.81-.32.86-.68.03.17.27-.08.33.13.22-.24.37-.52.17-.64.8-.05.53-1.18,1.26-.94.51-.89,1-1.64,1.56-2.28.28.35-.66.67-.3.99.44-.69.53-1.29,1.22-1.73.2-.09.04.23.04.33.49-.67,1.22-.96,1.65-1.58.02.04-.01.12-.05.19.1-.1.3-.14.17-.3l-.08.13c-.36-.1.08-.84.02-.98.15.62.68-.3.79.53.05-.09.09-.23,0-.33.14-.05.22,0,.19.2.35-.38.08-.46.47-.72.05.08,0,.17.03.29.08-.29.17-.59.55-.74.01.06.09.1,0,.17.55-.4.69-1.07,1.43-1.31.04.48.29-.02.52.28l.28-.31-.23-.07c.3-.18.43-.58.75-.63l-.14.27.53-.41-.39.08c.2-.35-.28-.38.18-.54-.06.08.31-.18.58-.09h0c.09-.19.18-.39.45-.45.12.07.17.38.25.43-.01-.36.67-.51.68-.91-.02.11.08.27.12.3v-.29c.17-.02.22,0,.27.15.45-.22-.38-.32.23-.46-.03.04,0,.06-.05.15.56-.23.89-.75,1.41-.97.35.21-.35.35-.01.51.63-.51,1.08-1.33,1.74-1.73l-.14.05c-.25-.48.61-.15.75-.59-.05.09.09.31.07.24.46-.27.74-.79,1.23-1.43v.17c.33-.11.67-.48.96-.65-.02-.17.14-.28-.08-.35,1.27-.09,1.18-1.6,2.29-1.69-.08.07-.12.26-.05.2l.5-.58c-.19-.14-.17-.04-.41-.08-.01-.17.08-.39.23-.51-.17.34.24.28.43.29-.06-.04-.07-.13-.13-.18.57.07-.24-.4.36-.53l.05.11c.12-.18.17-.42.37-.52.24.16-.1.23.03.41.23-.2.17-.78.56-.73-.06.14-.21.25-.27.39.43.06.41-.01.62-.11h-.02s.5-.18.5-.18h-.15c-.09-.78.56-.54.74-1.2-.19.63.07.25.19.53.14,0,.34,0,.34.1.07-.32.4,0,.54-.46.05.08.23-.09.28.15.25-.19-.13-.13-.16-.25.31-.5,1.19-.04,1.71-.74.52-.42.51-.77.9-1.2.25.02.05.39.05.39.37-.05.56-.24.72-.51,0,.1.1.12.24.15.17-.17-.1-.38.23-.46.03.12.09.29.07.45.15-.24.23-.55.4-.77.15.1.02.3.02.44.18-.24.49-.51.47-.78-.07,0-.14,0-.21,0,.09-.06.15.18.11.26-.09.29-.34.1-.41.03l.12-.16c-.5-.38-.59.54-.91.77l-.13-.43-.11.54c-.14-.03-.33-.17-.21-.35-.35.01-.11.28-.45.23-.04-.01-.04-.04-.03-.07-.05.09-.11.17-.16.25,0-.1-.19-.23-.02-.26-.5.03-.56.64-.86.43l.03-.04c-.59.4.06.31-.31.84l-.61-.57.04.31c-.07.02-.22.05-.24-.07-.18.29.09.11.01.35-.44-.13-.86.49-1.13.09-.02.26.39.02.11.33-.33-.42-.36.27-.76.23-.05-.29.32-.32-.11-.36.04.5-.62.28-.81.51.19.3-.41.47-.71.85-.05-.12-.82.37-1.24.54l-.03-.05c.16.34-.23.56-.43.83-.13-.18-.14-.28-.07-.47l-.24.2c.02.14-.01.25-.14.41l-.12-.26c-.31.27-.42.77-.93.98.15.21.78.27.48.76-.11-.09-.28-.26-.21-.39-.02.04-.05.2-.16.21v-.32c-.23.08.05.23-.11.34-.13-.15-.2-.01-.28-.15.02-.05.18-.05.18-.15-.18.11-.46.2-.62.14.09.07.18.2.08.32-.29.28-.26-.09-.5,0,.02.17-.27.23-.08.46-.09.08-.2-.01-.28-.04-.07.24-.71.67-.32.75l.05-.02-.02.03h0s0,0,0,0c-.32.67-1.18.8-1.61,1.32l-.06-.08c-.24.34-.65.62-.74.96-.09.07-.33.03-.36-.09-.19.25-.16.35-.61.49.14-.32-.18-.06.18-.29-.37.17-.53.1-.72.56-.03-.29-.43-.09-.53.07h.33c-.15.14-.31.23-.48.31l-.1-.33c-.87.08-.85,1.36-1.75,1.11-.06.31.47-.09.44.24-.35.16-.93-.04-1.03.02-.54.11-.16.67-.69.84.12.07.34.3.05.61-.35.16-.66-.18-.5-.39.07-.06.13-.05.15-.01.08-.1.19-.23,0-.26l.02.13c-.22,0-.66.28-.66.05-.19.25,0,.23.21.17-.51.11-.65.4-1.14.57.1.01.24.09.17.13-.7.27-.16.36-.55.67-.34,0-.15-.42-.49-.02-.33.07-.23-.23-.17-.38-.26.44-.81.35-1.05.46l.15-.22c-.09.13-.19.19-.29.26l.25.12c-.14.04-.24.11-.3.03-.03.21.31.26.19.6-.23,0-.4.43-.64.21.56-.25-.24-.22.16-.55-.06.09-.16.15-.3.2-.04-.02-.02-.06,0-.1-.64.1-.01.45-.51.79-.04-.19-.31-.19-.37-.1.2-.14.27.17.17.41-.39.12-.27.33-.44.44l.22-.08c.05.19-.12.28-.3.49-.1-.1.13-.22.02-.21-.04.43-.73.15-.92.58-.22.03-.22-.25-.41-.2-.22.47-.55.14-.8.61.26.09.24.03.14.43l.5-.66-.17.6c.19-.15.29-.45.43-.51-.07.31-.08.24.13.32-.48-.06-.36.58-.8.65l-.38-.45c-.61.2-.56.92-1.19,1.34l.25-.1c.09.24-.31.35-.4.59-.12-.16-.28-.1-.43-.11.11.09-.38.38-.15.7l-.41.05c-.48.35-.07.88-.51,1.25-.03-.28-.31-.19-.16-.57-.13.14-.28.23-.18.33-.16,0-.17.57-.43.56,0,.12.13.28-.02.43-.04-.01-.07-.07-.07-.07.07.07-.14.33.15.35-.84-.01-1.1,1.21-1.82,1.21-.24.35-.54.75-.79,1.03-.03-.06-.07-.07,0-.11-.49.25.18.63-.37.91-.44,0,.09-.35-.12-.3-.52-.4-.43.58-.97.6l.04-.1c-.37.07-.33.71-.72,1.04,0,0-.02-.06-.07-.07,0,.48-.37,1.02-.62,1.44-.09-.28.05-.25-.21-.36-.12.19.35.23.12.6-.2,0-.49.16-.73.01l.26-.32c-.41-.08-.35.41-.53.53l-.1-.12c-.37.52-.08.77-.52,1.28l.14.02c.08.53-.36.1-.36.57l-.38-.15c-.08.25-.21.91-.39,1.31-.1-.37.07-.88.13-1.24-.15.19-.47.69-.38.91.02-.1.02-.26.12-.3.08.42-.03.84-.27,1.21-.3-.24-.43-.12-.54,0-.11.13-.23.34-.35-.04v.11c-.08.12-.24-.1-.32-.24-.04-.08-.08-.16-.1-.22-.03-.04,0-.03-.07-.1l-.23-.22c-.19.65-.2-.18-.6.28-.18-.13-.23-.2-.21-.24-.06-.25-.13-.48-.18-.73.03-.24.23.07.32-.04-.27-.39.07-.32,0-.66-.13.19-.34.08-.45-.18l.02.47c-.68-.3.04-.76-.62-1.08l.28.05c-.31-.19-.73-1.01-1.33-1.01.02-.09.12-.25.24-.15-.4-.72-1.45-1.28-1.53-2l.16-.02c-.12-.11-.38-.09-.36-.34.06-.02.16-.02.13-.09-.09-.04-.44-.23-.48-.45l.24.07c-.26-.82-1.01-.89-1.46-1.44.38-.23.15-.87.04-1.19l.06-.02c-.49-.88-1.22-1.24-1.9-1.89.05-.75-1.01-1.7-1.44-2.57.04.16-.27.21-.42.12-.08-.22-.63-.24-.31-.49l.05.06c.18-.39-.21-.65-.44-.9l-.42.33c-.09-1.19-1.86-1.45-1.7-2.27-.24-.05-.42-.24-.66-.3l.21-.19c-.34-.46-.52-.69-1.02-1.17l.25-.03c-.24-.3-.94.16-1.19-.12l.26-.35c-.44-.54-.5-1.28-1.18-1.65.06-.02.18-.06.25.02-.16-.3-.6-1.4-.98-.91.3-.24-.49-.67-.9-.84l.25-.14c-.5-.01-.58.05-.99-.21-.06-.1.08-.23.14-.07-.18-.37-.39,0-.63-.42l.25-.02c-.28-.27-.32-.18-.61-.16-.25-.07-.52-.51-.41-.74-.14.09-.43.12-.56-.07.03-.09.13-.09.18-.09-.41-.54-.96-.29-1.16-.76.05-.08.05-.14.03-.18.42.29.74.54.7.54.15-.21-.16-.48.31-.58-.39-.04-1.09-.01-1.36-.33,0-.03,0-.06,0-.1h.05c-.06-.07-.15-.1-.23-.11-.08-.11-.14-.17-.24-.24.08-.2-.33-.35-.5-.47-.14.25-.34.07-.25.4-.02-.03.05,0,.17.05.03,0,.06.02.09.02h-.02c.11.08.26.17.43.27-.21.03-.42.04-.52-.21-.18.1-.38.19-.48.23-.02-.48-.37-.93-.31-1.18-.61-.19-1.32-.65-1.92-.37-.19-.02-.1-.23-.12-.33.11,0,.22.07.3.03-.37-.05-.94-.45-1.19-.16-.31-.35.38-.18-.19-.41l.12-.06c-.78-1.08-2.14-.05-2.96-1.32.06.08.09.12.08.19-1.17-.97-2.88-1.11-3.89-2.29-.31-.3-.46-.11-.77-.08l.07-.31-.55.08c-.67-.1-.51-1.18-1.41-1.19l-.03.23c-.21-.19-.79-.4-.62-.57-.04.02-.2.12-.22-.03l.09-.13-.7-.19c-.34-.41.43-.44-.12-.94-.25-.13-.91-.16-.9-.01.08.08.16.26.07.39l-.26-.11c-.34.32-.83.54-.51,1.23l.55.08-.02.27-.32-.25c.04.31.27.26.48.25-.04.12-.04.23,0,.32l.64-.07c-.06.18-.38.16-.19.43.3-.04.08-.45.44-.35.06.3-.09.4.23.41-.04.12-.13.15-.24.13.28.02.55.31.79.17.05.35.7.37.44.73.12-.05.53-.07.72.03-.61.25.67.44.29.87.49-.25,1.01.34,1.59.36-.04.02-.13.06-.16.02.23.17.24.34.36.5.22-.33.65-.19.98-.29.13.5-.4.31-.48.68.13-.29.69,0,.7-.29.13.33.15.21.12.56.27-.41.26.04.59-.12.23.39-.12.45.32.51.11.23-.3.21-.3.21"/>
    <path class="cls-1" d="M16.54,20.22s-.04,0-.06-.01c.01.04.02.07.03.1l.09-.05-.06-.04Z"/>
    <path class="cls-1" d="M68.36,21.67h-.02s.04,0,.05.01c-.02,0-.02,0-.04-.01"/>
    <polygon class="cls-1" points="24.68 31.38 24.72 31.32 24.63 31.32 24.68 31.38"/>
    <path class="cls-1" d="M72.47,19.4s.05.02.09.02c-.01-.01-.05-.02-.09-.02"/>
    <path class="cls-1" d="M74.06,18.24l.28-.08c-.13.02-.22.05-.28.08"/>
    <path class="cls-1" d="M75.36,17.5s-.03-.08-.04-.11h0l.05.11Z"/>
    <path class="cls-1" d="M55.97,32.08s-.03.03-.04.05c-.08.12-.01.05.04-.05"/>
    <path class="cls-1" d="M61.6,27.6c-.04.08-.08.17-.13.24.12-.05.21-.1.13-.24"/>
    <polygon class="cls-1" points="50.39 37.79 50.43 37.75 50.43 37.75 50.39 37.79"/>
    <path class="cls-1" d="M61.18,28.01c.14-.02.22-.09.29-.17-.1.04-.22.08-.29.17"/>
    <path class="cls-1" d="M81.17,14.47l.05-.02s-.01-.03-.01-.04l-.04.06Z"/>
    <path class="cls-1" d="M81.21,14.41l.04-.06s-.05.02-.04.06"/>
    <path class="cls-1" d="M81.33,14.24l-.09.12s.09-.03.09-.12"/>
    <path class="cls-1" d="M79.56,15.53l.04.1s-.01-.06-.04-.1"/>
    <path class="cls-1" d="M78.96,15.93c.15-.05.5-.03.66-.22l-.03-.08c0,.2-.58.08-.63.3"/>
    <path class="cls-1" d="M76.04,15.79l.52-.12c-.12-.07-.29-.16-.08-.27-.74-.05.22.17-.44.39"/>
    <path class="cls-1" d="M74.45,16.44c.21-.2-.09-.13-.11-.19-.1.18-.12.23.11.19"/>
    <path class="cls-1" d="M65.46,23.79l-.13-.22c-.14.16.06.08.13.22"/>
    <polygon class="cls-1" points="64.42 26.15 64.69 26.16 64.64 25.91 64.42 26.15"/>
    <polygon class="cls-1" points="62.15 25.49 62.35 25.3 62.41 25.22 62.15 25.49"/>
    <path class="cls-1" d="M47.12,37.64l.27.18c.06-.14-.17-.42-.27-.18"/>
    <polygon class="cls-1" points="28.04 31.16 28.24 31.21 27.95 31.04 28.04 31.16"/>
    <path class="cls-1" d="M33.9,43.04c-.17-.06-.45-.14-.75-.08.32.06.19.09.57.15.04.06-.1.12-.22.12.09.02-.07.11.14.13.25-.11.26-.21.04-.31.07-.03.16-.01.22,0"/>
    <path class="cls-1" d="M35.21,36.99l-.05.03s.04-.02.05-.03"/>
    <path class="cls-1" d="M36.34,33.28s.03.05.06.06c-.02-.03-.03-.06-.06-.06"/>
    <path class="cls-1" d="M36.84,32.69s-.02.02-.03.04c.03,0,.05-.02.03-.04"/>
    <path class="cls-1" d="M35.21,36.99l.13-.07c-.1-.03-.09.03-.13.07"/>
    <path class="cls-1" d="M33.08,42.16s.05.04.09.06c-.01-.02-.03-.04-.03-.06h-.05Z"/>
    <path class="cls-1" d="M35.09,38.69v.03s.07.03.12.05l-.12-.08Z"/>
    <path class="cls-1" d="M34.91,39.94s-.26-.08-.38-.11c.11.03.16.06.18.09.05,0,.12.02.2.02"/>
    <path class="cls-1" d="M34.22,41.89l.04.04s-.02-.02-.04-.04"/>
    <path class="cls-1" d="M35.35,37.81s.08.01.1.01c-.03,0-.07-.01-.1-.01"/>
    <path class="cls-1" d="M38.54,1.46s.03,0,.05,0c-.03,0-.05-.01-.05,0"/>
    <polygon class="cls-1" points="39.99 .03 40.15 .03 39.97 0 39.99 .03"/>
    <path class="cls-1" d="M37.42,31.51h0s.02.02,0,0"/>
    <path class="cls-1" d="M38.32,20.39c-.26.1-.3-.23-.6-.07.11,0,.42.21.6.07"/>
    <path class="cls-1" d="M33.12,42.13s0-.04,0-.06c0,.03,0,.04,0,.06"/>
    <path class="cls-1" d="M37.72,20.32h0l-.03.02s.02-.01.03-.02"/>
    <path class="cls-1" d="M37.62,28.68c-.05,0-.09,0-.12.02.03,0,.06,0,.12-.02"/>
    <path class="cls-1" d="M36.96,30.71l.04-.05s-.04.03-.04.05"/>
    <path class="cls-1" d="M37.34,27.56s.06-.03.03-.07c-.01,0-.02,0-.03,0,.04.02.05.04,0,.06"/>
    <path class="cls-1" d="M37.44,26.44s-.04.01-.06.02v.04s.06-.05.06-.05Z"/>
    <path class="cls-1" d="M38.38,4.75c.08-.01.17-.02.26-.02-.2,0-.25-.18-.26.02"/>
    <path class="cls-1" d="M33.24,42.17c-.07,0-.11-.02-.12-.04,0,.01,0,.03.01.04.04,0,.08,0,.11,0"/>
    <path class="cls-1" d="M35.13,27.29l.06-.17s-.05.11-.06.17"/>
    <path class="cls-1" d="M37.06,12.61l-.03-.05s0,.03.03.05"/>
    <path class="cls-1" d="M35.2,26.6c.1-.02.16-.05.2-.08-.02,0-.04-.02-.07-.03l-.13.11Z"/>
    <path class="cls-1" d="M40.39,7.44c.03.06-.03.07-.08.07,0-.02,0-.06-.02-.1h-.03c.05,0,.1.02.14.03M38.35,7.81s.03-.09.04-.14c.1,0,.19.03.18.07-.06-.03-.13.04-.22.07M38.41,7.48h0s0-.07,0-.08c0,.02,0,.04,0,.08M38.11,3.53c-.02.16.35.11.56.17.08.21-.28.06-.48.11.08.13.41.27.39.36-.06,0-.09.01-.16-.02.28.16-.03.39.32.58-.03,0-.07,0-.09,0,.19,0,.37.02.51.04,0,.08.21.17-.03.17.01-.05-.08-.06-.15-.09l.09.09c-.35.02-.1-.12-.36-.15.09.17.35.38.24.49-.34-.02-.08-.29-.4-.17l.15-.16c-.55.07.05-.1-.53-.05-.13.22.14.29,0,.51.18.08.28.02.46.1.29.39-.88.14-.47.45.21.1.64.19.38.33l-.37-.12c-.07.22.53.22.23.42-.14-.07-.1-.2-.15-.17-.32.11.2.14.18.26l-.34-.03c.01.25.21.56.23.84-.1-.03-.19-.1-.31-.05.11.37-.17.72-.43,1.01l.26.18s-.14.03-.19-.01c-.13.11.18.04.28.12,0,.08-.18.07-.26,0,.2.27.41.74.05.92l-.08-.06c-.15.16.55.32.25.44l-.04-.04c-.2.38-.02.88-.52,1.11.4.14-.26.37.31.5-.33.18-.42.09-.68.38-.04.08.34.2.38.32l-.3-.05.29.2h-.38s.06.13.06.13c.02-.04.15-.06.24-.04.11.18-.28.35-.44.32l.19.42c-.12-.03-.15-.1-.22-.16.27.26-.33-.02-.08.22.07-.01.18.04.24.06-.2.06-.24.27-.19.44l-.21-.07c-.1.27,0,.61-.05.93.12-.1.47-.01.49.09l-.33-.02c.19.09.14-.08.36.08-.06.11-.38.02-.47-.06l.09.16c-.1,0-.14-.05-.26-.08.19.09-.36.2-.03.34h-.1c-.05.31.04.48.02.74.28.04.2.14.42.24-.11.18-.36.36-.37.59.12.18.23.08.39.17-.26-.02-.26.21-.43.07,0,.28,0,.36.17.73.11-.03.16-.06.24-.03.03.07-.12.13-.24.11l-.02-.02c.34.43-.84.82-.34,1.19l-.02-.02.25.35c-.06.14-.18-.11-.35-.01.39.39-.12.54.14.85-.77.15-.02.79-.52,1.04h.18c.17.09-.11.08-.16.14.14,0,.17-.07.26-.01.16.67-.37,1.32-.59,1.97-.07.24.91.21.46.49l-.32-.11c.35.52-.1,1,.2,1.51-.07-.04-.17-.04-.17-.09-.25.08-.04.37.15.39-.03.07-.18,0-.28.04-.15.09.28.28.04.31-.04,0-.08-.04-.09-.06.11.08-.06.3.22.27-.15.17.09.35-.09.48.3.12-.18.29.26.36-.45-.06-.39.28-.19.41-.13-.05-.15.08-.33.02,0,.13.06.26.3.26-.56.18.39.52-.32.58.2.4.33.78.39,1.13-.44-.07,0-.38-.47-.42.15.35.51.58.36.89-.07.08-.19-.07-.26-.11.15.35-.12.62.08.94-.04,0-.08-.04-.11-.08,0,.06-.08.12.12.14l-.05-.06c.31-.05.58.31.74.35-.57-.18-.19.26-.9,0,.03.04.12.1.26.12-.05.05-.13.05-.27-.02.08.21.3.18.27.35-.1-.02-.13-.06-.24-.1.18.12.35.24.24.38-.06-.02-.14-.02-.13-.06,0,.26.42.54.18.79-.41-.17-.16.07-.53,0l.08.17.19-.02c-.03.13.2.31.06.4l-.13-.13v.27s.18-.11.18-.11c.16.18.47.09.32.25-.03-.05-.03.14-.27.16h0c.1.09.2.19.09.27-.12,0-.4-.12-.48-.12.29.14,0,.34.31.5-.07-.05-.26-.1-.3-.1l.23.12c-.09.04-.13.04-.28,0-.09.18.47.06.22.23-.02-.02-.06-.02-.08-.07-.16.2.04.48-.13.65-.38-.03-.04-.21-.37-.21-.01.32.27.73.11,1l.05-.04c.5.17-.31.15-.11.36-.03-.05-.27-.12-.22-.1-.13.18.02.44.1.79l-.12-.07c-.15.09-.15.29-.24.41.12.07.08.14.29.14-.85.22.22.85-.48,1.06,0-.04-.09-.13-.1-.09l.06.33c.23.02.15-.01.33-.04.13.07.21.17.2.25-.12-.17-.36-.07-.5-.04.07,0,.14.04.22.05-.44.08.45.12.14.28l-.12-.04c.05.09.19.2.14.28-.27-.01-.11-.11-.32-.16,0,.13.45.33.17.4-.06-.07-.05-.14-.11-.21-.33.07-.26.1-.32.18h0s-.18.18-.18.18l.09-.04c.66.27.08.34.5.61-.4-.26-.24-.07-.54-.13-.09.04-.2.11-.28.08.23.13-.22.14.12.33-.1,0-.02.11-.26.06.06.14.17-.01.29.01.31.24-.46.44-.02.78.17.27.5.33.65.56-.16.07-.35-.08-.35-.08-.15.12-.12.22-.01.34-.08-.03-.16,0-.27.03.02.1.35.07.21.19-.11-.02-.28-.05-.39-.1.09.12.27.23.36.34-.17.04-.26-.07-.37-.11.07.13.16.35.43.38l.09-.09s-.23.03-.28,0c-.22-.11.09-.17.19-.17l.06.08c.57-.1-.09-.33-.06-.5l.42.07-.34-.17c.11-.04.34-.05.4.03.21-.11-.15-.11.08-.2.04-.01.06,0,.07,0l-.12-.12c.09.03.29,0,.23.06.25-.19-.29-.34.03-.4l.03.02c-.12-.29-.3-.05-.65-.29l.76-.08-.3-.05s.04-.08.16-.06c-.2-.13-.13,0-.32-.07.29-.11-.09-.4.4-.38-.22-.08-.19.11-.34-.06.52.02-.07-.18.19-.28.26.08.1.17.36.08-.44-.14.13-.23.06-.34-.36-.06-.12-.25-.2-.45.12.03.26-.3.42-.43l.06.02c-.36-.1-.25-.26-.3-.4.21.05.29.09.38.18l.02-.12c-.11-.05-.16-.1-.19-.18l.26.09c.02-.15-.25-.38-.03-.53-.25-.07-.73,0-.85-.25.14.02.37.07.41.14-.01-.02-.1-.09-.03-.11l.21.14c.12-.07-.18-.09-.14-.16.19.05.15-.02.3.02.01.02-.09.05-.02.09.05-.07.19-.15.34-.14-.11-.02-.26-.06-.27-.13.02-.16.24,0,.36-.06-.12-.07.04-.13-.25-.21.01-.04.15-.02.23-.02-.11-.11.06-.38-.27-.37l-.03.02v-.02s0,0,0,0h0c-.22-.34.3-.5.24-.79l.1.02c-.07-.18.03-.36-.15-.53.01-.05.2-.06.31-.01-.04-.14-.14-.18.06-.31.14.16.16,0,.09.15.12-.13.28-.13.07-.36.23.12.34-.04.28-.13l-.2.06c-.01-.09.03-.16.07-.23l.31.12c.47-.22-.52-.74.2-.83-.21-.14-.2.14-.45,0,.08-.14.58-.18.6-.23.23-.16-.43-.3-.26-.49-.12,0-.44-.05-.51-.23.08-.14.53-.07.6.04,0,.04-.04.05-.08.04.03.06.07.13.21.1l-.11-.05c.13-.05.17-.26.35-.17-.08-.14-.18-.09-.26-.02.21-.16.07-.3.23-.48-.07.02-.21.02-.2-.01.2-.26-.2-.17-.21-.38.2-.08.42.12.31-.11.15-.1.31.03.4.1-.19-.23.21-.32.27-.42l.08.12c-.05-.07-.04-.12-.03-.17l-.24.02c.05-.05.06-.1.16-.08-.14-.08-.4-.02-.59-.17.13-.06-.09-.25.23-.23-.15.23.32.02.33.24-.03-.05-.02-.09.03-.15.04,0,.06.02.08.04.32-.19-.34-.16-.29-.39.17.06.34,0,.31-.05-.02.1-.3,0-.42-.1.16-.13-.08-.18-.05-.25l-.08.08c-.17-.05-.14-.13-.18-.24.14.01.08.11.15.08-.29-.16.36-.22.17-.41.13-.06.33.04.42-.02-.2-.21.27-.17.1-.38-.24.03-.19.04-.4-.12l.13.33-.32-.24c-.01.09.12.22.08.27-.18-.12-.12-.1-.33-.08.37-.08-.17-.28.08-.4l.59.08c.29-.19-.25-.44-.07-.71l-.11.08c-.23-.07-.01-.18-.1-.29.2.03.27-.02.4-.05-.15-.01.04-.21-.35-.28l.27-.1c.13-.22-.53-.33-.44-.55.21.09.36,0,.49.17,0-.07.05-.14-.08-.15.13-.03-.24-.24-.05-.29-.08-.04-.29-.07-.26-.15.04,0,.1,0,.1,0-.1,0-.12-.14-.34-.09.64-.17.02-.65.56-.8-.05-.17-.1-.37-.1-.52.06.01.1,0,.08.04.2-.19-.55-.18-.33-.39.33-.09.16.14.29.08.65.02-.06-.29.33-.42l.03.04c.23-.1-.22-.31-.16-.51,0,0,.06.02.1.01-.32-.16-.41-.43-.48-.62.25.08.13.1.39.08-.03-.09-.41,0-.47-.18.14-.04.27-.15.55-.15v.16c.36-.05,0-.21.08-.29l.16.02c-.03-.25-.42-.28-.37-.54l-.12.02c-.38-.18.23-.1-.05-.27h.4c-.09-.11-.35-.37-.41-.55.28.12.42.33.58.47.01-.09,0-.32-.19-.38.03.04.13.1.06.13-.3-.14-.44-.3-.42-.49.76.1.23-.47.84-.55-.25-.35.18-.64.17-1.03-.6.08,0-.11-.62-.15-.03-.09-.02-.13.02-.13l.39-.24c.18-.05.13.1.26.1.07-.19.27-.06.44-.17-.22,0-.31-.1-.21-.2l-.3.13c-.3-.3.53-.18.24-.49l.18.11c-.1-.15.06-.51-.42-.7.07-.02.24-.03.28.03.11-.32-.44-.8-.11-1.03l.15.04c-.04-.07-.27-.14-.11-.2.06.01.15.04.16.02-.05-.04-.24-.2-.14-.27l.16.09c.23-.3-.34-.55-.41-.84.44.06.61-.18.7-.29h.06c.11-.35-.27-.67-.39-1.05.5-.14.32-.7.64-1-.09.04-.34-.07-.37-.14.1-.07-.26-.28.13-.2v.03c.39,0,.31-.18.35-.31l-.52-.11c.81-.21-.11-.95.6-1.02-.11-.11-.09-.21-.21-.32l.28.06c.11-.22.17-.33.16-.62l.19.1c.05-.16-.76-.35-.75-.51l.42.03c.05-.28.47-.5.14-.85.06.02.18.05.19.1.04-.13.38-.46-.2-.52.37.07.09-.28-.04-.47l.27.07c-.33-.19-.42-.22-.48-.41.04-.04.23,0,.15.05.17-.12-.24-.16-.06-.3l.16.1c.05-.14-.05-.15-.24-.27-.09-.11.12-.26.37-.24-.15-.05-.34-.16-.25-.24.1,0,.15.05.17.07.23-.21-.25-.42.05-.54.09.01.14,0,.17,0-.04.19-.08.35-.1.33.25.05.33-.1.65.08-.17-.16-.55-.45-.4-.58.03,0,.05,0,.09,0l.03.02s.01-.07-.02-.11c.05-.04.09-.07.1-.12.21.02.14-.16.17-.24-.28-.04-.22-.14-.46-.08.02,0,.03.02.03.07,0,.01,0,.03.02.04h-.02s0,.11-.01.19c-.13-.09-.24-.17-.07-.23-.17-.07-.35-.15-.43-.18.4-.04.65-.22.89-.21-.12-.27-.01-.59-.51-.82-.06-.08.16-.06.25-.07.05.05.03.09.1.13-.11-.16,0-.42-.35-.5.19-.15.32.15.3-.1l.11.05c.65-.4-.83-.88-.02-1.31-.05.03-.07.05-.14.05.4-.56-.18-1.25.39-1.8.12-.16-.12-.2-.29-.31l.3-.02-.34-.2c-.24-.26.76-.4.29-.73l-.21.03c.04-.11-.1-.36.13-.34-.04-.01-.21-.04-.1-.08h.16s-.27-.28-.27-.28c.12-.21.63.04.66-.28-.06-.12-.45-.34-.56-.29,0,.05-.1.12-.26.12l-.08-.11c-.47-.02-.94-.1-1.27.15l.28.18-.23.05v-.15c-.23.08-.04.13.09.2-.12.01-.21.04-.25.07l.44.18c-.18.02-.36-.08-.46.03.21.08.41-.07.54.07-.21.08-.38.05-.21.15-.12,0-.19-.01-.25-.05.14.09.05.23.3.29-.26.08.06.3-.38.27.1.03.34.17.35.25-.52-.17-.04.3-.61.23.47.14.18.4.43.61-.04-.01-.11-.04-.09-.05-.05.11-.19.12-.29.19.39.05.47.22.7.33-.39.1-.45-.12-.82-.11.32.02.29.26.56.24-.24.08-.12.08-.45.1.49.06.07.1.36.22-.25.12-.46,0-.33.17-.16.06-.31-.1-.31-.1"/>
    <path class="cls-1" d="M40.05,7.29s-.02-.01-.02-.02c-.03,0-.05.02-.07.02l.08.03v-.03Z"/>
    <path class="cls-1" d="M35.16,37.03h0s-.02,0-.04,0c.02,0,.02,0,.04,0"/>
    <polygon class="cls-1" points="36.99 12.22 37.06 12.23 37 12.19 36.99 12.22"/>
    <path class="cls-1" d="M33.8,38.6s-.05,0-.08,0c.02,0,.05,0,.08,0"/>
    <path class="cls-1" d="M33.59,39.38l-.12.1c.07-.04.1-.07.12-.1"/>
    <path class="cls-1" d="M33.36,39.98s.08.02.12.03h0s-.12-.03-.12-.03Z"/>
    <path class="cls-1" d="M35.09,30.49s0-.02,0-.02c-.05-.06-.03-.02,0,.02"/>
    <path class="cls-1" d="M35.22,33.37s-.09-.08-.11-.12c-.03.04-.05.08.11.12"/>
    <polygon class="cls-1" points="35.13 27.31 35.13 27.31 35.13 27.29 35.13 27.31"/>
    <path class="cls-1" d="M35.15,33.13c-.07.04-.06.08-.03.13.03-.04.07-.08.03-.13"/>
    <path class="cls-1" d="M33.06,42.74v.03s.02,0,.04,0l-.04-.03Z"/>
    <path class="cls-1" d="M33.09,42.78l.03.03s0-.03-.03-.03"/>
    <path class="cls-1" d="M33.2,42.88l-.08-.07s0,.06.08.07"/>
    <path class="cls-1" d="M33.19,41.89h-.1s.05,0,.1,0"/>
    <path class="cls-1" d="M33.17,41.63c-.03.06-.23.15-.17.24h.08c-.15-.04.25-.17.09-.24"/>
    <path class="cls-1" d="M34.51,40.7l-.1.19c.11-.02.26-.05.28.04.35-.21-.25.03-.18-.23"/>
    <path class="cls-1" d="M34.74,40.11c.03.11.16.02.22.04-.09-.08-.11-.1-.22-.04"/>
    <path class="cls-1" d="M35.73,35.7l.24.08c-.01-.09-.1-.03-.24-.08"/>
    <polygon class="cls-1" points="34.5 34.56 34.72 34.65 34.68 34.52 34.5 34.56"/>
    <polygon class="cls-1" points="36.57 34.46 36.6 34.51 36.54 34.34 36.57 34.46"/>
    <path class="cls-1" d="M37.67,26.66h-.32c.05.06.4.1.32,0"/>
    <path class="cls-1" d="M37.64,23.3c.16-.02.27-.11.12-.18-.03.07-.16.14-.12.18"/>
    <polygon class="cls-1" points="39.31 13.54 39.41 13.62 39.34 13.49 39.31 13.54"/>
  </g>
</svg>