<?xml version="1.0" encoding="UTF-8"?>
<svg id="Layer_2" data-name="Layer 2" xmlns="http://www.w3.org/2000/svg" xmlns:xlink="http://www.w3.org/1999/xlink" viewBox="0 0 346.8 557.58">
  <defs>
    <style>
      .cls-1 {
        fill: none;
      }

      .cls-2 {
        fill: #881d17;
      }

      .cls-3 {
        clip-path: url(#clippath);
      }
    </style>
    <clipPath id="clippath">
      <rect class="cls-1" y="0" width="346.8" height="557.58"/>
    </clipPath>
  </defs>
  <g id="Layer_1-2" data-name="Layer 1">
    <g class="cls-3">
      <path class="cls-2" d="M3.21,19.02c-.12-.05-.21-.11-.2-.13,0-.02.11-.02.24,0,.28.03.82.15,1.59.34-.86-.13,2.76.79,5,1.51-1.84-.55-4.18-1.09-6.63-1.73M290.83,44.09c-.98.91-1.9,1.86-2.86,2.79-.67.52-1.25.95-1.31.92-.02-.01,0-.05.03-.11,1.94-1.85,3.98-3.64,6.12-5.39l-1.98,1.79ZM263.78,80.42l-1.13,1.99c.84-1.98,1.74-3.95,2.72-5.9-.14.45-.56,1.51-1.59,3.92M264.13,232.94l1.99-4.94c-.05.38-.49,1.71-1.69,4.84-.13.15-.28.28-.3.1M.41,10.41c0-1.63-.01-3.01-.02-3.9,0,.81.01,1.94.02,3.9h0ZM346.76,551.81c-.02-.81-.03-1.6-.05-2.39-.03-1.58-.06-3.13-.09-4.68-.02-1.55-.05-3.1-.07-4.68,0-.39,0-.79-.01-1.19v-.6c-.01-.2,0-.38-.02-.67-.09-1.08-.7-2.1-1.63-2.69-.23-.15-.48-.27-.74-.37-.27-.1-.42-.14-.63-.2-.4-.13-.8-.25-1.21-.38-.81-.26-1.64-.52-2.49-.79-1.69-.54-3.45-1.11-5.3-1.75-3.82-1.33,2.24.55,3.57.88-7.52-2.35-14.73-4.79-21.65-7.35-6.91-2.57-13.55-5.25-19.83-8.25,1.05.69-1.26-.33-4.02-1.64-1.47-.79-3.11-1.59-4.35-2.33-1.02-.61-1.82-1.08-2.13-1.24.89.42.69.2-.04-.34-.79-.54-2.05-1.58-3.28-2.51-2.36-2-4.33-3.86-1.32-1.75-.67-.58-1.5-1.16-2.03-1.67-.55-.48-.91-.77-.81-.57-.92-.95-1.52-1.58-1.6-1.79-.09-.19.21.15,1.23,1.03-3.35-3.47-4.1-4.87-5.01-5.99-.72-1.24-1.62-2.28-3.2-6.38.05.02.8,1.62,1.26,2.4-1.94-3.94-3.43-8.31-3.74-15.8.09.45.11-.42.26,1.8-.44-6.4-.04-11.93.61-17.57.69-5.64,1.72-11.42,3.46-18.33-.26,2.1.05.92.48-.85.46-1.77,1.08-4.15,1.35-4.47.56-2.49,1.22-4.96,1.83-7.45l-.96,2.93c.84-3.25,1.64-6.32,2.4-9.27.18-.75.41-1.44.55-2.23l.22-1.15c.08-.38.06-.77.1-1.15.14-1.54-.08-3.05-.32-4.53.38,1.68.62,3.43.46,5.2.27-2.22-.06-4.45-.71-6.53-.65-2.08-1.61-4.04-2.74-5.86,1.23,2.1,2.24,4.35,2.8,6.74-.48-1.69-.92-2.4-1.08-2.77-.19-.35-.24-.3-.3-.33-.05-.02-.13-.11-.42-.71-.14-.3-.34-.72-.67-1.31-.3-.6-.75-1.34-1.35-2.3.5.77-.36-.7-1.81-2.57-.73-.93-1.59-1.97-2.45-2.91-.42-.48-.85-.92-1.24-1.34-.2-.21-.39-.4-.56-.59-.14-.15-.26-.32-.34-.48.32.46,1,.93,1.5,1.45.54.51,1.07,1.04,1.59,1.6-.82-.93-1.59-1.72-2.17-2.26-.28-.25-.5-.45-.66-.59-.13-.13-.21-.21-.26-.2h0c-.4-.6-.52-1.32-.27-2.14.19-.84.41-1.7.7-2.59.58-1.79,1.35-3.74,2.47-5.95.67-1.1-.08,1.11.36.39.56-1.56,2.3-4.98,4.48-8.5.56-1.11.38-2.52-.37-3.43-.42-.48-.71-.73-1.05-1.09-.33-.32-.61-.69-.91-1.01-1.14-1.35-2.02-2.63-2.64-3.46.8,1.12,1,1.07.8.67-.56-.71-1.1-1.45-1.63-2.19-1.42-2.75-1.53-3.2-1.18-2.81-1.02-2.09-1.41-2.99-1.58-3.27-.17-.29-.09.02-.03.28.06.26.1.47-.14-.03-.23-.5-.78-1.69-1.71-4.3.33.8.21.41.91,2.07-.25-.65-.49-1.29-.74-1.94-.11-.31-.25-.68-.33-.94-.07-.26-.1-.54-.06-.82.03-.28.12-.53.25-.8l.44-.94c.29-.62.6-1.24.85-1.88,1.09-2.51,1.94-5.06,2.73-7.6,1.57-5.07,2.76-10.12,3.92-15.13.5-1.45.06.76-.42,2.9-.48,2.14-.99,4.22-.42,2.57.86-3.62,1.61-7.33,2.3-11.07.34-1.87.66-3.75.97-5.63l.12-.71c.04-.3.06-.6.02-.9-.07-.6-.29-1.18-.65-1.65-.36-.48-.84-.86-1.39-1.08-.27-.12-.56-.19-.85-.23-.15-.02-.29-.02-.44-.03h-.36c-7.61.1-15.16.17-22.32.13l2.67.04c-.99.26-3.66.2-6.99.1-1.65-.05-3.47-.11-5.33-.16-1.72-.11-3.37-.99-4.42-2.3.51.65,1.01.91,1.25,1.02.25.12.29.08.1-.02-1.76-1.29-2.73-3.65-2.22-5.89l.1-.41c.01-.08.09-.24.15-.39l.36-.91c.24-.61.48-1.23.73-1.85.49-1.25.99-2.53,1.5-3.84,2.05-5.27,4.32-11.12,7.02-18.05l-.56,1.76c2.28-5.32,5.76-14.1,8.16-19.88.57-1.77,1.92-5.08.93-3.14,7.92-17.58,13.36-34.24,20.35-49.85-.76,1.9-1.71,4.56-1.1,3.05l5.33-13.55c-.64.98-.84,1.72-2.15,4.49.28-.88.78-2.28,1.38-3.88.3-.8.63-1.65.96-2.51.19-.41.31-.9.27-1.37-.01-.48-.21-.91-.37-1.33.78,1.51.23,2.5.22,2.69-.03.13,0,.13.06.03.05-.1.19-.29.29-.63.09-.32.15-.74.08-1.2-.08-.49-.26-.89-.4-1.33-.29-.87-.59-1.76-.82-2.43.1.47-.32-.41-.3-.16-2.28-7.26-.92-1.02-4.2-10.87l.3.48c-1.36-3.64-2.68-6.97-3.98-10.96-.3-1.73,1.43,3.88,1.74,4.06-1.92-5.56-4.15-10.86-5.46-16.03.78,2.37,1.9,5.79,2.73,8.15-1.45-5.53-1.74-6.22-2.89-10.18-.09-.33-.18-.65-.28-.98-.41-1.45-.8-2.9-1.19-4.35.21.81.41,1.54.58,2.2-.58-2.08-1.14-4.16-1.69-6.25.19.82.39,1.64.6,2.46-2.66-6.9-4.07-14.42-6.47-24.04,2.36,9.35.57,1.51,1.01,2.17-.21-1.25-.5-2.81-.67-3.94-.15-1.13-.23-1.81-.09-1.28-.26-1.14-.46-2.19-.65-3.23l-.13-.78-.06-.38-.02-.28c.02-.52.04-1.05.06-1.59.04-1.09.07-2.24.16-3.52.03-.64.05-1.32.08-2.04.04-.72.09-1.49.13-2.31.07-.29.64-4.94.74-3.86.4-2.99.36-2.64.11-1.62-.23,1.03-.49,2.75-.53,2.49.92-9.32,4.81-21.49,10.7-33.54,1.28-2.6,2.45-4.59,3.4-6.35,1.05-1.7,1.86-3.2,2.79-4.59.92-1.39,1.78-2.8,2.93-4.32.57-.77,1.14-1.6,1.84-2.48.46-.57.96-1.19,1.49-1.83.42-.49.84-.98,1.27-1.46.71-.69.3-.14-.33.68-.72.96-1.75,2.26-1.75,2.26,3.86-4.42,6.93-7.6,10.98-11.37-.77.82.13.09,1.45-.95,3.42-2.82,2-2.24,6.78-5.63-.74.7-1.67,1.59-3.29,2.98,4.05-3.29,8.21-6.35,12.83-9.18.68-.26-.03.15-1.04.86-1.02.69-2.38,1.62-3.17,2.16,1.28-.81,2.74-1.76,4.27-2.69,1.55-.88,3.13-1.82,4.62-2.65,1.51-.8,2.9-1.54,4.01-2.14,1.12-.59,1.98-1.01,2.38-1.27-.86.35-1.71.71-2.55,1.1.42-.13-.31.39-1.35.95-1.14.63-2.14,1.15-2.98,1.58-.83.46-1.53.83-2.1,1.11-1.13.56-1.75.79-1.91.82l3.34-1.94c-.93.36-2.25,1.02-3.8,1.86-1.52.9-3.27,1.99-5.07,3.21-3.58,2.49-7.37,5.49-10.33,8.01l1.88-2.01c12.92-10.36,29.42-18.71,50.07-23.51,1.22-.28,2.1-1.36,2.1-2.62v-.8c.15.38.29.94.44,1.06-.08.59-.32,1.5-1.33,2.27-.31.28-.68.52-1.09.67l-1,.43,1.15-.32c.48-.13.93-.37,1.31-.69.76-.64,1.21-1.63,1.19-2.61,0,0,0,0,0-.01.19-.74.37-3.01.52-8.56l-.07-2.15-.02-.54c0-.17-.02-.48-.07-.71-.09-.49-.28-.97-.56-1.38-.55-.83-1.43-1.42-2.39-1.59-.24-.04-.48-.06-.73-.06l-.55.02-1.08.04-2.77-.23h3.62s.45,0,.45,0c.15,0,.28,0,.52.01.43.03.85.12,1.25.29.79.34,1.46.94,1.88,1.69-.65-1.33-2.02-2.06-3.28-2.08-.92-.02-1.68,0-2.46.01-1.53.04-2.91.12-4.37.18-.69-.12-1.9-.2-3.61-.25l-8.45.45c-1.02-.18,3.79-.36-1.88-.46-3.96.21,3.8.41-2.76.54-4.12-.21-2.92-.38-7.75-.2-.68-.12.35-.2,2.26-.25-4.3.14-11.39.06-13.61.31-4.29-.26-14.53.07-14.1-.37-1.35.1-7.58.34-11.53.36,7.22-.53-14.8-.03-12.89-.6-5.34.47-19.31.21-28.77.47.53-.04,1.57-.11,2.4-.09-5.33-.04-6.88-.18-10.3-.27-.68.39-8.98.48-13.45.72-6.53-.38,3.97-.46,1.92-.82.33.32-11.35.32-9.13.58-5-.23-4.3-.11-6.88-.44-.88.49-4.65.08-8.79.38-7.23-.24-1.86-.46-9.8-.31C175.28.17,182.34,0,182.34,0c-8.09,0-3.8.36-5.51.57-9.65.1-4.47-.27-7.75-.46-6.03.1-10.65.44-15.14.42-.33-.06-1.21-.08-.18-.16-6.37.29-18.91.02-26.33.38-.55-.03-.83-.06-.97-.09,1.2.18,1.39.37,1.14.51-3.62,0-6.73.23-8.09,0,2.22,0,2.41-.09,3.45-.17l-3.8.1c-3.42-.35,5.18-.12,5.18-.38-7.41.11-16.04.4-21.71.3-1.19-.34,13.27-.11,5.7-.42l8.78.13c-6.71-.54,5.33.04-.83-.54-11.55-.1-12.92.17-24.45.07-2.6.19.86.28-1.74.47-16.38.34-12.9-.85-24.94-.4-3.12.23-4.33.65-12.9.43l2.92-.38c-11.19-.04-6.39.55-18.1.29,2.08-.15,8.79-.13,7.1-.17-7.59-.3-5.37.22-11.2.22l-1.21-.34c-5.96.06-12.21.12-18.63.18-1.61.02-3.22.04-4.84.06-.81,0-1.62.02-2.44.03h-1.22s-.61.02-.61.02c-.17,0-.52.01-.77.06-1.09.18-2.05.91-2.55,1.88-.25.49-.39,1.03-.4,1.58v1.26c.02,1.64.03,3.29.04,4.94-.1-.73-.21-2.99-.31.1,0,1.04.02,2.09.03,3.14,0,.53,0,1.06.01,1.59v.4c0,.15.01.37.04.55.05.38.16.74.32,1.09.32.69.85,1.27,1.5,1.65.32.19.68.34,1.04.43l.8.2c1.04.26,2.09.53,3.13.79,4.2,1.06,8.37,2.42,12.48,3.9,8.2,3,15.94,6.97,22.61,11.24,1.79.95,3.49,2.04,5.22,3.09,1.18.78,2.03,1.66.79.77,4.87,3.8.37.04,2.81,1.74,1.43,1.03,2.27,1.84,2.59,2.16.31.33.05.2-.84-.47,4.36,3.28,10.17,8.5,15.24,14.53,5.12,5.98,9.3,12.8,11.83,17.96l-1.13-1.94c1.03,1.99,1.88,3.52,2.55,4.86.35.66.68,1.27.98,1.84.29.58.57,1.14.84,1.69.55,1.1,1.1,2.17,1.62,3.5.27.66.55,1.37.85,2.16.29.8.56,1.69.87,2.68l-.57-1.49c3.22,9.19,5.3,19.34,5.67,29.01.02,1.19.07,2.45.06,3.55,0,.17-.06.5-.12.79l-.16.88c-.1.58-.21,1.16-.31,1.74-.39,2.31-.86,4.54-1.33,6.71-.94,4.33-1.97,8.36-3.01,11.95-.13,1.43-1.41,6.11-2.72,10.58-1.29,4.47-2.64,8.72-2.53,9.41-1.82,5.3-2.54,7.17-3.43,9.58-.89,2.41-1.97,5.36-4.69,12.76-1.45,3.95-1.79,6.03-3.59,10.92h-.33s-.56,1.68-.56,1.68c-.28.72-.33,1.65-.09,2.42.03.11.08.24.12.33l.09.2.18.4,1.11,2.42,1.07,3.64,1.9,4.51c-.71-1.82-1.42-3.9-1.23-3.65,1.49,3.52,3.19,7.86,4.5,11.35.65,1.74,1.21,3.28,1.6,4.39.39,1.11.61,1.8.59,1.86l7.01,16.68c-.2-.24-.89-1.83-1.62-3.52,2.6,6.02-.15.59,3.15,8.06-.38-1.13.41.53.54.69,1.48,4.16,5.23,13.47,8.08,20.33l-.73-1.24c4.97,12.46,10.67,26.19,16.3,40.16-1.93-5.05-1.12-4.03.56.05l.36,1.76c.15.31.26.52.27.49.03.06.04,0,.04-.03-.03-.14-.21-.64-.34-.99-.13-.37-.22-.65-.13-.51.04.07.14.25.29.58.08.16.17.37.28.61.03.06.06.12.09.19.02.05.03.07.05.14.04.13.08.27.13.43.25,1.22.03,2.06-.12,2.52-.14.47-.29.6-.3.52-.04-.15.26-1.21.02-2.5.13.91.02,1.85-.32,2.72-.36.86-.94,1.63-1.68,2.21-.16.06.02-.12.24-.35.21-.25.46-.57.51-.75-.3.46-.94,1.1-1.88,1.49-.47.21-1.01.33-1.59.37l-.44.02h-.56c-.38-.02-.77-.03-1.15-.03-3.11-.06-6.37-.11-8.39.07l-.39-.1c-7.53.02-12.99.04-18.12.05-.64,0-1.27,0-1.91.01h-.95s-.47,0-.47,0c-.18,0-.46,0-.69.06-1.93.27-3.5,2.08-3.44,4.09,0,.24.04.51.07.71l.09.49c.06.33.12.65.18.98.12.66.25,1.33.38,2.02.27,1.37.54,2.8.84,4.31.32.18,1.21,4.92,2.29,8.43,1,4.41,2.17,9.05,3.77,13.84.83,2.38,1.71,4.82,2.9,7.22.17.36.24.49.28.67.04.18.05.37.03.54-.01.09-.03.18-.06.26l-.15.42-.35.92c-.47,1.22-.98,2.45-1.52,3.67-1.48,3.46-1.76,3.93-1.7,3.99.04.05.34-.34-.39,1.19-.23.19-1.66,2.61-2.89,4.2-.62.79-1.14,1.41-1.32,1.55-.18.14.07-.11.84-1.22-.46.63-.94,1.19-1.4,1.72-.24.25-.48.5-.71.74-.09.1-.3.29-.45.49-.16.19-.3.4-.42.62-.48.87-.59,1.89-.36,2.79.1.44.34.91.53,1.21.16.26.32.52.48.77,1.26,2.04,2.32,3.92,3.35,5.93,1.02,2.01,2.04,4.15,2.98,6.78.24.65.46,1.34.67,2.06.09.35.19.7.29,1.06.05.24.04.51-.03.76-.07.26-.21.5-.4.71-.31.31-.63.63-.96.95-.67.68-1.35,1.42-2.03,2.22,1.28-1.31,2.78-2.7,2.09-1.89-1.06,1.09-2.23,2.36-3.08,3.34-.82.95-1.37,1.59-1.33,1.44-1.22,1.73-2.37,3.61-3.29,5.67-1.03,2.32-1.78,4.92-1.8,7.64.04.68.06,1.36.14,2.04.14.67.26,1.37.41,2.01.33,1.24.65,2.49.98,3.73.66,2.49,1.28,4.99,1.88,7.46,1.22,4.94,2.29,9.79,3.28,14.29.88,4.33,1.68,8.32,2.32,11.81.84,4.86,1.4,9.76,1.51,14.67-.07,6.92-.17-4.15-.35.97.02,4.03-.27,7.66-1.08,10.89-.09.41-.18.81-.27,1.21-.11.39-.24.77-.36,1.16-.25.76-.47,1.52-.74,2.25-.64,1.41-1.15,2.84-1.94,4.11-1.37,2.65-3.21,4.9-5.16,7.14-1.07,1.03-2.05,2.19-3.27,3.17-.59.51-1.18,1.03-1.78,1.56-.64.49-1.28.99-1.94,1.5-2.17,1.4-5.26,3.22-8.91,5.19-3.68,1.92-7.95,3.97-12.41,5.87-8.93,3.82-18.58,7.19-25.36,9.22l.83-.09c-3.42,1.31-4.23,1.29-6.81,2.1.41.02,3.82-1.09,1.69-.29-1.84.61-3.69,1.22-5.54,1.83l-2.79.91-.18.06-.25.09c-.16.07-.32.14-.47.23-.3.17-.58.39-.83.63-.49.5-.85,1.13-1.01,1.81-.08.32-.11.74-.11,1v.74s0,1.48,0,1.48v2.96c0,1.98,0,3.96,0,5.95v2.99s-.01.75-.01.75v.37c0,.16,0,.35.03.52.09.71.39,1.39.84,1.95.46.55,1.06.98,1.74,1.21.34.11.7.19,1.05.2.36.02.53,0,.81.01h3.01c4.01.04,8.03.06,12.06.09,16.11.12,32.33.23,48.24.35,11.64.05,6.6-.92,21.28-.49l-4.16.33c23.49-.4,48.03.01,71.02-.32-1.37.08-1.41.18-3.65.17,2.43.12,6.92.12,10.81.07,1.95-.03,3.74-.06,5.06-.11,1.32-.04,2.15-.1,2.17-.14,3.58.02.83.18,3.04.28,4.87.14,12.23-.31,14.82-.07.27.03-.33.05-1.03.07,4.19-.06,13.25.03,10.52-.22,8.63.13,16.51-.12,23.39.04,4.49-.31,14.77.15,16.2-.29-.62.45,15.13.36,20.59.15-1.83.14,4.74.14,2.61.33,6.23,0,11.93-.09,10.85-.32,11.47.54,23.06-.44,29.52.26,9.25-.11,18.15-.21,26.82-.31,4.34-.04,8.61-.08,12.85-.11h1.59s.79-.02.79-.02c.29,0,.69-.03,1.01-.13,1.37-.36,2.44-1.58,2.61-2.97.03-.17.03-.35.03-.51v-1.18s-.02-1.57-.02-1.57c0-1.04-.01-2.09-.02-3.12.11.15.17,1.37.2,3.12,0,.43.01.9.02,1.39,0,.24,0,.5,0,.75v.39c0,.13,0,.25,0,.46-.05,1.49-1.15,2.97-2.67,3.4-.37.12-.78.16-1.13.16-.27,0-.55,0-.82,0-.54,0-1.07,0-1.58,0-1.02.01-1.96.02-2.74.03-1.58.04-2.55.1-2.38.22,1.97-.03,3.84-.05,5.63-.08.45,0,.89-.01,1.33-.02h.68c.32-.03.63-.07.93-.16,1.22-.33,2.2-1.26,2.61-2.39.1-.28.18-.57.21-.87.04-.3.03-.61.03-.78,0-.41-.01-.81-.02-1.22"/>
    </g>
  </g>
</svg>